<?xml version="1.0" encoding="utf-8"?>
<!-- Generator: Adobe Illustrator 28.1.0, SVG Export Plug-In . SVG Version: 6.00 Build 0)  -->
<svg version="1.1" id="Layer_2_00000030446846392888917560000012680669043983399043_"
	 xmlns="http://www.w3.org/2000/svg" xmlns:xlink="http://www.w3.org/1999/xlink" x="0px" y="0px" viewBox="0 0 161.2 326.2"
	 style="enable-background:new 0 0 161.2 326.2;" xml:space="preserve">
<style type="text/css">
	.st0{fill:#B6C5DA;}
</style>
<path class="st0" d="M153.9,223.9c-2.8-4.2-5.8-8.3-11.2-11.9c-6.2-20.4-9.3-41.5-9-62.7c0.3-25.4,2.8-37.1,10.6-70.3
	c4.9-20.7,4.3-31.1,3.1-40.7c-0.9-7-4.3-15.1-10.8-15.2c-3.8,0-7,3.8-10.3,11.9c-4.3,10.7-7.4,19.4-9.9,26.3l-0.1,0.2
	c-1.7,4.6-3.1,8.7-4.5,12c-3.6,8.9-6.5,14.3-9.6,20c-1.5,2.9-3.1,5.8-4.8,9.1c-3.3-14-4.2-23.9-4.6-32c-0.4-9.4-0.3-21.3-0.1-32.7
	C92.9,31,93,23.6,93,17.5C92.9,7.9,92.7,3.9,87.9,0c-1.5-1.3-3.3-2-5.3-2c-2.5,0-5.1,1.1-7.3,3.3c-4.1,3.8-8.6,10.5-11.9,15.3
	c-0.5-0.1-1-0.2-1.6-0.2c-12.1,0-32.9,30.2-33.8,31.5c-19.1,27.9-19.1,56-19,80.8v0.2c0,8,0.4,13.1,0.9,18.9
	c0.6,6.7,1.2,15.1,1.5,31.4c0.3,15.7-0.1,30.4-0.5,40.3c-6.9,10.1-9.8,27-11.5,41.9C-3.3,284.6-2.8,295,5,307.8
	c6.5,10.6,15.2,20.4,34.3,20.4c0.1,0,0.1,0,0.2,0c1.2,0,2.5-0.1,4-0.1c5.5-0.4,11.9-1.6,21.1-8c4.3-3,8.2-6.6,11.6-9.8
	c2-1.9,5.7-5.3,7-5.9c0.8,0.4,2.7,2.2,4,3.5c3.5,3.4,8.2,8.1,15.1,10.5c1.5,0.5,7.3,2,14.2,2c4.5,0,8.5-0.6,12-1.9
	c23.5-8.5,33-25.5,34-38.5C165.2,248.6,159.3,232.2,153.9,223.9z M85.6,288.8v-0.6v-0.9c-0.1-2.7-0.3-5.4-0.6-8.1
	c0.8-0.1,1.7-0.3,2.4-0.5c3.8-1,8.3-3.8,9.6-8.5c0.1-0.2,0.1-0.4,0.1-0.6c0-0.8-0.5-1.5-1.2-1.8c-0.3-0.1-0.5-0.2-0.8-0.2
	c-0.5,0-1,0.2-1.4,0.6c-3.6,3.5-8.2,4.2-11.4,4.2c-2.7,0-5.7-0.5-8.4-1.5c-0.8-0.3-1.7-0.7-2.5-1l-0.6-0.3c-0.3-0.1-0.5-0.2-0.8-0.2
	c-0.6,0-1.2,0.3-1.6,0.7c-0.6,0.7-0.6,1.7-0.1,2.4c2.5,3.4,6.4,5.8,10.9,6.5c-1.2,6.3-0.8,13.1,1,19.2c-2.4,1.2-5.1,3.7-8.6,7
	c-3.2,3-6.9,6.4-10.8,9.1c-7.9,5.4-13.1,6.4-17.6,6.7c-1.3,0.1-2.6,0.1-3.8,0.1c-14.9,0-21.9-6.5-28.3-17c-6.8-11-7.1-20.5-4.6-41.9
	c1.1-9.9,4.6-40,16.7-44.3c0.7-0.2,1.4-0.4,2-0.4c1.5,0,3.1,0.7,5.1,1.5c3.3,1.4,7.4,3.2,13.5,3.2c1.7,0,3.4-0.1,5.3-0.4
	c8.7-1.3,13.1-2.8,21.2-7.5c0.9-0.5,1.7-1,2.4-1.5c1.6-1.1,3.2-2.2,4.5-2.2h0.2c1.8,0,3.2,0.8,5.5,2.2c1.5,0.9,3.3,2,5.6,2.9
	c1.8,0.7,3.4,1,5.2,1c2.9,0,5.4-1,8.1-2c2.9-1.1,6.6-2.5,12-3.1c0.5-0.1,1.3-0.1,2.1-0.1c4.6,0,11.5,0.8,17,3.1
	c8.5,3.5,11.9,8,15.2,13.1c4.7,7.4,9.9,22.4,7.6,51.9c-0.9,10.9-9.1,25.1-29.4,32.5c-2.7,1-6,1.5-9.7,1.5c-5.2,0-10-1-11.7-1.6
	c-5.5-1.9-9.4-5.8-12.6-9c-2.2-2.2-4.2-4.2-6.5-5.1C85.9,294.8,85.8,291.8,85.6,288.8z M69,21.4c2.6-4.4,7.4-11.5,11.1-15
	C81,5.5,82,5,82.6,5c0.2,0,0.4,0,0.8,0.3c1.9,1.6,2.4,2.4,2.5,12.2c0.1,5.7,0,12.4-0.1,19.4v1c-0.2,11-0.4,23.5,0.1,33.2
	c0.5,9.9,1.7,22.7,7,41.7c-1.3,3.1-2.8,6.6-4.3,10.6c-4.8,12.5-6.8,22.7-8.3,30.1c-0.8,4-1.8,8.9-2.6,10c-0.2-0.1-0.5-0.2-1-0.6
	c-7.8-5.6-18.7-32.4-21.8-62v-0.4c-1.1-10.4-3.4-32,4.6-47.6c0.6-1.1,1.2-2.4,1.9-3.6l0.4-0.7c3.5-6.5,7.5-13.9,8.1-20.2
	C70,27.5,70.1,24.3,69,21.4z M62.6,27.8c-0.4,4.9-4,11.6-7.3,17.5c-0.8,1.6-1.6,3-2.3,4.4c-8.9,17.4-6.5,40.4-5.3,51.5v0.4
	c3.5,33.4,15.3,60.3,24.7,67c1.8,1.3,3.5,1.9,5.2,1.9c0.5,0,1-0.1,1.5-0.2c5-1.2,6.1-6.9,7.8-15.5c1.4-7.2,3.4-17,8-29
	c5.6-14.6,9.6-21.9,13.4-29c3.2-5.9,6.2-11.5,9.9-20.7c1.3-3.2,2.7-7,4.3-11.4l0.4-1.2c2.5-6.9,5.6-15.5,9.8-26
	c1.8-4.6,3.4-6.7,4.1-7.4c1,0.6,2.9,3.7,3.6,8.9c1.1,9,1.6,18.7-3,38.2c-8,33.8-10.5,45.7-10.8,71.8c-0.2,19.8,2.3,39.5,7.5,58.5
	c-7.5-2.8-15.2-3.1-18.3-3.1c-1.2,0-2.3,0-2.9,0.1c-6.4,0.7-10.6,2.4-13.7,3.5c-2.3,0.9-4,1.5-5.5,1.5c-0.8,0-1.7-0.2-2.6-0.5
	c-1.6-0.6-3-1.5-4.4-2.3l-0.2-0.1c-2.6-1.6-5.3-3.2-9.1-3.2c-0.2,0-0.3,0-0.5,0c-3.3,0.1-6,2-8.2,3.4c-0.6,0.4-1.3,0.9-1.9,1.2
	c-7.4,4.3-10.9,5.5-18.7,6.6c-1.5,0.2-2.9,0.3-4.3,0.3c-4.7,0-7.8-1.3-10.8-2.6c-2.4-1-4.9-2.1-7.9-2.1c-1.5,0-2.9,0.3-4.3,0.8
	c-0.9,0.3-1.8,0.7-2.7,1.2c0.3-9.3,0.5-21.1,0.2-33.5c-0.3-16.3-1-24.9-1.6-31.8c-0.5-5.7-0.9-10.6-0.9-18.4v-0.3
	c0.1-23.4,0.1-50.3,18-76.3c12.6-18.3,24.5-28.5,27.9-28.5c0.1,0,0.1,0,0.1,0C62.3,23.7,62.8,25.9,62.6,27.8z"/>
</svg>
