<?xml version="1.0" encoding="utf-8"?>
<!-- Generator: Adobe Illustrator 28.1.0, SVG Export Plug-In . SVG Version: 6.00 Build 0)  -->
<svg version="1.1" id="Layer_2_00000131347068925245744180000010995770611169917359_"
	 xmlns="http://www.w3.org/2000/svg" xmlns:xlink="http://www.w3.org/1999/xlink" x="0px" y="0px" viewBox="0 0 149.1 287.4"
	 style="enable-background:new 0 0 149.1 287.4;" xml:space="preserve">
<style type="text/css">
	.st0{fill:#B6C5DA;}
</style>
<g>
	<path class="st0" d="M150.7,45.4c-1.4-8.8-8.9-15.5-25.6-28.6C107.4,2.9,97.6-2,87.7-2c-0.7,0-1.3,0-2,0.1c-4.1,0.3-6,1.3-8.1,2.3
		c-2,1-4.4,2.3-10.1,3.7C62.6,5.3,58.9,5.7,55.9,6c-4.8,0.5-8.6,1-13,4c-3.5,2.4-5.4,4.5-7,6.4c-1.7,2-3.1,3.7-6.6,5.7
		c-4.5,2.7-7.9,3.8-11.2,4.9c-3.8,1.3-7.8,2.6-12.2,6.2C-6.2,42.9-2,66.4,2.4,78.7c2.4,6.8,6.9,14.9,12.7,21.8
		c-0.2,22.1,2.1,36,4.1,48.2c0.3,1.6,0.5,3.2,0.8,4.8c2,12.7,4.8,25,8,39.3l0.6,2.8c1.1,4.7,2.2,9.6,3.3,14.9
		c2.1,9.7,5.5,28.5,4.6,46.5v0.4c-0.2,2.6-0.6,9.4,3.6,14.6c2.6,3.2,4.8,4.4,6.9,5.6c0.3,0.2,0.7,0.4,1,0.6
		c1.1,5.9,3.9,11.1,11,11.3c0.1,0,0.1,0,0.2,0c6,0,9.8-4.3,14.1-11.8c3.9-1.5,7.2-3.7,13.1-7.7c3.9-2.7,23.9-17.5,35.2-49.4
		c3.5-10,8.3-28.2,10.9-58.3l0.1-1.8c1.5-16.8,3-34.1,0.8-61.6C144.9,82.8,152.9,58.9,150.7,45.4z M49.9,230.6
		c0,0.2-0.1,1.2-0.2,2.4l-0.1,0.6c-0.6,6.4-2.2,21.3-2.3,33c0,0.9,0,1.8,0,2.8c-0.6-0.5-1.2-1.1-1.8-1.9c-2.5-3-2.2-7.7-2.1-9.7
		v-0.5c1.2-18.7-2.4-38.3-4.6-48.3c-1.4-6.2-2.6-11.8-3.9-17.6c-3.2-14.2-6-26.4-8-39c-0.3-1.6-0.5-3.2-0.8-4.9
		c-1.8-11.1-3.7-22.5-4-39.8c5.9,5.1,12.7,8.8,19.9,9.5c5.9,17.2,6.7,27.7,7.4,37.9c0.1,1,0.2,2.1,0.2,3.1v0.2
		C50.6,170.9,51.8,191.9,49.9,230.6z M68.3,272.3c-5.5,10.1-7.7,10.1-9,10.1h-0.2c-2.4,0-4.9-1.3-4.7-15.6
		c0.2-11.6,1.7-26.4,2.4-32.7l0.1-0.7c0.2-1.5,0.2-2.1,0.2-2.4c1.8-39,0.7-60.4-0.3-73.1v-0.5c-0.1-0.9-0.2-1.9-0.2-2.9
		c-0.8-10.2-1.6-20.7-7.1-37.5c5.1-0.7,9.2-2.5,13.1-4.2c4.7-2.1,9-4,15.1-4c0.8,0,1.6,0,2.5,0.1c6.3,0.5,9.4,2.2,12.7,3.9l0.1,0.1
		c1.8,1,3.8,2,6.3,2.8c-3.1,11.1-5.5,23-7.9,43.6c-1.2,10-1.4,16.6-1.6,23.5v0.2c-0.3,8.5-0.5,17.4-2.6,33.9
		C85.9,227.6,79.7,251.2,68.3,272.3z M125.7,159.8l-0.2,1.9c-2.7,30.9-7.7,48.7-10.5,56.5c-10.6,29.9-29,43.5-32.5,45.9
		c-1.3,0.9-2.4,1.7-3.5,2.3c8.9-19.3,13.9-39,15.1-48.6c2.1-16.9,2.4-25.9,2.6-34.6c0.2-6.8,0.4-13.2,1.5-23.1
		c2.4-20.6,4.8-32.3,7.9-43.2c0.2,0,0.4,0,0.6,0c6.6,0,13.6-3.5,20.2-10.3C128.3,129.4,127,144.8,125.7,159.8z M123,100.7
		c-3.9,4.2-9.9,9.3-16.3,9.3c-0.3,0-0.6,0-1,0c-4.3-0.3-6.6-1.6-9.6-3.2c-3.4-1.8-7.7-4.1-15.5-4.8c-1-0.1-2.1-0.1-3-0.1
		c-7.5,0-13,2.4-17.9,4.6c-4.6,2-9,4-14.9,4h-0.5C28.2,110.1,14,90.3,9,76.4c-3.9-11-7.1-31,1.2-37.6c3.5-2.8,6.6-3.8,10.1-5
		c3.3-1.1,7.4-2.5,12.6-5.6c4.4-2.7,6.5-5.1,8.3-7.2c1.5-1.8,2.8-3.3,5.6-5.2c3-2,5.6-2.3,9.9-2.8h0.2c3.1-0.4,7-0.8,12.2-2.1
		c6.5-1.6,9.5-3.1,11.7-4.2c1.8-0.9,2.8-1.4,5.3-1.6C86.6,5,87.1,5,87.6,5c8.2,0,16.9,4.5,33.1,17.3c16.5,12.9,22.1,18.2,23.1,24.2
		C146,60.3,135.9,86.7,123,100.7z"/>
	<path class="st0" d="M75,33c-7.6,0.1-14.6,3.3-18.9,8.8c-0.6,0.8-0.6,1.8,0.1,2.5c0.4,0.5,1,0.7,1.5,0.7c0.3,0,0.7-0.1,1-0.3
		C64.2,41.6,70,40,75.8,40c4.4,0,9,0.9,13.7,2.7c0.2,0.1,0.5,0.1,0.7,0.1c0.7,0,1.3-0.3,1.7-0.9c0.5-0.8,0.4-1.9-0.3-2.5
		C87.4,35.3,81.4,33,75,33z"/>
	<path class="st0" d="M35.2,43.4c0-1-0.7-1.9-1.7-2c-0.1,0-0.2,0-0.3,0c-0.9,0-1.6,0.6-1.9,1.4c-5.2,16.5,0.1,36,13,47.4
		c0.4,0.3,0.9,0.5,1.3,0.5c0.5,0,0.9-0.2,1.3-0.5c0.8-0.6,0.9-1.8,0.4-2.6C38.6,74,34.6,59.5,35.2,43.4z"/>
</g>
</svg>
