<?xml version="1.0" encoding="utf-8"?>
<!-- Generator: Adobe Illustrator 28.1.0, SVG Export Plug-In . SVG Version: 6.00 Build 0)  -->
<svg version="1.1" id="Layer_2_00000021085369385411915310000015398726277210535071_"
	 xmlns="http://www.w3.org/2000/svg" xmlns:xlink="http://www.w3.org/1999/xlink" x="0px" y="0px" viewBox="0 0 100.1 348.9"
	 style="enable-background:new 0 0 100.1 348.9;" xml:space="preserve">
<style type="text/css">
	.st0{fill:#B6C5DA;}
</style>
<path class="st0" d="M97.3,30.4c-3.6-5.2-9.6-7.8-15.9-10.7c-4-1.8-8.2-3.7-11.8-6.4c-2.9-2.1-5.2-4.3-7.4-6.5
	C57.6,2.4,53.3-1.8,45.8-2c-0.2,0-0.4,0-0.6,0c-7.7,0-11.7,4.1-16.4,8.8c-2.5,2.5-5.2,5.3-9.1,8.1c-4.4,3.2-7.5,5.3-9.8,6.8
	l-0.2,0.1c-5.3,3.5-6.7,4.5-9.3,9.6C-5.6,43.3,0.6,73,7.8,87.2c3.6,7.1,7.1,13.3,10.9,18.5c0,15.1,0.2,28.3,0.6,39.3
	c0.8,22.8,1.7,35.3,4,65.6l1,13.7c0.3,3.3,7.2,82.3,29.1,115.1c2.3,3.4,8.4,11.3,16.4,11.6c0.1,0,0.2,0,0.4,0c0.8,0,1.5-0.1,2.3-0.2
	c9.4-1.8,8-11.2,7.4-14.8l-0.1-1l-0.2-1.1c-0.9-5.4-2.3-13.5-2.4-21.6c-0.4-27.9,1.7-47.2,3.5-58.5l1.3-8.2
	c6.1-38.3,10.5-65.9,11.8-92.4c1-20.6,0-40.7-3.2-65.1c3.8-7.6,5.8-13.6,6.1-14.2l0.1-0.3C99.9,63.7,106.6,43.6,97.3,30.4z
	 M74.9,244.5l-1.3,8c-1.8,11.6-4,31.3-3.6,59.7c0.1,8.7,1.5,17.1,2.5,22.7l0.2,1c0,0.3,0.1,1,0.1,1c0.9,5.7,0.1,6.5-1.8,6.9
	c-0.3,0.1-0.6,0.1-0.9,0.1c-3.9,0-8.3-4.6-10.9-8.5c-20.6-30.9-27.6-108.5-27.9-111.8l-1-13.7c-2.3-30.2-3.2-42.6-4-65.3
	c-0.3-8.9-0.5-19.4-0.5-31.1c6.7,6.2,14.4,9.5,24.7,9.5c0.5,0,1.1,0,1.6,0c14.1-0.5,25.1-12.7,32.7-24.8c2.2,19.8,2.8,36.9,2,54.3
	C85.4,178.9,81,206.5,74.9,244.5z M90.1,71.1l-0.1,0.3c-0.6,1.8-15.6,44-38.2,44.7c-0.5,0-1,0-1.5,0c-15.1,0-23.9-7.8-36.2-32.2
	C7.9,71.9,2,43.8,6.7,34.6c1.8-3.5,2.1-3.7,7-6.9c2.2-1.4,5.4-3.6,10.2-7.1c4.3-3.1,7.3-6.1,9.9-8.8l0.1-0.1
	c4.2-4.2,6.5-6.6,11.2-6.6c0.1,0,0.1,0,0.2,0l0.4,0c4.7,0.1,7.4,2.8,11.6,6.9c2.3,2.2,4.9,4.8,8.2,7.2c4.2,3,8.7,5,13,7l0.1,0
	c5.4,2.4,10.5,4.7,13,8.4C98.9,44.8,92.9,62.6,90.1,71.1z"/>
</svg>
