<?xml version="1.0" encoding="utf-8"?>
<!-- Generator: Adobe Illustrator 28.1.0, SVG Export Plug-In . SVG Version: 6.00 Build 0)  -->
<svg version="1.1" id="Layer_2_00000042696269830101869720000002949235183384929695_"
	 xmlns="http://www.w3.org/2000/svg" xmlns:xlink="http://www.w3.org/1999/xlink" x="0px" y="0px" viewBox="0 0 99.6 337.8"
	 style="enable-background:new 0 0 99.6 337.8;" xml:space="preserve">
<style type="text/css">
	.st0{fill:#B6C5DA;}
</style>
<g>
	<path class="st0" d="M88.6,254.3c-1.1-1.9-2.2-3.9-3.3-5.8l-0.2-0.3c-2.5-4.5-4.9-8.9-7.5-12.9c1.9-19.7,2.4-34.4,2.2-66.5
		c0-8.2-1.9-64.3-4.9-85.2C74.8,83,68.1,24.5,51.5,3.8C49.9,1.8,45.7-2,41.2-2c-0.9,0-1.8,0.2-2.6,0.5c-3.9,1.4-6,4.6-6,9.2
		c0,0,0,0.1,0,0.1c0.1,1.7,0.2,3.6,0.3,5.6l0.1,0.9C34,31.1,35.8,59.4,30.2,83c-1.4,5.8-2.6,10.9-3.8,15.6l-0.5,2.2
		c-5.6,22.9-8.4,34.4-11.7,60.8c-2.9,22.6-3.8,44.1,0.5,80.7c-3.5,5.3-6.3,10.3-8.1,13.9C0.7,268-7.5,294,3.4,307.9
		c4.4,5.6,6.3,6.7,11.3,9.6l0.1,0.1c2.3,1.3,5.5,3.1,10.1,6c3.8,2.4,6.6,5.1,9.1,7.5c4.6,4.4,9,8.6,16.9,8.6c0,0,0,0,0,0
		c0.4,0,0.8,0,1.2,0c7.9-0.4,10.4-2.7,15.9-7.8l0.1-0.1c1.7-1.6,3.9-3.6,6.7-5.9c3.7-3.1,7.2-4.7,10.6-6.2c4.4-2,9-4,12.4-9.2
		C107.5,295.9,96.6,268.3,88.6,254.3z M50.9,332.8L50.9,332.8c-5.1,0-7.9-2.7-12.1-6.7c-2.7-2.6-5.8-5.6-10.2-8.4
		c-4.9-3.2-8.3-5-10.5-6.3c-4.8-2.7-5.7-3.3-9.3-7.8c-8.1-10.3-2.1-32.2,4-44.3c4.1-8.3,19.1-35.5,37.8-35.5h0.1
		c12.8,0.1,19.9,12.9,28.2,27.8c1.1,2.1,2.3,4.2,3.5,6.2c7.5,13.1,16.7,38,9.5,48.9c-2.3,3.5-5.3,4.8-9.5,6.7
		c-3.6,1.6-7.8,3.5-12.2,7.2c-2.9,2.4-5.1,4.5-6.9,6.1l-0.1,0.1c-5.2,4.8-6.2,5.7-11.6,5.9C51.5,332.8,51.2,332.8,50.9,332.8z
		 M39.9,13.8l-0.1-2.5c-0.1-1.4-0.2-2.7-0.2-3.9c0-1.8,0.6-2.1,1.4-2.4c0,0,0.1,0,0.2,0c1.3,0,3.7,1.7,4.9,3.1
		C61,27,67.8,83.9,67.9,84.5c3,20.7,4.8,76.2,4.9,84.4c0.1,27.5-0.2,42.1-1.5,58c-5.4-6-11.9-10-20.5-10.1h-0.1
		c-12,0-22.1,8-29.9,17.3c-3.2-31.5-2.3-51.1,0.3-71.6c3.3-26.1,6.1-37.5,11.6-60.1l0.3-1.3c1.2-4.9,2.5-10.3,4-16.4
		C42.8,60,41,31.1,39.9,13.8z"/>
	<path class="st0" d="M70.1,309.2c0.3,0.2,0.8,0.4,1.2,0.4c0.5,0,1-0.2,1.4-0.6c0.7-0.7,0.8-1.8,0.2-2.6c-2.4-3.4-5.2-6.3-8.2-8.6
		c-0.4-0.3-1-0.7-1.5-1c0.5-0.4,1-0.8,1.4-1.2c1.6-1.4,3.2-2.7,5-3.5c1.8-0.8,3.7-1.2,5.8-1.2c3.5,0,7.5,1.1,11.5,3.3
		c0.3,0.2,0.6,0.2,0.9,0.2c0.7,0,1.3-0.3,1.7-0.9c0.6-0.9,0.4-2-0.4-2.7C84.5,287,79,285,73.8,285c-2.3,0-4.5,0.4-6.5,1.1
		c-2.7,0.9-5,2.7-7.1,4.3c-0.8,0.6-1.5,1.2-2.2,1.7c-1.4,1-2.8,1.5-4.2,1.5c-3.3,0-6.5-2.7-9.6-5.7c-2.7-2.3-5.9-4.9-9.8-6.1
		c-2.6-0.8-5.5-1.2-8.3-1.2c-5.2,0-10,1.3-13.6,3.7c-0.1,0.1-0.3,0.2-0.4,0.3l0,0c-0.7,0.7-0.8,1.9-0.1,2.7c0.4,0.5,1,0.7,1.6,0.7
		c0.3,0,0.6-0.1,0.9-0.2c2.5-1.1,5.6-1.7,8.9-1.7c5,0,9.8,1.4,12.9,3.7c1.4,1,2.7,2.3,4.1,3.6c1.7,1.6,3.4,3.2,5.4,4.5
		c-3.9,3.4-8,6.2-12.9,9.4c-0.1,0.1-0.3,0.2-0.4,0.3l0,0c-0.7,0.7-0.8,1.9-0.2,2.7c0.4,0.5,1,0.8,1.6,0.8c0.2,0,0.4,0,0.5-0.1
		c5.5-1.4,10.9-4.1,15.7-7.9c0.4-0.3,0.8-0.6,1.2-1c0.8-0.7,1.6-1.3,2.2-1.5c0.4-0.1,0.8-0.2,1.2-0.2c2.2,0,4.5,1.3,6.6,2.4
		c2.3,1.3,4.4,2.9,6.7,4.5C68.6,308.1,69.4,308.6,70.1,309.2z"/>
</g>
</svg>
