<?xml version="1.0" encoding="utf-8"?>
<!-- Generator: Adobe Illustrator 28.1.0, SVG Export Plug-In . SVG Version: 6.00 Build 0)  -->
<svg version="1.1" id="Layer_2_00000086650353351267872890000001517763355767458492_"
	 xmlns="http://www.w3.org/2000/svg" xmlns:xlink="http://www.w3.org/1999/xlink" x="0px" y="0px" viewBox="0 0 103.6 328.9"
	 style="enable-background:new 0 0 103.6 328.9;" xml:space="preserve">
<style type="text/css">
	.st0{fill:#B6C5DA;}
</style>
<g>
	<path class="st0" d="M101.3,18.2C99.5,6,86.2-0.4,73.8-1.4l-0.9-0.1C69.3-1.7,65.2-2,60.7-2C47.6-2,36.3,0.8,26.3,6.5
		c-0.5,0.3-1.2,0.7-1.9,1c-6,3.1-17.1,9-23,22.7c-6,14-3.2,28.1,1.4,46.5c1.5,6.1,6.7,20.1,16.4,35.7c1.9,25.8,6.6,47,10.5,64.1v0.2
		c2.5,11.1,4.6,20.6,5.5,29c2,19.2,2.1,27.9,2.5,45.2c0.1,7,0.3,15.4,0.6,25.8c0.4,14.7,0.8,29.6,0.9,44.5v0.1
		c0.6,7.8,5.9,9.1,8.1,9.4c0.2,0,0.4,0,0.7,0c0.1,0,0.2,0,0.3,0c5.3,0,9.5-4.5,11.1-7.2c19.2-31.9,27.7-79.9,31.3-100.4
		c0.3-1.6,0.5-3,0.7-4.2c4.6-25.6,6.4-50.2,7.7-105.1C107.2,85.3,107.5,60,101.3,18.2z M48.5,323.9c-0.1,0-0.2,0-0.2,0
		c-0.7-0.1-1.6-0.2-1.8-2.8c-0.2-14.9-0.5-29.8-0.9-44.5c-0.3-10.3-0.5-18.4-0.6-25v-1c-0.4-16.9-0.6-26.2-2.5-45.5
		c-0.9-8.8-3.1-18.5-5.6-29.8v-0.2c-3.2-14-6.9-30.9-9.2-50.6c4.9,6.6,10.6,13.2,17.2,19.4c7.1,6.7,17.3,7.4,20.6,7.4
		c0.1,0,0.1,0,0.2,0c0.9,0,1.7,0,2.4-0.1c10.1-0.9,18.4-6.6,23.9-16.3c-1.5,40.2-3.4,61.3-7.3,83c-0.2,1.2-0.5,2.6-0.7,4.2
		c-3.5,20.1-11.8,67.2-30.3,98C52.7,321.7,50.4,323.9,48.5,323.9z M72.4,5.5l0.9,0.1c9.6,0.7,19.9,5.2,21.1,13.6
		c6.8,46.2,5.6,71.5-5.2,104.2c-5.3,16-14.8,20.1-21.9,20.7c-0.6,0-1.2,0.1-1.8,0.1c-2.4,0-10.5-0.4-15.9-5.5
		C23.9,114.6,12.1,84.6,9.6,75C5.3,58,2.7,45.1,7.9,33.1c4.9-11.5,14.6-16.6,19.8-19.3c0.8-0.4,1.6-0.8,2.2-1.2
		c8.9-5.1,19-7.6,31-7.6C65.3,5,69.4,5.3,72.4,5.5z"/>
	<path class="st0" d="M16.9,41.4c-1.1,0-1.9,0.8-2,1.9c-1.6,32.5,18.8,62.6,49.6,73l1.1,0.4c0.2,0.1,0.4,0.1,0.7,0.1
		c0.7,0,1.3-0.3,1.7-0.9l0.6-1C81.4,94.4,89.1,71,90.7,47.2c0.5-8.2,0.4-16.3-0.4-23.8c-0.1-1-1-1.8-2-1.8h-0.1
		c-1.1,0.1-1.9,1-1.9,2c0.1,8.2-0.2,15.8-1.1,23.1C83.4,62,79.4,76.9,73.3,90.9c-2.6,6.1-5.7,12.1-9.2,17.9
		C37.4,98.6,19.8,73.1,18.9,43.4C18.9,42.3,18,41.4,16.9,41.4z"/>
</g>
</svg>
