<?xml version="1.0" encoding="utf-8"?>
<!-- Generator: Adobe Illustrator 28.1.0, SVG Export Plug-In . SVG Version: 6.00 Build 0)  -->
<svg version="1.1" id="Layer_2_00000179608647699436276870000009684980834512992923_"
	 xmlns="http://www.w3.org/2000/svg" xmlns:xlink="http://www.w3.org/1999/xlink" x="0px" y="0px" viewBox="0 0 109.7 325.3"
	 style="enable-background:new 0 0 109.7 325.3;" xml:space="preserve">
<style type="text/css">
	.st0{fill:#B6C5DA;}
</style>
<path class="st0" d="M99.7,244.7c-3-5.4-7.3-13.3-12.9-20.6c2-50.3,1.9-73.4-2.3-101.7c-0.9-5.9-2.2-12.1-3.3-17.6v-0.2
	c-2.5-12.2-5.3-26-6.6-44.1C73.3,40.7,73.5,22.4,75.2,9c0-0.1,0-0.2,0-0.3c0.3-5.7-1.7-8.3-3.5-9.5C70.4-1.6,68.9-2,67.3-2
	c-4.1,0-8.7,2.7-10.6,4.5C34.9,22.4,25.1,71,24.7,73.1c-0.4,2.3-0.9,4.6-1.5,7.1c-2.2,9.9-5.2,23.4-7.3,57
	c-0.9,14.5-0.7,26.5-0.5,39.2v0.1c0.1,3.4,0.1,6.8,0.2,10.4l0.1,4c0.2,13.7,0.3,29.1,0.9,37.4c-2.3,3.4-4.6,7.2-6.8,11.4
	c-0.2,0.4-20.6,38.6-7.4,58.5c3.6,5.5,9.4,8.2,15.5,11.1c2.6,1.2,5,2.4,7.3,3.7c3.7,2.1,6.8,4.1,9.5,5.8l0.5,0.3
	c7.2,4.6,12.4,7.9,19,8.1c0.2,0,0.5,0,0.7,0c6.4,0,10.8-3.1,17.3-7.8l0.3-0.2c2.8-2,6-4.2,10.1-6.8c3.2-2.1,6.4-3.9,9.1-5.5l0.3-0.1
	c7.2-4.2,12.9-7.5,15.9-12.2C118.2,278.3,104.7,253.9,99.7,244.7z M68.2,8.3c-1.8,13.9-2,32.6-0.6,52.7c1.3,18.8,4.2,32.8,6.7,45.2
	c1.2,6,2.4,11.7,3.2,17.2c3.9,26.3,4.2,48.1,2.5,92.9c-7.2-7.2-15.9-12.6-26.1-12.6c-0.4,0-0.7,0-1.1,0c-10.8,0.4-20.6,5.7-29.6,16
	c-0.3-8.6-0.5-20-0.6-29.7v-3.1c0-3.6-0.1-7-0.2-10.4v-0.4c-0.2-12.5-0.4-24.3,0.5-38.4c2-33,5-46.3,7.1-55.9l0.1-0.6
	c0.5-2.5,1-4.6,1.4-6.8c0.4-2,10.3-48.8,29.9-66.7C62.7,6.5,65.6,5,67.3,5c0.2,0,0.4,0,0.4,0C67.9,5.2,68.3,6.1,68.2,8.3z M53,210.7
	c0.1,0,0.2,0,0.2,0c0.2,0,0.3,0,0.5,0h0.1c19.1,0,33,25.2,39.7,37.3c4.5,8.3,16.5,30.1,8.5,43c-2,3.3-7.1,6.2-13.5,9.9
	c-2.9,1.7-6.1,3.6-9.6,5.7c-4.4,2.8-8,5.4-10.7,7.3c-6,4.3-9,6.4-13.2,6.4c-0.2,0-0.3,0-0.5,0c-4.8-0.2-9.1-2.9-15.6-7.1
	c-2.9-1.9-6.2-4-10.2-6.3c-2.7-1.5-5.3-2.8-7.8-4c-5.4-2.6-10.2-4.8-12.7-8.7c-8.9-13.4,2.9-42.2,7.7-51.3
	C27.2,221.8,39.3,211.2,53,210.7z"/>
</svg>
