<?xml version="1.0" encoding="utf-8"?>
<!-- Generator: Adobe Illustrator 28.1.0, SVG Export Plug-In . SVG Version: 6.00 Build 0)  -->
<svg version="1.1" id="Layer_2_00000072983950638392808450000017056870160979681165_"
	 xmlns="http://www.w3.org/2000/svg" xmlns:xlink="http://www.w3.org/1999/xlink" x="0px" y="0px" viewBox="0 0 80 313.4"
	 style="enable-background:new 0 0 80 313.4;" xml:space="preserve">
<style type="text/css">
	.st0{fill:#B6C5DA;}
</style>
<path class="st0" d="M76.1,5.8C71.2-1.1,58.8-2,49.8-2c-2.3,0-4.4,0.1-6.4,0.1l-0.2,0c-1.3,0-2.3,0.1-3.2,0.1c-0.4,0-0.7,0-0.9,0
	C37-1.9,34.7-2,32.6-2C23-2,10.3-0.6,3.8,6.3c-9.5,10-5.2,70.3-0.6,89.9c1.1,4.5,2.6,9.7,4.6,15.1c0.2,16.7,1,28.5,1.9,40.9l0,0.4
	c0.8,11.6,1.7,23.7,2.1,41c1.1,46.2,2.9,79.2,7.9,101.4c0,0,0.1,0.2,0.1,0.2c0.1,0.3,0.2,0.6,0.3,1l0.1,0.3
	c1.6,6,4.9,18.6,14.9,18.9c0.1,0,0.1,0,0.2,0c8.5,0,12.1-12.8,13.4-20.4c8.3-46.6,14.3-100.2,14.5-102.5c0.3-2.8,0.6-5.6,0.9-8.2
	l0-0.4c1.9-16.4,3.6-30.6,4.2-60c0.6-1.2,1.2-2.4,1.8-3.5c9.5-19,11.3-51.1,11.7-64.1C82.4,36.7,80.8,12.6,76.1,5.8z M35.2,308.4
	c-4.7-0.1-7.2-9.6-8.3-13.7l-0.4-1.4c-4.9-21.6-6.6-54.3-7.7-100c-0.4-17.5-1.3-29.6-2.1-41.4c-0.6-8.1-1.1-16-1.5-25.2
	c6.4,10.8,14.9,19.3,25.5,19.3c0.1,0,0.1,0,0.2,0c8.5-0.1,15.1-4.9,20.2-11.1c-0.7,21.7-2.2,34.1-3.8,48.1L57,185
	c-0.2,2.2-0.5,4.4-0.8,6.8c-0.6,5.7-6.3,56.7-14.4,102C40.2,302.8,37.1,308.4,35.2,308.4z M61.8,121.3c-0.1,0.1-0.2,0.2-0.2,0.4
	c-6.7,11.8-13.3,17.4-20.8,17.4h-0.1c-10.8,0-20.1-14.7-25.9-29.4c0,0,0-0.1,0-0.1c0-0.6-0.2-1.1-0.6-1.4c-1.8-4.8-3.2-9.5-4.2-13.6
	C4.4,71.2,2.8,17.4,8.8,11.1C12.5,7.2,21.2,5,32.5,5c2,0,4.1,0.1,6.2,0.2c0.4,0,0.9,0,1.4,0c0.9,0,2,0,3.4-0.1l0.1,0
	c1.6,0,3.8-0.1,6.1-0.1c14.3,0,19.1,2.6,20.6,4.8c6.6,9.5,7.3,80-6.4,107.4C63.2,118.7,62.5,120,61.8,121.3z"/>
</svg>
