<?xml version="1.0" encoding="utf-8"?>
<!-- Generator: Adobe Illustrator 28.1.0, SVG Export Plug-In . SVG Version: 6.00 Build 0)  -->
<svg version="1.1" id="Layer_2_00000045590595497159170330000005544080356680408762_"
	 xmlns="http://www.w3.org/2000/svg" xmlns:xlink="http://www.w3.org/1999/xlink" x="0px" y="0px" viewBox="0 0 108.1 322.5"
	 style="enable-background:new 0 0 108.1 322.5;" xml:space="preserve">
<style type="text/css">
	.st0{fill:#B6C5DA;}
</style>
<path class="st0" d="M97.5,226.7c-1.9-3.9-3.9-7.8-6-11.5c-0.1-56.3-7.9-96.2-16.4-130.9c0-0.1-0.1-0.3-0.1-0.4
	c-0.8-3-6.5-23.6-16.5-44.1C60.3,21.4,59,1,50.2-1.8C49.7-1.9,49.1-2,48.6-2c-3,0-6,2.4-7.9,6.3c-0.9,1.9-1.5,3.3-2.1,4.8
	c-2.4-2.6-4.9-4.9-7.6-6.8C29.8,1.5,27,0,24.1,0c-1.4,0-2.8,0.3-3.9,1c-3.1,1.9-4.5,6.1-3.9,11.8v0.3c4.6,23.1,6.1,46,4.6,68.2
	c-1.1,16.1-3,27.4-5,39.6v0.1c-1.9,11.4-3.8,23.2-5.1,39.3c-2.1,26.3-1.8,49.7,1,66.2c-1.7,3.5-3.3,7.1-4.8,11.1
	c-4.8,11.9-14.7,41.1-4.3,55c4.3,5.8,9.6,8.4,14.7,10.8c3.9,1.9,7.9,3.8,12,7.4c0.5,0.4,2.3,2,2.3,2c7.6,6.6,13.6,11.8,22.5,11.8
	c7.2,0,11.4-3.4,17.2-8c3-2.4,6.6-5.3,11.6-8.5c4.3-2.7,7.7-4.6,10.4-6.2l0.2-0.1c5-2.8,8.6-4.8,12.3-9
	C118.8,277.8,97.8,227.2,97.5,226.7z M46.9,7.3c0.5-1.1,1.1-1.7,1.5-2.1c1.4,1.5,4,8.4,3.8,22.7c-2.6-4.5-5.4-8.8-8.5-12.7
	C44.9,12,45.6,10.3,46.9,7.3z M54.1,317.5c-6.2,0-10.6-3.8-17.9-10.1c-0.8-0.6-1.5-1.3-2.4-2c-4.8-4.1-9.4-6.4-13.5-8.4
	c-4.9-2.4-8.8-4.3-12.2-8.7c-6.8-9-1.4-31.6,5.2-48.1c11.4-28.4,24.6-43.3,39.3-44.3c0.6,0,1.4-0.1,2.1-0.1c0.1,0,0.1,0,0.2,0
	c18.6,0.1,28.5,17.6,36.3,33.9c4.1,8.5,17.3,49.2,9.4,58.3c-2.9,3.3-5.6,4.8-10.4,7.5l-0.2,0.1c-2.8,1.6-6.3,3.6-10.8,6.4
	c-5.3,3.4-9.1,6.5-12.3,9C61.7,315.2,58.8,317.5,54.1,317.5z M22.8,121.9c2-12.2,4-23.7,5.1-40.2C29.5,59,28,35.5,23.3,11.8
	C23,9,23.5,7.2,23.8,6.9c0,0,0.1,0,0.3,0c1,0,2.3,0.6,2.8,1c25.8,18.8,41.4,77.4,41.5,78c7.8,32.1,15.1,68.6,16.1,118.6
	c-7.4-9.4-16.8-15.8-29.7-15.8c-0.8,0-1.7,0-2.6,0.1c-12.9,0.8-24.6,9.9-34.8,27c-1.5-14.9-1.4-34,0.3-55
	c1.3-15.8,3.2-27.4,5.1-38.7V121.9z"/>
</svg>
