<?xml version="1.0" encoding="utf-8"?>
<!-- Generator: Adobe Illustrator 28.1.0, SVG Export Plug-In . SVG Version: 6.00 Build 0)  -->
<svg version="1.1" id="Layer_2_00000181768375879185766420000007841072842114869676_"
	 xmlns="http://www.w3.org/2000/svg" xmlns:xlink="http://www.w3.org/1999/xlink" x="0px" y="0px" viewBox="0 0 161.1 324.4"
	 style="enable-background:new 0 0 161.1 324.4;" xml:space="preserve">
<style type="text/css">
	.st0{fill:#B6C5DA;}
</style>
<path class="st0" d="M141.2,118.4c0.4-1.3,0.7-2.6,1.1-4c0.7-0.5,1.3-1,2-1.5c15.3-11.8,21.3-31.8,17.8-59.4
	c-2.2-17-13.8-31.2-29-35.4c-3.6-1-6.7-1.4-9.7-1.4c-2.2,0-4.1,0.3-5.8,0.5c-1.7,0.2-3.2,0.5-5.1,0.5c-0.9,0-1.9-0.1-2.9-0.2
	c-4.4-0.5-6.8-2.7-10-5.7c-4.7-4.5-10.5-10-24.1-12.4c-3-0.5-9.3-1.4-17-1.4C51-2,43.8-1.2,37.1,0.5C21.1,4.5,9.3,13.2,3,25.6
	c-8.6,16.8-4.2,35.7-1.1,49.5c0.3,1.2,0.5,2.3,0.8,3.4c1.8,8.1,4.4,16.6,9.7,23.6C6.9,150.9,8.2,175.3,9.8,206
	c0.8,15.5,4.4,54.1,19.6,77.1c9.1,13.7,16.8,19.6,19.6,21.4c3.7,2.4,8.5,3.8,13.1,4c3.8,6.7,9.8,15.8,16.9,17.5
	c0.8,0.2,1.6,0.3,2.4,0.3c0.1,0,0.3,0,0.4,0c2-0.1,3.7-0.8,5.2-2c2.2-1.9,3.4-4.9,3.1-8.1c-0.8-13.7-0.2-25.6,0.8-42.1
	c0.9-14.6,2.9-29.7,6-45c0.1,0.3,0.3,0.7,0.4,1.1c3.5,8.6,7,15.3,10.4,21.7c2.6,4.9,5.2,10,8,16.1c3.1,7,7,15.7,11.7,27.2
	c0.6,1.5,2.9,6.2,7.7,6.7c0.4,0,0.7,0.1,1.1,0.1c0.1,0,0.2,0,0.3,0c3.7-0.1,6.4-2.1,7.9-5.8v-0.1c1.2-3.7,2.6-9.8,2.4-18.4
	c-0.3-15.2-3.2-27.1-4.9-34.2c-0.4-1.6-0.7-2.8-0.9-3.8c-8.9-44.4-7-84.2-4.8-99C137.4,132.4,138.9,126.8,141.2,118.4z M137.7,293.8
	c-0.4,1.2-0.8,1.2-1.5,1.2c-0.1,0-0.3,0-0.5,0c-0.4,0-1.3-0.9-1.9-2.3c-4.8-11.7-8.7-20.5-11.8-27.5c-2.8-6.3-5.6-11.7-8.2-16.5
	c-3.4-6.6-6.7-12.9-10.1-21.1c-2.6-6.2-3.7-9.5-3.9-11.9c2.9-11.9,6.4-23.8,10.5-35.9l0.7-2.1c5.2-15.1,9.7-28.5,19.8-47.1
	c-0.6,2.9-1.2,5.8-1.7,9.3c-2.3,15.3-4.2,56.1,4.9,101.4c0.3,1,0.7,2.4,1,3.9c1.6,6.8,4.4,18.2,4.7,32.7
	C139.9,285.4,138.7,290.8,137.7,293.8z M83.1,316.7c0.1,1-0.2,1.8-0.7,2.3c-0.3,0.2-0.6,0.3-1,0.3c-0.2,0-0.5,0-0.7-0.1
	c-5.3-1.3-11.5-12.5-14.2-17.4l-0.5-0.9c-18.5-33.4-21.2-81.7-22.6-107.8l-0.1-2.8c-1.4-24.6-0.9-47.3,1.6-73.3
	c4,0,7.9-0.4,12.1-0.9c4.6-0.5,9.3-1,14.9-1c4,0,7.9,0.3,11.9,0.9c6.5,0.9,11.3,2.4,15.5,3.7c5.4,1.7,10.4,3.3,17.5,3.3
	c2.1,0,4.3-0.1,6.5-0.4c0.6-0.1,2.3-0.3,4.6-1c-12.5,22.1-17.5,36.9-23.3,53.7l-0.7,2.1c-4.2,12.3-7.7,24.4-10.7,36.4
	c-0.2,0.3-0.3,0.7-0.3,1.1v0.1c-4.8,20.1-7.8,39.7-9,58.7C82.9,290.4,82.3,302.5,83.1,316.7z M18.6,108.7c3.3,2.6,7.4,4.9,12.3,6.4
	c2.3,0.7,4.5,1.3,6.8,1.6c-2.5,26.3-3,49.3-1.6,74.2l0.2,2.8c1.4,25.7,4,72.7,21.6,107.3c-1.6-0.4-3.4-1.1-5.1-2.2
	c-2.4-1.7-9.1-6.8-17.6-19.5c-14.3-21.5-17.7-58.7-18.5-73.6v-0.1C15.2,176.5,13.9,153.1,18.6,108.7z M74.3,6.3
	c11.6,2,16.2,6.3,20.6,10.5c2.4,2.3,4.9,4.6,8.4,6.1c-2.4,7.7-3.1,16.3-2,24.6C94,44,85.8,42.2,77.6,42.2c-5.4,0-10.7,0.8-15.7,2.4
	c-1,0.3-1.6,1.3-1.4,2.3c0.2,0.9,1,1.6,2,1.6c0.1,0,0.2,0,0.2,0c2.9-0.3,5.8-0.5,8.6-0.5c12.3,0,23.7,3.2,33,9.2l3.3,2.1
	c0.3,0.2,0.7,0.3,1,0.3c0.4,0,0.9-0.1,1.2-0.4c0.7-0.5,0.9-1.4,0.7-2.2c-1.1-3.8-2.3-7.8-2.9-11.6c-1.1-6.8-1.2-13.9-0.1-21.2
	c0.4,0.1,0.9,0.1,1.3,0.2c1.3,0.1,2.4,0.2,3.6,0.2c2.4,0,4.4-0.3,6.1-0.5c1.6-0.2,3-0.4,4.8-0.4c2.3,0,4.8,0.4,7.8,1.2
	c12.3,3.3,22.1,15.4,23.9,29.5c3.2,25-1.9,42.8-15.1,53c-9.6,7.4-17.4,8.3-17.8,8.4c-2,0.2-3.9,0.4-5.7,0.4c-6,0-10.1-1.3-15.4-2.9
	h-0.1c-4.4-1.4-9.4-2.9-16.4-3.9c-4.2-0.6-8.4-0.9-12.7-0.9c-0.1,0-0.1,0-0.2,0c-5.9,0-11.1,0.6-15.7,1.1c-3.9,0.4-7.6,0.8-11.3,0.8
	c-4.2,0-7.9-0.6-11.7-1.8C17.3,103.3,12.3,89.7,9.5,77c-0.2-0.9-0.4-1.9-0.6-2.9l-0.1-0.5c-3-12.8-7-30.2,0.4-44.8
	C19.7,8.1,44.8,5,58.8,5C64.1,5,69.5,5.4,74.3,6.3z"/>
</svg>
