<?xml version="1.0" encoding="utf-8"?>
<!-- Generator: Adobe Illustrator 28.1.0, SVG Export Plug-In . SVG Version: 6.00 Build 0)  -->
<svg version="1.1" id="Layer_2_00000139256574485723109530000007612286835322064540_"
	 xmlns="http://www.w3.org/2000/svg" xmlns:xlink="http://www.w3.org/1999/xlink" x="0px" y="0px" viewBox="0 0 101 337"
	 style="enable-background:new 0 0 101 337;" xml:space="preserve">
<style type="text/css">
	.st0{fill:#B6C5DA;}
</style>
<path class="st0" d="M95.6,229.7c-1.3-4.4-3.7-10.2-7.1-16.2c0-1.4,0-2.9,0-4.4c0.1-11.5,0.2-23.5-2.8-45.1c-2.4-17-4.7-29.3-7-41.3
	c-2.5-13-4.8-25.3-6.5-40.9c-1-9.7-3.2-35.8-0.7-70.2v-0.2c0-2.5,0.1-10-7.3-12.7C63.2-1.8,62-2,60.8-2c-4.1,0-8.2,2.4-9.7,4.6
	c-15.9,24.1-26.4,88-26.8,90.6l-0.2,0.9C15.4,140.6,12.8,184,12,212.4c-2.2,4.7-4,9.2-5.5,12.9c-5.8,14.7-9,38.1-8.5,62.6
	c0.2,9.1,1.4,39.2,9.9,45.6c4.8,3.6,11.8,5.5,20.8,5.5c0.1,0,0.1,0,0.2,0c19.4,0,42.1-8.5,42.3-8.5c0,0,1.3-0.5,1.7-0.7
	c10.4-4,26.1-9.9,28.3-25.7C105.8,271.4,100.6,247.2,95.6,229.7z M13.2,227.9c5.1-12.9,14.6-36.9,32.6-37.8c0.4,0,0.9,0,1.3,0
	c22.6,0,37.9,28,41.8,41.6c4.8,16.7,9.7,40.1,5.5,71.5c-1.6,11.7-14.5,16.5-23.8,20.1c-0.6,0.2-1.2,0.4-1.7,0.7
	c-8.4,3.2-26,8.1-39.8,8.1c-7.5,0-13.2-1.4-16.8-4.1C4.7,322.3,0.6,259.8,13.2,227.9z M56.9,6.6C57.2,6.1,59.1,5,60.8,5
	c0.4,0,0.7,0.1,1,0.2c1.3,0.5,2.7,1.4,2.7,6C62,46,64.2,72.7,65.3,82.5c1.7,15.8,4.1,28.1,6.5,41.1l0.1,0.5
	c2.2,11.9,4.6,24.2,6.9,40.8c2.4,17.5,2.8,28.5,2.8,38.2c-8.4-10.9-20.2-20-34.5-20c-0.6,0-1.1,0-1.7,0
	c-11.4,0.6-19.7,7.7-25.9,16.4c1.2-27.6,4.2-64.7,11.5-104.1l0.2-1C31.6,91.7,42.2,28.8,56.9,6.6z"/>
</svg>
