<?xml version="1.0" encoding="utf-8"?>
<!-- Generator: Adobe Illustrator 28.1.0, SVG Export Plug-In . SVG Version: 6.00 Build 0)  -->
<svg version="1.1" id="Layer_2_00000030469279810572807450000002146953862426626223_"
	 xmlns="http://www.w3.org/2000/svg" xmlns:xlink="http://www.w3.org/1999/xlink" x="0px" y="0px" viewBox="0 0 129.5 351"
	 style="enable-background:new 0 0 129.5 351;" xml:space="preserve">
<style type="text/css">
	.st0{fill:#B6C5DA;}
</style>
<g>
	<path class="st0" d="M130.9,30.2c-0.8-15.3-1.6-20.8-7.7-26.9c-3.7-3.7-7.8-5.3-14-5.3c-4.2,0-9.3,0.7-16.4,1.6
		C84.1,0.8,71,2.5,52.9,3.5C45.9,3.9,40,4,35.2,4H35C23.4,4,16.4,4.1,10,9.7C-1,19.4-1.4,30-1.8,38.6c0,0.7-0.1,1.5-0.1,2.2
		c-0.9,17.4,3.3,35.5,12.3,54c3,6.1,6.3,11.7,9.5,16.5c1,32,4.9,45.5,9,59.8c1.9,6.7,3.9,13.6,5.8,23c7.8,39.5,8.5,53.5,9.1,73.1
		c0.7,24-1.2,48.2-5.7,71.8c0,0,0,0.2,0,0.3c-0.6,6,0.7,10.2,3.8,12.4c1.4,1,3.1,1.5,5.1,1.5c4.9,0,10.4-3.1,12.5-5.3
		c26.9-26.9,44.6-100.9,45.3-104c5.5-21.9,14.7-72.9,13.9-125.2c0.6-1.9,1.2-3.8,1.8-5.7l0.1-0.2c0.6-2,1.2-3.8,1.8-5.7
		C132,78.8,132.2,53.5,130.9,30.2z M44.9,340.1c4.5-24.1,6.4-48.7,5.7-73.1c-0.6-21.9-1.7-36.3-9.2-74.2c-1.9-9.5-3.9-16.6-5.8-23.4
		v-0.1c-3.6-12.7-6.8-24-8.2-47.7c1.1,1.3,2.1,2.5,3,3.4l1.9,2.1c13.3,14.5,27,29.4,44.6,29.4c1.3,0,2.6-0.1,3.9-0.2
		c16-2,25-10.5,30.8-20.8c-1,45.3-8.7,87.4-13.6,106.7c-0.7,3.1-18.4,75.7-43.6,100.5c-1.5,1.5-5.2,3.3-7.6,3.3
		c-0.5,0-0.9-0.1-1.1-0.2C45.3,345.6,44.5,344,44.9,340.1z M114.2,109.6l-0.4,1.3c-5.5,17.4-11.3,35.5-33.9,38.4c-1,0.1-2,0.2-3,0.2
		c-14.6,0-27.3-13.8-39.6-27.2l-1.9-2.1c-0.3-0.4-32.5-36.1-30.4-79c0-0.8,0.1-1.5,0.1-2.3c0.3-8.3,0.7-16.2,9.4-23.9
		c4.6-4,9.6-4,20.6-4h0.2c4.8,0,10.8,0,18.1-0.5c18.2-1.1,31-2.7,40.3-4c6.8-0.9,11.7-1.5,15.4-1.5c4.3,0,6.8,0.9,9.2,3.2
		c3.9,3.9,4.8,6.3,5.7,22.4c1.2,22.5,1,47.1-8.2,74.2C115.3,106.3,114.8,107.9,114.2,109.6z"/>
	<path class="st0" d="M107.1,24.6c-1.1,0-2,0.9-2,2c-0.1,11.8-0.4,24.4-1.6,37c-1.2,10.4-2.9,26-9,33.9c-1.3,1.6-2.1,1.6-2.4,1.6
		c-0.9,0-2-0.6-3.5-1.8c-4.5-3.8-8.3-5.5-12.2-5.5c-2.8,0-5.6,0.8-8.6,2.5c-1.6,0.9-3.1,2-4.6,3.1c-2.8,2.1-5.5,4.1-8.6,4.1
		c-0.4,0-0.7,0-1.1-0.1c-7-1.8-13.3-9.1-17.4-13.9c-9.2-11.3-16-26-20.2-43.7c-0.2-0.9-1-1.5-1.9-1.5c-0.1,0-0.3,0-0.4,0
		c-1.1,0.2-1.8,1.2-1.6,2.3c3,18.5,9.4,34.3,19.1,46.9c9,11.3,16.8,16.9,23.7,16.9c1.2,0,2.4-0.2,3.5-0.5c3.2-0.8,6.1-2.8,8.8-4.8
		c3.2-2.2,6.1-4.3,9.2-4.3c1.1,0,2.2,0.3,3.3,0.8c1.1,0.5,2.3,1.4,3.5,2.3c2.6,1.9,5.5,4.1,8.9,4.1c1.6,0,3.1-0.5,4.6-1.4l0.1-0.1
		c14.9-11.2,13.5-58.4,12.3-78.1C109.1,25.4,108.2,24.6,107.1,24.6z"/>
</g>
</svg>
