<?xml version="1.0" encoding="utf-8"?>
<!-- Generator: Adobe Illustrator 28.1.0, SVG Export Plug-In . SVG Version: 6.00 Build 0)  -->
<svg version="1.1" id="Layer_2_00000041985809536250126610000001487105918827391119_"
	 xmlns="http://www.w3.org/2000/svg" xmlns:xlink="http://www.w3.org/1999/xlink" x="0px" y="0px" viewBox="0 0 103.6 328.9"
	 style="enable-background:new 0 0 103.6 328.9;" xml:space="preserve">
<style type="text/css">
	.st0{fill:#B6C5DA;}
</style>
<g>
	<path class="st0" d="M102.2,30.3c-5.9-13.7-17-19.6-23-22.7L79,7.5c-0.7-0.4-1.3-0.7-1.8-1C67.3,0.8,56-2,42.9-2
		c-4.5,0-8.5,0.3-12.1,0.6l-0.9,0.1C17.4-0.4,4.1,6,2.3,18.2C-3.9,60-3.6,85.3,4.3,114c1.3,54.9,3.1,79.5,7.7,105.2
		c0.2,1.2,0.5,2.6,0.7,4.1c3.6,20.5,12,68.5,31.3,100.4c1.6,2.7,5.8,7.2,11.1,7.2c0.3,0,0.7,0,0.9-0.1c2.2-0.2,7.5-1.6,8.1-9.4v-0.2
		c0.2-14.9,0.5-29.9,0.9-44.5c0.3-10.4,0.5-18.6,0.6-25.2v-0.7c0.4-17.3,0.5-26,2.5-45.2c0.9-8.4,3-17.9,5.5-29v-0.2
		c3.9-17.1,8.6-38.3,10.5-64.1c9.7-15.7,14.9-29.6,16.4-35.7C105.4,58.4,108.2,44.3,102.2,30.3z M58.9,250.7v0.1
		c-0.2,7.3-0.3,15.3-0.6,25.8c-0.4,14.6-0.8,29.6-0.9,44.5c-0.2,2.7-1.2,2.8-1.8,2.8c-0.1,0-0.2,0-0.2,0c-1.9,0-4.2-2.3-5.2-3.8
		c-18.6-30.8-26.8-77.9-30.4-98c-0.3-1.6-0.5-3-0.7-4.2c-3.9-21.7-5.8-42.8-7-83c5.5,9.7,13.8,15.4,23.9,16.3
		c0.7,0.1,1.5,0.1,2.4,0.1c3,0,13.5-0.5,20.8-7.4c6.6-6.2,12.3-12.8,17.2-19.4c-2.5,19.7-6.3,36.6-9.4,50.6v0.1
		c-2.5,11.3-4.7,21-5.6,29.8C59.4,224.4,59.2,233.7,58.9,250.7z M54.1,138.7c-5.4,5.1-13.6,5.5-16,5.5c-0.6,0-1.3,0-1.8-0.1
		c-7.1-0.6-16.7-4.7-21.9-20.7c-10.8-32.7-12-58-5.2-104.2c1.2-8.4,11.5-12.9,21.1-13.6l0.9-0.1C34.7,5.3,38.6,5,42.8,5
		c11.9,0,22.1,2.5,30.9,7.6c0.6,0.3,1.2,0.7,2,1.1l0.2,0.1c5.2,2.7,14.9,7.8,19.8,19.3c5.2,12,2.6,24.9-1.8,41.9
		C91.5,84.6,79.6,114.6,54.1,138.7z"/>
	<path class="st0" d="M86.7,41.4c-1.1,0-2,0.9-2,1.9C83.9,73,66.2,98.5,39.5,108.7c-3.5-5.8-6.6-11.8-9.2-17.9
		c-6.1-14-10.1-28.9-11.9-44.3c-0.9-7.3-1.3-14.9-1.1-23.1c0-1.1-0.8-2-1.9-2h-0.1c-1,0-1.9,0.8-2,1.8c-0.8,7.6-0.9,15.6-0.4,23.9
		c1.6,23.8,9.3,47.2,22.1,67.7l0.6,1c0.4,0.6,1,0.9,1.7,0.9c0.2,0,0.4,0,0.7-0.1l1.1-0.4c15.2-5.2,28-14.9,37-28.2
		c9-13.3,13.3-28.7,12.5-44.8C88.6,42.2,87.7,41.4,86.7,41.4z"/>
</g>
</svg>
