<?xml version="1.0" encoding="utf-8"?>
<!-- Generator: Adobe Illustrator 28.1.0, SVG Export Plug-In . SVG Version: 6.00 Build 0)  -->
<svg version="1.1" id="Layer_2_00000060709899684434714950000015307441497699114682_"
	 xmlns="http://www.w3.org/2000/svg" xmlns:xlink="http://www.w3.org/1999/xlink" x="0px" y="0px" viewBox="0 0 120.8 360.7"
	 style="enable-background:new 0 0 120.8 360.7;" xml:space="preserve">
<style type="text/css">
	.st0{fill:#B6C5DA;}
</style>
<path class="st0" d="M109.2,254.7l-1-2.1c-1-1.9-2.2-4.4-3.7-7.2c0.6-11.1,1.2-37.5-3.3-66.2c-3-19.5-6.2-32.2-9.1-43.4
	c-2.7-10.5-5.2-20.3-7.1-34.2c-3.5-24.5-5.6-54.2,4.9-88.3v-0.1C91,8.7,90.8,5,89.2,2.4c-1.2-2-3.1-3.4-5.6-4
	C82.9-1.9,82.2-2,81.5-2c-7.3,0-14.1,8.7-14.9,9.7C41.2,40.9,31.4,79,26.2,99.5l-0.2,0.7c-1.9,7.6-3.7,19.7-5.5,32.5l-0.1,0.4
	c-1.1,8.1-2.3,16.5-3.6,23.7C12.1,184.2,8,211.1,9.3,238C-2.5,274.2-2.9,334.4-1.3,346.3c1.1,8.3,10.6,12.5,15.5,13.5
	c9.5,2,20.5,3,32.8,3c18.7,0,38.3-2.4,52.6-6.3c7.4-2,20.4-9.4,22.1-23.9C126.4,293.2,114.5,265,109.2,254.7z M83.2,11.3
	c-10.9,35.3-8.7,65.9-5.1,91.2c2,14.2,4.6,24.3,7.3,35c2.9,11.6,6,23.6,9,42.8c3.2,21,3.7,40.7,3.5,53.8
	c-10.1-15.9-26-34.4-46.6-34.4c-0.9,0-1.9,0-2.8,0.1c-15.7,1.3-23.3,9.9-30.2,19.4c-0.7,1-1.4,2-2.1,3.1c0.4-21.1,3.8-42.5,7.6-64.3
	c1.2-7,2.4-15.1,3.5-22.9l0.1-1c1.7-12.2,3.5-24.7,5.4-32.2l0.2-0.7c5.1-20,14.6-57.2,39.1-89.3C74.7,8.6,79,5,81.5,5
	c0.2,0,0.3,0,0.5,0.1c0.9,0.2,1.2,0.6,1.3,0.8C83.5,6.2,84.1,7.7,83.2,11.3z M23.8,223.4c7.5-10.2,13.4-15.6,25.1-16.5
	c0.7-0.1,1.4-0.1,2.2-0.1c0.1,0,0.1,0,0.2,0c25.8,0.2,44.4,37,50.5,49.1c0.2,0.4,0.4,0.7,0.5,1.1c0.2,0.4,0.4,0.7,0.5,1
	c5.2,9.7,16.4,36.3,12,73.6c-1.6,13.6-16.4,17.9-17,18c-13.6,3.7-33,6.1-50.7,6.1c-11.8,0-22.3-1-31.4-2.8c-3.9-0.8-9.5-3.9-10-7.5
	C3.8,332,4.8,249.4,23.8,223.4z"/>
</svg>
