<?xml version="1.0" encoding="utf-8"?>
<!-- Generator: Adobe Illustrator 28.1.0, SVG Export Plug-In . SVG Version: 6.00 Build 0)  -->
<svg version="1.1" id="Layer_2_00000083058961089205938750000006697636326949627049_"
	 xmlns="http://www.w3.org/2000/svg" xmlns:xlink="http://www.w3.org/1999/xlink" x="0px" y="0px" viewBox="0 0 97.7 326.9"
	 style="enable-background:new 0 0 97.7 326.9;" xml:space="preserve">
<style type="text/css">
	.st0{fill:#B6C5DA;}
</style>
<path class="st0" d="M96.2,30.6c-2.8-4.7-4.9-6.1-8.7-8.6c-2.6-1.7-6.1-4.1-11.7-8.8l-1.7-1.4C64.8,4.1,59.2-0.6,49.5-1.8
	c-1-0.1-2.1-0.2-3.1-0.2C43-2,40.2-1.3,38-0.7C31.9,0.9,29.5,3,24.6,7.1l-0.4,0.3c-1.9,1.6-4.3,3.6-7.4,6.1
	c-4.2,3.3-8.9,6.2-11.4,7.8c-1.3,0.8-2.1,1.3-2.6,1.7C-8.9,31.5,3.8,72.2,10,83.6c1.7,3.1,3.5,6.5,5.6,9.9l-0.1,3
	c-0.3,12.4-0.6,25.1,0.6,47.9c0.7,14.4,1.6,22.8,2.5,30.9c1.4,13.9,3.1,29.7,4.7,77.1c0,0.4,0.9,43.4,18.5,69
	c0.5,0.8,5.2,7.5,11.3,7.5c0.1,0,0.2,0,0.2,0c0.2,0,0.4,0,0.6,0c5.9-0.6,9.6-5.7,9.4-12.7C62.7,303,63.4,287,65.8,261
	c2.1-22.3,5.4-36.3,8.7-49.8c2.8-11.8,5.8-24,7.7-41.4c2-17.6,5.3-46.9,1.6-82.8c2.4-3.7,4.8-8,7-12.8
	C95.6,63.9,104.6,44.6,96.2,30.6z M75.2,169c-1.9,16.8-4.6,28.2-7.5,40.4l-0.1,0.3c-3.3,13.8-6.7,28-8.8,50.7
	c-2.5,26.4-3.2,42.6-2.6,56.1c0.1,1.9-0.3,5.1-3.1,5.4c0,0-0.1,0-0.1,0c-1.5,0-4.1-2.3-5.5-4.4c-16.2-23.6-17.2-64.7-17.3-65.2
	c-1.6-47.9-3.2-63.7-4.7-77.7c-0.9-8.4-1.7-16.4-2.4-30.4c-1-18.5-0.9-30-0.7-40.6c5.9,7.5,13.1,13.3,21.8,13.3c0.1,0,0.1,0,0.2,0
	h0.2c6.3-0.1,12.1-2.4,18.9-7.3c2.8-2.1,8.2-6.5,14.1-13.8C79.9,127.2,77,153,75.2,169z M59.4,103.9c-5.5,4-10.1,5.9-14.9,6h-0.3
	c-11.9,0-21.6-17.8-28.1-29.6C9,67.1,1.1,32.8,7,28.5c0.3-0.2,1.1-0.7,2-1.3l0.1-0.1c2.4-1.5,7.5-4.7,12-8.2
	c3.4-2.6,5.9-4.7,7.9-6.4l0.2-0.1c4.5-3.8,6.1-5.1,10.7-6.3c2-0.5,4.1-1.1,6.5-1.1c0.1,0,0.1,0,0.2,0c0.7,0,1.3,0.1,2,0.1
	c7.7,1,12.1,4.7,21.1,12.1l1.6,1.4c5.8,4.8,9.5,7.3,12.2,9.1l0.1,0.1c3.5,2.4,4.6,3.1,6.6,6.4c6.5,10.8-1.5,27.8-5.7,37
	C75.1,91.4,62.9,101.3,59.4,103.9z"/>
</svg>
