<?xml version="1.0" encoding="utf-8"?>
<!-- Generator: Adobe Illustrator 28.1.0, SVG Export Plug-In . SVG Version: 6.00 Build 0)  -->
<svg version="1.1" id="Layer_2_00000127724149759503809410000000581393860392932525_"
	 xmlns="http://www.w3.org/2000/svg" xmlns:xlink="http://www.w3.org/1999/xlink" x="0px" y="0px" viewBox="0 0 155.3 295.4"
	 style="enable-background:new 0 0 155.3 295.4;" xml:space="preserve">
<style type="text/css">
	.st0{fill:#B6C5DA;}
</style>
<path class="st0" d="M152.9,222.6c-1.2-4.6-6.7-23-17.2-32.4c-2.4-38.5,1-62.3,3.7-81.3l0.2-1.3c5.1-35.7,7.1-48.2,14.9-73.4
	c1.6-5.2,6.5-20.9-2.4-26.2c-1.5-0.9-3.3-1.4-5.5-1.4c-2.3,0-4.2,0.5-5.2,0.8c-13.8,3.6-29.8,28.5-48.8,76.1
	c-2.8,7.1-4.4,13.5-5.9,19.1c-1.8,7-3.4,13.6-7,21c-2.1,4.4-5.5,4.8-6,4.8c-6.3-0.9-10.5-12.1-11.6-15.6
	c-3.6-11.1-2.2-54.2,5.6-77.1c2.3-6.7,4.5-11.9,6.4-16.2c2.4-5.7,4-9.4,3.9-12.6l0-0.1c0-1.4,0.2-5-4.3-7.6C72.3-1.6,70.7-2,69-2
	c-10.2,0-23.9,14.8-24,14.9C21.7,38.7,16.1,59.4,12.4,96.1c-2.4,23.7-1.6,53.5,2.7,96.7c-3.4,3.6-6.2,8.6-8.5,15
	c-7.7,21.8-11.9,55.1-5.4,68c2.7,5.3,13.6,16.6,35.8,20.8c2.6,0.5,5.3,0.8,7.8,0.8c0.1,0,0.2,0,0.3,0c7,0,13.2-1.8,18.5-5.4
	c1.2-0.8,2.3-1.7,3.4-2.6c3.1-2.5,6.4-5.1,10.9-5.8c0.8-0.1,1.6-0.2,2.3-0.2c4.1,0,7.4,1.8,11.6,4c4.2,2.2,9,4.8,15.6,6
	c2,0.4,4.2,0.6,6.4,0.6c11.9,0,24.8-5.4,32.8-13.9C163.4,262.4,156.3,235.5,152.9,222.6z M113.7,287.1c-1.8,0-3.5-0.1-5-0.4
	c-5.6-1-9.6-3.2-13.6-5.3c-4.4-2.4-9-4.8-14.9-4.8c-1.1,0-2.2,0.1-3.3,0.3c-6.4,1-10.7,4.4-14.2,7.3l-0.2,0.2
	c-1,0.8-1.9,1.5-2.7,2.1c-4.2,2.8-9.1,4.2-14.5,4.2c-2.2,0-4.5-0.2-6.9-0.7c-2.1-0.4-4-0.9-5.9-1.4c0.5,0,1.1,0,1.6,0
	c7.1,0,13.3-1.2,18.9-3.6c4.6-2.1,8.6-5.1,12.5-8c1.2-0.9,2.4-1.7,3.6-2.6c6.8-5.1,11.4-7.1,15.9-7.1c4.1,0,8.4,1.8,14,5.8l0.8,0.5
	c3.8,2.6,8.1,5.5,13.2,6.1c0.5,0.1,1.1,0.1,1.6,0.1c4.6,0,9.5-2.3,13.5-6.2c0.4-0.4,0.8-0.8,1.2-1.2c1.7-1.7,3.3-3.3,5.2-4.2
	c1.6-0.8,3.4-1.2,5.2-1.2c2.2,0,4.5,0.6,6.8,1.7c-1.3,2.5-2.8,4.8-4.9,6.9C134.9,282.4,123.8,287.1,113.7,287.1z M50.1,17.6
	C54.2,13.1,64,5,68.9,5c0.5,0,0.9,0.1,1.2,0.3C71,5.8,71,5.9,71,6.7c0,0,0,0.7,0,0.7c0.1,1.5-1.5,5.1-3.3,9.4L67.5,17
	c-1.9,4.3-4.2,9.7-6.5,16.6c-7.8,22.9-10,68.2-5.6,81.5c2.3,7.1,7.7,19.2,17.5,20.4c0.2,0,0.4,0,0.7,0c3,0,9-1.9,12.4-8.8
	c3.9-8.1,5.7-15,7.5-22.4c1.4-5.7,2.9-11.6,5.6-18.2c23.4-58.7,37.7-70.3,44.1-71.9c1.3-0.4,2.5-0.5,3.5-0.5c0.8,0,1.4,0.1,1.8,0.4
	c1.2,0.7,3.6,4-0.7,18.1c-8,25.7-10,38.3-15.2,74.5l-0.2,1.3c-2.7,18.6-5.9,41.5-4.1,77.8c-1.3-0.5-2.7-0.8-4.1-1
	c-0.8-0.1-1.6-0.1-2.3-0.1c-3.1,0-5.5,0.8-7.7,1.6c-2.6,0.9-5.1,1.7-9.5,1.8h-0.1c-6.1,0-9.5-1.3-13-2.6c-3.3-1.3-7-2.7-12.7-2.7
	c-0.4,0-0.8,0-1.2,0c-6.7,0.2-10.9,2.2-14.5,4c-3.6,1.8-6.8,3.3-12.4,3.5c-0.6,0-1.3,0-1.9,0c-5.3,0-9.1-1-12.8-2
	c-2.7-0.7-5.3-1.4-8.1-1.4c-2.1,0-4.2,0.5-6.2,1.3c-3.9-40.5-4.7-68.8-2.3-91.2C23.4,57.4,30.3,39.6,50.1,17.6z M27.9,193.7l0-2l0,0
	l0.1,1.7L27.9,193.7C27.9,193.7,27.9,193.7,27.9,193.7L27.9,193.7c0.1,0,0.2,0,0.2,0c1.7,0,3.7,0.6,6,1.2c3.7,1,8.4,2.3,14.6,2.3
	c0.7,0,1.4,0,2.2,0c7.1-0.3,11.4-2.4,15.2-4.2c3.5-1.7,6.5-3.1,11.7-3.3c0.4,0,0.7,0,1.1,0c4.3,0,6.9,1,10.1,2.2
	c3.6,1.4,8,3.1,15.4,3.1h0.2c5.6,0,9-1.2,11.8-2.2c2-0.7,3.4-1.2,5.4-1.2c0.5,0,1,0,1.5,0.1c11.4,1.3,19.6,21.2,22.7,32.8
	c2.4,9.1,6.9,25.9,2,40c-3-1.8-6.3-2.8-9.6-2.8c-2.2,0-4.3,0.4-6.4,1.3c-2.9,1.2-5.3,3.3-7.4,5.2c-0.3,0.3-0.6,0.6-1,0.9
	c-2.9,2.6-6.1,4.1-9,4.1c-0.4,0-0.8,0-1.1-0.1c-3.3-0.5-6.2-2.5-9.3-4.6c-0.6-0.4-1.1-0.8-1.6-1.1c-6.6-4.8-12.2-7.1-17.8-7.1
	c-0.2,0-0.3,0-0.5,0c0.7-6.6,0.9-13,0.9-18.6c0-7.9,0-15.6-1.1-23.3c-0.1-1-1-1.7-2-1.7c0,0,0,0,0,0c-1,0-1.8,0.7-2,1.7
	c-2.3,14-2.6,28.4-0.9,42.7c-4.4,1.2-9.1,3.7-14.4,8c-1.4,1-2.8,2.1-4.2,3.2c-3.5,2.7-6.9,5.3-10.6,7.2c-5.7,2.7-12.2,3.9-20.5,3.9
	c-3.8,0-7.8-0.3-11.4-0.6c-6-3.5-9.7-7.3-11-9.9c-5.3-10.6-1.2-42.9,5.8-62.6C16.9,199.6,22.1,193.7,27.9,193.7z"/>
</svg>
