<?xml version="1.0" encoding="utf-8"?>
<!-- Generator: Adobe Illustrator 28.1.0, SVG Export Plug-In . SVG Version: 6.00 Build 0)  -->
<svg version="1.1" id="Layer_2_00000015346019346252302460000001769862217997092485_"
	 xmlns="http://www.w3.org/2000/svg" xmlns:xlink="http://www.w3.org/1999/xlink" x="0px" y="0px" viewBox="0 0 145.9 278"
	 style="enable-background:new 0 0 145.9 278;" xml:space="preserve">
<style type="text/css">
	.st0{fill:#B6C5DA;}
</style>
<path class="st0" d="M135.2,190.4c-0.2-0.2-0.4-0.5-0.6-0.9c-2.1-2.8-5.6-7.5-10.5-11.3c-1.4-16-4.5-27.6-7.9-41.1
	c-2.5-9.8-5.4-20.9-8-35.4c-4.7-26.4-3.8-45.3-2.9-65.4l0-0.6c0.2-4.3,0.4-8.8,0.6-13.4c0-0.5,0-1,0.1-1.8c0.3-6,0.9-17.3-5.5-21.2
	C98.9-1.5,97-2,95-2c-1.2,0-2.4,0.2-3.6,0.5c-3.7,1-7.3,3.6-10.4,7.4c-0.8-0.7-1.8-1.2-3.2-1.5c-0.5-0.1-0.9-0.2-1.4-0.2
	c-4,0-7.3,3.6-8.9,5.3c-9.8,10.6-15.3,25.6-20.6,40.3c-1.9,5.3-3.8,10.4-5.8,15.2c-5.2,12.3-8.9,19.1-12.4,25.6l-0.1,0.1
	c-3.2,5.8-6.1,11.3-9.6,19.7c-3.1,7.4-6.9,20.1-7.7,38.3l0,0c-0.5,1.5-1,2.9-1.4,4.4c-2.6,8.7-4.9,21-4.6,29.4
	c-5,7.3-6.3,20.3-6.7,26.3c-2,33.1,2.2,42.5,6.3,48.6c8.5,13,26.3,22.4,42.3,22.5c0.1,0,0.2,0,0.3,0c3.4,0,6.5-0.4,9.4-1.2
	c7.3-2,10.7-5.9,13.4-9c2.8-3.2,4.9-5.5,10.8-6.3c0.1,0,0.3,0,0.4,0c1.4,0,3.3,0.9,5.7,1.9c4.3,1.9,10.2,4.5,18.6,4.5
	c3.5,0,7.2-0.5,11-1.3c15.3-3.6,28.3-18.9,30.7-36.4C150,214.5,139.2,195.7,135.2,190.4z M47.2,273.1c-0.7,0-1.4,0-2.1-0.1
	c9.1-3.1,16.2-8.9,20.2-12.8l0.2-0.2c2.1-2,4.4-4.4,6.6-6.3c2.5-2.3,5.3-4.5,8.7-4.5c0,0,0.4,0,0.4,0c1.2,0,2.2,0.4,3.7,1.4
	c1.9,1.3,3.7,2.7,5.6,4.2c1.4,1.1,2.9,2.3,4.5,3.4c2.7,1.9,5.5,3.4,8.5,4.6c-5.8-0.4-10.1-2.2-13.6-3.8c-2.9-1.3-5.6-2.5-8.5-2.5
	c-0.5,0-0.9,0-1.4,0.1c-8.4,1.2-11.9,5.1-15,8.7c-2.6,2.9-4.8,5.3-10.1,6.8C52.6,272.7,50,273.1,47.2,273.1z M117.7,260.9
	c-7.9-1.1-15.3-4.5-21.2-9.8c0,0-0.1-0.1-0.1-0.1c-0.9-0.7-1.7-1.4-2.6-2.2c-2.5-2.2-5.2-4.5-8.5-5.8c0,0-0.1,0-0.1,0
	c-0.3-0.1-0.5-0.2-0.8-0.2c2.6-8.7,1.9-19.4-2.1-28.1c-0.3-0.7-1-1.2-1.8-1.2c-0.1,0-0.3,0-0.4,0c-0.9,0.2-1.6,1-1.6,1.9
	c0,3.6,0.1,8.1,0.2,12.1c0,1.2,0.1,2.3,0.1,3.4c0.1,3.3,0.1,6.5,0.1,9.8c0,0.5,0,1.1,0,1.6c-2,0.2-4,0.9-5.9,2
	c-4.1,2.5-7.3,5.9-10.4,9.2c-1.3,1.4-2.7,2.9-4.1,4.2c-7.6,7.1-16,11.6-24.4,13.1c-9.5-3.2-18.4-9.4-23.5-17.1
	c-3.5-5.2-7-13.4-5.2-44.4c0.9-14.3,4.3-22.7,7.2-24.6c3.1-2,6.9-3,11.4-3c0.1,0,0.1,0,0.2,0c5.2,0,11.2,1.3,17.9,3.9
	c11,4.4,15.6,5.2,20.6,5.2c0.7,0,1.4,0,2.1,0c8.6-0.2,15.6-3.3,22.4-6.2c6.2-2.7,12.1-5.2,19-5.5c0.3,0,0.5,0,0.8,0
	c11,0,18.6,10.3,21.9,14.7c0.3,0.3,0.5,0.7,0.7,0.9c2.9,3.8,13.1,21,11,36.4C138.7,244.7,129.1,257,117.7,260.9z M101.2,103
	c2.6,14.7,5.5,26,8.1,35.9l0,0.2c3,11.6,5.6,21.9,7.2,34.8c-2.8-1.1-6-1.8-9.4-1.8c-0.4,0-0.8,0-1.2,0c-8.1,0.4-14.9,3.3-21.5,6.1
	c-6.5,2.8-12.6,5.4-19.8,5.6c-0.7,0-1.3,0-2,0c-4.2,0-8-0.7-18-4.7c-7.5-3-14.4-4.5-20.4-4.5c-4.4,0-8.4,0.8-11.9,2.4
	c0.5-6.3,2-14.3,4.2-21.8c3-10.3,9.2-21.7,17.1-36.2l0.1-0.3c5.4-9.9,11.4-21.1,17.6-34C57.5,72,61.3,63,65,54.3l0.1-0.3
	c4.8-11.2,9.3-21.8,17.8-38.3C87,8,91.2,5.8,93.3,5.2C94,5.1,94.5,5,95.1,5c0.7,0,1.3,0.1,1.7,0.4c1.9,1.1,2.6,6.1,2.1,14.8l0,0.4
	c0,0.6-0.1,1.1-0.1,1.5c-0.2,4.6-0.4,9.1-0.6,13.4l0,0.6C97.3,56.6,96.4,75.9,101.2,103z M76.7,12.5C68,29.2,63.4,39.9,58.6,51.3
	l-0.1,0.3c-3.7,8.6-7.4,17.6-13.4,30.1c-6,12.7-12,23.7-17.3,33.4l-0.3,0.5c-2.3,4.3-4.5,8.3-6.5,12.2c1.4-6.2,3-11.1,4.5-14.6
	c3.4-8.2,6.3-13.5,9.4-19.3c3.5-6.4,7.4-13.7,12.7-26.2c2.1-5,4-10.3,5.9-15.5l0-0.1c5.1-13.9,10.3-28.4,19.2-37.9
	c2.5-2.7,3.5-3,3.8-3.1c0.1,0,0.2,0,0.2,0.1c0,0.1,0.1,0.4,0.2,1C76.8,12.4,76.7,12.5,76.7,12.5z"/>
</svg>
