<?xml version="1.0" encoding="utf-8"?>
<!-- Generator: Adobe Illustrator 28.1.0, SVG Export Plug-In . SVG Version: 6.00 Build 0)  -->
<svg version="1.1" id="Layer_2_00000052818882843354774550000001493194283102321325_"
	 xmlns="http://www.w3.org/2000/svg" xmlns:xlink="http://www.w3.org/1999/xlink" x="0px" y="0px" viewBox="0 0 137.7 407.1"
	 style="enable-background:new 0 0 137.7 407.1;" xml:space="preserve">
<style type="text/css">
	.st0{fill:#B6C5DA;}
</style>
<path class="st0" d="M118.8,277.7c-0.8-1.4-1.6-2.8-2.4-4.2c4.6-28.7,6.1-57.8,4.4-88.9c-1-18.6-2.9-32.7-4.7-46.4V138
	c-2.5-18.5-4.8-35.9-4.5-61.8c0.2-20.6,2.8-41.2,7.6-61.3c1.1-4.1,2.3-11.5-2.3-15.1c-1.7-1.3-3.7-2-6-2c-3.3,0-7.1,1.5-10.3,4.1
	C80.7,18.1,55,95.1,50.2,113.3c-8.5,32.1-13.1,49.8-16.1,69.8c-5.2,34.3-5.6,64.8-5.5,77c-4.1,6.6-7.2,13.4-9.8,19l-0.5,1.2
	c-26.6,57.1-22,81.6-13.4,92.1c4.7,5.7,9.8,8.8,15.8,12.3l1-1.7l-0.9,1.8c3.2,1.9,6.9,4.1,10.9,7c2.8,2,5.2,4,7.5,5.9l0.1,0.1
	c7.5,6.1,13.9,11.4,26.5,11.5h0.1c0.1,0,0.1,0,0.2,0c8.3,0,12.8-3.8,19.6-9.6c3.4-2.9,7.7-6.6,13.6-10.8c0.4-0.3,0.8-0.6,1.2-0.9
	c2.3-1.8,5.6-4.2,16.5-8.1c0,0,0.1,0,0.1-0.1l0.4-0.1c14.7-5.3,19.7-17.3,21.4-26.5C142.4,332.9,135.3,306.2,118.8,277.7z
	 M112.5,5.5c0.7,0.5,1,3.5-0.2,7.8c-5,20.7-7.7,41.8-7.9,63c-0.3,26.3,2.1,43.9,4.6,62.6v0.1c1.8,13.5,3.7,27.5,4.7,46
	c1.5,27.6,0.5,53.6-3.1,79.3c-14.3-22-25.3-30.2-39.9-31c-0.8,0-1.6-0.1-2.4-0.1c-14.3,0-24.8,7.4-32.7,16.9c0.2-15,1.3-39.3,5.4-66
	c3-19.6,7.6-37,15.9-68.8L57,115c5.3-20.3,30.8-93.5,48-107.5c1.9-1.5,4.2-2.5,5.9-2.5C111.6,5,112.1,5.2,112.5,5.5z M24.5,283.2
	L25,282c7.3-15.6,19.5-41.8,43.3-41.8c0.1,0,0.1,0,0.2,0c0.6,0,1.2,0,1.8,0.1c14.5,0.8,25.2,11.1,42.4,40.9
	c15.7,27,22.5,52.1,19.2,70.5c-1.3,7.3-5.3,17-16.8,21.1c-0.2,0.1-0.4,0.1-0.6,0.2c-11.9,4.3-15.6,7.1-18.3,9.1l-0.2,0.1
	c-0.3,0.2-0.6,0.5-0.9,0.7c-6.2,4.4-10.6,8.1-14.2,11.2c-6.4,5.5-9.3,7.9-15,7.9h-0.2c-10.1-0.1-14.9-4-22.1-9.9l-0.2-0.2
	c-2.3-1.8-4.8-3.9-7.8-6c-4.3-3.1-8.1-5.4-11.5-7.4c-5.6-3.3-10-5.9-13.9-10.7C2.9,359-0.6,337,24.5,283.2z"/>
</svg>
