<?xml version="1.0" encoding="utf-8"?>
<!-- Generator: Adobe Illustrator 28.1.0, SVG Export Plug-In . SVG Version: 6.00 Build 0)  -->
<svg version="1.1" id="Layer_2_00000145747395119173983070000012465314277382663557_"
	 xmlns="http://www.w3.org/2000/svg" xmlns:xlink="http://www.w3.org/1999/xlink" x="0px" y="0px" viewBox="0 0 172.4 315.6"
	 style="enable-background:new 0 0 172.4 315.6;" xml:space="preserve">
<style type="text/css">
	.st0{fill:#B6C5DA;}
</style>
<path class="st0" d="M170.5,235.7c-2.1-9.3-6.2-23.2-13.3-32.2c4.1-34.8,7.3-77.6,0.3-132.1c-1.4-10.7-7.7-46.9-30.7-63.7
	c-0.1-0.1-0.8-0.6-0.8-0.6C122.3,4.4,113.7-2,106.5-2c-2.1,0-4,0.6-5.6,1.6c-3.9,2.7-4.8,8-2,12.2c9.7,15.2,13.5,27.4,14,44.9
	c0.5,15.3-1.2,24.2-8.8,47.2c-2.7,8.2-3.8,15.1-4.7,20.7c-1.3,8.3-2,12-5.3,13.4c-0.6,0.3-1.1,0.4-1.7,0.4c-1.6,0-3.1-1.1-4.2-2.1
	c-8-7-15.9-25.4-18.8-35.7c-7.1-25.1-12.3-37-15.4-44.3c-0.3-0.6-0.5-1.2-0.7-1.7C50.3,47.1,34.5,9,18.2,1.8C16.6,1.1,13.5,0,10.2,0
	C7.8,0,5.7,0.6,4,1.9C1,4.2-0.2,8,0.9,11.7c0.5,2.3,1.7,5,3.2,8.4c3,6.9,7.1,16.4,7.7,27.7c0.5,9.5,0.4,15.5,0.2,21.8
	c-0.1,4.3-0.2,9.7,0,16.6c0.4,13.8,2.5,22.7,4.8,32l0,0.1c1.6,6.7,3.3,13.6,4.4,22.9c2,17,1.3,36.9-2.4,64.3
	C4.9,218-1,242.8-1.8,262.8c-0.4,9.8-1.1,27.9,13,34.9c4.1,2.1,7.6,2.5,11.6,2.9c3.6,0.4,8,0.9,14.7,2.9c5,1.5,8.3,3.1,11.1,4.6
	c3.6,1.8,7.4,3.8,13.4,4.7c1.7,0.3,3.4,0.4,5,0.4c6,0,10.5-1.8,14.9-3.6l0.1,0c4.3-1.8,8.8-3.6,15.1-3.6l0.4,0c7,0.1,10.2,2.4,14,5
	c4.4,3.1,9.3,6.6,19.6,6.6c0.1,0,0.1,0,0.2,0c0.5,0,1,0,1.5,0c19-0.7,36-17.5,40-32.8C175.6,274.5,174.6,253.9,170.5,235.7z
	 M131.2,310.6C131.2,310.6,131.2,310.6,131.2,310.6c-7,0-10.5-1.8-14-4.2c0.3,0.1,0.5,0.2,0.8,0.2c4.2,1,8.3,1.3,12.5,1.6
	c0.8,0,1.6,0.1,2.4,0.1c1.5,0,2.9-0.1,4.3-0.3c6.5-1,12.7-3.7,18.7-8.3c-6.2,6.1-14.5,10.5-23.2,10.8
	C132.2,310.6,131.7,310.6,131.2,310.6z M67,306.3c-1.3,0-2.6-0.1-3.9-0.3c-4.9-0.8-7.8-2.2-11.4-4c-2.4-1.2-5-2.5-8.6-3.8
	c0.6,0,1.2,0.1,1.8,0.1c0.4,0,0.9,0,1.4,0c7.4-0.5,13.7-4.1,19.7-7.6c4.6-2.7,9-5.2,13.8-6.4c1.6-0.3,3-0.5,4.3-0.5
	c1.9,0,3.6,0.4,4.8,1.1c1.2,0.8,2.4,2.1,3.5,3.4c0.4,0.5,0.8,1,1.2,1.5c0.8,1.1,1.7,2.2,2.6,3.2c2.2,2.5,4.7,4.8,7.3,6.8
	c-1.7-0.3-3.7-0.6-5.9-0.6h-0.2c-0.1,0-0.1,0-0.2,0c-7.8,0-13.4,2.3-18,4.1C75.2,304.8,71.6,306.3,67,306.3z M28.1,140.4
	c-1.2-9.7-2.9-16.9-4.5-23.8c-2.1-9-4.2-17.4-4.6-30.6c-0.2-6.4-0.1-11.3,0-16l0-0.4c0.1-6.2,0.3-12.5-0.2-22.3
	c-0.7-12.5-5-22.6-8.2-30l-0.1-0.3c-1.2-2.8-2.2-5.2-2.7-7.1C7.5,9.2,7.4,8.1,8.2,7.5C8.7,7.2,9.4,7,10.2,7c2.1,0,4.5,1,5.1,1.3
	c11.4,5,25.1,33.1,31.5,49c0.2,0.4,0.8,1.9,0.8,1.9c3,7,8.1,18.7,15,43.4c3.2,11.4,11.8,31.1,21,39.1c1.2,1,4.4,3.8,8.8,3.8
	c1.5,0,3-0.3,4.5-1c6.9-3,8-10,9.4-18.7l0-0.1c0.8-5.3,1.9-11.8,4.4-19.4c7.9-24,9.6-33.3,9.1-49.6c-0.5-18.7-4.8-32.2-15.1-48.4
	c-0.7-1.1-0.6-2.2,0.1-2.7c0.4-0.3,0.9-0.4,1.6-0.4c2.2,0,6.6,1.4,15.3,7.8l0.8,0.6c21.3,15.5,26.9,51.7,27.9,58.9
	c6.6,51,4,91.8,0.2,125.2c-1.5-0.9-3-1.7-4.7-2.2c-3.8-1.1-6.3-1.3-8.5-1.3c-0.9,0-1.9,0-2.8,0.1l-0.1,0c-1.1,0-2.3,0.1-3.7,0.1
	c-3.4,0-7.1-0.3-11.5-0.9c-8.6-1.2-12.1-3.2-15.3-5c-3.3-1.9-6.5-3.7-13.2-3.7c-0.5,0-1.1,0-1.7,0c-7.7,0.3-12.6,2.4-17.9,4.7
	c-4.5,1.9-9.6,4.1-17.7,5.8c-4,0.8-7,1-10,1.3l-0.1,0c-4.5,0.3-8.8,0.7-15,3c-0.7,0.3-1.3,0.5-2,0.8C29.5,175.4,30,156.7,28.1,140.4
	z M166.2,283c0,0.1,0,0.2-0.1,0.3c-7.5,8.5-17.3,17.3-29.6,18.8c-0.9,0.1-1.8,0.1-2.8,0.1c-4,0-8.5-0.6-14-1.9
	c-3-0.8-6.1-2.3-9.9-4.7c-5-3.1-8.7-7.5-12-11.9c-1.3-1.7-2.9-3.5-5.2-5c-2-1.2-4.3-1.9-6.9-2.1c0.4-6.6,0.5-13.2,0.6-19.7l0-0.7
	l0-1.1c0-7.7,0.1-15.6-0.5-23.5c-0.1-0.8-0.6-1.5-1.3-1.7c-0.2-0.1-0.4-0.1-0.7-0.1c-0.6,0-1.1,0.2-1.5,0.7
	c-0.2,0.3-0.4,0.6-0.5,0.9c-1.6,7.2-2.4,15.1-2.6,24.8c0,7.9,0.4,14.5,1.3,20.6c-0.8,0.1-1.6,0.3-2.5,0.4
	c-5.7,1.4-10.7,4.3-15.6,7.2c-5.6,3.3-10.8,6.5-16.9,7.1c-0.5,0-0.9,0.1-1.4,0.1c-3,0-5.8-0.8-8-2.3c-0.7-0.5-1.4-1-2.1-1.5
	c-2.6-1.9-5.3-3.9-8.2-5.3c-7.4-3.7-14.1-5.6-20.5-5.8c-0.7-4.9-0.5-10-0.4-13.6C6,241,13.3,212.8,31,206c5.2-2,8.6-2.2,13-2.6
	c2.9-0.2,6.4-0.5,11-1.4c8.8-1.8,14.3-4.1,19.1-6.2c5-2.2,9-3.9,15.4-4.1c0.5,0,1,0,1.4,0c4.9,0,6.8,1.1,9.8,2.8
	c3.3,1.9,7.9,4.5,17.8,5.8c4.8,0.7,8.7,1,12.5,1c1.6,0,2.9-0.1,4.1-0.1c0.9,0,1.8-0.1,2.6-0.1c1.9,0,3.7,0.2,6.5,1
	c7.7,2.2,15,15.4,19.5,35.1C167.5,254.5,168.6,273.7,166.2,283z M23.4,287.5c2.4,1.3,4.4,2.9,6.6,4.7c0.9,0.7,1.8,1.5,2.8,2.2
	c0.6,0.5,1.3,0.9,2,1.2c-4.7-1.1-8.3-1.6-11.3-1.9c-3.7-0.4-6.2-0.7-9.3-2.2c-4.2-2.1-6.5-5.9-7.8-10.3
	C11.7,282,17.1,284.1,23.4,287.5z"/>
</svg>
