<?xml version="1.0" encoding="utf-8"?>
<!-- Generator: Adobe Illustrator 28.1.0, SVG Export Plug-In . SVG Version: 6.00 Build 0)  -->
<svg version="1.1" id="Layer_2_00000065772521140088380840000016924342656581792904_"
	 xmlns="http://www.w3.org/2000/svg" xmlns:xlink="http://www.w3.org/1999/xlink" x="0px" y="0px" viewBox="0 0 99.2 308.7"
	 style="enable-background:new 0 0 99.2 308.7;" xml:space="preserve">
<style type="text/css">
	.st0{fill:#B6C5DA;}
</style>
<path class="st0" d="M93.8,16.5c-3.2-2.8-5-3.3-8.1-4.2c-2.2-0.6-5.2-1.5-10.7-3.8c-2.2-0.9-4-2.2-6.2-3.7C64.4,1.6,59.2-2,49.2-2
	c-0.3,0-0.6,0-1,0c-8.4,0.2-12.7,3.7-16.9,7.1C29,7,26.6,9,23.1,10.7c-3.9,1.9-6.7,3.1-8.7,4L14,14.8c-4.5,2-6.4,2.8-9.8,6.2
	C-7.5,32.9-0.2,57.5,5.3,68.9c1.4,3,5.8,11.4,12.9,19.6c-3.9,39.5-1.2,67,2.4,90.8c1.4,9.6,3.4,18,5.1,25.4
	c3.3,14.2,6.7,28.9,7.6,52.9c0.5,13.7-0.7,24.8-1.6,33.7c-0.3,2.5-0.6,5.5-0.8,8.1v0.2c-0.1,4.4,0.7,7.3,2.7,9.1
	c1.3,1.2,3,1.9,5,1.9c0.1,0,0.2,0,0.3,0c0.3,0,0.6,0,1,0c7-0.6,14.3-10.5,15.1-11.7c18.9-26.3,26.5-61.8,28.4-72.1
	c4.2-22.6,8.6-57.5,6.1-95.6v-0.6c-1.3-20.3-2.4-27.3-3.7-36.2l-0.2-1.1c-0.3-2-0.6-4-0.9-6.4c3.6-5.6,6.2-11.6,8.5-16.6l0.5-1.1
	c0.2-0.5,0.5-1,0.7-1.6C100.8,53.1,106.2,27.2,93.8,16.5z M37.7,300c0.2-2.3,0.5-4.9,0.8-7.8c1-9.1,2.2-20.5,1.7-34.7
	c-0.9-24.6-4.4-39.6-7.8-54.2l-0.1-0.3c-1.8-7.6-3.6-15.5-5-24.6c-3.3-22.2-5.9-47.7-2.9-83.2c7.2,6.4,16.2,11.4,26.9,11.4
	c0.1,0,0.1,0,0.2,0c0.3,0,0.7,0,1,0c11.6-0.4,19.8-5.2,25.9-11.6c0.2,0.1,0.3,0.4,0.3,0.6c1.3,8.7,2.3,15.5,3.6,35.6v0.6
	c2.5,37.3-1.9,71.6-6,93.9c-1.8,9.9-9.2,44.1-27.2,69.3c-2.9,4-7.7,8.6-10,8.8c-0.1,0-0.3,0-0.4,0c-0.3,0-0.5,0-0.5,0
	C38,303.6,37.6,302.5,37.7,300z M87.8,65c-0.4,0.8-0.7,1.6-1.1,2.5l-0.1,0.2c-5.4,12.4-13.6,31-34.1,31.7c-0.3,0-0.6,0-1,0
	c-22.6,0-37.2-28-39.9-33.6C5.9,54.1,1.4,33.9,9.1,26c2.4-2.5,3.4-2.9,7.6-4.7c1.9-0.8,5-2.1,9.4-4.3c4.2-2,7.1-4.4,9.7-6.5
	c3.8-3.1,6.5-5.3,12.4-5.5h0.2c0.3,0,0.6,0,0.8,0C57,5,60.7,7.6,65,10.6c2.2,1.6,4.5,3.2,7.4,4.4c5.7,2.4,9.1,3.4,11.3,4h0.1
	c2.7,0.8,3.4,1,5.4,2.8C97.7,29.1,93.8,51.6,87.8,65z"/>
</svg>
