<?xml version="1.0" encoding="utf-8"?>
<!-- Generator: Adobe Illustrator 28.1.0, SVG Export Plug-In . SVG Version: 6.00 Build 0)  -->
<svg version="1.1" id="Layer_2_00000151520685036735499730000014428426952927813515_"
	 xmlns="http://www.w3.org/2000/svg" xmlns:xlink="http://www.w3.org/1999/xlink" x="0px" y="0px" viewBox="0 0 122.1 376.5"
	 style="enable-background:new 0 0 122.1 376.5;" xml:space="preserve">
<style type="text/css">
	.st0{fill:#B6C5DA;}
</style>
<g>
	<path class="st0" d="M118.6,290.3c-2.2-10.3-5.6-25.8-15.6-43.8c7.2-55.2,3-89.6-1.5-117.6c-0.2-1.1-0.4-2.3-0.6-3.6l-0.2-1.2
		C98.4,110,94.4,86.3,93,53.5c-0.1-3.1-0.2-5.9-0.4-8.6c-0.6-13.5-1-21.6-0.6-30.5c0.7-6.9-1.3-14.8-7-16.2C84.4-1.9,83.8-2,83.1-2
		c-9.7,0-19.3,16.9-19.4,17.1C58,25.6,54.7,49,51.6,71.7l-0.2,1.1c-0.6,4.4-1.2,8.6-1.8,12.7c-0.8,5.2-1.4,9.8-2,14.2
		c-2.8,20-4.7,33.2-12.4,64.2c-0.7,2.8-1.4,5.4-2,8l-0.3,1.1c-4.8,18.8-8.6,33.6-10.6,73.5c-2,3.4-3.7,6.4-5.1,8.8
		c-12.2,21.8-30.1,68.6-10.5,89.8c2.4,2.6,4.3,3.6,6.9,4.9c2.8,1.4,7.1,3.6,15.7,9.7c6.7,4.7,11.3,8.5,14.6,11.2
		c6.1,5,9.5,7.8,15.2,7.8c0.1,0,0.1,0,0.2,0l0.3,0c6.4-0.2,9.6-3.5,13.7-7.7l0.1-0.1c3.2-3.3,7.2-7.3,14.3-11.7
		c7.9-4.9,13.2-6.2,17.4-7.3c4.6-1.1,8.7-2.1,12.7-6.9C127.8,333.2,124.2,316.2,118.6,290.3z M59.2,371.5c-3.2,0-5.1-1.5-10.9-6.2
		l-0.2-0.2c-3.4-2.8-8.1-6.6-14.8-11.4c-9-6.3-13.5-8.7-16.6-10.2c-2.4-1.2-3.3-1.7-4.9-3.4c-16.8-18.2,0.2-61.4,11.5-81.6
		c5.9-10.5,23.7-42.4,42.1-42.4h0c0.7,0,1.4,0,2.1,0.1c10.9,1.5,18.7,15.2,28.6,32.5c10,17.6,13.3,32.9,15.5,43.1
		c5.1,23.7,8.5,39.4,0.8,48.4c-2.6,3.1-4.9,3.6-9.1,4.7C99,346,92.8,347.5,84,353c-7.9,4.9-12.4,9.5-15.7,12.9
		c-3.7,3.8-5.3,5.5-8.9,5.6L59.2,371.5z M85.6,45.2l0.4,8.6c1.4,33.2,5.6,58.2,7.8,71.6c0.3,1.7,0.5,3.3,0.8,4.7
		c4.2,25.9,8.1,57.4,2.6,106.3c-8.6-14.7-16.6-25.5-28.6-27.1c-1-0.1-2-0.2-3.1-0.2c-13.9,0-26.3,12.8-35.4,25.5
		c2.1-30.4,5.5-43.7,9.7-60c0.8-2.9,1.5-5.9,2.3-9.1c7.7-31.4,9.6-44.7,12.5-64.9l0.1-0.7c0.6-4.1,1.2-8.6,1.9-13.5
		c0.6-4.2,1.2-8.5,1.9-13.1l0.1-0.7c3.1-22,6.2-44.8,11.3-54.2C72.7,13.1,79.7,5,83.1,5c0.1,0,0.2,0,0.3,0c0.7,0.4,2.2,3.9,1.7,8.8
		c0,0,0,0.2,0,0.2C84.7,23.3,85,32,85.6,45.2z"/>
	<path class="st0" d="M75.6,265.6c0.9-1.2,1.8-1.9,2.6-1.9c1,0,2.3,0.9,3.7,2.5c2.7,3.2,4.7,7,6.6,10.9c7.1,15.6,12,32.4,16.7,48.7
		l0.6,1.9l0.1,0.5c0.1,0.6,0.6,1.1,1.1,1.3c0.3,0.1,0.5,0.2,0.8,0.2c0.3,0,0.6-0.1,0.9-0.2c0.9-0.4,1.3-1.4,1-2.3l-0.1-0.5
		c-0.2-0.8-0.4-1.8-0.7-3c-10.9-45.9-20.4-66.4-30.8-66.4c-2.7,0-5.3,1.4-7.7,4.3c-2.3,2.9-3.7,6-4.9,8.7c-2.4,6-4.1,12.1-5.6,17.8
		c-1.6,6.2-2.9,12.6-4.2,18.8c0-0.4,0.1-2.6,0.1-2.6c0.3-8.5,0.6-17.3,0.2-26.1l0-0.1c-0.3-5.3-1-16.4-7.3-16.4
		c-1.6,0-3.1,0.7-4.9,2.2c0,0-0.1,0.1-0.1,0.1c-2.6,2.5-4.3,5.5-5.8,8.1c-3.1,5.6-5.7,11.4-8,16.7c-4.1,9.7-8.3,20.9-12.9,34.2
		c-0.4,1,0.2,2.1,1.2,2.5c0.2,0.1,0.5,0.1,0.7,0.1c0.8,0,1.5-0.5,1.9-1.2l1.4-3.3c4-9.9,8.2-20.2,12.8-30c0.4-0.8,0.8-1.7,1.3-2.7
		c2.6-5.6,7.9-16.7,11.8-19.9c0.2,0.5,0.3,1.2,0.4,1.4l0.1,0.3c1,5.1,1,10.6,1,16l0,1.4c-0.1,6.4-0.4,12.8-0.7,19.1
		c-0.3,5.6-0.6,11.4-0.7,17.2l0,0.2c0,2.3-0.1,4.6,0.2,7.1l0,0.1c0.1,1,0.3,2.2,1.1,3.4c0.8,1,1.9,1.6,3.1,1.6c1.6,0,3.1-1,3.8-2.5
		c1.1-2.3,1.7-4.6,2.2-6.9c0.1-0.5,0.2-1.1,0.4-1.6c0.9-4.4,1.8-8.9,2.7-13.3c1.4-7.3,2.9-14.9,4.7-22.2c0.3-1,0.5-1.9,0.8-2.9
		C69.3,279.4,71.3,271.7,75.6,265.6z"/>
</g>
</svg>
