<?xml version="1.0" encoding="utf-8"?>
<!-- Generator: Adobe Illustrator 28.1.0, SVG Export Plug-In . SVG Version: 6.00 Build 0)  -->
<svg version="1.1" id="Layer_2_00000025416671711820646600000013112663771948862357_"
	 xmlns="http://www.w3.org/2000/svg" xmlns:xlink="http://www.w3.org/1999/xlink" x="0px" y="0px" viewBox="0 0 115.3 385.5"
	 style="enable-background:new 0 0 115.3 385.5;" xml:space="preserve">
<style type="text/css">
	.st0{fill:#B6C5DA;}
</style>
<path class="st0" d="M112.4,28.3c-3.7-8.7-15.5-15.2-35.2-19.1C71,8,66.8,5.7,62.6,3.5c-4.4-2.3-8.9-4.8-14.9-5.3
	C46.6-2,45.5-2,44.4-2c-17,0-34,11.4-42.5,28.3C-3.3,36.8-2.4,47-0.5,67.2c1.2,12.8,4.1,24.3,10,47c3.1,12.1,5.1,19.9,7.4,25.6
	c-1.1,29-0.6,37.9,1.6,54.9c2.6,20.3,6.1,32.8,9.4,44.9l0,0.1c3.8,13.8,7.4,26.9,9.3,50.5c1.8,22.8,4.3,34.5,9.4,53.9
	c5.2,19.5,13.5,42.8,23.7,43.2c0.4,0.1,0.8,0.1,1.2,0.1c0.1,0,0.1,0,0.2,0c3.7,0,7.4-2,9.3-5c7-11.1,6.4-30,5.9-46.6
	c-0.1-1.8-0.1-3.6-0.2-5.3c-0.4-18.6,0.8-27.9,2.5-40.9c1.8-13.6,4-30.4,5.6-64.8c0.1-2.8,0.3-5.8,0.5-9l0-0.6
	c1.2-22.3,2.8-52.8-0.4-86.8c0.9-3.3,1.9-7.1,3.2-11.6c2.5-9,5.2-15.1,7.9-21.1c2.9-6.4,5.6-12.5,8-21.8l0.2-0.8
	C116.5,64.4,120.7,48,112.4,28.3z M88.3,214.9l0,0.1c-0.2,3.4-0.3,6.6-0.5,9.5c-1.6,34.1-3.8,50.8-5.6,64.3c-1.8,13.3-3,23-2.6,42
	c0,1.1,0.1,2.2,0.1,3.3l0.1,2.1c0.5,15.6,1,33.2-4.9,42.6c-0.6,0.9-2.1,1.6-3.3,1.6c-0.2,0-0.3,0-0.5,0c0,0-0.3,0-0.3,0
	c-0.1,0-0.2,0-0.3,0h-0.2c-2.4,0-9.7-9.3-17.2-38c-5-19-7.4-30.5-9.2-52.7c-1.9-24.2-5.6-37.6-9.5-51.9l0-0.1
	c-3.3-11.9-6.6-24.1-9.2-43.8c-1.8-13.9-2.4-22.3-1.9-41.6c5.8,9,15.5,20.5,29.9,21.8c0.8,0.1,1.7,0.1,2.6,0.1c0,0,0,0,0,0
	c0,0,0,0,0,0c13,0,25-8.6,32-23.1c0.5-1,0.9-2,1.3-3.1C90.5,173.8,89.2,197,88.3,214.9z M88.3,126.2c-0.3,0.4-0.5,0.9-0.5,1.5
	c0,0,0,0.1,0,0.1c-0.1,0.2-0.1,0.5-0.2,0.7l-0.2,0.6c-2.8,10.4-4.1,15.2-5.9,18.7c-2.2,4.5-10.5,19.2-25.6,19.2
	c-0.7,0-1.4,0-2.1-0.1c-13.9-1.2-22.8-14.6-29-26.1c-2.7-5-4.6-12.3-8.7-28.4c-5.7-22.4-8.6-33.6-9.8-45.9
	C4.7,47.7,3.8,38.2,8.2,29.4C15.5,14.8,30,5,44.3,5c0.1,0,0.2,0,0.3,0c0.9,0,1.7,0,2.5,0.1c4.6,0.4,8,2.2,12.3,4.5
	c4.4,2.4,9.3,5,16.5,6.5c17,3.4,27.4,8.5,30.1,14.9c7.4,17.5,3.6,32.4,1.5,40.4l-0.2,0.8c-2.2,8.7-4.8,14.5-7.6,20.7
	C96.9,99,94,105.4,91.4,115C90.2,119.3,89.2,123,88.3,126.2z"/>
</svg>
