<?xml version="1.0" encoding="utf-8"?>
<!-- Generator: Adobe Illustrator 28.1.0, SVG Export Plug-In . SVG Version: 6.00 Build 0)  -->
<svg version="1.1" id="Layer_2_00000078758364293136224270000002086177203129781173_"
	 xmlns="http://www.w3.org/2000/svg" xmlns:xlink="http://www.w3.org/1999/xlink" x="0px" y="0px" viewBox="0 0 95.4 329.4"
	 style="enable-background:new 0 0 95.4 329.4;" xml:space="preserve">
<style type="text/css">
	.st0{fill:#B6C5DA;}
</style>
<path class="st0" d="M94.1,24.9C89.9,12.5,81.5,7.7,78,5.7C69,0.6,57.4-2,43.5-2c-4.6,0-8.7,0.3-11.4,0.5c-0.9,0.1-1.7,0.1-2.3,0.1
	C15.6-0.8,6.8,3.2,3.6,10.4C-9.7,40.3,4.3,114.6,11,130.8c0.6,44.9,2.4,83.2,5.2,105c0.1,0.6,6.5,64.5,20.4,87.5c3.1,5.1,7,8,11.1,8
	h0.1c0.1,0,0.1,0,0.2,0c6.6-0.1,8.5-4.7,9.6-9.7v-0.2c2.9-19.1,3.5-36.2,4.1-51.2v-0.6c0.4-10.6,0.7-20.6,1.9-29.2
	c2.3-17.3,4.7-26.4,7.2-36l0.1-0.3c2-7.6,4.1-15.5,6.1-27.8c5.1-31,4.7-47,4.3-67.3v-0.2c1.4-3.8,2.8-8,4.3-12.6l0.4-1.3
	c0.4-1.2,0.8-2.5,1.2-3.7C95.1,66.3,101.5,46.7,94.1,24.9z M38.2,155c0.8,0.1,1.6,0.1,2.3,0.1c0.1,0,0.1,0,0.2,0
	c3.5,0,8.4-0.8,15.8-6.4c7.2-5.4,12.7-12.2,18-23.3c0,13.7-0.9,27.9-4.4,49.8c-2,12.2-4.1,19.9-6,27.3c-2.5,9.4-5.1,19.1-7.5,37
	c-1.2,9.1-1.6,19.3-1.9,30.2c-0.5,14.9-1.1,31.8-4,50.6c-0.9,4.1-1.7,4.1-2.6,4.1h-0.4c-1.2,0-3.2-1.4-5.1-4.6
	c-12.7-21.1-19.3-84.1-19.4-84.7c-2.4-19.6-4.2-52.6-4.9-91.8C23.9,150.9,30,154.3,38.2,155z M80.4,89.1l-1.6,5
	c-1.5,4.8-3,9.2-4.5,13.2c-7.1,19.4-13.2,29.1-22.1,35.7c-6.1,4.5-9.6,5-11.8,5c-0.7,0-1.3-0.1-1.8-0.1c-9-0.7-14-5.4-20.8-19
	C11.8,117-2.8,41.6,9.9,13.1c2-4.4,9.1-7.2,20.2-7.6c0.6,0,1.4-0.1,2.3-0.1h0.2C35.2,5.3,38.9,5,43.3,5c0.1,0,0.1,0,0.2,0
	c12.7,0,23.2,2.3,31,6.8c3.1,1.8,9.6,5.5,13,15.4C94.1,46.7,88.4,64.5,80.4,89.1z"/>
</svg>
