<?xml version="1.0" encoding="utf-8"?>
<!-- Generator: Adobe Illustrator 28.1.0, SVG Export Plug-In . SVG Version: 6.00 Build 0)  -->
<svg version="1.1" id="Layer_2_00000094601217801967329930000014959474025872439195_"
	 xmlns="http://www.w3.org/2000/svg" xmlns:xlink="http://www.w3.org/1999/xlink" x="0px" y="0px" viewBox="0 0 183.9 337.1"
	 style="enable-background:new 0 0 183.9 337.1;" xml:space="preserve">
<style type="text/css">
	.st0{fill:#B6C5DA;}
</style>
<path class="st0" d="M168.7,222c0.4-4.3,0.3-11,0.3-18.6V203c-0.1-12.4-0.2-27.7,1.4-38.6c5.7-40.2,5.4-51.3,5.1-62v-1.5
	c-0.5-19.8-7.5-42.2-19.2-61.6c-10.8-17.9-23-29.1-31.9-29.1h-0.2c-2.8,0.1-5.1,1.3-6.5,3.6c-1.7,2.9-1.5,6.9,0.6,11l0.2,0.4
	c7.6,14.9,11,21.6,13.9,45.7c1.5,12.3,0.9,24.5-1.8,36.5c-1.5-6.2-3.7-13.1-7.5-21.2c-4-8.5-7.2-14.4-10-19.6l-0.1-0.3
	c-3.3-6.2-6-11-8.7-17.9c-1.3-3.2-2.5-6.6-3.7-10l-0.3-0.7C94.4,21.4,88.8,5.8,77.9,0c-1.7-0.9-4.4-2-7.3-2c-1.5,0-3,0.3-4.3,0.9
	c-5.7,2.5-7.2,9.1-7.6,11c-4.4,25.3-1.2,51.4-0.7,54.7c0.9,20.3,0.1,27-7.5,48.3c-4.2-4.5-8.4-9.9-12.5-17.5
	C28.8,78,24.6,61.2,21.6,48.9s-4.7-19-9.7-20.4c-0.8-0.2-1.6-0.3-2.4-0.3c-4.4,0-6.7,3.7-7.4,4.9L2,33.3C-6.3,47.1,0.9,86,2.6,92.6
	c5.1,20.1,9.4,29.9,13.5,39.4l0.1,0.1c3.6,8.3,7,16.2,11,30.9l0.3,1.2c2.6,9.7,9.6,35.3,1.3,62.9c-3.3,10.9-7,17.6-10.3,23.5
	c-4.4,7.8-8.1,14.5-7.8,27c0.5,21.7,9.6,38.5,26.2,48.8l1.1,0.7c5.2,3.3,17.2,10.9,29.5,10.9c2.7,0,5.3-0.4,7.7-1.1
	c8.3-2.6,13.7-7.9,18.1-12.2l0.1-0.1c1.9-1.9,4.6-4.6,5.7-4.6c1.8,0.1,4.5,2.8,7.2,5.5c4.6,4.6,10.4,10.4,19.5,12.8
	c2.5,0.7,5.1,1,7.8,1c11.6,0,21.3-6.3,25-8.6c24.3-15.6,27.1-35.3,27.4-41C186.9,268.9,179.6,240,168.7,222z M101.6,294.7
	c5-0.5,9.7-2.4,13.1-5.4c0.7-0.6,0.9-1.7,0.5-2.5c-0.4-0.7-1-1-1.8-1c-0.2,0-0.4,0-0.6,0.1c-4.3,1.3-8.6,2-12.8,2
	c-6.1,0-11.8-1.4-16.8-4.2c-0.3-0.2-0.6-0.2-1-0.2c-0.6,0-1.1,0.2-1.5,0.7c-0.6,0.7-0.6,1.8,0,2.5c3.5,4.5,9,7.3,15.2,8
	c-0.4,3.2-0.5,6.3-0.5,9c-0.1,2.9-0.1,6.2,0.4,9.8c-2.6,1.1-4.9,3.4-7.5,6c-3.8,3.8-8.6,8.5-15.3,10.5c-1.7,0.5-3.7,0.8-5.7,0.8
	c-10.2,0-21.1-6.9-25.8-9.8l-1.1-0.7c-18.4-11.4-22.6-29.7-23-43.1c-0.3-10.6,2.6-15.7,7-23.5c3-5.4,6.8-12.2,10.2-22.6
	c2.9-3.6,4.1-4,5.4-4.4c1.1-0.4,2.2-0.5,3.4-0.5c2.9,0,5.7,1,9.1,2.2c3.9,1.4,8.4,3,13.7,3c2.1,0,4.2-0.3,6.3-0.8
	c2.9-0.7,5.7-1.9,9.1-3.8c5.7-3.1,9.7-8.2,12.9-12.3l0.1-0.1c1.6-2,4.3-5.5,5.3-5.6c1.5,0,4.3,2.2,6.9,4.4c4.9,4,11,9,19.2,9
	c0.3,0,0.5,0,0.8,0c5.7-0.2,10.5-2.6,14.7-4.6c2.7-1.3,5-2.4,6.6-2.5c0.4,0,0.8,0,1.2,0c3.7,0,6.8,1.5,9.2,4.5
	c11.8,14.5,21.5,47.6,20.3,69.5c-0.3,4.8-2.8,21.7-24.2,35.5c-3.2,2.1-11.7,7.5-21.2,7.5c-2.1,0-4.1-0.3-6-0.8
	c-7.2-1.9-12.3-7-16.4-11c-3.1-3.1-6.1-6.1-9.6-7.1C102.7,307.1,102.7,300.8,101.6,294.7z M65,64.2V64c0-0.1,0-0.1,0-0.2v-0.1
	c-0.4-2.8-3.5-28.4,0.7-52.6c0.4-2.1,1.5-4.9,3.5-5.8C69.5,5.1,70,5,70.6,5c1.6,0,3.2,0.7,4,1.2c8.6,4.5,14,19.5,19.2,34.1
	c1.3,3.7,2.6,7.3,4,10.8c2.9,7.4,5.7,12.6,9.1,18.7L107,70c2.8,5.1,5.9,10.9,9.8,19.2c6.3,13.5,8,23.4,9.5,32.9
	c-5.6,15.2-14.6,30.2-26.9,44.8l-0.4,0.5c-1.5,1.8-2.1,2.4-3,2.4c-0.4,0-0.8-0.1-1.4-0.3c-6.6-2.5-9.4-9.7-12.2-16.6l-0.1-0.2
	c-1.3-3.3-2.6-6.4-4.2-9.2c-6.4-10.8-13-16.9-19.5-22.8c-0.9-0.8-1.8-1.6-2.6-2.4C64.9,93.5,66,86.4,65,64.2z M72,147.1
	c1.4,2.4,2.6,5.3,3.8,8.4c3,7.6,6.8,17,16.2,20.6c1.3,0.5,2.6,0.7,3.8,0.7c4.3,0,6.9-3.1,8.4-4.9l0.4-0.5
	c27.3-32.2,38.9-66.3,34.6-101.3c-3.1-25.3-7-32.9-14.7-48.1l-0.2-0.4c-1.1-2.2-1.1-3.7-0.8-4.2c0.1-0.1,0.4-0.2,0.7-0.2
	c5.2,0,15.7,8.8,25.9,25.7c11,18.4,17.7,39.6,18.2,58.2v1.5c0.3,10.4,0.6,21.2-5,60.8c-1.6,11.4-1.5,27.1-1.4,39.7c0,3.8,0,7.1,0,10
	c-2.8-2.6-6.9-4.9-12.7-4.9c-0.6,0-1.1,0-1.7,0.1c-3,0.2-6,1.7-9.2,3.2c-3.6,1.7-7.6,3.7-11.9,3.9c-0.2,0-0.3,0-0.5,0
	c-5.7,0-10.3-3.8-14.8-7.4c-3.7-3-7.2-5.9-11.2-6h-0.1c-4.4,0-7.4,3.9-10.9,8.4c-2.9,3.8-6.3,8-10.7,10.5c-2.9,1.6-5.1,2.5-7.5,3.1
	c-1.6,0.4-3.1,0.6-4.6,0.6c-4,0-7.7-1.3-11.3-2.6c-3.6-1.3-7.3-2.6-11.5-2.6c-1.9,0-3.7,0.3-5.5,0.9c-0.1,0-0.2,0.1-0.3,0.1
	c5.3-26-1-49.1-3.4-58.1l-0.3-1.1c-4.1-15.4-7.6-23.5-11.4-32.1c-4-9.2-8.2-18.8-13.2-38.4c-3-11.8-7.1-44.4-1.3-53.9L8,36.6
	c0.8-1.4,1.1-1.5,1.4-1.5c0.1,0,0.2,0,0.4,0.1c1.4,1.2,3.4,9.4,4.9,15.4c3.1,12.6,7.4,30,17,48c7.2,13.6,14.8,20.6,22.1,27.3
	C60.2,131.7,66.2,137.2,72,147.1z"/>
</svg>
