<?xml version="1.0" encoding="utf-8"?>
<!-- Generator: Adobe Illustrator 28.1.0, SVG Export Plug-In . SVG Version: 6.00 Build 0)  -->
<svg version="1.1" id="Layer_2_00000137109435911290241320000008093862443653591976_"
	 xmlns="http://www.w3.org/2000/svg" xmlns:xlink="http://www.w3.org/1999/xlink" x="0px" y="0px" viewBox="0 0 158.9 294.4"
	 style="enable-background:new 0 0 158.9 294.4;" xml:space="preserve">
<style type="text/css">
	.st0{fill:#B6C5DA;}
</style>
<path class="st0" d="M149.5,8.5C140.4-0.2,128.5-2,120.1-2c-3.6,0-6.3,0.4-7,0.5C103.4,0,98.6,3.1,94.3,5.8
	c-3.9,2.5-6.9,4.4-13.4,4.7c-0.5,0-0.9,0-1.4,0c-6.5,0-10.8-2.1-15.8-4.5c-5.5-2.6-11.2-5.3-20-5.6c-0.4,0-0.8,0-1.2,0
	c-17.4,0-34.9,11.8-41.6,28c-6.8,16.4-0.6,32.6,5.4,48.3c2.7,7,7.2,18.9,14.1,26.8c1.4,28.9-0.1,60.9-1.2,75.4
	C15.8,223,8.9,245.4,4.8,258.7l0,0.1c-1.5,4.9-2.6,8.4-3.1,11.6c-1.6,10.9,1.2,17.6,8.4,19.8c0.8,0.2,1.7,0.4,2.8,0.4
	c4,0,8.8-1.8,10.7-3.2c9.1-6.4,24.8-35.9,27.8-41.8c11.3-23.3,13.6-32.9,15.3-40c0.4-1.7,0.7-3.1,1.2-4.5c0.6-2,1.2-4.1,1.8-6.2
	c2.3-7.9,4.7-16.1,6.9-21.6c1.6-4.1,4-6.3,4.7-6.7c0.4-0.1,0.9-0.2,1.3-0.2c3.4,0,5.8,3.8,6.7,5.4c10.4,18.7,8.5,51.7,6.8,62.8
	c-3.3,22.2-4.5,28.4-9.6,37.9l-0.1,0.2c-5.8,10.7-4.5,16.4-2.3,19.2c2.1,2.9,5.9,4.2,8.6,4.3c0.1,0,0.2,0,0.3,0c0.3,0,0.5,0,0.8,0
	c8.6-1,24.3-13.9,34.6-32.8c10.2-18.6,17.2-41.8,18.2-94c0.1-4,0.2-8,0.3-11.8l0-0.2c0.5-17.8,1.1-36.2-1.9-63.7
	c10-13,14.3-32.5,14.7-36.9C161.3,41.3,163.3,21.6,149.5,8.5z M140,157.6c-0.1,3.9-0.2,7.9-0.3,11.9c-1,50.8-7.6,73-17.3,90.8
	c-9.8,18-24.3,28.6-29.3,29.2c-0.6,0-2.5-0.5-3.3-1.5c-1-1.3-0.5-5.5,2.9-11.8l0.1-0.2c5.6-10.5,6.9-17,10.3-40.2
	c1.7-11.8,3.7-46.8-7.6-67.2c-1.2-2.1-5.6-9-12.8-9c-1.1,0-2.2,0.2-3.3,0.5c-3.3,0.9-7.2,5.5-9.3,10.8c-2.3,5.8-4.7,14.2-7.1,22.3
	c-0.6,2.1-1.2,4.1-1.8,6.2c-0.5,1.5-0.8,3-1.2,4.7l0,0.1c-1.6,6.7-3.8,15.9-14.7,38.5c-6.5,12.4-19.2,34.7-25.6,39.1
	c-1.1,0.8-4.5,1.9-6.6,1.9c-0.4,0-0.7-0.1-0.7-0.1c-1.5-0.5-5.2-1.6-3.6-12.1c0.4-2.7,1.4-6,2.9-10.7c4.2-13.6,11.2-36.4,14.7-81.3
	c1.1-13.6,2.4-42.4,1.5-69.9c2,1.1,4.2,1.8,6.5,2c0.6,0,1.1,0.1,1.7,0.1c4.2,0,7.3-1.4,10-2.6c2.8-1.2,5.1-2.3,8.8-2.3
	c0.5,0,1.1,0,1.7,0.1c4.3,0.3,6.5,1.4,9.1,2.7c2.9,1.4,6.1,3,11.8,3.2c0.4,0,0.8,0,1.2,0c0.1,0,0.1,0,0.2,0c5.1,0,7.6-1.2,10.5-2.6
	c2.4-1.1,5.5-2.5,11.7-3.8c3.2-0.6,6.1-1,9-1c2.4,0,4.5,0.2,6.6,0.4c1.8,0.2,3.7,0.4,5.7,0.4c3.1,0,6-0.5,9.1-1.5
	c2.7-0.9,5.1-2.4,7.4-4.1C141,124.5,140.5,141.3,140,157.6z M43.5,7.5c7.3,0.2,12.4,2.6,17.3,5c4.8,2.3,9.7,4.6,16.6,5
	c-0.2,6.3-0.1,12.4,0,18.1l0.1,3.4c0.1,4.6,0.2,9.4,0.5,14.1c-6.9,0.8-13.1,4.7-16.2,10.4c-0.5,0.8-0.3,1.9,0.5,2.5
	c0.4,0.3,0.8,0.5,1.3,0.5c0.4,0,0.9-0.1,1.2-0.4c5.1-4,11-6.2,16.8-6.2c4.2,0,8.2,1.1,11.8,3.4c0.3,0.2,0.7,0.3,1.1,0.3
	c0.5,0,1.1-0.2,1.5-0.6c0.7-0.7,0.7-1.8,0.2-2.5c-3-4.2-7.6-6.8-13-7.4c0.9-5.3,1.3-11.1,1.3-17.6c-0.1-5.1-0.4-11.5-1.9-18
	c7.6-0.6,11.7-3.2,15.7-5.8c3.8-2.5,7.8-5,16-6.3c0,0,2.3-0.4,5.7-0.4c5.9,0,17,1.1,24.8,8.6c11.3,10.7,9.5,28.5,8.1,42.8
	c-1,9.5-9.7,36.8-23.8,41.7c-2.3,0.8-4.4,1.2-6.8,1.2c-1.6,0-3.2-0.2-5.1-0.4c-2.1-0.2-4.5-0.5-7.3-0.5c-3.3,0-6.7,0.4-10.4,1.1
	c-7.1,1.5-10.6,3.1-13.3,4.4c-2.6,1.2-4,1.9-7.6,1.9c-0.3,0-0.7,0-1,0c-4.2-0.1-6.3-1.2-9-2.5c-2.7-1.3-6-3-11.6-3.4
	c-0.8-0.1-1.5-0.1-2.2-0.1c-5.1,0-8.7,1.6-11.6,2.8c-2.5,1.1-4.5,2-7.2,2c-0.4,0-0.7,0-1.1,0C24,103.7,16.2,83.1,12.9,74.3
	C7.1,59.2,1.7,45,7.4,31.1C13,17.6,28,7.5,42.5,7.5C42.8,7.5,43.1,7.5,43.5,7.5z"/>
</svg>
