<?xml version="1.0" encoding="utf-8"?>
<!-- Generator: Adobe Illustrator 28.1.0, SVG Export Plug-In . SVG Version: 6.00 Build 0)  -->
<svg version="1.1" id="Layer_2_00000124840286192976764460000013633151340755274938_"
	 xmlns="http://www.w3.org/2000/svg" xmlns:xlink="http://www.w3.org/1999/xlink" x="0px" y="0px" viewBox="0 0 151.9 283.9"
	 style="enable-background:new 0 0 151.9 283.9;" xml:space="preserve">
<style type="text/css">
	.st0{fill:#B6C5DA;}
</style>
<path class="st0" d="M137,183.7c-1.6-2.3-3.8-4.2-6.8-5.7c3.4-21.2,2.3-50.6-0.8-66.6c-1.7-8.7-4.1-16.3-6.4-23.7
	c-3.3-10.6-6.5-20.7-7-32c-0.2-5.2-0.3-10-0.4-15.3c-0.1-7.3-0.2-14.2-0.8-21.5c-0.7-8.3-6.4-9.6-9.5-9.9c0.3-2.4,0.3-5.7-1.9-8.2
	c-1.6-1.8-4-2.7-7.1-2.7C84-1.9,65.6,9,49.3,25.8C38.6,36.9,19.8,60.2,14.9,90.3C9.8,121.9,8.8,150,11.6,184
	c-12.2,11.3-19.9,52.5-7.1,85.1c4.8,12.3,19.9,16.7,31.5,16.8c0.1,0,0.2,0,0.3,0c2.8,0,5.7-0.2,8.3-0.7c2.3-0.4,4.5-1,6.7-1.8
	c6.6-2.4,12.3-6.3,17.1-9.5c3.6-2.4,7.3-4.9,9.4-5.3c0.1,0,0.2,0,0.4,0c0.1,0,0.1,0,0.2,0c4.8,0.3,7.6,2,11.2,4.3
	c4.1,2.5,9.2,5.7,17.8,6.1c0.5,0,1.1,0,1.6,0c15.9,0,29.9-11.7,37.1-21.7C161.6,235.7,151.5,205.2,137,183.7z M109.1,271.9
	c-0.4,0-0.9,0-1.3,0c-6.9-0.4-10.6-2.7-14.5-5.1c-3.2-2-6.8-4.2-12-5c0.2-2.4,0.4-5,0.5-7.4c0.1-1.6,0.2-3.1,0.3-4.5
	c0.1-1.3,0.2-2.8,0.3-4.4c0.2-2.5,0.4-5.1,0.5-7.7c4.5-0.5,8.8-2.4,11.9-5.3c0.4-0.4,0.6-0.9,0.6-1.5c0-0.6-0.3-1.2-0.8-1.6
	c-0.4-0.3-0.8-0.4-1.2-0.4c-0.1,0-0.3,0-0.4,0c-4.5,1-8.3,1.7-12.2,1.8c-0.4,0-0.8,0-1.3,0c-3.5,0-6.9-0.5-11-1.1
	c-0.1,0-0.2,0-0.3,0c-0.8,0-1.5,0.4-1.8,1.2c-0.4,0.8-0.2,1.8,0.5,2.4c2.9,2.4,6.5,3.9,10.4,4.4c-1.1,3.5-1.8,7.3-2.2,11.7
	c-0.3,4.5,0,8.6,0.7,12.4c-4,0.8-8,3.5-12.4,6.6c-5,3.5-10.6,7.3-17.1,9.2c-0.2,0.1-0.4,0.1-0.7,0.2c-0.3,0.1-0.5,0.1-0.8,0.2
	c-0.5,0.1-1,0.2-1.5,0.3c-2.2,0.4-4.6,0.6-7,0.6c-10.3,0-22.1-3.8-25.4-12.3c-13.2-33.8-1.8-73.8,6.6-78.4
	c6.2-3.3,12.5-4.1,21.3-5.1c2.8-0.3,5.6-0.7,8.8-1.1c4.2-0.6,9-2.3,14-4.1c5.9-2.1,11.9-4.3,16.5-4.3h0.3c4.8,0,8.8,1.6,13.1,3.2
	c4.4,1.7,9.3,3.6,15.5,3.9c13.8,0.6,21.2,2.8,24.1,7.1c13.3,19.3,22.7,46.8,9.4,65.4C133.8,262.5,121.6,271.9,109.1,271.9z
	 M98.3,9.1c-0.1,1.1-0.3,2.3,0,3.4c-9.4,9.2-17.5,20.5-23.4,33C70,56.5,70,69,70.6,78.6v0.8c0.2,3.3,0.3,6.5,0.2,9.7
	c-0.1,1,0.7,1.9,1.7,2.1c0.1,0,0.2,0,0.3,0c0.9,0,1.7-0.6,1.9-1.5c0.8-3.4,1-6.9,1.2-10.3l0.1-0.8c0.4-9.2,1-20.7,5.3-30.2
	c5-10.7,11.5-21.2,20.4-32.8c0.7,0.2,1.5,0.2,2.2,0.3c2.7,0.2,3.7,0.3,4,3.6c0.6,6.9,0.7,13.5,0.8,20.5v1.6
	c0.1,4.6,0.1,9.4,0.4,14.5c0.5,12.3,3.8,22.8,7.3,33.9c2.3,7.2,4.6,14.7,6.2,22.8c2.9,15.1,4,42.6,1,62.9c-4.3-1.1-9.6-1.7-16.1-2
	c-5-0.2-9.2-1.8-13.2-3.4c-4.7-1.8-9.5-3.7-15.7-3.7h-0.4c-5.7,0.1-12.3,2.5-18.7,4.8l-0.2,0.1c-4.6,1.6-9,3.2-12.4,3.7
	c-3.1,0.4-5.9,0.8-8.6,1.1h-0.2c-7.7,0.9-13.7,1.7-19.6,4c-2.6-32.1-1.5-58.9,3.3-88.9c4.6-28.5,22.5-50.5,32.7-61
	C69.3,15.2,86.1,5,96.5,5c1.2,0,1.7,0.3,1.8,0.4C98.8,5.9,98.5,8.1,98.3,9.1z"/>
</svg>
