<?xml version="1.0" encoding="utf-8"?>
<!-- Generator: Adobe Illustrator 28.1.0, SVG Export Plug-In . SVG Version: 6.00 Build 0)  -->
<svg version="1.1" id="Layer_2_00000175296546017504419670000010696393264429149336_"
	 xmlns="http://www.w3.org/2000/svg" xmlns:xlink="http://www.w3.org/1999/xlink" x="0px" y="0px" viewBox="0 0 80 313.4"
	 style="enable-background:new 0 0 80 313.4;" xml:space="preserve">
<style type="text/css">
	.st0{fill:#B6C5DA;}
</style>
<path class="st0" d="M76.2,6.3C69.7-0.6,56.9-2,47.4-2c-2.2,0-4.4,0.1-6.6,0.2c-0.3,0-0.6,0-0.9,0c-0.9,0-2,0-3.4-0.1
	C34.6-2,32.5-2,30.2-2c-9,0-21.5,0.9-26.3,7.8c-8,11.5-9.6,83.6,5.9,114.5c0.6,1.1,1.2,2.3,1.8,3.5c0.6,29.4,2.3,43.6,4.2,60l0.2,2
	c0.2,2.1,0.5,4.3,0.8,6.6c0.2,2.2,6.1,55.5,14.5,102.5c1.4,7.6,4.9,20.4,13.4,20.4h0.2c0,0,0,0,0.1,0c10-0.3,13.3-12.8,14.9-18.9
	l0.4-1.5c5.1-22.3,6.8-55.3,7.9-101.4c0.4-17.3,1.3-29.3,2.1-40.9v-0.5c0.9-12.4,1.7-24.1,1.9-40.9c2-5.4,3.6-10.6,4.6-15.1
	C81.4,76.6,85.8,16.3,76.2,6.3z M63.3,152.1c-0.8,11.7-1.7,23.8-2.1,41.3c-1.1,45.6-2.8,78.3-7.7,99.9c-0.1,0.3-0.2,0.7-0.3,1.1
	l-0.1,0.3c-1.1,4-3.6,13.5-8.3,13.6c-1.9,0-5-5.6-6.6-14.6c-8.4-47-14.2-99.8-14.4-102.1c-0.3-2.4-0.5-4.7-0.8-6.9l-0.2-1.8
	c-1.6-14-3.1-26.4-3.8-48c5.1,6.2,11.7,11.1,20.3,11.1h0.1c10.6,0,19.1-8.5,25.5-19.2C64.4,136,63.9,143.9,63.3,152.1z M65.8,108.2
	c-0.4,0.4-0.6,0.9-0.6,1.4v0.1c-5.8,14.6-15.1,29.4-25.9,29.4h-0.1c-7.5-0.1-14.1-5.6-20.8-17.4c-0.1-0.2-0.2-0.3-0.3-0.5
	c-0.7-1.3-1.4-2.6-2.1-4C2.3,89.8,3,19.3,9.6,9.8C11.1,7.6,15.9,5,30.2,5c2.3,0,4.5,0.1,6,0.1h0.1c1.3,0,2.5,0.1,3.4,0.1
	c0.5,0,1,0,1.4,0C43.3,5.1,45.4,5,47.4,5c11.4,0,20,2.2,23.7,6.1c6,6.3,4.4,60.1-1.1,83.5C69,98.7,67.6,103.4,65.8,108.2z"/>
</svg>
