<?xml version="1.0" encoding="utf-8"?>
<!-- Generator: Adobe Illustrator 28.1.0, SVG Export Plug-In . SVG Version: 6.00 Build 0)  -->
<svg version="1.1" id="Layer_2_00000144305754195165691080000010812756929866283650_"
	 xmlns="http://www.w3.org/2000/svg" xmlns:xlink="http://www.w3.org/1999/xlink" x="0px" y="0px" viewBox="0 0 161.1 324.4"
	 style="enable-background:new 0 0 161.1 324.4;" xml:space="preserve">
<style type="text/css">
	.st0{fill:#B6C5DA;}
</style>
<path class="st0" d="M158.1,25.6C151.8,13.2,140,4.5,124,0.5C117.3-1.2,110.1-2,102.6-2c-7.7,0-14,0.9-17,1.4
	C72,1.8,66.1,7.3,61.5,11.7c-3.3,3.1-5.6,5.3-10,5.7c-1,0.1-1.9,0.2-2.9,0.2c-1.9,0-3.6-0.2-5.1-0.5c-1.7-0.2-3.5-0.5-5.8-0.5
	c-3,0-6,0.5-9.7,1.4C12.8,22.2,1.1,36.4-1,53.5c-3.5,27.6,2.5,47.6,17.8,59.4c0.7,0.5,1.4,1,2,1.5c0.4,1.4,0.7,2.8,1.1,4l0.1,0.3
	c2.3,8.3,3.7,13.7,5,22.1c2.2,14.8,4.1,54.6-4.8,99c-0.2,0.9-0.5,2.2-0.9,3.8c-1.7,7.1-4.6,18.9-4.9,34.2
	c-0.2,8.6,1.2,14.8,2.4,18.5v0.1c1.4,3.7,4.2,5.7,7.9,5.7c0.1,0,0.1,0,0.2,0c0.3,0,0.7,0,1,0c4.8-0.4,7.1-5.2,7.7-6.7
	c4.7-11.4,8.5-20.2,11.7-27.3c2.8-6.2,5.7-11.7,8-16.1l0.1-0.2c3.3-6.4,6.8-13.1,10.3-21.5c0.1-0.4,0.3-0.7,0.4-1
	c3.1,15.3,5.1,30.3,6,45c1,16.4,1.6,28.3,0.8,42c-0.3,3.3,0.9,6.3,3.1,8.2c1.5,1.3,3.4,2,5.4,2c0.1,0,0.1,0,0.2,0
	c0.8,0,1.6-0.1,2.4-0.3c7.1-1.7,13-10.8,16.9-17.5c4.6-0.2,9.4-1.6,13-4c2.9-1.9,10.5-7.7,19.6-21.4c15.3-23,18.8-61.6,19.6-77.1
	c1.6-30.7,2.9-55-2.6-103.9c5.3-7,7.9-15.5,9.7-23.6c0.2-0.9,0.4-1.9,0.7-2.9l0.1-0.5C162.3,61.3,166.6,42.4,158.1,25.6z
	 M77.3,273.8c-1.1-19-4.1-38.6-8.9-58.6c0-0.1,0-0.1,0-0.2c0-0.4-0.1-0.8-0.3-1.1c-2.9-12-6.5-24.1-10.6-36.3l-0.7-2.1
	C51,158.7,46,143.9,33.5,121.8c2.4,0.7,4,0.9,4.7,1c2.2,0.3,4.3,0.4,6.3,0.4c0.1,0,0.1,0,0.2,0c7.1,0,12.1-1.6,17.5-3.3
	c4.2-1.3,8.9-2.8,15.4-3.7c4-0.6,7.9-0.9,11.9-0.9c5.5,0,10.3,0.5,14.9,1c4.1,0.5,8.1,0.9,12.1,0.9c2.5,26,3,48.8,1.6,73.3l-0.1,2.8
	c-1.4,26-4,74.3-22.6,107.8l-0.5,0.9c-2.9,4.8-9.1,16-14.4,17.3c-0.3,0.1-0.5,0.1-0.7,0.1c-0.4,0-0.8-0.1-1-0.3
	c-0.5-0.4-0.8-1.3-0.7-2.4C78.9,302.5,78.3,290.5,77.3,273.8z M23.4,294c-1-3.2-2.2-8.5-2.1-16c0.3-14.4,3-25.8,4.7-32.7
	c0.3-1.4,0.7-2.9,0.9-4c9.1-45.3,7.2-86.1,4.9-101.4c-0.5-3.4-1.1-6.4-1.7-9.2c10,18.6,14.6,32.1,19.8,47.1l0.7,2.1
	c4.1,12.1,7.7,24.1,10.5,36c-0.1,2.2-1.3,5.5-3.8,11.7c-3.4,8.3-6.6,14.5-10.1,21.2l-0.2,0.4c-2.6,4.9-5.2,10.1-7.9,16.1
	c-3.4,7.6-7.2,16.1-11.8,27.5c-0.6,1.5-1.5,2.3-1.9,2.3c-0.2,0-0.3,0-0.5,0C24.1,295.1,23.8,295,23.4,294z M103.2,300.9
	c17.6-34.6,20.2-81.6,21.6-107.3l0.1-2.7c1.4-24.9,0.9-47.9-1.6-74.2c2.3-0.3,4.6-0.9,6.8-1.6c4.9-1.6,8.9-3.8,12.2-6.4
	c4.8,44.4,3.5,67.7,2,96.8v0.1c-0.8,15-4.2,52.1-18.5,73.6c-8.4,12.7-15.1,17.8-17.6,19.5C106.5,299.8,104.8,300.5,103.2,300.9z
	 M152.3,73.6l-0.1,0.2c-0.3,1.1-0.5,2.2-0.7,3.2c-2.8,12.7-7.8,26.3-23.6,31.4c-3.8,1.2-7.5,1.8-11.7,1.8c-3.7,0-7.4-0.4-11.3-0.9
	c-4.6-0.5-9.7-1.1-15.6-1.1c-4.3,0-8.5,0.3-12.9,0.9c-7,1-12,2.6-16.4,3.9h-0.1c-5.3,1.6-9.4,2.9-15.4,2.9c-1.8,0-3.7-0.1-5.7-0.4
	c-0.3,0-8.2-1-17.8-8.4c-13.2-10.2-18.3-28-15.1-53c1.8-14,11.6-26.2,23.9-29.5c2.9-0.8,5.4-1.2,7.6-1.2c0.1,0,0.1,0,0.2,0
	c1.8,0,3.3,0.2,4.8,0.4c1.7,0.2,3.7,0.5,6.1,0.5c1.2,0,2.4-0.1,3.6-0.2c0.5,0,0.9-0.1,1.3-0.2c1.1,7.3,1,14.4-0.1,21.2
	c-0.6,3.9-1.8,8-2.9,11.7c-0.2,0.8,0.1,1.7,0.7,2.2c0.4,0.3,0.8,0.4,1.2,0.4c0.4,0,0.8-0.1,1.1-0.3l3.3-2.1c9.3-6,20.7-9.2,33-9.2
	c2.9,0,5.8,0.2,8.6,0.5c0.1,0,0.2,0,0.2,0c0.9,0,1.8-0.6,2-1.6s-0.4-2-1.4-2.3c-5-1.6-10.3-2.3-15.7-2.3c-8.2,0-16.3,1.8-23.7,5.3
	c1.2-8.3,0.5-16.9-2-24.6c3.5-1.5,5.9-3.8,8.4-6.1c4.4-4.1,9-8.4,20.6-10.5C91.7,5.5,97,5,102.3,5c14,0,39,3.1,49.5,23.8
	C159.3,43.4,155.3,60.8,152.3,73.6z"/>
</svg>
