<?xml version="1.0" encoding="utf-8"?>
<!-- Generator: Adobe Illustrator 28.1.0, SVG Export Plug-In . SVG Version: 6.00 Build 0)  -->
<svg version="1.1" id="Layer_2_00000165913100608193867360000015527674695777426100_"
	 xmlns="http://www.w3.org/2000/svg" xmlns:xlink="http://www.w3.org/1999/xlink" x="0px" y="0px" viewBox="0 0 181.7 333.7"
	 style="enable-background:new 0 0 181.7 333.7;" xml:space="preserve">
<style type="text/css">
	.st0{fill:#B6C5DA;}
</style>
<g>
	<path class="st0" d="M34,27.8c0.5,0.8,1.2,1.3,2,1.3c0.2,0,0.3,0,0.5-0.1c4.8-1.2,9.5-1.8,14.1-1.8c0.4,0,0.7,0,1.1,0
		c14.7,0.1,29.1,7.7,38.6,20.5c0.4,0.5,1,0.8,1.6,0.8c0.3,0,0.7-0.1,1-0.3c0.9-0.5,1.2-1.6,0.8-2.5C87.1,31,71,20.8,54.5,20.8
		c-1,0-2,0-3,0.1c-5.9,0.4-11.6,1.9-16.5,4.4C34.1,25.8,33.7,26.8,34,27.8z"/>
	<path class="st0" d="M179.4,242.1l-0.6-2.5c-3.8-14.9-5.3-20.4-13.9-40c-3.4-7.7-13.8-34.7-17-57c-0.4-2.6-0.7-4.8-1-6.8
		c-1.2-7.9-1.9-12.3-2.5-28.8c0-0.4,0.1-0.8,0.1-1.2c0.4-0.3,0.9-0.7,1.3-1.1C157,94,167.5,64.8,167.1,50.8
		c-0.4-13.4-13.8-39.8-34.6-42.7c-4.4-0.6-7.9-0.7-11.4-0.9c-4.2-0.2-8.6-0.3-14.7-1.4C99.7,4.6,96.5,3,93.5,1.5
		C89.8-0.3,86.4-2,79.1-2h-0.6C68.1-1.9,64,0.6,59.7,3.3c-3,1.8-5.9,3.6-11.5,5c-4.8,1.2-5.7,1.3-7.8,1.4h-0.2
		c-1.4,0.1-3.1,0.2-6.2,0.6C20.7,12,3.6,18.3-0.9,30.8C-6,45.1,7.9,89.7,22.6,106.7c-0.2,1.1-0.2,2.9-0.4,5.8v0.1
		c-0.4,7.9-1.1,24.3-4.5,55.9c-0.8,7.4-1.7,14.8-2.7,22.4c-3.6,28.4-7,55.2-1.7,73.1c4.3,14.8,13.3,30.1,27.5,46.9
		c0.4,0.4,8.8,10.4,13.8,11.7c1.3,0.4,2.6,0.6,3.8,0.6c1.7,0,3.2-0.4,4.6-1.2c2.2-1.2,3.7-3.4,4.3-6c1.7-7.1-1.7-14.6-4.4-20.6
		c-0.7-1.5-1.3-2.9-1.8-4.1c-5.3-14-7.9-23.3-3.2-55.3c8.8,19.9,40.2,87.5,45.8,93.9c1.5,1.7,5.5,5.6,11.3,5.6
		c1.2,0,2.4-0.2,3.6-0.5c5.9-1.6,7.6-7.5,8.3-10c1.7-5.7,1.4-19.7,1-32c-0.1-3.9-0.2-8.1-0.2-11.5c-0.1-20.8,1.4-31.6,3.5-48.1
		c0.1-0.6,0.2-1.2,0.2-1.8c1.2,1.4,2.3,2.6,3,3.3c8,7.8,14.2,17.7,17.6,27.8c1.4,4.4,2.8,8.6,4.3,13.1c2,6.2,4,12.5,6.5,20
		c1.8,5.3,5.1,7.2,7.5,7.8c0.7,0.2,1.4,0.3,2.1,0.3c0.1,0,0.2,0,0.3,0c4.2-0.1,7.4-3.4,8.7-6.5C184.2,291.6,185.4,265.3,179.4,242.1
		z M125.4,224c-0.4,3.1-0.8,5.9-1.1,8.4l0,0.4c-2.2,16.7-3.7,27.7-3.6,48.9c0,3.2,0.1,6.9,0.2,10.8v0.9c0.3,10.6,0.7,25.2-0.7,29.8
		c-0.9,2.9-1.7,4.8-3.5,5.3c-0.6,0.2-1.2,0.2-1.7,0.2c-2.8,0-4.9-2-6-3.2c-4.6-5.3-39-78.5-46.3-95.9c-2.5-6.1-4.7-11.4-6.9-16.5
		l-0.3-0.7c-7.1-16.8-12.2-28.9-17.3-48.4c-3.2-12.3-5.2-25.9-7.6-52.8c0.7,0.1,1.4,0.1,2.1,0.1c2.1,0,4.4-0.3,6.7-0.7
		c2.6-0.4,5.6-0.8,8.9-0.9c0.5,0,0.9,0,1.4,0c7.8,0,11.5,1.7,15.8,3.7c4.2,2,8.9,4.2,17.5,4.2c0.1,0,0.2,0,0.3,0
		c7.5,0,11.1-1.4,15.3-3c3.6-1.4,8.2-3.1,17.2-4.5c4.8-0.7,8.7-0.8,12.3-0.8h2.8c2.2,0,4.3-0.1,6.3-0.4c-1.5,13.2-3,29.2-4.7,47.3
		l-0.1,0.5c-1,10.8-2.3,24.3-3.6,38.4c-1,10.5-2.1,19.1-3,26.3c-0.4,0.3-0.6,0.8-0.7,1.2C125,223.1,125.2,223.6,125.4,224z
		 M54.7,294c0.4,1.3,1,2.8,1.8,4.5c2.3,5,5.1,11.3,3.9,16.1c-0.2,0.7-0.5,1.2-0.9,1.5c-0.3,0.2-0.7,0.2-1.1,0.2
		c-0.5,0-1.1-0.1-1.7-0.3c0,0-0.1,0-0.2-0.1c-1.2-0.3-5.9-4.3-10.3-9.5c-13.5-16.1-22.1-30.6-26.1-44.4c-4.8-16.5-1.5-42.6,2-70.3
		c0.9-7,1.9-14.9,2.7-22.4c1-9.2,1.8-17.6,2.5-25.5c1.2,8.6,2.6,15.5,4.3,22c5.2,20,10.4,32.4,17.6,49.4l0.6,1.5
		c1,2.4,2,4.8,3.1,7.4C46,264.6,48.2,276.6,54.7,294z M62.2,7.6l1.1,1.6c4-2.4,6.9-4.1,15.2-4.2H79c5.8,0,8,1.1,11.4,2.8
		c3.2,1.5,7.1,3.5,14.7,4.9c2.6,0.5,4.8,0.8,6.9,1c-16,18-21.5,44.8-13.4,66.8c0.3,0.8,1.1,1.3,1.9,1.3c0.2,0,0.3,0,0.5-0.1
		c1-0.3,1.6-1.2,1.5-2.3c-3.8-23.1,1.2-45.1,14.8-65.5c1.2,0.1,2.3,0.1,3.4,0.1h0.1c3.4,0.1,6.6,0.2,10.7,0.8
		c16.2,2.2,28.3,24.6,28.6,35.9c0.3,10.9-9,39-19.1,48.7c-0.3,0.3-0.5,0.5-0.8,0.7c-0.1,0-0.2,0-0.3,0c-0.8,0-1.6,0.5-1.9,1.3
		c-1.9,0.8-4,0.9-7.4,0.9H128c-3.8,0-8.1,0.1-13.3,0.9c-9.7,1.4-14.6,3.3-18.6,4.9c-4,1.6-6.7,2.6-13.1,2.6c-7,0-10.5-1.6-14.5-3.5
		c-4.4-2.1-9.3-4.4-18.8-4.4c-0.5,0-0.9,0-1.4,0h-0.1c-3.8,0.1-7.1,0.6-9.8,1c-2.2,0.3-4.2,0.6-5.7,0.6c-1.4,0-2.4-0.2-3.2-0.7
		c-0.3-0.6-0.8-1.1-1.5-1.4C15.3,87.7,1.4,45.1,5.7,33.2c3.2-8.9,17.3-14.5,29.1-16c2.9-0.4,4.4-0.5,5.7-0.5h0.2
		c2.5-0.1,3.9-0.3,9.1-1.6c6.6-1.7,10.2-3.9,13.4-5.8L62.2,7.6z M135.6,195.9c1.4-14.2,2.6-27.6,3.7-38.4c0.5-5.3,1-10.3,1.4-15.2
		c0.1,0.4,0.1,0.8,0.2,1.3c3.2,23.1,14,50.9,17.5,58.9c8.4,19.1,9.8,24.5,13.6,39l0.6,2.5c5.9,22.7,4.1,47.1,2.5,50.8
		c0,0,0,0.1-0.1,0.1c-0.2,0.6-1.3,2.2-2.5,2.2c-0.1,0-0.3,0-0.4-0.1c-0.7-0.2-1.7-0.7-2.6-3.2c-2.6-7.9-4.8-14.6-6.5-20
		c-1.4-4.5-2.8-8.7-4.3-13.1c-2.6-8-8.1-19.7-19.4-30.7c-1.5-1.4-4.5-5.2-6.7-7.8C133.5,215,134.5,206.5,135.6,195.9z"/>
</g>
</svg>
