<?xml version="1.0" encoding="utf-8"?>
<!-- Generator: Adobe Illustrator 28.1.0, SVG Export Plug-In . SVG Version: 6.00 Build 0)  -->
<svg version="1.1" id="Layer_2_00000134234905151763768980000018352901114696919731_"
	 xmlns="http://www.w3.org/2000/svg" xmlns:xlink="http://www.w3.org/1999/xlink" x="0px" y="0px" viewBox="0 0 150.4 284.7"
	 style="enable-background:new 0 0 150.4 284.7;" xml:space="preserve">
<style type="text/css">
	.st0{fill:#B6C5DA;}
</style>
<path class="st0" d="M149.1,26.7l-0.1-0.3c-0.1-0.3-0.3-0.7-0.4-1c-2.1-5.5-7.9-12.4-14.7-17.5C125.7,1.7,113.7-2,106.8-2
	c-0.7,0-1.3,0-1.9,0.1C87,0.2,81.3,7.4,77.2,12.6c-2.6,3.2-3.7,4.6-6.5,4.6c-0.4,0-0.8,0-1.1,0c-6.2,0-11.5-1.5-16.6-2.9
	c-5.2-1.4-10.5-2.9-16.7-2.9c-2,0-4.1,0.2-6.1,0.5C15.4,14.4-0.8,26.2-1.7,43.5c-0.9,16.4,0,26.5,8,42.8c3.9,8.1,6.9,12.5,10.7,16.2
	c3.2,28.6,6,46,10.3,63.6c5.6,22.8,7.9,43.3,9.3,58.6c1.2,13,2.2,21.8,2.8,27.7l0.1,0.6c0.5,4.3,0.8,7.2,0.8,8.7
	c0.2,4.6,1.1,15.9,5.2,20.9c2.2,2.7,4.8,4,7.9,4c0.1,0,0.2,0,0.3,0c1.2,0,2.5-0.3,3.9-0.8c3.1-1.1,5.5-3.4,7.1-6.9
	c0.7,0.4,1.5,0.7,2.3,1c1,0.3,2.1,0.4,3.1,0.4c6.8,0,14.1-5.5,17.2-9.4c23.9-30.5,41.4-84.8,42.5-88.1c3.6-8.7,9.2-31.5,9.9-50.3
	c0.5-13.5,0.6-21.1-0.2-30.1c9.6-6.6,10.7-20.9,12.4-41.8C153.7,36.9,151,31,149.1,26.7z M132.6,132.3c-0.6,17.3-5.8,39.6-9.4,47.9
	c0,0,0,0.1,0,0.1l-0.1,0.2c-0.2,0.5-17.5,55.6-41.4,86c-2.2,2.8-7.7,6.8-11.7,6.8c-0.5,0-0.9-0.1-1.3-0.2c-1.1-0.3-1.4-0.8-2.2-2.5
	l-0.1-0.3c-0.1-0.2-0.2-0.5-0.4-0.7l-1.3-2.4c-0.1-7.4,1.2-14.9,2.7-23.1c0.6-2.7,1.1-5.5,1.7-8.2c1.4-6.4,2.8-13.1,3.9-19.7
	c0.8-5,1.8-10.8,2.8-16.9c1.2-7.1,2.4-14.5,3.3-20.4c2.4-18.6,3.3-37.5,4.1-56.8c0-0.8-0.4-1.5-1.1-1.9c-0.3-0.2-0.6-0.2-0.9-0.2
	c-0.3,0-0.6,0.1-0.9,0.2c-0.6,0.3-1,0.9-1.1,1.5c-1.2,8.8-2.2,17.7-3.2,26.3c-1.3,11.3-2.6,23.1-4.4,34.5l-0.2,1.3
	c-0.8,4.2-1.6,8.6-2.2,12.7c-0.4,2.5-0.8,5.2-1.3,8.1c-1.5,9.8-3.2,20.9-4.8,29.1l-0.2,1.2c-1.8,10.3-3.6,20.9-2.6,31.4c0,0,0,0,0,0
	l-0.7,4.4c-1,6.5-2.7,7.9-4.3,8.4c-0.8,0.3-1.5,0.4-2,0.4c-0.7,0-1.4-0.2-2.5-1.5c-1.8-2.2-3.3-9.1-3.6-16.8
	c-0.1-1.7-0.4-4.6-0.9-9.2c-0.6-5.9-1.6-14.8-2.9-28.2c-1.4-15.6-3.8-36.5-9.5-59.6c-3.9-15.9-6.5-31.6-9.3-55.8
	c0.2,0.2,0.5,0.3,0.7,0.5c7.7,5.3,18.3,8.1,30.5,8.1h0c10.3,0,21.1-2,30.5-5.5c3.4-1.3,6.2-2.5,8.7-3.6c6.7-2.9,10.7-4.6,20.3-5
	c0.5,0,1,0,1.5,0c3.8,0,6.5,0.6,8.9,1.2c1.9,0.4,3.6,0.8,5.6,0.8c0.4,0,0.8,0,1.1-0.1C133.1,112.3,133.1,119.3,132.6,132.3z
	 M134.2,97.4c-1,0.5-1.8,0.7-2.7,0.7c-1.1,0-2.4-0.3-4.1-0.7c-2.6-0.6-5.8-1.3-10.3-1.3c-0.6,0-1.2,0-1.8,0
	c-10.9,0.4-15.9,2.6-22.8,5.6c-2.6,1.1-5.2,2.2-8.4,3.5c-8.6,3.2-18.8,5.1-28.1,5.1c0,0,0,0,0,0c-10.8,0-19.9-2.4-26.5-6.9
	c-2.3-1.6-4.3-3-5.9-4.4c-0.1-0.2-0.3-0.4-0.5-0.6c-0.2-0.1-0.4-0.2-0.5-0.3c-3.5-3.2-6.1-7-9.9-14.7c-7.3-15-8.1-23.9-7.3-39.4
	c0.8-13.7,13.9-23.1,25.9-25c1.7-0.3,3.3-0.4,5-0.4c0.1,0,0.2,0,0.3,0c5.1,0,9.7,1.3,14.6,2.7c4.5,1.2,9,2.5,14.3,2.9
	c0.1,1.3,0.3,2.7,0.4,4c0.3,2.5,0.6,5,0.8,7.6c0.2,2.6,0.4,5.2,0.6,7.7c0.1,1.5,0.2,3,0.3,4.5c-6.6,1.5-12,5.3-15.1,10.8
	c-0.5,0.8-0.3,1.9,0.5,2.5c0.4,0.3,0.8,0.5,1.3,0.5c0.5,0,0.9-0.2,1.3-0.5c5.8-4.8,13.6-7.4,22.6-7.4l0.6,0c2.6,0,5.4,0.2,8.7,0.7
	c0.1,0,0.2,0,0.3,0c0.8,0,1.6-0.5,1.9-1.3c0.3-0.9-0.1-1.9-0.9-2.4c-4.1-2.4-9.1-3.7-14.2-3.7c-0.5,0-0.9,0-1.4,0
	c1.6-7.5,1-15.7-1.7-22.9c5.9-0.3,8.9-4,11.5-7.3c3.8-4.8,8.1-10.2,23.1-11.9c0.3,0,0.7-0.1,1.1-0.1c5.6,0,16.1,3.4,22.8,8.5
	c5.7,4.3,10.7,10.2,12.4,14.5c0.2,0.5,0.4,1.1,0.7,1.6c1.5,3.4,3.9,8.6,2.1,30.5C143.1,81.8,141.8,93.4,134.2,97.4z"/>
</svg>
