<?xml version="1.0" encoding="utf-8"?>
<!-- Generator: Adobe Illustrator 28.1.0, SVG Export Plug-In . SVG Version: 6.00 Build 0)  -->
<svg version="1.1" id="Layer_2_00000084518367827619657240000017146903102270753427_"
	 xmlns="http://www.w3.org/2000/svg" xmlns:xlink="http://www.w3.org/1999/xlink" x="0px" y="0px" viewBox="0 0 181.7 333.7"
	 style="enable-background:new 0 0 181.7 333.7;" xml:space="preserve">
<style type="text/css">
	.st0{fill:#B6C5DA;}
</style>
<g>
	<path class="st0" d="M88.7,48.3c0.3,0.2,0.7,0.3,1,0.3c0.6,0,1.2-0.3,1.6-0.8c9.4-12.7,23.9-20.4,38.6-20.5c0.4,0,0.7,0,1.1,0
		c4.6,0,9.3,0.6,14.1,1.8c0.2,0,0.3,0.1,0.5,0.1c0.8,0,1.6-0.5,1.9-1.3c0.4-1-0.1-2-1-2.5c-4.9-2.5-10.6-4-16.5-4.4
		c-1-0.1-2-0.1-3-0.1c-16.5,0-32.6,10.2-39.2,24.9C87.5,46.7,87.8,47.8,88.7,48.3z"/>
	<path class="st0" d="M164,168.5c-3.4-31.1-4.1-47.7-4.5-55.7v-0.4c-0.1-2.9-0.2-4.6-0.4-5.8c14.7-17,28.7-61.6,23.5-75.9
		C178.1,18.3,161,12,147.7,10.3c-3.1-0.4-4.8-0.5-6.2-0.6h-0.2c-2-0.1-3-0.2-7.8-1.4c-5.6-1.4-8.5-3.2-11.5-5
		c-4.4-2.7-8.5-5.2-18.8-5.3h-0.5c-7.5,0-10.9,1.7-14.5,3.5c-2.9,1.4-6.2,3-12.8,4.3C69.3,6.9,64.9,7,60.6,7.2h-0.1
		c-3.4,0.1-7,0.3-11.3,0.9C28.4,10.9,15,37.3,14.6,50.7c-0.4,14,10,43.2,21.3,53.9c0.4,0.4,0.9,0.8,1.3,1.1c0.1,0.5,0.1,1,0.2,1.5
		c-0.6,16.3-1.3,20.7-2.5,28.5c-0.3,2-0.6,4.2-1,6.8c-3.1,22.2-13.6,49.3-17,57C8.2,219.2,6.8,224.8,3,239.6l-0.6,2.5
		c-6,23.3-4.8,49.5-2.1,55.4c1.3,3.2,4.6,6.5,9,6.5c0.7,0,1.4-0.1,2.1-0.3c2.5-0.6,5.8-2.5,7.5-7.8c2.6-7.9,4.7-14.3,6.5-20
		c1.4-4.5,2.8-8.7,4.3-13.1c3.4-10.2,9.6-20.1,17.6-27.8c0.8-0.8,1.9-2,3-3.3c0.1,0.5,0.1,1,0.2,1.5l0.1,0.4
		c2.2,16.4,3.6,27.3,3.5,47.9c0,3.1-0.1,6.7-0.2,10.6v0.9c-0.3,12.3-0.7,26.3,1,32c0.8,2.5,2.5,8.4,8.4,10c1.2,0.3,2.4,0.5,3.6,0.5
		c0.1,0,0.1,0,0.2,0c5.6-0.1,9.6-3.9,11-5.6c5.5-6.3,36.9-73.9,45.8-93.9c4.7,31.9,2,41.2-3.2,55.3c-0.5,1.2-1.1,2.6-1.8,4.1
		c-2.7,6-6,13.4-4.4,20.6c0.6,2.6,2.1,4.7,4.3,6c1.3,0.8,2.9,1.2,4.6,1.2c1.2,0,2.5-0.2,3.7-0.6c5-1.4,13.5-11.3,13.8-11.8
		c14.2-16.8,23.2-32.2,27.5-46.9c5.3-17.9,1.9-44.7-1.7-73.2C165.8,183.9,164.8,176.1,164,168.5z M121.2,314.6
		c-1.1-4.8,1.7-11.1,3.9-16.1c0.7-1.5,1.4-3.1,1.9-4.5c6.6-17.5,8.7-29.4,1.8-70c1.3-3.1,2.5-6,3.7-8.9
		c7.2-17.1,12.4-29.4,17.6-49.4c1.7-6.5,3-13.4,4.3-22c0.7,7.9,1.5,16.4,2.5,25.5c0.8,7.6,1.8,15.5,2.7,22.4
		c3.6,27.8,6.9,53.9,2.1,70.5c-4.1,13.8-12.6,28.4-26.2,44.4c-4.4,5.2-9.1,9.2-10.4,9.5H125c-0.6,0.2-1.2,0.3-1.7,0.3
		s-0.8-0.1-1.1-0.2C121.7,315.8,121.4,315.3,121.2,314.6z M72.7,325.5c-1.3,1.4-3.3,3.2-6,3.2c-0.6,0-1.2-0.1-1.7-0.2
		c-1.7-0.5-2.6-2.4-3.5-5.3c-1.4-4.6-1-19.2-0.7-29.8c0.1-4,0.2-8.2,0.2-11.7c0.1-21.3-1.4-32.3-3.6-49c-0.3-2.6-0.7-5.4-1.1-8.4
		c0.3-0.4,0.4-0.9,0.4-1.4c-0.1-0.5-0.3-0.9-0.7-1.3c-0.9-7.2-1.9-15.7-3-26.3c-1.4-14-2.6-26.9-3.6-38.4l-0.1-0.8
		c-1.7-18-3.2-33.9-4.7-47.1c2,0.3,4.2,0.4,6.5,0.4h1.2v-1.9c0,0,0,0,0,0l0.1,1.9h1.2c3.5,0,7.5,0.1,12.3,0.8
		c9,1.3,13.5,3.1,17.2,4.5c4.2,1.6,7.9,3,15.5,3h0.1c8.6,0,13.3-2.2,17.5-4.2s7.9-3.7,15.8-3.7c0.4,0,0.9,0,1.4,0
		c3.4,0.1,6.3,0.5,9,0.9c2.4,0.3,4.6,0.7,6.7,0.7c0.6,0,1.3,0,2.1-0.1c-2.4,26.8-4.4,40.4-7.6,52.7c-5.1,19.5-10.2,31.6-17.3,48.4
		l-0.6,1.3c-2.1,4.9-4.2,10-6.6,15.9C111.7,247,77.4,320.2,72.7,325.5z M6.6,295L6.6,295c-1.6-3.7-3.4-28.2,2.5-51l0.7-2.5
		c3.7-14.5,5.1-19.9,13.6-38.9c3.5-7.9,14.2-35.8,17.5-58.9c0.1-0.4,0.1-0.8,0.2-1.1c0.5,4.9,0.9,9.9,1.4,15.1
		c1.1,12.1,2.3,24.7,3.7,38.4c1,10.5,2,19,3,26.3c-2.3,2.5-5.4,6.2-6.9,7.7c-11.2,10.9-16.7,22.7-19.4,30.7
		c-1.5,4.4-2.8,8.7-4.3,13.2l-0.3,1c-1.9,5.8-3.8,11.7-6.2,18.9c-0.8,2.5-1.9,3-2.6,3.2c-0.1,0-0.3,0.1-0.4,0.1
		C7.9,297.2,6.9,295.6,6.6,295z M80.7,81.8c0.2,0,0.3,0.1,0.5,0.1c0.8,0,1.6-0.5,1.9-1.3c8.1-22,2.6-48.8-13.3-66.9
		c2.1-0.2,4.3-0.5,6.9-1c7.6-1.4,11.5-3.3,14.7-4.9C94.7,6.1,96.9,5,102.6,5h0.6c8.4,0.1,11.3,1.8,15.2,4.2c3,1.8,6.8,4.1,13.4,5.8
		c5.4,1.4,6.8,1.5,9.1,1.6c1.4,0.1,2.9,0.2,5.8,0.5c11.8,1.5,26,7.1,29.2,15.9c4.3,11.9-9.5,54.4-22.3,69c-0.8,0.3-1.3,0.8-1.6,1.5
		c-0.8,0.5-1.8,0.7-3.1,0.7c-1.5,0-3.5-0.3-5.7-0.6c-2.7-0.4-6-0.9-9.8-1c-0.5,0-1,0-1.5,0c-9.4,0-14.4,2.3-18.8,4.4
		c-4,1.9-7.5,3.5-14.5,3.5c-6.3,0-9-1-13.1-2.6c-4-1.5-8.9-3.4-18.6-4.8c-5.3-0.8-9.4-0.9-13.2-0.9h-1.5h-1.3
		c-3.4,0-5.6-0.1-7.4-0.9c-0.3-0.8-1-1.3-1.9-1.3c-0.1,0-0.2,0-0.2,0c-0.3-0.2-0.6-0.5-0.8-0.7c-10.2-9.5-19.4-37.2-19-48.4
		C21.9,39.6,33.9,17.2,50.2,15c4-0.6,7.3-0.7,10.7-0.8H61c1.1,0,2.3-0.1,3.4-0.1c10.2,15.3,15.7,31.8,16,47.9
		c0.1,5.6-0.3,11.3-1.2,17.6C79,80.6,79.7,81.6,80.7,81.8z"/>
</g>
</svg>
