<?xml version="1.0" encoding="utf-8"?>
<!-- Generator: Adobe Illustrator 28.1.0, SVG Export Plug-In . SVG Version: 6.00 Build 0)  -->
<svg version="1.1" id="Layer_2_00000049222249361888543830000001401340803932877713_"
	 xmlns="http://www.w3.org/2000/svg" xmlns:xlink="http://www.w3.org/1999/xlink" x="0px" y="0px" viewBox="0 0 158.9 294.4"
	 style="enable-background:new 0 0 158.9 294.4;" xml:space="preserve">
<style type="text/css">
	.st0{fill:#B6C5DA;}
</style>
<path class="st0" d="M154.1,258.8l0-0.1c-4.1-13.3-11-35.7-14.4-79.8c-1.1-14.5-2.6-46.4-1.2-75.4c6.9-7.9,11.4-19.7,14.1-26.8
	c6-15.7,12.1-31.9,5.4-48.3c-6.7-16.2-24.2-28-41.5-28c-0.4,0-0.8,0-1.2,0c-8.8,0.3-14.5,3-20,5.6c-4.8,2.3-9.4,4.5-15.9,4.5
	c-0.4,0-0.9,0-1.3,0c-6.5-0.3-9.6-2.3-13.4-4.7C60.3,3.1,55.4,0,45.8-1.5c-0.7-0.1-3.3-0.5-7-0.5C30.4-2,18.5-0.2,9.3,8.5
	C-4.5,21.6-2.5,41.3-0.9,57.1C-0.4,61.5,3.9,81,13.8,94c-3,27.5-2.5,45.9-1.9,63.7l0,0.1c0.1,3.9,0.2,7.9,0.3,11.8
	c1,52.2,8,75.3,18.2,94c10.3,18.9,26,31.7,34.6,32.8c0.2,0,0.5,0,0.8,0c0.2,0,0.3,0,0.4-0.1c2.7-0.1,6.4-1.5,8.5-4.3
	c3.1-4.1,2.3-10.6-2.3-19.2l-0.1-0.2c-5.1-9.5-6.3-15.7-9.6-37.9c-1.6-11.1-3.6-44.1,6.8-62.8c0.9-1.6,3.3-5.4,6.7-5.4
	c0.4,0,0.9,0.1,1.3,0.2c0.7,0.4,3.1,2.6,4.7,6.7c2.2,5.5,4.6,13.7,6.9,21.6c0,0,1.3,4.5,1.8,6.2c0.4,1.4,0.8,2.8,1.2,4.5
	c1.7,7,4,16.7,15.3,40c0,0,0.1,0.1,0.1,0.1c3.1,5.8,18.8,35.3,27.8,41.6c1.9,1.3,6.7,3.2,10.7,3.2c1,0,2-0.1,2.8-0.4
	c7.2-2.2,10.1-8.9,8.4-19.8C156.7,267.2,155.6,263.7,154.1,258.8z M113.8,242.6c-11-22.5-13.2-31.8-14.8-38.5
	c-0.4-1.7-0.8-3.3-1.3-4.9c-0.5-1.5-0.9-3-1.3-4.6l-0.5-1.6c-2.4-8.1-4.8-16.5-7.1-22.2c-2.1-5.4-6-9.9-9.3-10.8
	c-1.1-0.3-2.2-0.5-3.3-0.5c-7.2,0-11.6,6.9-12.8,9c-11.3,20.4-9.3,55.5-7.6,67.2c3.4,23.2,4.7,29.7,10.3,40.2l0.1,0.2
	c3.4,6.3,3.9,10.4,2.9,11.7c-0.8,1.1-2.7,1.5-3.2,1.5c-5-0.6-19.5-11.2-29.3-29.2c-9.7-17.8-16.3-40-17.3-90.8
	c-0.1-4-0.2-8-0.3-11.9c-0.5-16.3-1-33.1,1.3-57c2.3,1.8,4.7,3.2,7.4,4.1c3.1,1.1,5.9,1.5,9.1,1.5c2,0,3.9-0.2,5.7-0.4
	c2-0.2,4.1-0.4,6.5-0.4c2.9,0,5.8,0.3,9,1c6.3,1.3,9.3,2.7,11.8,3.9c2.9,1.3,5.3,2.5,10.5,2.5c0.1,0,0.1,0,0.2,0c0.4,0,0.8,0,1.2,0
	c5.7-0.2,9-1.8,11.8-3.2c2.6-1.3,4.8-2.4,9.1-2.7c0.6,0,1.1-0.1,1.7-0.1c3.6,0,6,1,8.8,2.3c2.7,1.2,5.8,2.6,10,2.6
	c0.5,0,1.1,0,1.7-0.1c2.3-0.2,4.5-0.9,6.5-2c-0.9,27.6,0.4,56.3,1.5,69.9c3.5,44.9,10.5,67.7,14.7,81.3c1.4,4.6,2.5,8,2.9,10.7
	c1.6,10.5-2,11.6-3.6,12.1c-0.1,0-0.3,0.1-0.7,0.1c-2.2,0-5.6-1.2-6.6-1.9C133,277.2,120.3,255,113.8,242.6z M75.9,53.1
	c-5.4,0.6-10.1,3.2-13,7.4c-0.6,0.8-0.5,1.8,0.2,2.5c0.4,0.4,0.9,0.6,1.5,0.6c0.4,0,0.7-0.1,1.1-0.3c3.6-2.3,7.6-3.4,11.8-3.4
	c5.8,0,11.8,2.2,16.8,6.2c0.4,0.3,0.8,0.4,1.2,0.4c0.5,0,0.9-0.2,1.3-0.5c0.7-0.6,0.9-1.7,0.5-2.5c-3.1-5.7-9.3-9.6-16.2-10.4
	c0.3-4.8,0.4-9.5,0.5-14.1l0.1-3.4c0.1-5.5,0.2-11.7,0-18.1c6.9-0.4,11.8-2.8,16.6-5.1c4.9-2.3,9.9-4.7,17.3-4.9c0.3,0,0.6,0,0.9,0
	c0,0,0.1,0,0.1,0c14.4,0,29.5,10.2,35,23.7c5.7,13.8,0.3,28.1-5.5,43.2c-3.3,8.8-11.2,29.3-21.9,30.2c-0.4,0-0.7,0-1.1,0
	c-2.7,0-4.7-0.9-7.2-2c-2.9-1.3-6.5-2.8-11.6-2.8c-0.7,0-1.5,0-2.2,0.1c-5.6,0.5-9,2.1-11.7,3.4c-2.7,1.3-4.8,2.3-8.9,2.5
	c-0.4,0-0.7,0-1,0c-3.7,0-5.1-0.7-7.7-1.9c-2.8-1.3-6.2-2.9-13.3-4.4c-3.6-0.7-7-1.1-10.4-1.1c-2.8,0-5.2,0.2-7.3,0.5
	c-1.8,0.2-3.4,0.3-5,0.3c0,0,0,0,0,0c-2.3,0-4.4-0.4-6.8-1.2C15.8,93.2,7.1,66,6.1,56.4c-1.4-14.3-3.2-32.1,8.1-42.8
	C22,6.1,33.1,5,39,5c3.4,0,5.7,0.4,5.7,0.4c8.2,1.3,12,3.7,16,6.3c4,2.6,8.1,5.2,15.7,5.8c-1.5,6.5-1.8,12.9-1.9,18
	C74.5,42,74.9,47.8,75.9,53.1z"/>
</svg>
