<?xml version="1.0" encoding="utf-8"?>
<!-- Generator: Adobe Illustrator 28.1.0, SVG Export Plug-In . SVG Version: 6.00 Build 0)  -->
<svg version="1.1" id="Layer_2_00000177480352892285438120000004334262790416801214_"
	 xmlns="http://www.w3.org/2000/svg" xmlns:xlink="http://www.w3.org/1999/xlink" x="0px" y="0px" viewBox="0 0 142.7 408.5"
	 style="enable-background:new 0 0 142.7 408.5;" xml:space="preserve">
<style type="text/css">
	.st0{fill:#B6C5DA;}
</style>
<g>
	<path class="st0" d="M136.6,39.2c-6.8-7.4-12.3-10.3-21.2-15c-3.5-1.8-7.3-3.8-12-6.5c-3.8-2.2-7-5.2-10-8.2
		C88.1,4.4,82.1-1.5,72.6-2c-0.5,0-1,0-1.6,0C60.3-2,53.2,3.6,47.5,8.2c-2.7,2.1-5.2,4.2-7.9,5.5c-3.8,1.9-5.9,3-7.5,3.8l-0.6,0.3
		c-2.1,1.1-3.7,1.9-8,4c-0.6,0.3-1.2,0.6-2,0.9l-0.3,0.2C13.9,26.1,1.6,31.6-1.4,45c-2.3,10.3,2.1,26.9,4.9,35.9
		C6.3,89.7,7.3,94,8.2,98.2c1.1,4.7,2.1,9.1,5.2,18.9c6.1,19.1,11.4,28.9,15.9,35.8c0.5,51.7,4.6,79.2,12.1,111.7
		c2.2,12,23,118.3,58.8,142.9c2,1.4,5.9,2.9,9.7,3c0.1,0,0.2,0,0.3,0c2.3,0,4.2-0.5,5.8-1.5c2.1-1.3,4.5-4.4,3.9-11.6
		c0-0.1,0-0.1,0-0.2l-0.1-0.3c-2.3-10-4.9-23.1-6.3-44.3c-1.1-17.3-0.8-41.5,0.7-51.8l0.2-1.1c2.6-18,8.6-60.3,8.3-97.2
		c0-1.4,0-2.8,0-4.2v-2c0-14.3,0.1-27.8-7.4-54.9c0-0.1,0.1-0.2,0.1-0.3c0.7-2.1,1.8-5.3,4.6-12c4.1-9.7,7.7-15.3,10.9-20.3
		c3.8-5.9,7.1-11.1,10.1-20.9C142.8,82.3,150.4,54.2,136.6,39.2z M48.3,262.6c0-0.1-0.1-0.3-0.1-0.4c-6.8-29.6-10.7-55.2-11.6-100
		c6.8,7.4,17.2,15.1,31.3,15.9c0.7,0,1.4,0.1,2.1,0.1c18,0,32.8-12.1,39.5-24.1c0.5-1,1-1.8,1.4-2.6c4.9,20.7,4.9,32.3,4.8,44.6
		c0,2.1,0,4.2,0,6.3c0.3,36.6-5.7,78.5-8.3,96.4l-0.1,0.9c-1.5,10.7-1.9,35.6-0.7,53.3c1.4,21.7,4,35,6.4,45.2
		c0.2,3.5-0.5,4.7-0.7,4.9c-0.4,0.3-1.1,0.4-2,0.4c-2.3,0-5-1-6.1-1.8c-14-9.6-28-36.3-40.6-77.3c-9.8-31.9-15.2-60.8-15.2-61.1
		L48.3,262.6z M108.8,138.8c-1.1,3.1-1.6,4.6-5.6,11.8c-5.7,10.2-18.3,20.6-33.4,20.6c-0.6,0-1.2,0-1.8,0
		c-16.2-0.9-26.8-13.1-31.7-20.3c-4.4-6.5-9.8-15.8-16.2-35.8c-3-9.4-4-13.7-5-18.2v-0.2c-1-4.3-2-8.8-4.8-17.9
		c-2.6-8.3-6.7-23.6-4.7-32.3c2.3-10,12.5-14.5,18.6-17.2c0.9-0.4,1.8-0.8,2.5-1.1c4.6-2.2,6.3-3.1,8.2-4.1L35,24
		c1.7-0.9,3.7-2,7.8-4c3.3-1.6,6.1-3.9,9.1-6.3c5.6-4.4,10.8-8.6,19-8.7c0,0,0.1,0,0.1,0c0.4,0,0.8,0,1.2,0
		c6.9,0.3,11.3,4.6,16.3,9.5l0.1,0.1c3.4,3.3,6.8,6.6,11.4,9.2c4.5,2.5,8.2,4.5,11.5,6.2l0.7,0.4c8.9,4.7,13.4,7,19.3,13.6
		c8.7,9.4,7,28.3,2.9,41.7c-2.7,8.9-5.8,13.6-9.3,19.1l-0.1,0.1c-3.3,5.2-7.1,11-11.4,21.4C110.7,133.2,109.6,136.4,108.8,138.8z"/>
	<path class="st0" d="M128.9,63.7c0.1-0.9-0.4-1.6-1.2-1.9c-0.2-0.1-0.4-0.1-0.7-0.1c-0.6,0-1.2,0.3-1.6,0.8
		c-8.3,8.8-14,19.7-16.3,30.8c-0.3,1.4-0.5,2.7-0.7,4c-0.4,2.4-0.8,4.6-1.5,6.7c-4.2,11.7-16.2,17.9-28.1,22.4
		c1.3-22,0.4-43.9-2.9-65.1c-1.3-8.4-2.8-15.9-4.6-23.1c-0.2-0.9-1-1.5-1.9-1.5c-0.1,0-0.3,0-0.4,0c-1.1,0.2-1.7,1.2-1.6,2.3
		c1.4,8.8,2.3,16.1,3,23c1.6,15.5,2.4,31,2.1,46.2c-0.1,8-0.5,16.5-1.3,25.3c-0.1,0.7,0.2,1.3,0.8,1.7c0.4,0.3,0.8,0.4,1.2,0.4
		c0.2,0,0.4,0,0.7-0.1l1.5-0.5c3.8-1.3,7.8-2.7,11.6-4.4c11.3-5.1,19-11.2,23.4-18.7c2.9-4.8,3.6-10.2,4.3-15.4
		c0.1-0.7,0.2-1.4,0.3-2.1c1.6-10.1,6.2-20.2,13.4-29.3C128.7,64.7,128.9,64.2,128.9,63.7z"/>
	<path class="st0" d="M57.5,38.5c-0.5,0-1.1,0.2-1.4,0.6c-0.3,0.4-0.6,0.9-0.6,1.5c0.6,19.1-0.9,37.5-4.4,54.6
		c-0.8,3.9-1.7,8-2.8,12.1C37.9,96.5,30.3,82.7,26.8,68c-1.3-5.3-2.2-11-2.5-17c-0.1-1.1-0.9-1.9-2-1.9c-1.1,0-1.9,0.8-2,1.9
		c-0.3,5.9,0.1,12,1.2,18.1c3.3,18.7,13.2,36,28.1,48.8c0.4,0.3,0.8,0.5,1.3,0.5c0.2,0,0.4,0,0.6-0.1c0.7-0.2,1.2-0.7,1.4-1.3
		c7.7-25.5,10-52,6.7-76.9C59.4,39.2,58.6,38.5,57.5,38.5z"/>
</g>
</svg>
