<?xml version="1.0" encoding="utf-8"?>
<!-- Generator: Adobe Illustrator 28.1.0, SVG Export Plug-In . SVG Version: 6.00 Build 0)  -->
<svg version="1.1" id="Layer_2_00000123411164360300407490000004900761649000669333_"
	 xmlns="http://www.w3.org/2000/svg" xmlns:xlink="http://www.w3.org/1999/xlink" x="0px" y="0px" viewBox="0 0 108.1 322.5"
	 style="enable-background:new 0 0 108.1 322.5;" xml:space="preserve">
<style type="text/css">
	.st0{fill:#B6C5DA;}
</style>
<path class="st0" d="M101.2,237.5c-1.6-3.9-3.2-7.6-4.9-11.1c2.7-16.4,3.1-39.9,1-66.2c-1.3-16.1-3.2-27.9-5.1-39.3v-0.2
	c-2-12-3.9-23.4-5-39.5c-1.6-22.2,0-45.1,4.6-68.2v-0.2C92.4,7.1,91,2.9,87.9,1c-1.1-0.7-2.5-1-3.9-1c-3,0-5.7,1.4-6.9,2.3
	c-2.6,1.9-5.1,4.2-7.6,6.8c-0.6-1.5-1.2-2.9-2.1-4.9C65.5,0.4,62.5-2,59.5-2c-0.5,0-1.1,0.1-1.6,0.2C49,1,47.8,21.4,49.5,39.9
	c-9.8,20.4-15.6,40.8-16.5,44c-0.1,0.1-0.1,0.3-0.2,0.4c-8.5,34.8-16.3,74.7-16.4,130.9c-2.1,3.7-4.1,7.6-6,11.5
	c-0.2,0.5-21.1,51.2-8.3,66c3.6,4.2,7.3,6.2,12.3,9l0.2,0.1c2.7,1.5,6.1,3.4,10.4,6.2c5,3.2,8.7,6.1,11.7,8.5c5.8,4.6,10,8,17.2,8
	c8.8,0,14.9-5.2,22.5-11.8l1-0.9c0.4-0.4,0.9-0.8,1.3-1.1c4.1-3.5,8.1-5.5,12-7.4c5.1-2.5,10.3-5,14.7-10.8
	C116.2,278.1,104.9,246.8,101.2,237.5z M84.3,7c0.3,0.3,0.8,2.1,0.5,4.9c-4.7,23.7-6.3,47.2-4.6,69.9c1.2,16.5,3.1,28,5.1,40.2v0.1
	c1.9,11.3,3.8,22.9,5.1,38.7c1.7,21,1.8,40.1,0.3,55c-10.2-17.1-21.9-26.2-34.8-27c-0.9-0.1-1.7-0.1-2.6-0.1
	c-12.9,0-22.3,6.4-29.7,15.8c1-49.9,8.2-86.5,16.1-118.5c0.2-0.6,15.7-59.2,41.5-78C81.7,7.6,83,7,84,7C84.2,7,84.3,7,84.3,7z
	 M53.1,195.7c0.1,0,0.1,0,0.2,0c0.7,0,1.4,0,2.1,0.1c14.7,1,27.9,15.9,39.3,44.3c6.7,16.6,12,39.1,5.2,48.2
	c-3.3,4.4-7.2,6.3-12.2,8.7c-4.1,2-8.7,4.2-13.5,8.3c-0.8,0.7-1.6,1.4-2.4,2c-7.3,6.3-11.7,10.1-17.9,10.1c-4.8,0-7.7-2.3-12.9-6.5
	c-3.1-2.5-6.9-5.6-12.2-8.9c-4.5-2.9-8-4.9-10.9-6.5c-4.7-2.6-7.6-4.2-10.4-7.5c-8-9.1,5.3-49.8,9.3-58.4
	C24.6,213.2,34.5,195.8,53.1,195.7z M61.1,7.2c1.4,3.1,2.1,4.8,3.2,8c-3,3.9-5.9,8.3-8.5,12.8c-0.2-14.4,2.5-21.3,3.8-22.8
	C60,5.5,60.5,6.1,61.1,7.2z"/>
</svg>
