<?xml version="1.0" encoding="utf-8"?>
<!-- Generator: Adobe Illustrator 28.1.0, SVG Export Plug-In . SVG Version: 6.00 Build 0)  -->
<svg version="1.1" id="Layer_2_00000018936474313930562890000004983721433367817139_"
	 xmlns="http://www.w3.org/2000/svg" xmlns:xlink="http://www.w3.org/1999/xlink" x="0px" y="0px" viewBox="0 0 97.7 326.9"
	 style="enable-background:new 0 0 97.7 326.9;" xml:space="preserve">
<style type="text/css">
	.st0{fill:#B6C5DA;}
</style>
<path class="st0" d="M94.8,22.9c-0.5-0.3-1.2-0.8-2.6-1.7l-0.1-0.1c-2.7-1.7-7.3-4.6-11.3-7.7c-3.3-2.5-5.7-4.6-7.6-6.2L73,7.1
	C68.2,3,65.7,0.9,59.6-0.7C57.4-1.3,54.7-2,51.3-2c-1,0-2.1,0.1-3.1,0.2c-9.7,1.3-15.3,5.9-24.7,13.7l-1.6,1.3
	c-5.6,4.7-9.2,7.1-11.7,8.8c-3.8,2.6-5.9,4-8.7,8.6C-7,44.6,2,63.9,6.8,74.2c2.2,4.8,4.6,9,7,12.8c-3.6,35.8-0.3,65.1,1.6,82.8
	c1.9,17.4,4.9,29.6,7.7,41.4c3.2,13.6,6.6,27.6,8.7,49.8c2.4,26,3.2,42,2.6,55.2c-0.2,6.9,3.5,12,9.4,12.6c0.3,0,0.6,0,0.8,0
	c0.1,0,0.1,0,0.2,0c5.9-0.2,10.5-6.7,11.1-7.4c17.3-25.2,18.4-67.2,18.5-68.9c1.6-47.5,3.2-63.3,4.7-77.2l0-0.3
	c0.9-8.5,1.7-16.4,2.4-30.5c1.2-22.8,0.9-35.5,0.6-47.9l-0.1-3c2.1-3.5,4-6.9,5.6-10C93.9,72.2,106.6,31.5,94.8,22.9z M53.5,109.9
	l-0.3,0c-4.8-0.1-9.4-1.9-14.9-6c-3.5-2.6-15.7-12.5-25.1-32.6C8.9,62.1,1,45,7.4,34.3c2-3.3,3.1-4.1,6.6-6.4l0.1-0.1
	c2.7-1.8,6.4-4.3,12.2-9.1l1.6-1.3C36.8,9.9,41.3,6.2,48.9,5.2c0.1,0,0.1,0,0.2,0C49.8,5.1,50.5,5,51.3,5c2.5,0,4.6,0.5,6.6,1.1
	c4.6,1.2,6.1,2.5,10.6,6.3c2.1,1.8,4.6,3.9,8,6.5c4.4,3.4,9.1,6.4,12,8.2l0.2,0.1c0.9,0.5,1.7,1,1.9,1.2c5.8,4.3-2,38.6-9.1,51.7
	C75.1,92,65.4,109.9,53.5,109.9z M28.1,210.1l1.9-0.6c-2.9-12.2-5.6-23.6-7.5-40.6c-1.8-16-4.7-41.8-2.3-73.2
	c5.9,7.4,11.3,11.7,14.1,13.8c6.8,4.9,12.6,7.2,18.9,7.3h0.4c0,0,0,0,0,0c8.7,0,15.9-5.9,21.8-13.4c0.2,10.7,0.2,22.1-0.7,40.6
	c-0.7,13.9-1.5,21.8-2.4,30.2l0,0.4c-1.5,14-3.1,29.9-4.7,77.7c0,0.4-1.2,41.7-17.2,65.2c-1.4,2.1-4,4.4-5.6,4.4c0,0,0,0,0,0
	c-2.9-0.3-3.2-3.5-3.2-5.4c0.6-13.5-0.2-29.8-2.6-56.1c-2.1-22.7-5.5-37-8.8-50.7L28.1,210.1L28.1,210.1z"/>
</svg>
