<?xml version="1.0" encoding="utf-8"?>
<!-- Generator: Adobe Illustrator 28.1.0, SVG Export Plug-In . SVG Version: 6.00 Build 0)  -->
<svg version="1.1" id="Layer_2_00000062880235250508168320000002311949545163494277_"
	 xmlns="http://www.w3.org/2000/svg" xmlns:xlink="http://www.w3.org/1999/xlink" x="0px" y="0px" viewBox="0 0 145.9 278"
	 style="enable-background:new 0 0 145.9 278;" xml:space="preserve">
<style type="text/css">
	.st0{fill:#B6C5DA;}
</style>
<path class="st0" d="M147.4,208.9c-0.4-6-1.7-19-6.7-26.2c0.4-8.4-2-20.7-4.6-29.5c-0.4-1.5-0.9-3-1.5-4.5
	c-0.8-18.1-4.6-30.7-7.7-38.1c-3.5-8.5-6.5-14-9.7-19.8l-1.8,1l0,0l1.7-1.1c-3.6-6.6-7.3-13.4-12.4-25.5c-2-4.8-3.9-9.9-5.8-15.2
	C93.7,35.2,88.2,20.2,78.3,9.6c-1.6-1.7-4.9-5.3-8.9-5.3c-0.5,0-1,0.1-1.4,0.2c-1.3,0.3-2.3,0.8-3.1,1.4c-3.1-3.8-6.7-6.4-10.4-7.4
	C53.3-1.9,52-2,50.9-2c-2,0-3.9,0.5-5.4,1.4c-6.4,3.9-5.8,15.1-5.5,21.2l0,0.8c0,0.4,0,0.7,0,1c0.2,4.6,0.4,9.1,0.6,13.4l0,0.6
	c0.9,20.1,1.8,39-2.9,65.4c-2.6,14.4-5.5,25.6-8,35.4l0,0.1c-3.5,13.4-6.5,25-7.9,40.9c-5,3.8-8.5,8.6-10.6,11.3l-0.6,0.9
	c-4,5.2-14.8,24.1-12.3,41.7c2.5,17.5,15.4,32.8,30.7,36.4c3.8,0.9,7.5,1.3,11,1.3c8.4,0,14.3-2.6,18.6-4.5c2.2-1,4.3-1.9,5.7-1.9
	c0.1,0,0.3,0,0.4,0c5.9,0.9,8,3.3,10.8,6.4c2.7,3.1,6.1,6.9,13.4,8.9c2.9,0.8,6.1,1.2,9.4,1.2c0,0,0,0,0,0c0,0,0,0,0,0
	c16.1,0,34-9.5,42.6-22.5C145.2,251.4,149.3,242,147.4,208.9z M50.9,258.1c1.5-1.1,3-2.3,4.5-3.4c1.9-1.5,3.7-2.9,5.6-4.2
	c0,0,0.1,0,0.1-0.1c1.1-0.9,2.5-1.3,4-1.3c1.4,0,2.9,0.4,4.3,1.1c2.5,1.4,4.8,3.7,7.1,5.9c0.6,0.6,1.2,1.2,1.9,1.8
	c4.5,4.7,12.4,11.6,22.5,15c-0.7,0-1.4,0.1-2.1,0.1c-2.8,0-5.3-0.3-7.7-1c-5.3-1.5-7.5-4-10.1-6.9c-3.1-3.5-6.6-7.4-15-8.6
	c-0.4-0.1-0.8-0.1-1.2-0.1c-0.1,0-0.2,0-0.2,0c-2.8,0-5.6,1.2-8.5,2.5c-3.5,1.5-7.8,3.4-13.6,3.8C45.4,261.5,48.3,260,50.9,258.1z
	 M111.8,270.8c-8.4-1.5-16.8-6-24.4-13.1c-1.4-1.3-2.8-2.8-4.1-4.2c-3.1-3.3-6.3-6.7-10.5-9.2c-1.8-1-3.8-1.7-5.9-1.9
	c0-0.5,0-1.1,0-1.6c0-3.4,0-6.5,0.1-9.8c0-1.2,0.1-2.5,0.1-3.8c0.1-3.9,0.3-8.2,0.2-11.7c0-0.9-0.7-1.7-1.6-1.9c-0.1,0-0.3,0-0.4,0
	c-0.8,0-1.5,0.5-1.8,1.2c-3.9,8.7-4.6,19.4-2.1,28.1c-0.3,0.1-0.5,0.1-0.8,0.2c0,0-0.1,0-0.1,0c-3.3,1.4-5.9,3.7-8.5,5.9
	c-0.9,0.8-1.7,1.5-2.6,2.2c0,0-0.1,0.1-0.1,0.1c-5.8,5.3-13.3,8.7-21.2,9.8c-11.4-3.9-21-16.3-22.9-29.8
	c-2.2-15.4,8.1-32.7,10.9-36.4c0.1-0.1,0.7-1,0.7-1c3.3-4.4,10.9-14.6,21.8-14.6c0.3,0,0.6,0,0.9,0c6.9,0.3,12.8,2.8,19,5.5
	c6.8,2.9,13.8,6,22.4,6.2c0.7,0,1.4,0,2.1,0c5.1,0,9.6-0.8,20.6-5.2c6.6-2.6,12.6-4,17.9-4c4.5,0,8.4,1,11.6,3
	c2.9,1.8,6.3,10.3,7.2,24.6c1.8,30.9-1.7,39.1-5.2,44.4C130.2,261.4,121.3,267.7,111.8,270.8z M47.7,36.1l0-0.6
	c-0.2-4.3-0.4-8.8-0.6-13.4c0-0.5-0.1-1.1-0.1-1.9c-0.5-8.7,0.2-13.7,2.1-14.8c0.4-0.3,1-0.4,1.7-0.4c0.6,0,1.1,0.1,1.7,0.3
	C54.7,5.8,58.9,8,63,15.8c8.7,16.7,13.2,27.3,18,38.5C84.6,63,88.4,72,94.5,84.7c6.2,13,12.4,24.3,17.7,34.2
	c7.9,14.5,14.1,25.9,17.1,36.2c2.2,7.5,3.7,15.5,4.2,21.9c-3.5-1.5-7.5-2.3-11.9-2.3c-6.2,0-13,1.5-20.5,4.4
	c-10,4-13.8,4.7-18.1,4.7c-0.6,0-1.3,0-1.9,0c-7.2-0.2-13.3-2.8-19.9-5.6c-6.5-2.8-13.3-5.7-21.4-6.1c-0.4,0-0.8,0-1.2,0
	c-3.4,0-6.6,0.7-9.4,1.8c1.5-13,4.2-23.3,7.2-35c2.6-9.9,5.5-21.2,8.1-35.9C49.5,75.9,48.6,56.6,47.7,36.1z M69.4,11.3
	c0.2,0,1.2,0.2,3.8,3.1c8.9,9.5,14.1,23.9,19.2,38c1.9,5.2,3.8,10.5,5.9,15.5c5.2,12.4,9.2,19.7,12.7,26.2l0.1,0.1
	c3.1,5.7,6,11,9.3,19.1c1.5,3.5,3.1,8.3,4.5,14.4c-2-3.8-4.2-7.8-6.5-12.1c-5.3-9.8-11.4-20.9-17.6-33.9
	c-5.9-12.4-9.7-21.2-13.3-29.8l-0.2-0.4C82.5,40,78,29.3,69.2,12.5c0-0.1-0.1-0.2-0.1-0.2c0.1-0.6,0.1-0.8,0.2-0.9
	C69.3,11.3,69.3,11.3,69.4,11.3z"/>
</svg>
