<?xml version="1.0" encoding="utf-8"?>
<!-- Generator: Adobe Illustrator 28.1.0, SVG Export Plug-In . SVG Version: 6.00 Build 0)  -->
<svg version="1.1" id="Layer_2_00000121982618741545524410000016282805703166968714_"
	 xmlns="http://www.w3.org/2000/svg" xmlns:xlink="http://www.w3.org/1999/xlink" x="0px" y="0px" viewBox="0 0 151.9 283.9"
	 style="enable-background:new 0 0 151.9 283.9;" xml:space="preserve">
<style type="text/css">
	.st0{fill:#B6C5DA;}
</style>
<path class="st0" d="M140.3,184c2.8-34,1.8-62.1-3.3-93.7c-4.8-30.2-23.7-53.5-34.5-64.6C86.2,8.9,67.8-2,55.4-2
	c-3.1,0-5.5,0.9-7,2.7c-2.2,2.5-2.1,5.8-1.9,8.2c-3.1,0.3-8.7,1.6-9.5,9.9c-0.6,7.2-0.7,14.1-0.8,21.4v0.2
	c-0.1,5.3-0.1,10.1-0.4,15.3c-0.5,11.4-3.6,21.4-7,32c-2.2,7-4.7,15-6.4,23.7c-3.1,16-4.2,45.4-0.8,66.6c-3,1.5-5.2,3.4-6.8,5.7
	c-14.6,21.4-24.6,52-9.2,73.6c7.1,10,21.1,21.7,37.1,21.7c0.5,0,1.1,0,1.6,0c8.6-0.4,13.7-3.6,17.9-6.1c3.6-2.2,6.5-4,11.2-4.2h0.1
	c2,0,6,2.7,9.9,5.3c5.9,4,13.3,9,22.1,11c0.6,0.1,1.1,0.2,1.7,0.3c2.7,0.5,5.5,0.7,8.3,0.7c0.1,0,0.2,0,0.3,0
	c11.6-0.1,26.7-4.5,31.5-16.8C160.2,236.5,152.5,195.2,140.3,184z M105.6,277.6c-6.5-1.8-12.1-5.7-17.1-9.2
	c-4.5-3.1-8.4-5.8-12.4-6.6c0.7-3.8,1-7.8,0.7-12.4c-0.3-4.3-1-8.1-2.1-11.6c3.9-0.5,7.5-2,10.4-4.4c0.7-0.6,0.9-1.5,0.5-2.4
	c-0.3-0.7-1-1.2-1.8-1.2c-0.1,0-0.2,0-0.3,0c-4.2,0.7-7.5,1.1-11,1.1c-0.4,0-0.8,0-1.3,0c-3.9-0.1-7.7-0.8-12.2-1.8
	c-0.1,0-0.3,0-0.4,0c-0.5,0-0.9,0.2-1.3,0.4c-0.5,0.4-0.8,1-0.8,1.6c0,0.6,0.2,1.1,0.6,1.5c3.1,2.9,7.3,4.7,11.9,5.3
	c0.1,2.5,0.3,5.2,0.5,7.6c0.1,1.6,0.2,3.1,0.3,4.4c0.1,1.4,0.2,2.9,0.3,4.5c0.2,2.4,0.3,5,0.5,7.4c-5.1,0.8-8.7,3-12,5
	c-4,2.4-7.7,4.7-14.5,5.1c-0.4,0-0.8,0-1.3,0c-12.4,0-24.7-9.4-31.4-18.7c-13.3-18.7-3.9-46.1,9.3-65.6c2.9-4.3,10.4-6.5,24.1-7.1
	c6.1-0.3,10.8-2.1,15.5-3.9l0.2-0.1c4.2-1.6,8.2-3.2,12.9-3.2h0.4c4.5,0.1,10.6,2.2,16.5,4.3c5,1.8,9.8,3.5,14,4.1
	c3.1,0.5,5.9,0.8,8.6,1.1h0.2c8.8,1.1,15.1,1.8,21.3,5.1c8.4,4.8,19.7,44.9,6.5,78.7c-3.3,8.5-15.2,12.3-25.4,12.3
	c-2.4,0-4.7-0.2-7-0.6C107.5,278.1,106.5,277.9,105.6,277.6z M43.3,40.5c0.1-7.1,0.2-13.9,0.8-21c0.3-3.3,1.3-3.4,4-3.6
	c0.7-0.1,1.5-0.1,2.2-0.3c6.3,8.3,11.4,16,15.6,23.5c1.3,2.4,2.6,4.8,3.7,7c3.1,6,4.9,13.2,5.7,22c0.3,2.5,0.4,5.2,0.5,7.7
	c0.2,4.6,0.4,9.3,1.5,13.9c0.2,0.9,1,1.6,2,1.6c0.1,0,0.2,0,0.3,0c1-0.1,1.8-1,1.7-2.1c-0.2-3.2,0-6.4,0.2-9.7v-0.8
	c0.6-10.2,0.5-22.2-4.4-33.2c-6-12.5-14.1-23.8-23.5-33c0.3-1.1,0.1-2.3,0-3.5c-0.1-0.9-0.4-3.2,0-3.7c0,0,0.3-0.4,1.8-0.4
	c10.3,0,27.1,10.2,41.9,25.4c10.3,10.6,28.2,32.6,32.7,61c4.8,30,5.9,56.8,3.5,88.7c-5.9-2.4-11.9-3.1-19.7-4h-0.1
	c-2.7-0.3-5.5-0.7-8.6-1.1c-3.5-0.5-8-2.1-12.7-3.8c-6.1-2.2-13-4.7-18.7-4.8h-0.4c-6.2,0-11.2,2-15.7,3.7
	c-4.1,1.6-8.2,3.2-13.2,3.4c-6.5,0.3-11.8,0.9-16.1,2c-2.9-20.1-1.9-47.6,1.1-62.7c1.6-8.2,3.9-15.6,6.2-22.9
	c3.5-11.1,6.8-21.6,7.3-33.8C43.1,50.6,43.2,45.8,43.3,40.5z"/>
</svg>
