<?xml version="1.0" encoding="utf-8"?>
<!-- Generator: Adobe Illustrator 28.1.0, SVG Export Plug-In . SVG Version: 6.00 Build 0)  -->
<svg version="1.1" id="Layer_2_00000119813709432167802790000009398119833422615185_"
	 xmlns="http://www.w3.org/2000/svg" xmlns:xlink="http://www.w3.org/1999/xlink" x="0px" y="0px" viewBox="0 0 99.6 337.8"
	 style="enable-background:new 0 0 99.6 337.8;" xml:space="preserve">
<style type="text/css">
	.st0{fill:#B6C5DA;}
</style>
<g>
	<path class="st0" d="M93.1,256.2c-1.8-3.6-4.5-8.7-8.1-14c4.3-36.5,3.3-58,0.5-80.6c-3.3-26.5-6.1-37.9-11.7-60.9
		c-1.3-5.2-2.7-11-4.3-17.7c-5.6-23.6-3.9-51.9-2.8-68.8l0.1-1c0.1-2,0.2-3.9,0.3-5.5c0,0,0-0.1,0-0.2c0-4.5-2.1-7.6-6-9.1
		C60.2-1.8,59.3-2,58.4-2C54-2,49.8,1.8,48.1,3.8C31.7,24.3,25,81.2,24.7,83.5c-3,21-4.9,77.1-5,85.3c-0.1,32.1,0.3,46.7,2.2,66.5
		c-2.6,4-5,8.4-7.5,12.8l-0.5,0.9c-1,1.8-2,3.5-3,5.3c-8,14-19,41.5-9.3,56.3c3.4,5.2,8,7.3,12.4,9.2c3.4,1.5,6.9,3.1,10.6,6.2
		c2.8,2.4,5,4.3,6.8,6c5.5,5,8,7.3,15.9,7.8c0.4,0,0.7,0,1.1,0c0.1,0,0.1,0,0.2,0c7.9,0,12.3-4.2,16.9-8.6l0.1-0.1
		c2.5-2.4,5.3-5,9-7.4c4.5-2.9,7.7-4.7,10-6l0.2-0.1c5.1-2.9,6.9-4,11.3-9.6C107.1,294,98.9,268,93.1,256.2z M60.7,326.2
		c-4.2,4-6.9,6.6-12,6.6c-0.3,0-0.6,0-0.9,0c-5.4-0.3-6.3-1.2-11.6-5.9l-0.2-0.2c-1.8-1.6-4-3.6-6.8-6c-4.4-3.7-8.5-5.6-12.1-7.2
		l-0.8,1.8l0.7-1.9c-4.1-1.8-7.1-3.2-9.4-6.7c-7.2-11,2-35.8,9.5-48.9c1.2-2.1,2.4-4.2,3.5-6.2c8.3-14.9,15.4-27.7,28.2-27.8H49
		c18.7,0,33.7,27.2,37.8,35.5c6,12.1,12.1,34,4,44.3c-3.5,4.5-4.5,5.1-9.3,7.8c-2.6,1.5-5.9,3.3-10.5,6.3c-4.3,2.8-7.4,5.7-10.1,8.3
		L60.7,326.2z M26.8,168.9c0-8.2,1.9-63.7,4.9-84.5c0.1-0.6,6.9-57.4,21.9-76.2C54.7,6.7,57.2,5,58.5,5c0.1,0,0.2,0,0.2,0
		C59.5,5.3,60,5.7,60,7.5c-0.1,1.9-0.2,4-0.4,6.4c-1.1,17.3-2.9,46.2,3,70.8c1.4,6,2.7,11.3,3.9,16l0.4,1.7
		c5.5,22.6,8.3,34,11.6,60.1c2.6,20.5,3.5,40.1,0.3,71.6c-7.8-9.2-17.9-17.3-29.8-17.3h-0.2c-8.7,0-15.1,4.1-20.5,10.1
		C27,211,26.7,196.4,26.8,168.9z"/>
	<path class="st0" d="M67,307.4c-4.9-3.2-9-6-12.9-9.4c2-1.3,3.7-2.9,5.4-4.5c1.4-1.3,2.7-2.6,4.2-3.6c3-2.3,7.8-3.7,12.8-3.7
		c3.3,0,6.4,0.6,8.8,1.6c0.3,0.2,0.6,0.3,1,0.3c0.6,0,1.2-0.3,1.5-0.7c0.7-0.8,0.6-2-0.1-2.7c-0.1-0.1-0.2-0.2-0.4-0.3
		c-3.6-2.4-8.5-3.7-13.6-3.7c-2.9,0-5.7,0.4-8.4,1.2c-3.9,1.2-7.1,3.7-9.9,6.1c-3,2.9-6.3,5.6-9.6,5.6c-1.4,0-2.8-0.5-4.2-1.4
		c-0.7-0.5-1.5-1.1-2.2-1.7c-2-1.6-4.3-3.4-7-4.3c-2.1-0.8-4.3-1.2-6.6-1.2c-5.2,0-10.8,2.1-15.3,5.8c-0.8,0.6-1,1.8-0.4,2.7
		c0.4,0.6,1,0.9,1.7,0.9c0.3,0,0.6-0.1,0.9-0.2c4-2.1,8-3.3,11.5-3.3c2.1,0,4.1,0.4,5.8,1.2c1.8,0.8,3.4,2.1,5,3.5
		c0.5,0.4,0.9,0.8,1.4,1.2c-0.5,0.4-1.1,0.7-1.5,1.1c-3,2.3-5.8,5.2-8.2,8.6c-0.6,0.8-0.5,1.9,0.2,2.6c0.4,0.4,0.9,0.6,1.4,0.6
		c0.4,0,0.8-0.1,1.2-0.4c0.7-0.5,1.5-1,2.2-1.6c2.3-1.7,4.5-3.2,6.7-4.5c2-1.1,4.4-2.4,6.6-2.4c0.4,0,0.8,0,1.2,0.1
		c0.7,0.2,1.5,0.9,2.3,1.5c0.4,0.3,0.8,0.7,1.2,0.9c4.8,3.7,10.3,6.5,15.7,7.9c0.2,0.1,0.4,0.1,0.7,0.1c0.6,0,1.2-0.3,1.6-0.7
		c0.6-0.8,0.6-2-0.1-2.7C67.3,307.6,67.2,307.5,67,307.4z"/>
</g>
</svg>
