<?xml version="1.0" encoding="utf-8"?>
<!-- Generator: Adobe Illustrator 28.1.0, SVG Export Plug-In . SVG Version: 6.00 Build 0)  -->
<svg version="1.1" id="Layer_2_00000121263693564072829530000005888434419002330269_"
	 xmlns="http://www.w3.org/2000/svg" xmlns:xlink="http://www.w3.org/1999/xlink" x="0px" y="0px" viewBox="0 0 142.7 408.5"
	 style="enable-background:new 0 0 142.7 408.5;" xml:space="preserve">
<style type="text/css">
	.st0{fill:#B6C5DA;}
</style>
<g>
	<path class="st0" d="M144.1,44.9c-3-13.4-15.3-18.9-22.6-22.1l-0.4-0.2c-0.7-0.3-1.4-0.6-1.9-0.9c-4.3-2.1-5.9-2.9-8-4
		c-1.7-0.9-3.8-2-8.1-4.1c-2.6-1.3-5.2-3.3-7.8-5.4l-1.2,1.6c0,0,0,0,0,0l1.1-1.7C89.2,3.4,82.4-2,71.7-2c-0.5,0-1,0-1.6,0
		C60.6-1.5,54.6,4.3,49.3,9.5c-3.1,3-6.2,6-10,8.2c-4.4,2.5-8.1,4.4-11.3,6.1l-0.8,0.4c-9.3,4.9-14.4,7.6-21.2,15
		c-13.8,15-6.1,43-4.5,48.5c3,9.9,6.3,15,10.1,21c3.2,5,6.8,10.6,10.9,20.3c2.7,6.5,3.8,9.6,4.6,11.9v0.1c0,0.1,0,0.1,0.1,0.2
		c-7.4,27.1-7.4,40.6-7.4,54.9c0,2.1,0,4.1,0,6.2c-0.3,37.1,5.8,79.4,8.3,97.4l0.1,0.9c1.5,10.3,1.8,34.5,0.7,51.8
		c-1.4,21.3-3.9,34.4-6.3,44.3l-0.1,0.3c0,0.1,0,0.1,0,0.2c-0.4,5.7,0.9,9.6,3.9,11.6c1.6,1,3.5,1.5,5.8,1.5c0.1,0,0.2,0,0.3,0
		c3.8-0.1,7.7-1.6,9.8-3c37-25.4,58.1-139.3,58.7-142.8c7.5-32.6,11.6-60.1,12.1-111.7c4.5-6.8,9.8-16.7,15.9-35.8
		c3.2-9.8,4.2-14.3,5.2-18.9c0.9-4.2,1.9-8.5,4.7-17.4C142,71.8,146.4,55.2,144.1,44.9z M94.4,263.2L94.4,263.2
		c-0.9,4.8-22.2,115.3-55.8,138.5c-1.1,0.7-3.8,1.8-6.1,1.8c-0.9,0-1.6-0.2-2-0.4c-0.2-0.1-1-1.4-0.7-4.9c2.4-10.2,5-23.5,6.4-45.2
		c1.1-17.7,0.8-42.6-0.7-53.3l-0.2-1.2c-2.6-17.9-8.5-59.8-8.2-96.2c0-1.4,0-2.9,0-4.3v-2.1c0-12.3-0.1-23.9,5-44.8
		c0.4,0.8,0.9,1.7,1.5,2.7c6.7,12,21.4,24,39.3,24.1c0.1,0,0.1,0,0.2,0c0.7,0,1.4,0,2.1-0.1c14.1-0.7,24.4-8.5,31.2-15.8
		C105.4,207.4,101.4,233.1,94.4,263.2z M132.6,78.7c-2.8,9.1-3.9,13.6-4.8,17.9c-1,4.5-2,8.8-5.1,18.3c-6.4,20-11.8,29.3-16.2,35.8
		c-4.9,7.2-15.6,19.5-31.7,20.3c-0.6,0-1.2,0-1.8,0c-15.1,0-27.6-10.3-33.4-20.6c-4.1-7.3-4.5-8.7-5.6-11.8
		c-0.8-2.4-1.9-5.6-4.8-12.5c-4.4-10.3-8.1-16.2-11.4-21.4c-3.5-5.5-6.6-10.3-9.3-19.2C4.3,72.3,2.6,53.4,11.3,44
		c6-6.5,10.5-8.9,19.3-13.6c3-1.6,7.1-3.8,12.2-6.6c4.6-2.6,8.1-6,11.5-9.3c5-4.9,9.4-9.2,16.3-9.5c0.4,0,0.8,0,1.2,0
		c0.1,0,0.1,0,0.2,0c8.2,0.1,13.4,4.2,19.1,8.7c3,2.4,5.8,4.6,9,6.2c4.2,2.1,6.2,3.1,7.9,4.1l0.5,0.2c1.9,1,3.7,1.9,7.8,3.9
		c0.7,0.3,1.6,0.7,2.5,1.1c6.1,2.7,16.3,7.2,18.6,17.2C139.2,55.1,135.1,70.4,132.6,78.7z"/>
	<path class="st0" d="M73.6,36.7c-0.1,0-0.3,0-0.4,0c-0.9,0-1.7,0.6-1.9,1.5c-1.8,7.2-3.3,14.7-4.6,23.1
		c-3.3,21.2-4.3,43.1-2.9,65.1c-11.9-4.4-23.9-10.7-28.1-22.3c-0.7-2.1-1.1-4.4-1.5-6.8c-0.2-1.3-0.4-2.6-0.7-3.9
		c-2.2-11.2-8-22.2-16.4-31c-0.4-0.4-0.9-0.6-1.4-0.6s-1,0.2-1.3,0.5c-0.8,0.7-0.9,1.9-0.2,2.7c7.2,9.1,11.9,19.3,13.5,29.4
		c0.1,0.7,0.2,1.5,0.3,2.2c0.7,5.2,1.4,10.5,4.3,15.3c4.4,7.5,12.1,13.7,23.4,18.7c3.8,1.7,7.8,3.1,11.6,4.4l1.5,0.5
		c0.2,0.1,0.4,0.1,0.7,0.1c0.4,0,0.9-0.1,1.2-0.4c0.5-0.4,0.8-1.1,0.8-1.7c-0.7-8.8-1.2-17.3-1.3-25.3c-0.3-15.1,0.4-30.6,2.1-46.2
		c0.7-6.9,1.7-14.2,3-23C75.4,37.9,74.7,36.9,73.6,36.7z"/>
	<path class="st0" d="M120.4,49.2c-1.1,0-1.9,0.8-2,1.9c-0.3,6-1.2,11.7-2.5,17c-3.5,14.6-11.1,28.4-21.5,39.1
		c-1.1-4.1-2-8.2-2.8-12.1c-3.5-17.1-5-35.4-4.4-54.6c0-0.5-0.2-1.1-0.6-1.5c-0.4-0.4-0.9-0.6-1.4-0.6c-1,0-1.9,0.7-2,1.7
		c-3.3,24.8-1,51.4,6.7,76.9c0.2,0.6,0.7,1.2,1.4,1.3c0.2,0.1,0.4,0.1,0.6,0.1c0.5,0,0.9-0.2,1.3-0.5c14.9-12.8,24.9-30.2,28.1-48.8
		c1.1-6,1.5-12.1,1.2-18.1C122.4,50,121.5,49.2,120.4,49.2z"/>
</g>
</svg>
