<?xml version="1.0" encoding="utf-8"?>
<!-- Generator: Adobe Illustrator 28.1.0, SVG Export Plug-In . SVG Version: 6.00 Build 0)  -->
<svg version="1.1" id="Layer_2_00000018955944029974423750000012435851464772973466_"
	 xmlns="http://www.w3.org/2000/svg" xmlns:xlink="http://www.w3.org/1999/xlink" x="0px" y="0px" viewBox="0 0 97.4 340"
	 style="enable-background:new 0 0 97.4 340;" xml:space="preserve">
<style type="text/css">
	.st0{fill:#B6C5DA;}
</style>
<path class="st0" d="M88.4,263.5l-0.4-0.8c-3.1-5.8-6.3-10.9-9.4-15.3c1.9-30.2-0.8-54.7-3.4-78.3c-1.6-14.7-3.1-28.5-3.6-43.6
	c-0.7-22.8-1.6-51.1-15.8-86.2C49.2,23.2,43.7,11.9,38.2,4l-0.1-0.2c0,0-0.1-0.1-0.1-0.1C34.5-0.1,30.8-2,27-2
	c-2.2,0-4.4,0.7-6.6,1.9c-6.3,3.8-5.3,14.1-4.9,18l0,0.1c2.7,26.9,5.3,52.3,2.4,81.9c-1,10.4-3.2,19.5-5.5,29.2
	c-3.6,15-7.7,32.1-8.6,58.4c-1.6,36.7,0.5,55.2,4.6,74c-0.1,0.2-0.2,0.5-0.3,0.7l-0.4,0.7c-3.6,7.1-12.1,23.8-9,46.3
	c0.8,5.4,4.8,15.4,15.1,18.7c2,0.6,3.9,0.9,5.6,1.1c2.9,0.4,5,0.7,6.8,2.4c6.8,6.3,14.4,9.8,23.2,10.5c0.3,0,0.5,0,0.8,0
	c0.1,0,0.1,0,0.2,0c7.5,0,19-6.5,26-12.5c1.3-1.1,3.7-1.6,6.4-2.2c5.2-1.1,12.3-2.5,14.7-10.6C104.3,293.8,90.1,266.5,88.4,263.5z
	 M90.8,314.7c-1.1,3.8-4.3,4.7-9.5,5.7c-3.4,0.7-6.8,1.4-9.5,3.7c-6.9,6-16.5,10.8-21.4,10.8c-0.2,0-0.3,0-0.5,0
	c-7.2-0.6-13.4-3.4-19-8.7c-3.5-3.3-7.3-3.8-10.7-4.2c-1.5-0.2-3-0.4-4.4-0.8c-7-2.2-9.8-9.2-10.3-13c-0.3-2.4-0.5-4.8-0.6-7.1
	c1.5-0.4,3.1-0.6,4.7-0.6c3.3,0,6.5,0.9,9.3,2.5c1.1,0.7,2.3,1.5,3.4,2.4c2.5,1.9,5.3,4.1,8.9,4.7c1.1,0.2,2.2,0.4,3.3,0.4
	c0,0,0,0,0,0c4.1,0,7.2-1.7,10-3.2c2.5-1.4,4.6-2.5,7.2-2.5c0.5,0,1,0,1.5,0.1c1.9,0.3,3.2,1.6,4.8,3.3c0.4,0.4,0.9,0.9,1.3,1.3
	c3,3.2,6.9,4.8,11.1,4.8c3.6,0,7.4-1.2,11.1-3.4c3.6-2.1,7.1-4.8,10.6-8.3C92.4,306.7,92,310.8,90.8,314.7z M24.9,100.6
	c3-30.1,0.4-55.9-2.4-83.3l0-0.1C21.6,8.4,23.3,6.4,24,5.9C25.1,5.3,26,5,27,5c1.8,0,3.7,1.1,5.7,3.3c5,7.4,10.3,18.1,16.7,33.8
	C63,76,63.9,103.6,64.6,125.9c0.5,15.4,2,29.4,3.7,44.1c2.3,21.2,4.8,43.2,3.7,69.4c-7.7-8.3-15.5-12.5-23.4-12.5
	c-0.9,0-1.9,0.1-2.8,0.2C33,228.6,21,242.3,13.8,252.7c-3-16.2-4.3-33.5-2.9-65c0.9-25.6,4.9-42.3,8.4-57
	C21.6,120.8,23.8,111.5,24.9,100.6z M84.3,302.6c-3.9,2.6-8.5,5.3-13,5.3c-1,0-2-0.1-2.9-0.4c-2-0.6-3.6-2.2-5.2-4
	c-1.5-1.6-3.2-3.3-5.4-4.5c0.9-2.6,1.4-5.1,1.8-7.2c0.5-3.1,1-7.3,0.4-11.6c-0.1-0.9-0.8-1.5-1.6-1.7c-0.1,0-0.2,0-0.3,0
	c-0.7,0-1.4,0.4-1.8,1.1c-2,3.8-3,7.9-3.5,11.1c-0.3,2-0.6,4.4-0.7,7c-0.1,0-0.1,0-0.2,0c-3,0-6.3,1-9.1,2.6
	c-0.4,0.2-0.8,0.5-1.2,0.7c-1.4,0.8-2.8,1.6-4.1,2.1c-1,0.4-2.1,0.6-3.2,0.6c-2.2,0-4.4-0.7-6.4-2.2c-0.5-0.3-0.9-0.6-1.4-1
	c-1.4-1-2.8-2-4.5-2.8c-3.1-1.5-6.6-2.3-10.2-2.3c-2.3,0-4.5,0.3-6.6,1c0.7-14.4,6.2-25.1,8.8-30.4l0.4-0.8
	c6.2-12.2,20.8-29.9,32.4-31.4c0.6-0.1,1.2-0.1,1.8-0.1h0c7.3,0,19,5.6,33.3,32.3l0.4,0.8c0.4,0.8,7.8,14.6,9.6,29.9
	C89.5,298.7,87,300.8,84.3,302.6z"/>
</svg>
