<?xml version="1.0" encoding="utf-8"?>
<!-- Generator: Adobe Illustrator 28.1.0, SVG Export Plug-In . SVG Version: 6.00 Build 0)  -->
<svg version="1.1" id="Layer_2_00000004540344633343158940000008510339418305570225_"
	 xmlns="http://www.w3.org/2000/svg" xmlns:xlink="http://www.w3.org/1999/xlink" x="0px" y="0px" viewBox="0 0 122.1 376.5"
	 style="enable-background:new 0 0 122.1 376.5;" xml:space="preserve">
<style type="text/css">
	.st0{fill:#B6C5DA;}
</style>
<g>
	<path class="st0" d="M104.8,255.1c-1.3-2.3-3-5.3-5-8.7c-2-40-5.8-54.8-10.6-73.6l-0.3-1.2c-0.6-2.5-1.3-5.1-2-7.8
		c-7.7-31-9.5-44.2-12.4-64.2l-0.1-0.5c-0.6-4.2-1.2-8.7-2-13.7c-0.6-4.2-1.2-8.5-1.9-13l-0.1-0.7C67.4,49,64.2,25.6,58.4,15.1
		C58.3,14.9,48.8-2,39-2c-0.7,0-1.3,0.1-1.9,0.2c-5.8,1.4-7.7,9.3-7,16.2c0.4,8.8,0,16.8-0.6,30.1l-0.4,9
		c-1.4,32.6-5.4,56.4-7.7,70.7c-0.3,1.8-0.6,3.3-0.8,4.8c-4.5,28-8.7,62.4-1.5,117.5c-10,18-13.4,33.5-15.6,43.9
		c-5.6,25.7-9.2,42.8,0.8,54.4c4.1,4.8,8.1,5.8,12.7,6.9c4.3,1.1,9.6,2.4,17.4,7.3c7.2,4.4,11.1,8.5,14.4,11.8
		c4.1,4.2,7.3,7.5,13.7,7.7h0.2c0.1,0,0.1,0,0.2,0c5.7,0,9.1-2.8,15.2-7.8l0.1-0.1c3.3-2.7,7.9-6.5,14.5-11.2
		c8.6-6.1,12.9-8.3,15.8-9.7c2.7-1.3,4.4-2.2,6.8-4.9C134.9,323.7,117,276.9,104.8,255.1z M36.1,53.8c0.1-3.1,0.2-5.9,0.4-8.6
		c0.6-13.7,1-22,0.6-31.1c0-0.1,0-0.1,0-0.2c-0.5-4.9,1-8.5,1.6-8.8c0.1,0,0.2,0,0.3,0c3.4,0,10.4,8.1,13.3,13.4
		c5.1,9.4,8.3,32.2,11.3,54.2l0.1,0.7c0.6,4.5,1.2,8.8,1.9,13.1c0.8,5.2,1.4,9.8,2,14.1l0,0.2c2.9,20.2,4.8,33.5,12.5,64.7
		c0.8,3.2,1.6,6.2,2.3,9.1c4.2,16.4,7.6,29.7,9.7,60c-9.1-12.7-21.6-25.5-35.5-25.5c-1,0-2.1,0.1-3.1,0.2c-12,1.6-20,12.4-28.6,27.1
		c-5.5-48.9-1.6-80.5,2.6-106.3c0.2-1,0.3-2.1,0.5-3.2l0.3-1.6C30.5,111.8,34.7,86.8,36.1,53.8z M25.9,248.8
		c9.8-17.3,17.6-30.9,28.5-32.5c0.1,0,0.1,0,0.2,0c0.7-0.1,1.4-0.1,2.1-0.1c18.4,0,36.3,31.9,42.1,42.4
		c11.3,20.2,28.3,63.4,11.5,81.6c-1.6,1.7-2.5,2.2-4.9,3.4c-3,1.5-7.6,3.8-16.6,10.2c-6.8,4.8-11.5,8.7-15,11.5
		c-5.9,4.8-7.7,6.2-10.9,6.2l-0.2,0c-3.5-0.1-5.2-1.8-8.9-5.6c-3.1-3.2-7.7-8-15.7-12.9c-8.8-5.5-15-7-19.5-8.1
		c-4.2-1-6.5-1.6-9.1-4.7c-7.7-9-4.4-24.7,0.8-48.4C12.5,281.7,15.8,266.3,25.9,248.8z"/>
	<path class="st0" d="M14,329.8c0.1,0,0.2,0,0.2,0c0.9,0,1.7-0.6,1.9-1.5l0.7-2.3c4.7-16.3,9.6-33.2,16.7-48.8c1.9-4,3.9-7.8,6.6-11
		c1.4-1.7,2.7-2.5,3.7-2.5c0.8,0,1.7,0.6,2.6,1.8c4.3,6.1,6.3,13.9,8.3,21.3c0.2,1,0.5,1.9,0.7,2.8c1.3,5.3,2.5,11.1,3.8,17.7
		c0.6,2.6,1.1,5.3,1.6,7.9c1.1,5.6,2.1,11.4,4,17c0.6,1.9,2.1,4,4.4,4c0.5,0,1.1-0.1,1.6-0.4c0,0,0.1,0,0.1-0.1
		c2-1.1,2.4-3.2,2.5-4.4l0.1-0.4c0.2-2.3,0.2-4.5,0.2-6.6l0-0.7c-0.1-5.8-0.4-11.6-0.7-17.2c-0.3-6.3-0.6-12.7-0.7-19.1l0-1.4
		c0-5.3-0.1-10.9,1-16l0.1-0.3c0.1-0.3,0.2-0.9,0.4-1.4c4,3.2,9.2,14.4,11.9,20c0.5,1,0.9,1.9,1.3,2.7c4.7,10.1,9,20.6,13.1,30.7
		l1.1,2.6c0.3,0.8,1.1,1.2,1.9,1.2c0.2,0,0.5,0,0.7-0.1c1-0.4,1.5-1.5,1.2-2.5c-4.6-13.2-8.8-24.4-12.9-34.2
		c-2.3-5.4-4.8-11.1-8-16.7c-1.5-2.6-3.2-5.6-5.8-8.1c0,0-0.1-0.1-0.1-0.1c-1.7-1.5-3.3-2.2-4.9-2.2c-6.4,0-7,11.1-7.3,16.4l0,0.2
		c-0.4,8.7-0.1,17.5,0.2,26c0,0,0.1,2.3,0.1,2.7c-1.2-6.2-2.6-12.6-4.2-18.8c-1.5-5.7-3.1-11.8-5.6-17.8c-1.2-2.7-2.6-5.9-4.9-8.7
		c-2.4-2.8-4.9-4.2-7.6-4.2c-10.4,0-19.9,20.5-30.8,66.4c-0.4,1.5-0.6,2.7-0.8,3.5c0,0,0,0,0,0c-0.1,0.2-0.1,0.4-0.1,0.6v0
		C12.3,328.8,13,329.7,14,329.8z"/>
</g>
</svg>
