<?xml version="1.0" encoding="utf-8"?>
<!-- Generator: Adobe Illustrator 28.1.0, SVG Export Plug-In . SVG Version: 6.00 Build 0)  -->
<svg version="1.1" id="Layer_2_00000105393820973106283210000000123975990739209909_"
	 xmlns="http://www.w3.org/2000/svg" xmlns:xlink="http://www.w3.org/1999/xlink" x="0px" y="0px" viewBox="0 0 99.2 308.7"
	 style="enable-background:new 0 0 99.2 308.7;" xml:space="preserve">
<style type="text/css">
	.st0{fill:#B6C5DA;}
</style>
<path class="st0" d="M95.1,21.1c-3.4-3.5-5.3-4.3-9.8-6.2l-0.4-0.2c-2.1-0.9-4.9-2.1-8.7-4C72.7,9,70.3,7,67.9,5.1
	C63.7,1.7,59.4-1.8,51-2c-0.3,0-0.6,0-1,0C40-2,34.8,1.6,30.3,4.8c-2,1.4-3.9,2.7-6.2,3.7c-5.5,2.3-8.5,3.2-10.7,3.8
	c-3,0.9-4.8,1.4-8.1,4.2C-7,27.2-1.6,53.1,5,67.9c0.4,0.8,0.8,1.7,1.2,2.6c2.2,5,4.8,11,8.5,16.6c-0.3,2.3-0.6,4.4-0.9,6.4l-0.2,1
	c-1.3,8.8-2.3,15.7-3.7,36.2v0.6c-2.5,38.1,1.9,73,6.1,95.6c1.9,10.2,9.5,45.7,28.4,72.1c0.3,0.5,7.8,11.1,15.1,11.7
	c0.3,0,0.6,0,1,0c0.1,0,0.2,0,0.2,0c2.1,0,3.8-0.7,5.1-2c2-1.9,2.8-4.8,2.7-9.1c0-0.1,0-0.1,0-0.2c-0.2-2.3-0.4-4.8-0.7-7.5
	l-0.1-0.6c-0.9-8.9-2.1-20-1.6-33.7c0.8-23.9,4.3-38.6,7.6-52.9c1.8-7.8,3.7-15.9,5.1-25.4c3.6-23.9,6.3-51.4,2.4-90.8
	c7.1-8.2,11.5-16.7,12.9-19.6C99.4,57.5,106.7,32.9,95.1,21.1z M66.6,203.3c-3.4,14.6-6.9,29.6-7.8,54.2
	c-0.5,14.2,0.7,25.6,1.7,34.7c0.3,2.9,0.6,5.5,0.8,7.8c0.1,2.6-0.4,3.6-0.5,3.8c0,0-0.1,0.1-0.5,0.1c-0.1,0-0.3,0-0.4,0
	c-2.3-0.2-7-4.7-10-8.8c-18-25.2-25.4-59.4-27.2-69.3c-4.1-22.2-8.4-56.5-6-93.9v-0.6c1.3-20.1,2.3-26.9,3.6-35.6
	c0-0.2,0.1-0.5,0.1-0.8c6.1,6.4,14.3,11.2,25.9,11.6c0.4,0,0.8,0,1.2,0c10.7,0,19.7-5,26.9-11.4c3.2,35.5,0.7,61-2.7,83.2
	c-1.4,9.1-3.2,17-5,24.7L66.6,203.3z M47.7,99.5c-0.3,0-0.6,0-1,0C26.2,98.8,18,80.1,12.6,67.7c0,0-0.9-2-1.2-2.7
	c-6-13.4-9.9-35.9-1.5-43.2c2-1.8,2.8-2,5.4-2.8c2.1-0.6,5.5-1.6,11.4-4.1c2.9-1.2,5.3-2.9,7.5-4.4C38.5,7.6,42.1,5,49.8,5
	c0.1,0,0.1,0,0.2,0h0.8c6,0.1,8.8,2.4,12.6,5.5l0.1,0.1c2.5,2.1,5.4,4.4,9.6,6.4c4.2,2,7.1,3.3,9.3,4.2l0.1,0.1
	c4.2,1.8,5.2,2.2,7.6,4.7c7.8,7.9,3.2,28.1-2.4,39.9C84.9,71.5,70.2,99.5,47.7,99.5z"/>
</svg>
