<?xml version="1.0" encoding="utf-8"?>
<!-- Generator: Adobe Illustrator 28.1.0, SVG Export Plug-In . SVG Version: 6.00 Build 0)  -->
<svg version="1.1" id="Layer_2_00000044159082145790260330000015326245025229955211_"
	 xmlns="http://www.w3.org/2000/svg" xmlns:xlink="http://www.w3.org/1999/xlink" x="0px" y="0px" viewBox="0 0 149.1 287.4"
	 style="enable-background:new 0 0 149.1 287.4;" xml:space="preserve">
<style type="text/css">
	.st0{fill:#B6C5DA;}
</style>
<g>
	<path class="st0" d="M143.3,33.3c-4.4-3.6-8.4-4.9-12.2-6.2c-3.3-1.1-6.7-2.2-11.2-4.9c-3.4-2.1-4.9-3.8-6.6-5.7
		c-1.6-1.9-3.5-4-7-6.4c-4.5-3-8.2-3.4-13-4c-3-0.3-6.6-0.7-11.5-1.9C76,2.7,73.5,1.4,71.6,0.4l-0.1-0.1c-2.2-1.1-4-2.1-8.1-2.3
		c-0.7,0-1.3-0.1-2-0.1C51.5-2,41.7,2.9,24,16.8C7.3,29.9-0.2,36.6-1.6,45.4C-3.8,59,4.2,82.8,15.7,98.9
		c-2.2,27.5-0.7,44.9,0.8,61.7l0.1,1.8c2.6,30.1,7.3,48.3,10.9,58.3c11.3,32,31.3,46.8,35.2,49.4c5.7,3.8,9.1,6.2,13.1,7.7
		c4.2,7.4,8,11.7,13.8,11.8c0.1,0,0.2,0,0.3,0H90c7.1-0.1,9.9-5.4,11-11.3c0.3-0.2,0.6-0.4,1-0.6c2.1-1.2,4.3-2.4,6.9-5.6
		c4.2-5.2,3.8-12,3.6-14.6v-0.4c-1-17.9,2.4-36.8,4.6-46.5c1.4-6.3,2.7-12,3.9-17.5V193c3.2-14.2,6-26.5,8-39.3
		c0.1-0.9,0.3-1.9,0.5-2.8l0.3-2c2-12.3,4.3-26.1,4.1-48.2c5.9-7,10.3-15,12.8-21.8C151.1,66.4,155.3,42.9,143.3,33.3z M105.6,257.5
		v0.4c0.1,2,0.4,6.7-2.1,9.7c-0.7,0.8-1.3,1.4-1.8,1.9c0-1,0-1.9,0-2.8c-0.2-11.7-1.7-26.6-2.3-33l-0.1-0.7
		c-0.1-1.2-0.2-2.1-0.2-2.3c-1.8-38.7-0.7-59.7,0.3-72.2v-0.3c0.1-1,0.2-2.1,0.2-3.1c0.8-10.2,1.6-20.7,7.5-37.9
		c7.2-0.7,14-4.4,19.9-9.5c-0.3,17.4-2.2,28.8-4,39.9l-0.3,2.1c-0.2,0.9-0.3,1.9-0.5,2.8c-2,12.6-4.8,24.8-8,39
		c-1.4,6-2.6,11.4-3.9,17.6C108.1,219.1,104.6,238.7,105.6,257.5z M22.1,106.6c6.6,6.7,13.6,10.3,20.2,10.3c0.2,0,0.4,0,0.6,0
		c3.1,10.9,5.5,22.7,7.9,43.3c1.1,9.7,1.3,16.2,1.5,22.9v0.2c0.3,8.7,0.5,17.7,2.6,34.6c1.2,9.7,6.1,29.3,15.1,48.6
		c-1-0.7-2.2-1.5-3.5-2.4C63,261.7,44.6,248,34,218.2c-2.8-7.8-7.8-25.6-10.5-56.5l-0.1-1.8C22.1,144.9,20.8,129.5,22.1,106.6z
		 M59.4,183.3v-0.4c-0.2-6.9-0.4-13.5-1.6-23.5c-2.4-20.6-4.8-32.5-7.9-43.7c2.5-0.8,4.5-1.8,6.3-2.8c3.3-1.8,6.4-3.4,12.8-4
		c0.8-0.1,1.7-0.1,2.5-0.1c6,0,10.4,1.9,15.1,4c4,1.8,8,3.5,13.1,4.2c-5.5,16.8-6.3,27.4-7.1,37.6c0,0.6-0.3,3.3-0.3,3.3
		c-1,12.7-2.2,34-0.3,73.1c0,0.3,0.1,1.2,0.3,3.1v0.1c0.6,6.3,2.2,21,2.3,32.5c0.3,14.4-2.2,15.7-4.6,15.7h-0.2c-1.3,0-3.5,0-8.9-10
		C69.4,251.3,63.3,227.7,62,217C59.9,200.6,59.7,191.8,59.4,183.3z M104.8,110.4h-0.5c-5.9,0-10.3-1.9-15-4
		c-5.1-2.3-10.4-4.6-17.9-4.6c-1,0-2,0-3.1,0.1c-7.8,0.6-12.1,2.9-15.5,4.8c-3,1.6-5.3,2.8-9.6,3.2c-0.3,0-0.6,0-1,0
		c-6.4,0-12.4-5-16.3-9.3C13.2,86.6,3,60.3,5.3,46.5c1-6,6.6-11.3,23.1-24.2C44.6,9.5,53.3,5,61.5,5c0.5,0,1,0,1.5,0
		c2.6,0.2,3.5,0.6,5.4,1.6c2.2,1.1,5.1,2.6,11.6,4.2c5.3,1.3,9.3,1.8,12.4,2.1c4.3,0.5,6.9,0.8,9.9,2.8c2.7,1.9,4.1,3.4,5.6,5.2
		L108,21c1.8,2.1,3.9,4.5,8.2,7.1c5.2,3.1,9.3,4.5,12.6,5.6c3.5,1.2,6.6,2.2,10.1,5c8.3,6.7,5.1,26.7,1.2,37.7
		C135.1,90.4,120.9,110.1,104.8,110.4z"/>
	<path class="st0" d="M74.1,33.1c-6.4,0-12.4,2.3-16.6,6.4c-0.7,0.7-0.8,1.7-0.3,2.5c0.4,0.6,1,0.9,1.7,0.9c0.2,0,0.5,0,0.7-0.1
		C64.3,41,68.9,40,73.4,40c5.8,0,11.5,1.6,17.1,4.7c0.3,0.2,0.6,0.3,1,0.3c0.6,0,1.1-0.2,1.5-0.7c0.6-0.7,0.6-1.8,0.1-2.5
		C88.7,36.3,81.7,33.1,74.1,33.1z"/>
	<path class="st0" d="M115.9,41.3c-0.1,0-0.2,0-0.3,0c-1,0.2-1.7,1-1.7,2c0.5,16.1-3.4,30.6-12.1,44.1c-0.5,0.8-0.4,1.9,0.4,2.6
		c0.4,0.3,0.8,0.5,1.3,0.5s0.9-0.2,1.3-0.5c12.9-11.4,18.3-30.9,13-47.4C117.6,41.9,116.8,41.3,115.9,41.3z"/>
</g>
</svg>
