<?xml version="1.0" encoding="utf-8"?>
<!-- Generator: Adobe Illustrator 28.1.0, SVG Export Plug-In . SVG Version: 6.00 Build 0)  -->
<svg version="1.1" id="Layer_2_00000159439507756613088170000009555551782823484819_"
	 xmlns="http://www.w3.org/2000/svg" xmlns:xlink="http://www.w3.org/1999/xlink" x="0px" y="0px" viewBox="0 0 183.9 337.1"
	 style="enable-background:new 0 0 183.9 337.1;" xml:space="preserve">
<style type="text/css">
	.st0{fill:#B6C5DA;}
</style>
<path class="st0" d="M156.9,162.8c3.9-14.6,7.3-22.5,11-30.8l0.1-0.3c4.1-9.5,8.4-19.2,13.5-39.4c1.7-6.6,8.9-45.5,0.5-59.3
	l-0.1-0.1c-0.7-1.2-2.9-4.9-7.4-4.9c-0.8,0-1.6,0.1-2.4,0.3c-5,1.4-6.7,8.2-9.8,20.4v0.1c-3,12.3-7.2,29.1-16.4,46.3
	c-4.1,7.7-8.3,13.1-12.5,17.6c-7.6-21.3-8.5-28-7.6-48.3c0.4-3.3,3.7-29.4-0.7-54.7c-0.3-2-1.9-8.6-7.6-11c-1.3-0.6-2.8-0.9-4.3-0.9
	c-3,0-5.6,1.1-7.3,2c-10.8,6-16.4,21.6-22.4,38.1l-0.2,0.7c-1.2,3.3-2.4,6.8-3.7,10c-2.7,6.9-5.3,11.7-8.7,17.9
	c-2.7,4.9-6,11-10.1,19.8c-3.8,8.1-6,14.9-7.5,21.1c-2.7-12-3.3-24.2-1.8-36.4c2.9-24.1,6.4-30.9,13.9-45.7l0.2-0.5
	c2.1-4.1,2.3-8.1,0.6-11c-1.3-2.2-3.7-3.5-6.5-3.6h-0.2c-8.9,0-21.1,11.1-31.9,29.1C16.1,58.7,9.1,81.2,8.5,100.9v1.5
	c-0.3,10.7-0.6,21.8,5.1,62c1.5,10.9,1.4,26.3,1.4,38.7v0.4c0,7.6-0.1,14.2,0.3,18.6C4.3,240-3,268.9-1.9,289.5
	c0.3,5.7,3.2,25.4,27.5,41c3.7,2.4,13.4,8.6,25,8.6c0.1,0,0.1,0,0.2,0c2.6,0,5.2-0.4,7.7-1c9-2.4,14.8-8.2,19.5-12.8
	c2.6-2.6,5.3-5.3,7.1-5.4c1,0,3.9,2.8,5.8,4.6c4.4,4.3,9.8,9.6,18.1,12.2c2.4,0.8,5,1.1,7.7,1.1c12.3,0,24.3-7.6,29.5-10.9
	c0.2-0.2,0.5-0.3,0.7-0.4l0.3-0.2c16.7-10.3,25.8-27.2,26.3-48.8c0.3-12.6-3.5-19.3-7.9-27.1c-3.3-5.9-7-12.5-10.3-23.4
	c-8.3-27.5-1.3-53.2,1.3-62.9L156.9,162.8z M142.4,321c-4.6,2.9-15.5,9.8-25.7,9.8c-2,0-3.9-0.3-5.7-0.8
	c-6.7-2.1-11.4-6.8-15.3-10.6c-2.6-2.6-5-4.9-7.5-6c0.5-3.5,0.5-6.8,0.4-9.7c0-2.8-0.1-5.9-0.5-9.1c6.2-0.7,11.7-3.5,15.2-8
	c0.6-0.7,0.6-1.8,0-2.5c-0.4-0.5-1-0.7-1.5-0.7c-0.3,0-0.7,0.1-1,0.2c-5,2.8-10.7,4.2-16.8,4.2c-4.2,0-8.5-0.7-12.8-2
	c-0.2-0.1-0.4-0.1-0.6-0.1c-0.7,0-1.4,0.4-1.8,1c-0.5,0.8-0.3,1.9,0.5,2.5c3.5,3,8.2,4.9,13.1,5.4c-1.1,6.1-1,12.3,0.2,18.5
	c-3.5,1-6.5,4-9.6,7.1c-4,4-9.1,9.1-16.3,11c-1.9,0.5-3.9,0.8-6,0.8c-9.5,0-18-5.5-21.2-7.5C8,310.7,5.5,293.9,5.3,289
	c-1.2-21.9,8.5-55,20.3-69.5c2.5-3,5.5-4.5,9.2-4.5c0.1,0,0.1,0,0.2,0c0.3,0,0.7,0,1,0c1.7,0.1,4,1.3,6.6,2.5c4.2,2,9,4.4,14.7,4.6
	c0.3,0,0.6,0,0.8,0c8.2,0,14.3-5,19.2-9c2.6-2.1,5.4-4.4,6.9-4.4c1.1,0.1,3.7,3.5,5.4,5.6c3.2,4.1,7.2,9.2,12.9,12.4
	c3.4,1.9,6.2,3,9.2,3.8c2.1,0.5,4.2,0.8,6.3,0.8c5.3,0,9.7-1.6,13.7-3c3.3-1.2,6.2-2.2,9.1-2.2c1.2,0,2.3,0.2,3.4,0.5
	c1.3,0.4,2.5,0.8,5.4,4.4c3,10.6,6.8,17.3,9.9,22.8c4.3,7.7,7.2,12.8,6.9,23.4c-0.3,13.4-4.6,31.7-22.9,43.1L142.4,321z M150.1,161
	l-0.3,1.1c-2.4,9-8.7,32-3.4,58.1c-0.1,0-0.2-0.1-0.3-0.1c-1.8-0.6-3.6-0.9-5.5-0.9c-4.1,0-7.8,1.3-11.5,2.7
	c-3.7,1.3-7.2,2.6-11.3,2.6c-1.6,0-3.1-0.2-4.6-0.6c-2.4-0.6-4.6-1.5-7.5-3.1c-4.5-2.5-7.8-6.7-10.7-10.5c-3.5-4.5-6.5-8.4-10.9-8.4
	c-0.1,0-0.2,0-0.2,0c-3.9,0.1-7.2,2.8-11.1,6c-4.3,3.5-9.1,7.4-14.8,7.4c-0.2,0-0.4,0-0.5,0c-4.3-0.2-8.3-2.1-11.9-3.9l-0.1-0.1
	c-3.1-1.5-6.1-3-9.1-3.2c-0.6,0-1.2-0.1-1.7-0.1c-5.8,0-9.9,2.4-12.7,4.9c0-2.8,0-6.1,0-10c0.1-12.6,0.2-28.3-1.4-39.7
	c-5.6-39.5-5.3-50.3-5-60.8v-1.5C16,82.5,22.7,61.3,33.7,43c10.1-16.9,20.7-25.7,25.9-25.7h0.1c0.2,0,0.5,0,0.6,0.2
	c0.3,0.5,0.3,2-0.8,4.2l-0.2,0.5c-7.7,15.1-11.5,22.7-14.6,48c-4.3,35,7.4,69.1,34.6,101.3l0.4,0.5c1.5,1.8,4.1,4.9,8.4,4.9
	c1.2,0,2.5-0.2,3.8-0.7c9.5-3.6,13.2-13,16.2-20.6c1.2-3.1,2.4-6,3.8-8.4c5.8-9.9,11.8-15.4,18.2-21.2c7.3-6.7,14.9-13.6,22.1-27.3
	c9.6-18,13.9-35.3,17-48c1.5-6,3.5-14.2,4.9-15.4c0.1,0,0.3-0.1,0.4-0.1c0.3,0,0.6,0.1,1.4,1.5l0.1,0.2c5.7,9.5,1.7,42.1-1.3,53.9
	c-5,19.7-9.2,29.2-13.2,38.4C157.8,137.7,154.2,145.8,150.1,161z M128.1,118.3c-0.9,0.8-1.8,1.6-2.7,2.4c-6.5,5.9-13.1,12-19.5,22.8
	c-1.7,2.8-2.9,5.9-4.2,9.2l-0.1,0.2c-2.8,6.9-5.6,14.1-12.2,16.6c-0.5,0.2-1,0.3-1.4,0.3c-0.9,0-1.5-0.6-3-2.4l-0.4-0.5
	c-12.4-14.6-21.3-29.6-26.9-44.8c1.5-9.5,3.1-19.4,9.4-32.9c3.9-8.3,7-14.1,9.8-19.2l0.2-0.4c3.3-6.1,6.2-11.3,9-18.6
	c1.4-3.5,2.7-7.1,4-10.9c5.2-14.5,10.6-29.5,19.2-34c0.8-0.4,2.4-1.2,4-1.2c0.6,0,1.1,0.1,1.5,0.3c2,0.8,3.1,3.6,3.5,5.8
	c4.4,25.6,0.7,52.4,0.7,52.6c0,0.1,0,0.2,0,0.4v0.1C118,86.5,119.1,93.6,128.1,118.3z"/>
</svg>
