<?xml version="1.0" encoding="utf-8"?>
<!-- Generator: Adobe Illustrator 28.1.0, SVG Export Plug-In . SVG Version: 6.00 Build 0)  -->
<svg version="1.1" id="Layer_2_00000071522840105221512750000010151626703837086360_"
	 xmlns="http://www.w3.org/2000/svg" xmlns:xlink="http://www.w3.org/1999/xlink" x="0px" y="0px" viewBox="0 0 101 337"
	 style="enable-background:new 0 0 101 337;" xml:space="preserve">
<style type="text/css">
	.st0{fill:#B6C5DA;}
</style>
<path class="st0" d="M94.4,225.3c-1.5-3.7-3.3-8.2-5.5-12.9c-0.7-28.4-3.4-71.7-12.1-118.2l-0.2-0.8c-1-6.9-11.2-67.4-26.7-90.8
	C48.4,0.4,44.3-2,40.2-2c-1.2,0-2.4,0.2-3.4,0.6c-7.3,2.7-7.3,10.3-7.2,12.7v0.2c2.5,34.3,0.3,60.5-0.8,70.2
	c-1.7,15.5-4,27.7-6.5,40.7l-0.1,0.7c-2.2,11.9-4.6,24.2-6.9,40.8c-3,21.7-2.9,33.6-2.8,45.2v1.8c0,0.9,0,1.7,0,2.6
	c-3.4,6-5.8,11.7-7,16.1c-5,17.5-10.2,41.8-5.7,74.4c2.1,15.8,17.9,21.7,28.3,25.7l1.7,0.6c0.2,0.1,22.9,8.5,42.3,8.5
	c9.1,0,16.1-1.8,21-5.5c8.5-6.4,9.8-36.5,9.9-45.6C103.4,263.4,100.2,240,94.4,225.3z M88.8,327.9c-3.6,2.7-9.3,4.1-16.8,4.1
	c-13.8,0-31.4-4.8-39.8-8.1l-1.7-0.7c-9.4-3.6-22.2-8.5-23.8-20.1c-4.3-31.4,0.7-54.7,5.5-71.6C16,218,31.4,190,53.9,190
	c0.1,0,0.1,0,0.2,0c0.4,0,0.8,0,1.2,0c18,0.9,27.5,24.9,32.6,37.8C100.5,259.7,96.4,322.2,88.8,327.9z M36.5,11.3
	c0-4.6,1.4-5.5,2.7-6C39.4,5,39.8,5,40.1,5c1.8,0,3.6,1.1,3.9,1.5c15.1,22.9,25.7,87.3,25.8,88l0.2,0.9c7.3,39.4,10.3,76.5,11.5,104
	c-6.2-8.7-14.5-15.8-25.9-16.3c-0.6,0-1.1,0-1.7,0c-14.4,0-26.1,9.2-34.6,20.1c0.1-9.8,0.4-20.8,2.8-38.3
	c2.3-16.6,4.6-28.9,6.9-40.7l0.1-0.4c2.5-13.1,4.8-25.4,6.6-41.2C36.8,72.8,39.1,46.1,36.5,11.3z"/>
</svg>
