<?xml version="1.0" encoding="utf-8"?>
<!-- Generator: Adobe Illustrator 28.1.0, SVG Export Plug-In . SVG Version: 6.00 Build 0)  -->
<svg version="1.1" id="Layer_2_00000003808801128979528190000005033703104686857108_"
	 xmlns="http://www.w3.org/2000/svg" xmlns:xlink="http://www.w3.org/1999/xlink" x="0px" y="0px" viewBox="0 0 109.7 325.3"
	 style="enable-background:new 0 0 109.7 325.3;" xml:space="preserve">
<style type="text/css">
	.st0{fill:#B6C5DA;}
</style>
<path class="st0" d="M99.9,239.7c-2.2-4.2-4.5-8-6.9-11.4c0.6-8.6,0.8-24.9,0.9-38.2V187c0-3.5,0.1-7,0.2-10.3v-0.1
	c0.2-12.7,0.4-24.8-0.5-39.2c-2-33.6-5.1-47.1-7.3-57v-0.2c-0.6-2.5-1.1-4.7-1.5-7C83.8,68,74,22,52.8,2.6C51.1,0.7,46.5-2,42.4-2
	c-1.7,0-3.1,0.4-4.4,1.3c-1.8,1.2-3.8,3.9-3.5,9.5c0,0.1,0,0.2,0,0.3c1.7,13.4,1.9,31.7,0.6,51.5c-1.2,18.3-4.1,32.1-6.6,44.3
	l-0.1,0.6c-1.2,5.9-2.4,11.6-3.2,17.1C21,150.8,21,173.9,23,224.2c-5.6,7.3-9.9,15.1-12.9,20.5c-5.1,9.2-18.5,33.5-8.3,49.9
	c3,4.8,8.7,8.1,15.9,12.2c2.9,1.7,6.1,3.6,9.4,5.6c4.1,2.6,7.3,4.9,10.1,6.9l0.3,0.2c6.6,4.7,10.9,7.8,17.3,7.8h0.7
	c6.7-0.2,12.2-3.7,19.1-8.2c2.9-1.8,6.1-3.9,10-6.1c2.3-1.3,4.7-2.5,7.3-3.7c6.1-2.9,11.9-5.7,15.5-11.1
	C120.2,278.8,100.8,241.3,99.9,239.7z M41.5,8.3c-0.1-2.2,0.3-3.1,0.4-3.2C42,5,42.1,5,42.4,5C44,5,47,6.4,48.3,7.6
	c19.9,18.1,29.8,66.2,29.9,66.7c0.4,2.4,0.9,4.7,1.5,7.4c2.2,9.7,5.1,22.9,7.1,55.9c0.9,14.3,0.7,26.2,0.4,38.8
	c-0.1,3.4-0.1,6.8-0.2,10.4l-0.1,4.1c-0.1,9.8-0.2,20.6-0.5,28.8c-9-10.3-18.8-15.5-29.6-15.9c-0.4,0-0.7,0-1.1,0
	c-10.3,0-19,5.4-26.2,12.7c-1.5-44.8-1.3-66.7,2.7-93c0.8-5.5,2-11.2,3.2-17.3C38,93.8,40.9,79.8,42.1,61
	C43.5,40.9,43.3,22.2,41.5,8.3z M55.7,210.7c0.1,0,0.1,0,0.2,0c0.3,0,0.6,0,0.8,0c13.6,0.5,25.8,11,37.1,32.2
	c4.8,9.2,16.5,38,7.6,51.4c-2.6,3.8-7.3,6.1-12.7,8.7c-2.4,1.1-5.1,2.4-7.8,4c-4,2.3-7.3,4.4-10.3,6.3c-6.5,4.1-10.8,6.9-15.5,7
	c-0.2,0-0.3,0-0.4,0c-4.2,0-7.2-2.2-13.3-6.5c-3.1-2.2-6.4-4.5-10.6-7.2c-3.3-2.1-6.5-4-9.7-5.8c-6.3-3.7-11.4-6.6-13.4-9.9
	c-8-12.9,4-34.7,8.5-42.9C22.9,235.9,36.7,210.9,55.7,210.7z"/>
</svg>
