<?xml version="1.0" encoding="utf-8"?>
<!-- Generator: Adobe Illustrator 28.1.0, SVG Export Plug-In . SVG Version: 6.00 Build 0)  -->
<svg version="1.1" id="Layer_2_00000154406614661720819290000002347420215768472713_"
	 xmlns="http://www.w3.org/2000/svg" xmlns:xlink="http://www.w3.org/1999/xlink" x="0px" y="0px" viewBox="0 0 83.8 320.1"
	 style="enable-background:new 0 0 83.8 320.1;" xml:space="preserve">
<style type="text/css">
	.st0{fill:#B6C5DA;}
</style>
<g>
	<path class="st0" d="M74.2,214.1c-1.5-3.5-3.1-7.1-4.9-10.8c1.7-28.6-0.5-59.2-3.7-99.1l-0.4-5.4c-2.9-35.9-4.6-57.6-9.7-87.1
		C54.9,7.5,53.1,0,48.1-1.6C47.3-1.9,46.5-2,45.7-2c-4.1,0-7.6,3.1-9.2,6.2C22.4,30.4,19.6,70.3,19.5,72C19,86.1,17,98.8,14.7,113.6
		l-0.1,0.4c-3.5,22.4-7.5,47.8-7.5,85.8C-6.2,238.3-2.1,288.4,2,306.3c1.4,6.1,7.6,10.5,18.5,13c7.9,1.9,15.6,2.8,22.8,2.8
		c11.4,0,21.4-2.4,29.7-7.1c2.9-1.6,8.8-6.7,10.8-14.5C90.1,277.4,80,227.9,74.2,214.1z M62.8,191.5c-7.6-12.2-16.9-21.8-27.6-21.8
		c-0.3,0-0.6,0-0.9,0c-9.3,0.5-15.6,6.8-19.9,13.8c0.9-28.8,4.2-49.7,7.1-68.5c2.4-15.1,4.4-28.1,4.9-42.6
		c0.1-1.6,2.9-40.1,16.2-64.9C43.5,6,44.9,5,45.7,5c0.1,0,0.1,0,0.1,0c0.6,0.4,2,3,2.7,7.9c5.1,29.3,6.8,50.7,9.7,86.3l0.5,5.7
		C61.5,139.2,63.4,166.5,62.8,191.5z M15.9,196.5c5.3-13.1,11.3-19.3,18.9-19.8c0.1,0,0.3,0,0.4,0h0.1c14.6,0,28.6,30.7,32.5,40.1
		C73.2,230,83,277,77.1,298.9c-1.3,5.1-5.3,8.9-7.4,10.1c-7.3,4.1-16.2,6.2-26.3,6.2c-6.7,0-13.8-0.9-21.2-2.6
		c-7.9-1.9-12.5-4.6-13.3-7.8C4.7,286.7,0.5,234.2,15.9,196.5z"/>
	<path class="st0" d="M11.7,286.4c0.1,0,0.2,0,0.2,0c1,0,1.8-0.7,2-1.7l0.7-4.3c2.1-13.1,4.2-26.7,7.2-39.8c0.9-4,1.9-7.5,2.9-10.6
		c1.1-3.4,2.3-6.7,4.2-9.2c0.5-0.7,0.9-0.9,1-0.9c0.5,0,1.8,1.3,2.5,2l0.5,0.5l0.6,0.6c1.9,2,4.1,4.3,7.1,5.4
		c1.1,0.5,2.2,0.7,3.4,0.7c3.1,0,6.2-1.5,8.1-3.9c1.5-1.7,2.4-3.5,3.4-5.2c0.2-0.4,0.4-0.8,0.6-1.2c1.3,2.5,2,5.4,2.8,8.4
		c0.2,0.8,0.4,1.6,0.6,2.3c3.3,14.1,5.6,28.6,7.9,42.7c0.7,4.2,1.3,8.3,2,12.5c0.2,1,1,1.7,2,1.7c0.1,0,0.2,0,0.3,0
		c1.1-0.1,1.8-1.1,1.7-2.2l-0.1-1.4C68,222,62,212.7,57.8,211c-0.6-0.2-1.2-0.3-1.8-0.3c-3.4,0-5.1,3.2-6.8,6.3
		c-1.4,2.6-2.9,5.2-4.8,5.3h-0.2c-2,0-3.8-1.9-5.8-3.9c-2.3-2.5-5-5.2-8.8-5.2c-0.1,0-0.3,0-0.5,0c-9.5,1-13.6,22.4-16.7,45.4
		c-0.2,1.3-0.3,2.3-0.4,3.2c-0.9,8.1-1.6,15.5-2.1,22.5C9.8,285.4,10.6,286.3,11.7,286.4z"/>
</g>
</svg>
