<?xml version="1.0" encoding="utf-8"?>
<!-- Generator: Adobe Illustrator 28.1.0, SVG Export Plug-In . SVG Version: 6.00 Build 0)  -->
<svg version="1.1" id="Layer_2_00000143601821711388715490000013915741286667102359_"
	 xmlns="http://www.w3.org/2000/svg" xmlns:xlink="http://www.w3.org/1999/xlink" x="0px" y="0px" viewBox="0 0 155.3 295.4"
	 style="enable-background:new 0 0 155.3 295.4;" xml:space="preserve">
<style type="text/css">
	.st0{fill:#B6C5DA;}
</style>
<path class="st0" d="M148.8,207.8c-2.3-6.4-5.2-11.4-8.5-15c4.3-43.2,5.2-73,2.7-96.7c-3.8-36.7-9.4-57.4-32.6-83.1
	C110.3,12.8,96.6-2,86.4-2c-1.7,0-3.3,0.4-4.7,1.2c-4.5,2.7-4.3,6.3-4.3,7.6l0,0.3c-0.2,3.1,1.4,6.8,3.8,12.4l0.1,0.2
	c1.8,4.2,4.1,9.5,6.4,16.2c7.8,22.9,9.2,66,5.6,77.1c-1.1,3.4-5.3,14.7-11.6,15.6c-0.6,0-4-0.5-6.1-4.8c-3.6-7.5-5.3-14.1-7-21
	l0-0.1c-1.5-5.9-3-12-5.8-19c-19-47.6-35-72.5-48.9-76.1c-0.9-0.2-2.9-0.7-5.1-0.7c-2.1,0-4,0.5-5.5,1.4c-8.8,5.3-4,21-2.4,26.2
	c7.8,25.1,9.8,37.6,14.9,73.4l0.2,1.3c2.7,19.1,6.1,42.8,3.7,81.3c-10.6,9.4-16,27.9-17.2,32.5c-3.4,12.9-10.6,39.8,6.3,57.6
	c7.9,8.4,20.8,13.9,32.8,13.9c2.2,0,4.4-0.2,6.4-0.6c6.7-1.2,11.4-3.8,15.7-6.1c4.2-2.2,7.5-4,11.5-4c0.7,0,1.5,0.1,2.3,0.2
	c4.5,0.7,7.8,3.3,10.9,5.8c1.1,0.9,2.2,1.8,3.4,2.6c5.3,3.6,11.6,5.4,18.5,5.4c0.1,0,0.2,0,0.3,0c2.6,0,5.2-0.3,7.8-0.8
	c22.2-4.3,33.2-15.5,35.8-20.8C160.6,262.9,156.5,229.6,148.8,207.8z M15.7,266.7c1.8,0,3.5,0.4,5.2,1.2c1.8,0.9,3.4,2.4,5.1,4.1
	c0.4,0.4,0.9,0.9,1.3,1.3c4,4,8.9,6.2,13.5,6.2c0.5,0,1.1,0,1.6-0.1c5.1-0.6,9.4-3.5,13.2-6.1l0.8-0.5c5.5-4,9.8-5.7,13.9-5.7
	c4.5,0,9.1,2.1,15.9,7.2c1.2,0.8,2.4,1.7,3.6,2.6c3.9,2.9,8,5.9,12.6,8c5.5,2.4,11.7,3.5,18.8,3.5c0.6,0,1.1,0,1.7,0
	c-1.9,0.5-3.9,1-6,1.4c-2.4,0.5-4.7,0.7-6.9,0.7c-5.4,0-10.3-1.4-14.5-4.2c-0.9-0.6-2-1.4-3-2.3c-3.5-2.8-7.8-6.3-14.2-7.3
	c-1.1-0.2-2.2-0.3-3.3-0.3c-0.1,0-0.1,0-0.2,0c-5.8,0.1-10.3,2.5-14.7,4.8c-3.9,2.1-8,4.3-13.6,5.3c-1.6,0.3-3.3,0.4-5,0.4
	c0,0,0,0,0,0c-10,0-21.2-4.7-27.8-11.7c-2-2.1-3.6-4.5-4.9-7C11.2,267.3,13.5,266.7,15.7,266.7z M137,282.5
	c-3.6,0.3-7.5,0.6-11.4,0.6c-8.3,0-14.8-1.2-20.5-3.9c-3.8-1.9-7.1-4.5-10.7-7.2c-1.4-1-2.8-2.1-4.1-3.1c-5.4-4.2-10.1-6.8-14.5-8
	c1.6-14.3,1.3-28.6-0.9-42.7c-0.2-1-1-1.7-2-1.7c0,0,0,0,0,0c-1,0-1.8,0.7-2,1.7c-1.1,7.8-1.1,15.8-1.1,23.3
	c0,5.5,0.2,11.9,0.9,18.6c-0.2,0-0.3,0-0.5,0c-5.6,0-11.3,2.2-17.7,7c-0.6,0.4-1.2,0.8-1.8,1.2c-3,2.1-5.9,4-9.2,4.5
	c-0.4,0-0.7,0.1-1.1,0.1c-2.9,0-6.1-1.4-9-4.1c-0.3-0.3-0.6-0.6-1-0.9c-2.1-1.9-4.4-4-7.3-5.2c-2.1-0.8-4.2-1.3-6.4-1.3
	c-3.2,0-6.5,1-9.6,2.8c-4.9-14.1-0.4-30.9,2-40c3.1-11.6,11.3-31.5,22.7-32.8c0.5-0.1,1-0.1,1.5-0.1c2,0,3.5,0.5,5.5,1.2
	c2.8,0.9,6.2,2.1,11.8,2.1h0.2c7.4,0,11.6-1.6,15.3-3l-0.7-1.9l0.8,1.8c3.2-1.2,5.8-2.2,10.1-2.2c0.3,0,0.7,0,1,0
	c5.2,0.2,8.2,1.6,11.8,3.3c3.8,1.8,8,3.9,15.2,4.2c0.7,0,1.5,0,2.2,0c6.3,0,10.9-1.3,14.7-2.3c2.4-0.6,4.4-1.2,6.2-1.2
	c5.7,0,11,5.9,14.7,16.4c7,19.6,11.1,51.9,5.8,62.6C146.6,275.3,142.9,279.1,137,282.5z M22.9,107.8l-0.2-1.3
	C17.5,70.4,15.5,57.7,7.6,32C3.2,17.9,5.6,14.7,6.8,14c0.4-0.2,1-0.4,1.8-0.4c1,0,2.2,0.2,3.5,0.5c6.4,1.7,20.6,13.2,44,71.9
	c2.6,6.6,4.1,12.5,5.6,18.2c1.9,7.4,3.6,14.3,7.5,22.4c3.3,6.9,9.4,8.8,12.4,8.8c0.3,0,0.5,0,0.7,0c9.8-1.2,15.2-13.3,17.5-20.4
	c4.4-13.4,2.2-58.6-5.6-81.5c-2.3-6.9-4.6-12.2-6.5-16.5l-0.1-0.2c-1.8-4.1-3.4-7.9-3.3-9.4c0-0.2,0-0.3,0-0.5l0-0.3
	c0-0.8,0-0.9,0.9-1.4C85.5,5.1,85.9,5,86.4,5c4.9,0,14.7,8.1,18.8,12.6c19.8,22,26.7,39.8,30.8,79.2c2.3,22.4,1.6,50.7-2.3,91.2
	c-2-0.9-4.1-1.3-6.2-1.3c-2.8,0-5.4,0.7-8,1.4c-3.5,0.9-7.4,2-12.8,2c-0.6,0-1.2,0-1.9,0c-5.7-0.3-8.8-1.8-12.5-3.5
	c-3.7-1.8-7.8-3.8-14.5-4c-0.4,0-0.8,0-1.2,0c-5.8,0-9.5,1.4-12.8,2.7c-3.3,1.3-6.8,2.6-13.1,2.6c-4.5,0-6.9-0.9-9.6-1.8
	c-2.2-0.8-4.6-1.5-7.7-1.5c-0.7,0-1.5,0-2.3,0.1c-1.4,0.2-2.8,0.5-4.1,1C28.8,149.3,25.6,126.4,22.9,107.8z"/>
</svg>
