<?xml version="1.0" encoding="utf-8"?>
<!-- Generator: Adobe Illustrator 28.1.0, SVG Export Plug-In . SVG Version: 6.00 Build 0)  -->
<svg version="1.1" id="Layer_2_00000163788840708127129750000004700395916283147165_"
	 xmlns="http://www.w3.org/2000/svg" xmlns:xlink="http://www.w3.org/1999/xlink" x="0px" y="0px" viewBox="0 0 172.2 311.4"
	 style="enable-background:new 0 0 172.2 311.4;" xml:space="preserve">
<style type="text/css">
	.st0{fill:#B6C5DA;}
</style>
<path class="st0" d="M174.1,50.1c0.6-7.8-2.4-26.1-15.6-32.8c-4.7-2.4-8.4-2.6-12.7-2.8c-3-0.2-6.5-0.4-11.3-1.4
	c-7.3-1.6-10.6-3.9-14.1-6.5c-3.5-2.5-7.1-5.1-13.8-5.9c-1.3-0.2-2.5-0.2-3.7-0.2c-6.2,0-10.5,1.9-14.8,3.8
	c-4.3,1.9-8.3,3.7-14.5,3.7c-0.3,0-0.5,0-0.8,0c-6.5-0.2-9.9-2-13.8-4.2C54.7,1.3,50-1.3,41.4-1.9C40.7-2,39.9-2,39.1-2
	c-11.6,0-24,5.9-31.6,15c-12,14.5-10.5,30.7-7.2,50.4c2.4,14.6,7.8,32.4,15.8,42.9c-4.8,25.4-5.4,37.4-6.1,52.6
	c-0.1,1.2-0.1,2.5-0.2,3.7l-0.1,1.1c-2.4,47.8,3.2,75,8.2,93.4c0.5,2.1,8.7,37.6,30,51.4c2.7,1.8,8.8,4.8,14.1,4.8
	c0.1,0,0.1,0,0.2,0c2.1,0,3.9-0.5,5.4-1.5c1.9-1.3,7.7-5.1,4.6-13.1c0-0.1,0-0.1-0.1-0.2c0,0-0.1-0.3-0.2-0.3
	c-10.8-19.1-12.4-33.3-11.8-41.9c0.7-9.7,1.6-15.7,2.8-23.2c0.9-5.9,2.1-13.2,3.5-24.8c0.1-1.1,0.2-2.3,0.4-3.5l0-0.4
	c0.8-8.3,2-19.6,8.7-27.8c2-2.5,4.2-3.9,6.4-4.1c0.1,0,0.2,0,0.3,0c4.7,0,10.3,9.2,16.6,27.3l0.1,0.2c0.5,1.4,0.9,2.5,1.2,3.3
	c5,12.7,6.8,18.9,8.8,26.2c1.6,5.6,3.4,12,7,22.5c6.5,18.9,13.5,34.8,26.1,50.6c4.6,5.7,10.9,9.2,16.8,9.2c1.6,0,3-0.3,4.3-0.8
	c2.6-1,4.4-3.6,5.2-7.6l0.1-0.4c0.1-0.3,0-0.6,0-0.9l-0.1-0.4c-3.6-12.2-5.9-24.8-7-37.4c-1.2-13.8-1.2-17.4-1.3-23.8
	c0-2.5-0.1-6-0.2-10.9c-0.5-16.4-2.7-27.7-5.1-39.8c-2-10.1-4.1-20.6-5.1-34.7c-0.7-9.4-1.1-14.9-2.1-27.1c0,0-0.7-9.5-1.2-14.9
	C167.3,100,172.7,68,174.1,50.1z M160.7,304.4c-0.3,0.1-0.9,0.3-1.7,0.3c-2.9,0-7.5-1.7-11.3-6.5c-12-15-18.7-30.2-25-48.5
	c-3.6-10.3-5.3-16.6-6.9-22.1c-2.1-7.4-3.9-13.8-9.1-26.8c-0.3-0.7-0.6-1.7-1.1-3l-0.1-0.2c-3.8-11.2-11-31.9-23.1-31.9
	c-0.3,0-0.7,0-1,0.1c-4.1,0.4-7.8,2.6-11.1,6.6c-8,9.9-9.3,22.4-10.2,31.6l0,0.4c-0.1,1.2-0.2,2.3-0.4,3.4
	c-1.3,11.1-2.4,18.2-3.4,24.5l0,0.3c-1.2,7.7-2.1,13.8-2.8,23.5c-0.7,9.5,1,25.1,12.5,45.6c0.8,2.1,0.4,3-2,4.5
	c-0.4,0.3-1,0.4-1.8,0.4c-3,0-7.6-1.9-10.3-3.7c-18.7-12.2-26.7-45.8-27-47.3c-4.9-17.9-10.3-44.4-8-91.3l0-0.9
	c0.1-1.3,0.1-2.6,0.2-3.9c0.6-13.9,1.2-25.1,5.1-46.9c0.7,0.5,1.5,1,2.2,1.4c3.6,1.9,6.8,2.7,10.1,2.7c1.6,0,3-0.2,4.5-0.4
	c1.6-0.2,3.2-0.4,5.1-0.4c3.4,0,7.1,0.6,11.6,2c4.9,1.5,8.1,3.2,10.9,4.6c3.9,2,7.6,4,14.1,4.4c0.5,0,1,0,1.5,0.1c0.1,0,0.1,0,0.2,0
	c6.5,0,12.2-2.3,18.3-4.7c4.1-1.7,8.8-3.6,14.5-5c3.8-1,7.2-1.4,10.7-1.4c2,0,3.7,0.1,5.4,0.3c1.4,0.1,2.9,0.2,4.4,0.2
	c1.5,0,2.8-0.1,4.2-0.4c0.4,4.9,0.7,9.1,1,12.6l0.2,2.2c0.9,11,1.3,16,1.9,24.9c1,14.6,3.1,25.3,5.2,35.6c2.3,11.7,4.5,22.8,5,38.6
	c0.1,4.5,0.2,7.6,0.2,10.3l0,0.6c0.1,6.6,0.1,10.2,1.3,24.3c1.1,12.8,3.4,25.5,7,37.9C161.1,303.9,160.7,304.3,160.7,304.4z
	 M135.5,109.2c-1.2,0-2.4-0.1-3.8-0.2c-1.7-0.1-3.7-0.3-6-0.3c-4,0-8.1,0.5-12.4,1.7c-6.1,1.6-11.1,3.6-15.4,5.3
	c-5.8,2.4-10.4,4.2-15.6,4.2c-0.4,0-0.9,0-1.3,0c-5-0.3-7.4-1.6-11.3-3.6c-2.9-1.5-6.4-3.4-12-5.1c-5.1-1.6-9.6-2.3-13.7-2.3
	c-0.1,0-0.1,0-0.2,0c-2.2,0-4,0.2-5.6,0.4l-0.2,0c-1.3,0.2-2.5,0.3-3.6,0.3h0c-1.5,0-3.6-0.2-6.9-1.9c-9.2-4.8-17.2-26.4-20.3-45.3
	c-3.5-21.4-3.6-33.6,5.7-44.8C19.2,9.9,29.5,5,39.1,5c0.6,0,1.2,0,1.9,0.1c7,0.5,10.6,2.5,14.5,4.7c3.7,2,7.8,4.3,14.4,4.9
	c-0.3,6.5-0.3,13-0.3,19.4l0,0.6c0.1,6.4,0.2,12.9,0.7,19.4c-6.2,0.4-11.6,2.9-15.5,7.1c-0.6,0.7-0.7,1.7-0.2,2.5
	c0.4,0.5,1,0.8,1.6,0.8c0.3,0,0.5-0.1,0.8-0.2c2.9-1.3,5.4-2.1,7.8-2.6c2.2-0.5,4.4-0.7,6.7-0.7c5.2,0,10.9,1.3,16.9,3.8
	c0.2,0.1,0.5,0.2,0.8,0.2c0.4,0,0.8-0.1,1.1-0.3c0.6-0.4,0.9-1,0.9-1.7c0-0.5-0.2-1-0.6-1.4c-4-4.1-9.6-6.7-15.6-7.4
	c1-6,1.5-12.5,1.5-20.2c-0.1-7.3-0.7-13.5-1.7-19.2c6.9-0.2,11.6-2.3,16-4.2c3.9-1.7,7.3-3.2,12-3.2c0.9,0,1.9,0.1,2.9,0.2
	c5,0.6,7.4,2.4,10.6,4.6c3.2,2.3,7.1,5.2,14.3,7.1c0,3.4,0.2,6.7,0.4,9.9l0.1,2l0.1,1.7c0.3,4.5,0.6,9.1,1.4,13.7
	c0.2,0.9,0.9,1.6,1.9,1.7c0,0,0.1,0,0.1,0c0.9,0,1.7-0.6,1.9-1.4c1.4-4.7,1.9-10,1.5-16.2c-0.3-3.8-0.8-7.2-1.7-10.2
	c3.6,0.6,6.5,0.7,9,0.9c4,0.2,6.6,0.4,9.9,2.1c9.4,4.8,12.3,19.3,11.8,26.1c-1,13.5-5.5,46.1-24.7,57.7
	C139.5,108.9,137.4,109.2,135.5,109.2z"/>
</svg>
