<?xml version="1.0" encoding="utf-8"?>
<!-- Generator: Adobe Illustrator 28.1.0, SVG Export Plug-In . SVG Version: 6.00 Build 0)  -->
<svg version="1.1" id="Layer_2_00000025441829456709290170000000893827405239893398_"
	 xmlns="http://www.w3.org/2000/svg" xmlns:xlink="http://www.w3.org/1999/xlink" x="0px" y="0px" viewBox="0 0 172.4 315.6"
	 style="enable-background:new 0 0 172.4 315.6;" xml:space="preserve">
<style type="text/css">
	.st0{fill:#B6C5DA;}
</style>
<path class="st0" d="M174.3,262.8c-0.8-20-6.8-44.8-20.5-57.2c-3.7-27.4-4.4-47.3-2.4-64.3c1.1-9.3,2.8-16.2,4.4-22.9l-1.9-0.5
	l2,0.3c2.2-9.3,4.3-18.1,4.8-32c0.2-6.6,0.1-11.6,0-16.3l0-0.3c-0.1-6.3-0.3-12.3,0.2-21.8c0.6-11.2,4.7-20.7,7.7-27.7l0.1-0.3
	c1.4-3.2,2.5-5.8,3-7.9c1.1-4,0-7.7-3-10c-1.7-1.3-3.8-1.9-6.2-1.9c-3.1,0-6,1-7.9,1.8C137.5,9.2,121,50,119.2,54.5
	c-0.2,0.5-0.4,1-0.7,1.6l-0.1,0.3c-3.1,7.2-8.3,19.1-15.3,44.2c-3,10.6-10.8,28.7-18.8,35.7c-1.1,1-2.6,2.1-4.2,2.1
	c-0.6,0-1.1-0.1-1.7-0.4c-3.3-1.4-4-5.1-5.3-13.4c-0.9-5.6-2-12.5-4.7-20.6c-7.6-23-9.2-31.8-8.8-47.2c0.5-17.5,4.3-29.7,14-44.9
	c2.7-4.3,1.8-9.5-2-12.2C70-1.5,68.1-2,66-2c-7.2,0-15.8,6.4-19.5,9.2c-0.3,0.2-0.5,0.4-0.7,0.5C22.7,24.5,16.4,60.7,15,71.4
	c-7,54.4-3.8,97.2,0.3,132c-7.1,9-11.3,23-13.4,32.3c-4.1,18.2-5.2,38.8-2.5,49.1c4,15.3,21,32.2,40,32.8c0.5,0,1,0,1.4,0
	c0.1,0,0.2,0,0.3,0c10.3,0,15.2-3.5,19.6-6.6c3.7-2.7,7-4.9,14-5h0.4c6.4,0,10.9,1.8,15.4,3.6c4.4,1.8,8.9,3.6,14.9,3.6
	c1.6,0,3.3-0.1,5-0.4c6-0.9,9.8-2.8,13.4-4.7c2.9-1.5,6.2-3.1,11.1-4.6c6.7-2,11.1-2.5,14.7-2.9c4-0.5,7.4-0.9,11.6-2.9
	C175.4,290.7,174.7,272.6,174.3,262.8z M93.2,303.2c-4.8-1.9-10.1-4.1-18-4.1h-0.4c-2.2,0-4.2,0.2-5.9,0.6c2.6-2,5.1-4.2,7.3-6.8
	c1-1.1,1.9-2.3,2.8-3.4c0.4-0.5,0.7-0.9,1.1-1.4c1.1-1.3,2.2-2.6,3.4-3.4c1.3-0.8,2.9-1.2,4.9-1.2c1.3,0,2.7,0.2,4.2,0.5
	c4.9,1.2,9.3,3.7,13.9,6.4c6,3.5,12.2,7.1,19.7,7.6c0.5,0,0.9,0,1.4,0c0.6,0,1.3,0,1.8-0.1c-3.7,1.3-6.4,2.7-8.7,3.9
	c-3.6,1.8-6.4,3.2-11.4,4c-1.4,0.2-2.7,0.3-3.9,0.3C100.8,306.3,97.3,304.8,93.2,303.2z M41.2,310.6c-0.5,0-1,0-1.5,0
	c-8.8-0.3-17.1-4.8-23.3-10.9c6,4.6,12.3,7.4,18.8,8.3c1.3,0.2,2.8,0.3,4.2,0.3c0.8,0,1.6,0,2.4-0.1c4.2-0.3,8.4-0.6,12.6-1.6
	c0.3-0.1,0.6-0.2,0.8-0.2C51.8,308.8,48.3,310.6,41.2,310.6z M49.8,13.4c0.2-0.2,0.5-0.4,0.8-0.6C59.3,6.3,63.8,5,65.9,5
	c0.7,0,1.2,0.1,1.6,0.4c0.8,0.5,0.8,1.7,0.1,2.7C57.4,24.3,53.2,37.8,52.6,56.5c-0.5,16.4,1.2,25.6,9.1,49.6
	c2.5,7.7,3.6,14.3,4.4,19.6c1.4,8.8,2.5,15.7,9.4,18.7c1.5,0.7,3,1,4.5,1c4.5,0,7.6-2.8,8.8-3.8c9.1-8,17.7-27.6,21-39
	c7-24.7,12-36.4,15-43.4l0.8-1.9c4.7-11.8,19.4-43.7,31.5-49c0.7-0.3,3.1-1.3,5.1-1.3c0.9,0,1.5,0.2,2,0.5c0.8,0.6,0.7,1.7,0.5,2.7
	c-0.4,1.7-1.5,4.3-2.8,7.2c-3.2,7.4-7.5,17.5-8.2,30c-0.5,9.7-0.4,16.1-0.2,22.4l0,0.3c0.1,4.7,0.2,9.6,0,16
	c-0.4,13.2-2.4,21.6-4.6,30.6c-1.6,6.9-3.4,14-4.5,23.8c-1.9,16.3-1.4,35,1.6,59.9c-0.7-0.3-1.3-0.6-2-0.9c-6.2-2.4-10.5-2.7-15-3
	l-0.1,0c-2.9-0.2-6-0.5-10-1.3c-8.1-1.6-13.2-3.8-17.7-5.8c-5.2-2.3-10.2-4.4-17.9-4.7c-0.6,0-1.1,0-1.7,0c-6.7,0-9.9,1.8-13.2,3.7
	c-3.2,1.8-6.8,3.8-15.3,5c-4.4,0.6-8.1,0.9-11.5,0.9c-1.4,0-2.6,0-3.8-0.1c-1,0-2-0.1-2.9-0.1c-2,0-4.6,0.1-8.5,1.3
	c-1.6,0.5-3.2,1.2-4.7,2.1c-3.8-33.4-6.3-74.2,0.2-125.2C22.9,65.2,28.6,28.8,49.8,13.4z M28.3,202.1c2.8-0.8,4.6-1,6.3-1
	c0.1,0,0.1,0,0.2,0c0.8,0,1.7,0,2.7,0.1l0.1,0c1.2,0,2.5,0.1,4,0.1c3.8,0,7.7-0.3,12.5-1c9.9-1.4,14.3-3.8,17.8-5.8
	c3-1.7,4.9-2.8,9.8-2.8c0.4,0,0.9,0,1.4,0c6.4,0.3,10.4,2,15.4,4.1c4.8,2.1,10.3,4.4,19.1,6.2c4.6,0.9,8.1,1.2,11,1.4
	c4.2,0.3,7.8,0.6,13,2.6c17.6,6.8,24.9,35,25.8,57.1c0.1,3.6,0.3,8.7-0.4,13.6c-6.4,0.2-13.1,2.1-20.5,5.8c-3,1.4-5.7,3.4-8.3,5.3
	c-0.7,0.5-1.4,1-2.1,1.5c-2.2,1.5-5,2.4-8.1,2.4c-0.5,0-0.9,0-1.3-0.1c-6.1-0.7-11.4-3.8-16.9-7.1c-4.8-2.9-9.8-5.9-15.6-7.2
	c-0.8-0.2-1.7-0.3-2.5-0.4c0.9-6.1,1.4-12.8,1.3-20.7c-0.2-9.6-1-17.5-2.6-24.7c-0.2-0.9-0.9-1.6-1.9-1.7c0,0,0,0-0.1,0
	c-1,0-1.9,0.8-2,1.9c-0.6,8-0.5,16-0.5,23.8l0,0.8l0,0.7c0.1,6.4,0.2,13.1,0.6,19.7c-2.6,0.2-4.9,0.9-6.9,2.1
	c-2.2,1.4-3.7,3.1-5.2,5c-3.3,4.3-7,8.7-12,11.8c-3.8,2.5-6.9,3.9-9.8,4.7c-5.6,1.3-10.1,1.9-14.1,1.9c-1,0-1.9,0-2.7-0.1
	c-12.4-1.4-22.2-10.2-29.7-18.7c0-0.1-0.1-0.2-0.1-0.3c-2.4-9.3-1.4-28.6,2.5-45.8C13.3,217.4,20.6,204.3,28.3,202.1z M142.8,291.9
	c1.9-1.5,3.8-3,6.3-4.4c6.2-3.4,11.7-5.5,16.9-6.3c-1.3,4.4-3.6,8.2-7.8,10.3c-3.1,1.5-5.5,1.8-9.3,2.2c-2.8,0.3-6.5,0.8-11.5,2
	C139.3,294.6,141.1,293.3,142.8,291.9z"/>
</svg>
