<?xml version="1.0" encoding="utf-8"?>
<!-- Generator: Adobe Illustrator 28.1.0, SVG Export Plug-In . SVG Version: 6.00 Build 0)  -->
<svg version="1.1" id="Layer_2_00000059989226296304023700000007271116477824675515_"
	 xmlns="http://www.w3.org/2000/svg" xmlns:xlink="http://www.w3.org/1999/xlink" x="0px" y="0px" viewBox="0 0 100.1 348.9"
	 style="enable-background:new 0 0 100.1 348.9;" xml:space="preserve">
<style type="text/css">
	.st0{fill:#B6C5DA;}
</style>
<path class="st0" d="M99.6,31.4c-2.6-5.1-4-6-9.3-9.6l-0.2-0.1c-2.3-1.5-5.4-3.6-9.8-6.8c-3.9-2.8-6.7-5.7-9.2-8.2
	C66.5,2,62.5-2,54.8-2c-0.2,0-0.4,0-0.6,0c-7.5,0.2-11.7,4.4-16.3,8.8c-2.2,2.2-4.5,4.4-7.4,6.5c-3.6,2.6-7.8,4.5-11.8,6.3
	c0,0-0.1,0-0.1,0c-6.2,2.8-12.1,5.5-15.8,10.7c-9.4,13.2-2.6,33.3,0.6,42.9l0.1,0.3c0.2,0.7,2.3,6.7,6.1,14.3
	c-3.2,24.4-4.1,44.5-3.1,65.1c1.3,26.5,5.7,54.2,11.8,92.5l1.3,8.2c1.8,11.3,3.9,30.6,3.5,58.5c-0.1,8.1-1.5,16.2-2.4,21.6l-0.2,1.2
	c0,0-0.1,0.6-0.1,0.9c-0.5,3.5-2,12.9,7.4,14.8c0.8,0.2,1.5,0.2,2.3,0.2c0.1,0,0.2,0,0.3,0c8-0.2,14.2-8.1,16.5-11.6
	c22-32.9,28.8-111.8,29.1-115.2l1-13.8c2.3-30.2,3.2-42.7,4-65.5c0.4-11,0.6-24.2,0.6-39.3c3.8-5.1,7.3-11.3,10.9-18.4
	C99.5,73,105.7,43.3,99.6,31.4z M27.2,336.9l0-0.3c0-0.2,0.1-0.5,0.1-0.7l0.2-1.2c0.9-5.6,2.3-14,2.5-22.6
	c0.4-28.4-1.7-48.2-3.6-59.7l-1.3-8c-6.1-38.1-10.5-65.6-11.7-91.9c-0.8-17.4-0.2-34.6,1.9-54.3c7.6,12.2,18.7,24.3,32.7,24.8
	c0.6,0,1.1,0,1.7,0c0.1,0,0.1,0,0.2,0c10.1,0,17.8-3.4,24.5-9.5c-0.1,11.7-0.2,22.1-0.5,31c-0.8,22.9-1.7,35.3-4,65.4l-1,13.5
	c-0.1,0.8-7.2,80.8-27.9,111.8c-2.6,3.9-7,8.5-10.9,8.5c-0.3,0-0.6,0-0.9-0.1C27.1,343.4,26.3,342.6,27.2,336.9z M49.9,116.2
	c-0.5,0-1,0-1.6,0c-13.5-0.5-24.8-16.2-31.8-29.8c0-0.1-0.1-0.2-0.2-0.3c-2.9-5.7-5.1-11-6.3-14.6L10,71.1
	c-2.9-8.5-8.9-26.3-1.5-36.6c2.6-3.6,7.6-5.9,13-8.4c4.3-2,8.8-4,13.1-7.1c3.3-2.4,5.9-4.9,8.3-7.2c4.1-4,6.8-6.7,11.5-6.8h0.4
	c0.1,0,0.1,0,0.2,0c4.7,0.1,7,2.4,11.2,6.7c2.6,2.7,5.6,5.7,10,8.9c4.4,3.2,7.5,5.2,10.2,7.1c4.9,3.2,5.2,3.4,6.9,6.9
	c4.8,9.3-1.2,37.4-7.3,49.4C73.7,108.3,64.9,116.2,49.9,116.2z"/>
</svg>
