<?xml version="1.0" encoding="utf-8"?>
<!-- Generator: Adobe Illustrator 28.1.0, SVG Export Plug-In . SVG Version: 6.00 Build 0)  -->
<svg version="1.1" id="Layer_2_00000087406727442801311470000001169759339962702991_"
	 xmlns="http://www.w3.org/2000/svg" xmlns:xlink="http://www.w3.org/1999/xlink" x="0px" y="0px" viewBox="0 0 120.8 360.7"
	 style="enable-background:new 0 0 120.8 360.7;" xml:space="preserve">
<style type="text/css">
	.st0{fill:#B6C5DA;}
</style>
<path class="st0" d="M111.5,238c1.3-26.9-2.8-53.8-7.6-81.2c-1.2-7-2.3-14.9-3.6-23.7c-1.8-12.4-3.6-25.1-5.5-32.9l-0.2-0.7
	C89.3,79,79.6,40.9,54.2,7.7C53.5,6.7,46.6-2,39.3-2c-0.7,0-1.5,0.1-2.2,0.3c-2.5,0.6-4.4,2-5.6,4c-1.6,2.7-1.8,6.2-0.6,10.9v0.1
	c10.5,34.1,8.4,63.7,4.9,88.3c-2,13.9-4.5,23.8-7.1,34.2c-2.9,11.2-6.1,23.9-9.1,43.4c-4.4,28.8-3.8,55.2-3.3,66.3
	c-1.5,2.8-2.8,5.3-3.7,7.2l-1,2.1C6.3,265-5.6,293.2-0.9,332.4c1.7,14.6,14.7,21.9,22.1,23.9c14.3,4,34,6.3,52.6,6.3
	c12.3,0,23.3-1,32.8-3c4.9-1,14.4-5.1,15.5-13.5C123.7,334.4,123.3,274.2,111.5,238z M37.6,11.3c-0.9-3.7-0.3-5.1-0.1-5.4
	s0.5-0.6,1.3-0.8C39,5,39.2,5,39.3,5c2.5,0,6.8,3.6,9.3,6.9c24.5,32.1,34,69.3,39.1,89.3l0.2,0.7c1.9,7.4,3.7,20,5.4,32.2
	c1.2,8.2,2.4,16.6,3.6,23.9c3.8,21.8,7.2,43.2,7.7,64.4c-0.7-1.1-1.3-2.1-2.1-3.1c-6.9-9.5-14.5-18.1-30.2-19.4
	c-0.9-0.1-1.9-0.1-2.8-0.1c-20.5,0-36.4,18.5-46.6,34.4c-0.1-13.2,0.4-33,3.6-53.9c2.9-19.1,6-31,8.9-42.6v-0.2
	c2.7-10.7,5.3-20.7,7.3-35C46.3,77.2,48.4,46.6,37.6,11.3z M17.9,257.8c0.3-0.6,0.7-1.3,1.1-2.1c6.1-12.1,24.8-49,50.7-49
	c0.8,0,1.5,0,2.2,0.1c11.7,1,17.7,6.3,25.1,16.5c19,26.1,20,108.7,18.2,122c-0.5,3.7-6.1,6.7-10,7.5c-9.1,1.9-19.6,2.8-31.4,2.8
	c-17.7,0-37.2-2.3-50.7-6.1c-0.6-0.2-15.4-4.5-17-18C1.6,294.2,12.9,267.5,17.9,257.8z"/>
</svg>
