<?xml version="1.0" encoding="utf-8"?>
<!-- Generator: Adobe Illustrator 28.1.0, SVG Export Plug-In . SVG Version: 6.00 Build 0)  -->
<svg version="1.1" id="Layer_2_00000008120570228434258230000012506984743969997492_"
	 xmlns="http://www.w3.org/2000/svg" xmlns:xlink="http://www.w3.org/1999/xlink" x="0px" y="0px" viewBox="0 0 115.3 385.5"
	 style="enable-background:new 0 0 115.3 385.5;" xml:space="preserve">
<style type="text/css">
	.st0{fill:#B6C5DA;}
</style>
<path class="st0" d="M113.4,26.3C104.9,9.4,87.9-2,71-2c-1.1,0-2.3,0.1-3.4,0.2c-6.1,0.5-10.6,3-14.9,5.3C48.5,5.7,44.3,8,38.1,9.3
	C18.5,13.2,6.6,19.6,2.9,28.3c-8.3,19.6-4.1,36-1.8,44.8l0.2,0.8c2.4,9.3,5.1,15.4,8,21.8c2.6,5.9,5.4,12,7.9,21.1
	c1.2,4.5,2.3,8.3,3.2,11.6c-3.1,34-1.6,64.4-0.4,86.7l0,0.4c0.2,3.3,0.3,6.4,0.5,9.3c1.6,34.4,3.8,51.3,5.6,64.8
	c1.7,13,3,22.4,2.5,40.9c0,1.1-0.1,2.2-0.1,3.3l-0.1,2c-0.5,16.6-1,35.4,5.9,46.6c1.8,3,5.6,5,9.3,5c0.1,0,0.3,0,0.4,0
	c0.4,0,0.7,0,1-0.1c10.3-0.4,18.6-23.7,23.7-43.2c5.1-19.4,7.5-31.1,9.4-53.9c1.9-23.6,5.5-36.7,9.3-50.6
	c3.3-12.1,6.8-24.6,9.4-44.9c2.2-17,2.7-25.9,1.6-54.9c2.3-5.7,4.3-13.5,7.4-25.6c5.8-22.7,8.8-34.1,10-47
	C117.7,47,118.6,36.8,113.4,26.3z M89.9,193.8c-2.6,19.7-5.9,32-9.2,43.8l-0.1,0.2c-3.9,14.2-7.6,27.6-9.5,51.8
	c-1.8,22.2-4.2,33.7-9.2,52.7c-7.6,28.7-14.9,38-17.3,38h-0.1c-0.1,0-0.3,0-0.4,0l-0.1,0c-0.1,0-0.3,0-0.5,0c-1.2,0-2.7-0.7-3.3-1.7
	c-5.9-9.3-5.3-27-4.9-42.6c0.1-1.8,0.1-3.6,0.2-5.4c0.5-19-0.8-28.7-2.6-42c-1.8-13.4-4-30.2-5.6-64.2c-0.1-2.8-0.3-5.8-0.5-9.1
	l0-0.6c-0.9-17.9-2.2-41-0.9-67c0.4,1.1,0.9,2.1,1.3,3.1c7.1,14.5,19,23.1,32,23.1c0,0,0,0,0,0c0,0,0,0,0,0c0.9,0,1.7,0,2.6-0.1
	c14.4-1.2,24.2-12.8,29.9-21.8C92.4,171.4,91.8,179.8,89.9,193.8z M99.1,112.5c-3.4,13.3-5.3,20.6-7.4,25.6c0,0.1-0.1,0.1-0.1,0.2
	c-0.4,0.9-0.8,1.8-1.2,2.6c-6.2,11.5-15.1,24.9-29,26.1c-0.7,0.1-1.4,0.1-2.1,0.1c-15.1,0-23.4-14.7-25.6-19.2
	c-1.7-3.5-3-8.3-5.8-18.6l0-0.1c-0.1-0.4-0.2-0.9-0.4-1.3c0-0.1,0-0.1,0-0.2c0.1-0.6-0.1-1.1-0.5-1.5c-0.9-3.2-1.9-6.9-3.1-11.2
	c-2.7-9.6-5.5-15.9-8.3-22.1c-2.7-6.1-5.3-11.9-7.6-20.6l-0.2-0.8C5.8,63.4,2,48.5,9.4,31c2.7-6.4,13.1-11.6,30.1-14.9
	C46.6,14.7,51.6,12,56,9.7c4.1-2.2,7.6-4.1,12.3-4.5C69,5,69.9,5,70.8,5c0.1,0,0.1,0,0.2,0c14.3,0,28.9,9.8,36.1,24.5
	c4.3,8.7,3.5,18.2,1.7,37.1c-1.1,12.2-4,23.4-9.7,45.7L99.1,112.5z"/>
</svg>
