<?xml version="1.0" encoding="utf-8"?>
<!-- Generator: Adobe Illustrator 28.1.0, SVG Export Plug-In . SVG Version: 6.00 Build 0)  -->
<svg version="1.1" id="Layer_2_00000081611948137090746030000015351959043440892817_"
	 xmlns="http://www.w3.org/2000/svg" xmlns:xlink="http://www.w3.org/1999/xlink" x="0px" y="0px" viewBox="0 0 102.8 309"
	 style="enable-background:new 0 0 102.8 309;" xml:space="preserve">
<style type="text/css">
	.st0{fill:#B6C5DA;}
</style>
<path class="st0" d="M100.4,25.3c-3.3-4.1-5.8-5.1-9.3-6.5c-2.7-1.1-6.4-2.5-12.6-6.3c-4-2.5-6.8-4.7-9.3-6.7C64.1,1.6,60-1.6,52-2
	c-0.6,0-1.1,0-1.7,0C43-2,39.4,0.4,34.8,3.5l-0.2,0.1c-2.6,1.8-5.5,3.7-10,5.8c-2.2,1-4.3,1.9-6.4,2.8c-6.4,2.7-12,5.1-15.1,9.2
	C-10.5,40,6.9,77.1,10.9,83.6c1.5,2.4,2.8,4.9,4.2,7.4c0.4,0.7,0.8,1.4,1.1,2.1c-2.4,35.3-0.2,73.9,2.2,87.2
	c0.3,1.8,6.3,43.5,24.2,94.6c4.1,11.8,9.5,23.9,17.8,24.1c0.1,0,0.2,0,0.2,0h0.1c0.2,0,0.3,0,0.5,0c1.9,3.9,3.5,6,7.1,8.6
	c2.9,2.1,5.8,3.2,8.6,3.2c0.1,0,0.1,0,0.2,0c1.6,0,3.1-0.4,4.6-1.1c4.7-2.4,4.7-9.3,4-12.7c-1.6-7.7-2.5-14.7-2.8-20.9
	c-0.9-17.6-0.2-28.1,0.3-36.7l0.1-0.9c0.1-2.1,0.3-4.2,0.3-6.1c0.6-15.4,0.1-26.5-0.5-41.6c0.9-5.7,1.7-11.2,2.5-17.6
	c1.2-10.5,1.9-23.3,2.2-37.8c0-1.1,0-2.1,0.1-3.1v-1.7c0.3-12.6,0.4-19-1.3-41.6c0.6-0.9,1.2-1.7,1.8-2.6
	C98.9,72.4,111.7,39.6,100.4,25.3z M71,291.1v-0.2c0-0.2,0-0.3,0-0.5v-0.2c-1-8.5-1.3-17.2-0.9-25.9c0.5-10.9,1.9-17.4,4.4-29.3
	c0.7-3.4,1.5-6.9,2.3-10.8c0,2.6-0.1,5.4-0.2,8.3c-0.1,2.2-0.2,4.6-0.4,6.8c-0.5,8.2-1.3,19.4-0.3,37.5c0.3,6.6,1.3,14,3,21.9
	c0.4,1.8,0.1,4.4-0.4,5c-0.4,0.2-0.9,0.3-1.4,0.3c-1.3,0-2.9-0.7-4.7-1.9c-2.2-1.6-3.2-2.7-4.5-5.1C69.6,295.7,70.6,293.7,71,291.1z
	 M80.9,130.7v1.8c0,1,0,2-0.1,3.1c-0.3,14.3-1,26.8-2.2,37.2c-0.7,6.2-1.5,11.6-2.4,17.2c-0.1,0.2-0.1,0.5-0.1,0.7
	c-0.9,5.2-1.9,10.7-3.1,17.1c-2.1,11.1-3.8,19.2-5.2,25.7v0.1c-2.6,12.3-4,19-4.6,30.3c-0.4,8.9-0.1,17.8,0.9,26.5
	c-0.2,1.2-0.6,1.7-3.5,1.7c-1.1,0-5.2-1.4-11.5-19.4c-17.5-50-23.6-91.6-23.9-93.4c-2.2-12.1-4-45-2.6-75.9
	c5.2,6.6,12.5,11.6,25.2,11.7c0.1,0,0.1,0,0.2,0h0.6c15.5-0.2,24.7-8.3,31.6-16.9C81.2,113.9,81.1,120,80.9,130.7z M80.4,86
	l-0.2,0.3c-7.8,11.1-15.1,21.5-31.6,21.7H48c-15.8,0-20.7-9-26.8-20.3l-0.5-0.9c-1.2-2.2-2.5-4.5-3.9-6.8
	c-4.4-7.3-18.2-40.6-8.1-54.3c1.9-2.6,6.9-4.7,12.2-6.9c2.1-0.9,4.4-1.9,6.7-3c5-2.4,8.4-4.6,11.1-6.4C42.9,6.5,45.2,5,50.3,5
	c0.1,0,0.1,0,0.2,0c0.4,0,0.8,0,1.2,0c5.7,0.3,8.5,2.5,13.1,6.2l0.1,0.1c2.7,2.1,5.7,4.5,9.9,7.1c6.8,4.1,10.8,5.7,13.8,6.9
	c3.1,1.2,4.2,1.7,6.3,4.3c8,10.1-1.7,38.7-12.1,53C82,83.7,81.2,84.8,80.4,86z"/>
</svg>
