<?xml version="1.0" encoding="utf-8"?>
<!-- Generator: Adobe Illustrator 28.1.0, SVG Export Plug-In . SVG Version: 6.00 Build 0)  -->
<svg version="1.1" id="Layer_2_00000086684213525359108180000009384801227997336735_"
	 xmlns="http://www.w3.org/2000/svg" xmlns:xlink="http://www.w3.org/1999/xlink" x="0px" y="0px" viewBox="0 0 129.5 351"
	 style="enable-background:new 0 0 129.5 351;" xml:space="preserve">
<style type="text/css">
	.st0{fill:#B6C5DA;}
</style>
<g>
	<path class="st0" d="M131.4,40.8c0-0.7-0.1-1.5-0.1-2.2c-0.4-8.6-0.8-19.2-11.8-28.9c-6.4-5.6-13.4-5.6-25-5.7
		c-4.5,0-10.6,0-18-0.5c-17.7-1-30.4-2.7-39.6-3.9h-0.2C29.7-1.3,24.6-2,20.3-2C14.1-2,10-0.5,6.3,3.3C0.2,9.4-0.6,14.9-1.4,30.2
		C-2.7,53.5-2.6,78.9,7,107.1c0.6,1.9,1.3,3.8,1.9,5.9c0.6,1.8,1.2,3.7,1.8,5.7C9.9,171,19,222,24.5,243.9
		c0.7,3.1,18.6,77.4,45.5,103.9c2.1,2.1,7.5,5.2,12.3,5.3c0.1,0,0.1,0,0.2,0c2,0,3.7-0.5,5.1-1.5c3.1-2.1,4.4-6.4,3.8-12.4v-0.3
		c-4.4-23.7-6.3-47.8-5.6-71.8c0.5-19.6,1.3-33.6,9.1-73.1c1.8-9.2,3.8-16.2,5.7-22.9l-1.9-0.5l2,0.4c4.1-14.3,7.9-27.8,9-59.8
		c3.2-4.8,6.5-10.4,9.5-16.5C128.1,76.3,132.2,58.2,131.4,40.8z M78.8,266.8c-0.7,24.5,1.2,49.1,5.7,73.1c0.4,3.6-0.3,5.4-0.8,5.7
		c-0.2,0.2-0.6,0.2-1.1,0.2c-2.3,0-6.1-1.8-7.6-3.3c-25.6-25.3-43.4-99.8-43.6-100.6c-4.9-19.3-12.5-61.4-13.6-106.8
		c5.8,10.3,14.8,18.8,30.8,20.8c1.3,0.2,2.7,0.2,3.9,0.2c0.1,0,0.1,0,0.2,0c17.5-0.1,31.2-15,44.5-29.4l1.9-2.1c0.9-1,1.9-2.1,3-3.4
		c-1.4,23.9-4.6,35.2-8.2,47.9c-2,6.8-4,13.9-5.9,23.5C80.5,230.4,79.4,244.9,78.8,266.8z M92,122.2c-12.3,13.4-25,27.2-39.6,27.2
		c-1,0-2-0.1-3-0.2c-22.6-2.9-28.4-20.9-33.9-38.4c-0.7-2.1-1.3-4.1-2-6c-9.1-27.1-9.2-51.7-8-74.2c0.9-16.1,1.8-18.5,5.7-22.4
		C13.6,5.9,16.1,5,20.4,5c3.7,0,8.6,0.6,15.3,1.5h0.1c9.3,1.2,22.1,2.9,40.3,4C83.4,11,89.4,11,94.2,11h0.2c11,0,16,0,20.4,3.9
		c8.8,7.7,9.1,15.6,9.4,23.9c0,0.8,0.1,1.5,0.1,2.3c2.2,42.9-30,78.7-30.4,79L92,122.2z"/>
	<path class="st0" d="M115.9,42.3c-0.1,0-0.3,0-0.4,0c-0.9,0-1.7,0.6-1.9,1.5c-4.1,17.7-10.9,32.4-20.1,43.7
		c-2.7,3.3-5.5,6.1-8.2,8.5c-2.4,2.1-5.7,4.6-9.1,5.3c-0.4,0.1-0.7,0.1-1.1,0.1c-3,0-5.7-2-8.6-4.1c-1.4-1.1-2.9-2.2-4.5-3.1
		c-3.1-1.7-5.9-2.5-8.7-2.5c-4,0-7.8,1.7-12.2,5.4c-1.5,1.3-2.7,1.9-3.6,1.9c-0.3,0-1.1,0-2.3-1.6c-6-7.9-7.8-23.5-9-33.9
		c-1.3-12.6-1.5-25.3-1.6-37c0-1.1-0.9-2-1.9-2c0,0,0,0-0.1,0c-1.1,0-1.9,0.8-2,1.9c-1.8,24.6-2.3,67.3,12,78.2l0.1,0.1
		c1.4,0.9,3,1.4,4.6,1.4c3.4,0,6.4-2.2,9-4.1c1.2-0.9,2.4-1.8,3.5-2.3c1.1-0.6,2.2-0.8,3.4-0.8c3.1,0,6.1,2.1,9.2,4.3
		c2.7,1.9,5.6,3.9,8.7,4.7c1.1,0.3,2.3,0.5,3.6,0.5c6.9,0,14.7-5.5,23.7-16.9c9.7-12.6,16.2-28.4,19.1-46.9
		C117.7,43.5,117,42.5,115.9,42.3z"/>
</g>
</svg>
