<?xml version="1.0" encoding="utf-8"?>
<!-- Generator: Adobe Illustrator 28.1.0, SVG Export Plug-In . SVG Version: 6.00 Build 0)  -->
<svg version="1.1" id="Layer_2_00000134954440833692801870000013228501288772032441_"
	 xmlns="http://www.w3.org/2000/svg" xmlns:xlink="http://www.w3.org/1999/xlink" x="0px" y="0px" viewBox="0 0 100.3 338.4"
	 style="enable-background:new 0 0 100.3 338.4;" xml:space="preserve">
<style type="text/css">
	.st0{fill:#B6C5DA;}
</style>
<g>
	<path class="st0" d="M101.5,283.9c-3.1-36-7.9-50.6-10.7-59.3c-0.3-0.9-0.6-1.7-0.8-2.5l0-0.1c-0.8-2.6-1.9-5.9-3.4-9.5
		c0.5-6.6,0.4-15.1,0.2-21.5c0-1.5,0-3-0.1-4.3l0-0.3c-0.1-10.8-1.3-23-4.3-52.4l-0.1-0.7c-1-10.5-2.3-23.5-3.9-39.5
		c-0.1-1.3-0.2-2.7-0.4-4.2C76,67.6,72.6,31,57.9,9.9C52.2,1.8,47.4-2,42.8-2c-0.4,0-0.7,0-1.1,0.1c-9.1,1.2-8.8,8.6-8.5,14.2
		c1.1,13.7,3.5,42.1-0.5,71.4c-2.2,16.2-5.2,26.4-8.2,36.2l0,0.1c-2.5,8.3-5,16.9-7.2,29.1c-3.5,19.8-5.7,37.8,0,71.5
		c-1.4,3.2-2.8,6.5-4.1,9.8C1.6,259-8.7,292,3.4,319.9c4.1,9.3,15.4,17.8,25.3,19l0.8,0.1c7.9,1,15.5,1.5,22.6,1.5c0,0,0,0,0,0
		c13.8,0,25.6-1.8,35.1-5.4C94.4,332.3,105.3,328.2,101.5,283.9z M52.1,333.4c-6.8,0-14.1-0.5-21.8-1.4l-0.8-0.1
		c-7.5-0.9-16.7-7.8-19.7-14.9c-11.1-25.5-1.2-56.8,9.9-84.1c1.4-3.3,2.8-6.8,4.4-10.4c0,0,0,0,0.1-0.1c0.2-0.2,0.3-0.5,0.3-0.8
		c7.9-17.6,18.3-35.7,29.5-36.1h0.5c0.1,0,0.2,0,0.3,0c9.9,0.2,18.7,13.2,24.7,27.9c0,0.5,0.2,1,0.5,1.3c1.2,3,2.3,6.1,3.3,9.2
		l0,0.1c0.3,0.8,0.5,1.7,0.9,2.6l0,0.1c2.9,9,7.3,22.5,10.4,57.6c3.4,39-4.5,42-9.8,43.9C78.8,330.7,68.2,333.4,52.1,333.4z
		 M40.2,11.8c-0.2-6.4,0.3-6.5,2.5-6.8c0,0,0.1,0,0.1,0c0.5,0,3.5,0.4,9.4,8.9c13.6,19.5,17.1,56.4,18.9,76.3l0.1,1
		c0.1,1.1,0.2,2.2,0.3,3.2c1.6,16.3,2.9,29.6,4,40.2l0.1,0.7c2.9,29.6,4,40.7,4.2,51c0,1.3,0,2.7,0.1,4.1l0,0.9
		c0,2.2,0.1,4.6,0.1,7.1c-6.1-10.5-14.5-19.8-25.4-19.8c-0.2,0-0.5,0-0.7,0c-12.4,0.4-22.6,13.8-31.1,30.6
		c-3.5-26.3-1.5-41.9,1.5-58.9c2-11.7,4.5-20.1,6.9-28.2l0.1-0.2c3-10.1,6.1-20.5,8.4-37.3C43.7,54.5,41.3,25.6,40.2,11.8z"/>
	<path class="st0" d="M90.7,294.2c-4.5-18.2-9.4-37.6-16.8-56.1l0-0.1c-1.6-3.6-3.2-7.4-5.7-10.8c-1.3-1.9-3.6-3.9-6.1-3.9
		c-0.9,0-1.7,0.2-2.5,0.7c-2.1,1.1-3.3,3.8-4.4,6.4c-0.7,1.7-2,4.5-2.9,4.5c-0.1,0-0.4,0-0.9-0.3c-1-0.6-2.1-2.2-3.3-3.7
		c-2.2-2.9-4.6-6.3-8.2-6.3c-1.5,0-2.9,0.6-4.3,1.7c-0.1,0-0.1,0.1-0.2,0.1c-6.5,6.8-11.4,32.1-14.8,77.2c0,0.1,0,0.2,0,0.2v0
		c0,1.1,0.9,1.9,1.9,2c0,0,0,0,0.1,0c1,0,1.8-0.8,2-1.7c0.5-3.5,1.1-7,1.6-10.5c2.3-15.3,4.7-31.2,8.2-46.4l0.5-1.8
		c1.2-4.7,2.4-9.5,4.9-13.4c0-0.1,0.1-0.1,0.1-0.2c0.9,0.9,1.7,2,2.6,3.2c1.4,1.9,2.8,3.9,5,5.3c1.3,1,2.9,1.5,4.7,1.5
		c1.9,0,3.7-0.7,5-1.9c2.2-2,3.3-4.5,4.3-6.8c0.3-0.6,0.5-1.2,0.8-1.8c0.1-0.1,0.2-0.3,0.2-0.4c0.1,0.1,0.1,0.2,0.2,0.2
		c2.1,2.8,3.7,6.4,5.1,9.5c5.9,13.9,10.6,28.6,15.2,42.8c1.3,4,2.6,7.9,3.9,11.9c0.3,0.8,1.1,1.4,1.9,1.4c0.2,0,0.4,0,0.6-0.1
		C90.3,296.3,90.9,295.3,90.7,294.2z"/>
</g>
</svg>
