<?xml version="1.0" encoding="utf-8"?>
<!-- Generator: Adobe Illustrator 28.1.0, SVG Export Plug-In . SVG Version: 6.00 Build 0)  -->
<svg version="1.1" id="Layer_2_00000084522269306533541070000017156478857334399924_"
	 xmlns="http://www.w3.org/2000/svg" xmlns:xlink="http://www.w3.org/1999/xlink" x="0px" y="0px" viewBox="0 0 97.4 340"
	 style="enable-background:new 0 0 97.4 340;" xml:space="preserve">
<style type="text/css">
	.st0{fill:#B6C5DA;}
</style>
<path class="st0" d="M89.7,262.9l-0.4-0.7c-0.1-0.2-0.2-0.4-0.3-0.6c4.1-18.8,6.1-37.3,4.6-74c-0.9-26.3-5-43.3-8.6-58.4l0-0.2
	c-2.3-9.6-4.5-18.7-5.5-29.1c-2.9-29.5-0.3-54.9,2.4-81.8l0-0.3C82.2,14,83.2,3.7,77-0.1C74.8-1.4,72.6-2,70.4-2
	c-3.9,0-7.6,1.9-11,5.7c0,0-0.2,0.2-0.2,0.2c0,0-0.1,0.1-0.1,0.1c-5.4,7.8-10.9,19-17.5,35.4c-14.1,35-15,63.4-15.8,86.2
	c-0.5,15.1-2,28.9-3.6,43.6c-2.6,23.6-5.3,48.1-3.4,78.3c-3.2,4.4-6.3,9.5-9.4,15.3l-0.4,0.7c-1.6,3-15.9,30.4-9.1,53.2
	c2.4,8.1,9.5,9.5,14.7,10.6c2.6,0.5,5.1,1,6.4,2.2c7,6.1,18.5,12.5,26,12.5c0.1,0,0.1,0,0.2,0c0.3,0,0.5,0,0.8,0
	c8.8-0.7,16.4-4.2,23.2-10.5c1.9-1.8,4-2,6.9-2.4c1.7-0.2,3.6-0.5,5.5-1.1c10.4-3.3,14.4-13.3,15.1-18.7
	C101.8,286.8,93.3,270.1,89.7,262.9z M46.8,335L46.8,335c-4.9,0-14.5-4.9-21.4-10.8c-2.6-2.3-6.1-3-9.5-3.7c-5.1-1-8.2-1.9-9.4-5.7
	c-1.2-3.9-1.6-8-1.5-12.1c3.6,3.5,7.1,6.3,10.6,8.3c3.7,2.2,7.5,3.4,11.1,3.4c4.3,0,8.1-1.7,11.1-4.8c0.5-0.5,0.9-0.9,1.3-1.4
	c1.7-1.7,2.9-3,4.8-3.3c0.5-0.1,1-0.1,1.5-0.1c2.6,0,4.7,1.2,7.2,2.5c2.8,1.5,5.9,3.2,10,3.2c1.1,0,2.2-0.1,3.3-0.3
	c3.6-0.6,6.4-2.8,8.9-4.7c1.2-0.9,2.3-1.8,3.4-2.4c2.8-1.6,6-2.5,9.3-2.5c1.6,0,3.2,0.2,4.7,0.6c-0.1,2.3-0.2,4.6-0.6,7.1
	c-0.5,3.8-3.3,10.7-10.3,13c-1.4,0.4-2.9,0.6-4.4,0.8c-3.4,0.5-7.2,1-10.7,4.2c-5.6,5.2-11.9,8.1-19,8.7C47.1,335,47,335,46.8,335z
	 M29.1,170l0-0.3c1.6-14.7,3.1-28.5,3.6-43.8C33.5,103.6,34.4,76,48,42.1c6.3-15.7,11.6-26.4,16.7-33.8c2-2.2,3.9-3.3,5.7-3.3
	c1,0,1.9,0.3,2.9,0.9c0.9,0.6,2.4,2.8,1.5,11.2l0,0.2c-2.7,27.3-5.3,53.1-2.4,83.2c1.1,10.9,3.3,20.2,5.7,30.1
	c3.5,14.7,7.5,31.4,8.4,57.1c1.3,31.5,0.1,48.7-2.9,65c-7.2-10.5-19.2-24.1-32.1-25.8c-0.9-0.1-1.9-0.2-2.8-0.2
	c-7.8,0-15.6,4.2-23.3,12.5C24.3,213.1,26.7,191.2,29.1,170z M15.1,266.8l0.4-0.8c14.4-26.7,26-32.3,33.3-32.3h0
	c0.6,0,1.2,0,1.8,0.1c11.6,1.5,26.3,19.2,32.4,31.4l0.4,0.8c2.6,5.2,8.1,16,8.8,30.4c-2.1-0.6-4.3-1-6.6-1c-3.6,0-7.1,0.8-10.2,2.3
	c-1.7,0.8-3.2,1.9-4.6,2.8c-0.5,0.3-0.9,0.6-1.4,0.9c-2,1.4-4.2,2.1-6.4,2.1c-1.1,0-2.2-0.2-3.2-0.6c-1.3-0.4-2.7-1.2-4.1-2.1
	c-0.4-0.2-0.8-0.5-1.2-0.7c-2.8-1.7-6.1-2.7-9.1-2.7c-0.1,0-0.1,0-0.2,0c0-2.6-0.3-5-0.7-7.1c-0.6-3.1-1.5-7.2-3.5-11.1
	c-0.4-0.7-1-1.1-1.8-1.1c-0.1,0-0.2,0-0.3,0c-0.8,0.1-1.5,0.8-1.6,1.7c-0.6,4.2-0.2,8.2,0.4,11.6c0.4,2.2,0.9,4.6,1.8,7.1
	c-2.2,1.1-3.9,2.9-5.4,4.5c-1.7,1.7-3.3,3.4-5.2,4c-0.9,0.3-1.9,0.4-2.9,0.4c-4.5,0-9.1-2.7-13-5.3c-2.7-1.8-5.3-3.9-7.7-5.9
	C7.3,281.4,14.7,267.6,15.1,266.8z"/>
</svg>
