<?xml version="1.0" encoding="utf-8"?>
<!-- Generator: Adobe Illustrator 28.1.0, SVG Export Plug-In . SVG Version: 6.00 Build 0)  -->
<svg version="1.1" id="Layer_2_00000179624144479972521960000004434125225292123295_"
	 xmlns="http://www.w3.org/2000/svg" xmlns:xlink="http://www.w3.org/1999/xlink" x="0px" y="0px" viewBox="0 0 161.2 326.2"
	 style="enable-background:new 0 0 161.2 326.2;" xml:space="preserve">
<style type="text/css">
	.st0{fill:#B6C5DA;}
</style>
<path class="st0" d="M161.8,261.5c-1.7-15-4.6-31.8-11.5-42c-0.4-10-0.8-24.6-0.5-40.3c0.3-16.2,1-24.6,1.5-31.5
	c0.5-5.8,0.9-10.9,0.9-18.8v-0.3c0-24.8,0.1-52.9-19.1-80.7c-0.2-0.3-21.6-31.5-33.8-31.5c-0.5,0-1.1,0.1-1.6,0.2
	C94.7,11.9,90,5.1,86,1.3C83.7-0.9,81.1-2,78.6-2c-1.9,0-3.7,0.7-5.2,1.9c-4.7,3.9-5,8-5.1,17.5c-0.1,5.8,0,12.6,0.1,19.8v1.6
	c0.2,11.2,0.3,22.8-0.1,31.9c-0.4,8.1-1.3,18.1-4.6,32c-1.7-3.4-3.3-6.3-4.9-9.2c-3.1-5.7-6-11.1-9.6-20c-1.2-3-2.5-6.7-4.1-10.9
	l-0.4-1.1c-2.4-6.6-5.7-15.6-10-26.6C31.5,26.8,28.2,23,24.4,23c-6.5,0.1-9.9,8.2-10.8,15.2C12.6,48,12,58.3,16.9,79
	c7.8,33.2,10.3,44.9,10.6,70.3c0.3,21.3-2.8,42.4-9,62.8c-5.4,3.6-8.4,7.7-11.1,11.9c-5.4,8.3-11.3,24.7-8.7,56.2
	c1.1,13,10.5,30,34,38.5c3.5,1.3,7.5,1.9,12,1.9c6.9,0,12.7-1.5,14.1-2c7-2.5,11.7-7.2,15.2-10.6c1.2-1.2,3.1-3,3.9-3.4
	c1.3,0.6,5,4,7,5.9c3.4,3.2,7.3,6.7,11.6,9.7c9.2,6.4,15.6,7.6,21.1,8c1.3,0.1,2.6,0.1,3.9,0.1c0.1,0,0.2,0,0.3,0
	c19.2,0,27.8-9.8,34.3-20.4C164,295.2,164.5,284.7,161.8,261.5z M82.1,279.2c4.5-0.8,8.4-3.1,10.9-6.5c0.5-0.7,0.5-1.7-0.1-2.4
	c-0.4-0.5-1-0.7-1.6-0.7c-0.3,0-0.5,0.1-0.8,0.2l-0.7,0.3c-0.8,0.4-1.6,0.7-2.4,1c-2.8,1-5.7,1.5-8.4,1.5c-3.2,0-7.8-0.7-11.4-4.2
	c-0.4-0.4-0.9-0.6-1.4-0.6c-0.3,0-0.5,0.1-0.8,0.2c-0.7,0.3-1.2,1-1.2,1.8c0,0.2,0,0.4,0.1,0.5c1.4,4.8,5.9,7.5,9.6,8.5
	c0.8,0.2,1.6,0.4,2.5,0.5c-0.3,2.7-0.5,5.5-0.6,8.1l-0.1,0.9v0.7c-0.1,2.9-0.2,5.9-0.2,9c-2.2,0.9-4.2,2.9-6.5,5.1
	c-3.2,3.1-7.1,7-12.5,8.9c-1.8,0.6-6.5,1.6-11.7,1.6c-3.7,0-7-0.5-9.7-1.5c-20.4-7.4-28.6-21.7-29.4-32.5
	c-2.4-29.6,2.8-44.5,7.6-51.9c3.2-4.9,6.7-9.5,15.2-13.1c5.5-2.3,12.3-3.1,16.9-3.1c0.9,0,1.7,0,2.2,0.1c5.5,0.6,9.1,2,12.1,3.1
	c2.7,1,5.2,2,8,2c1.7,0,3.4-0.3,5.1-1c2.3-0.9,4.1-2,5.6-2.9c2.1-1.3,3.6-2.2,5.5-2.2h0.2c1.2,0,2.9,1.2,4.5,2.2l0.2,0.1
	c0.7,0.5,1.5,1,2.2,1.4c8.2,4.7,12.5,6.2,21.2,7.5c1.8,0.3,3.6,0.4,5.3,0.4c6.2,0,10.2-1.8,13.5-3.2c2-0.9,3.6-1.5,5.1-1.5
	c0.6,0,1.3,0.1,2,0.4c12.1,4.3,15.6,34.4,16.7,44.3c2.5,21.5,2.2,31-4.6,42c-6.5,10.5-13.5,17-28.4,17c-1.2,0-2.5,0-3.7-0.1
	c-4.5-0.3-9.8-1.3-17.6-6.7c-3.9-2.7-7.5-6-10.7-9l-0.2-0.1c-3.6-3.3-6.2-5.7-8.5-6.9C82.9,292.3,83.3,285.4,82.1,279.2z M75.5,37.9
	c-0.1-7.1-0.2-14.3-0.2-20.4c0.1-9.8,0.6-10.6,2.5-12.2C78.2,5,78.5,5,78.6,5c0.7,0,1.6,0.5,2.5,1.4c3.7,3.5,8.5,10.6,11.4,15
	c-1.2,2.9-1,6.1-0.9,7c0.5,6.3,4.5,13.7,8.1,20.2l0.2,0.4c0.7,1.4,1.4,2.7,2.1,3.9c8,15.6,5.7,37.2,4.6,47.6v0.4
	c-3.1,29.6-14,56.5-21.8,62c-0.5,0.4-0.9,0.5-1,0.6c-0.9-1.1-1.9-6-2.7-10c-1.5-7.4-3.5-17.6-8.3-30.1c-1.5-4-3-7.5-4.3-10.5
	c5.2-19.1,6.4-31.9,6.9-41.8C75.8,61.5,75.7,49.5,75.5,37.9z M82,170.3c0.5,0.1,1,0.2,1.5,0.2c1.7,0,3.5-0.6,5.2-1.9
	c9.4-6.7,21.2-33.5,24.7-67v-0.4c1.2-11.1,3.6-34.1-5.3-51.5c-0.7-1.4-1.5-2.9-2.3-4.4c-3.2-5.9-6.8-12.7-7.2-17.5
	c-0.2-1.8,0.3-4.1,0.8-4.4c0,0,0,0,0.1,0c3.4,0,15.2,10.1,27.9,28.5c17.9,26,17.9,53,17.8,76.8v0.2c0,7.6-0.4,12.6-0.9,18.2v0.2
	c-0.6,6.9-1.3,15.5-1.6,31.8c-0.2,12.3,0,24.1,0.2,33.5c-0.8-0.5-1.7-0.9-2.6-1.2c-1.5-0.5-2.9-0.8-4.3-0.8c-3,0-5.5,1.1-7.9,2.1
	c-3,1.3-6,2.6-10.7,2.6c-1.3,0-2.8-0.1-4.3-0.3c-7.8-1.1-11.3-2.4-18.7-6.6c-0.6-0.3-1.2-0.7-1.9-1.3c-2.2-1.5-4.9-3.3-8.2-3.4
	c-0.1,0-0.3,0-0.4,0c-3.8,0-6.6,1.6-9.2,3.2l-0.1,0.1c-1.4,0.8-2.8,1.7-4.4,2.3c-0.9,0.4-1.8,0.5-2.6,0.5c-1.6,0-3.2-0.6-5.5-1.5
	c-3.3-1.2-7.4-2.8-13.7-3.5c-0.7-0.1-1.8-0.1-3-0.1c-3.1,0-10.9,0.3-18.4,3.1c5.3-19.1,7.8-38.8,7.5-58.6c-0.3-26-2.9-38-10.8-71.8
	c-4.6-19.6-4-29.2-3-38.2c0.7-5.3,2.6-8.4,3.6-9c0.7,0.7,2.2,2.8,4.1,7.4c4.4,11,7.6,19.9,9.9,26.4l0.3,0.8c1.6,4.4,3,8.2,4.3,11.4
	c3.7,9.2,6.7,14.8,9.9,20.7c3.8,7,7.8,14.3,13.4,29c4.6,12,6.5,21.8,8,29C75.9,163.5,77,169.2,82,170.3z"/>
</svg>
