<?xml version="1.0" encoding="utf-8"?>
<!-- Generator: Adobe Illustrator 28.1.0, SVG Export Plug-In . SVG Version: 6.00 Build 0)  -->
<svg version="1.1" id="Layer_2_00000088821840338235945260000011441546259625835423_"
	 xmlns="http://www.w3.org/2000/svg" xmlns:xlink="http://www.w3.org/1999/xlink" x="0px" y="0px" viewBox="0 0 102.8 309"
	 style="enable-background:new 0 0 102.8 309;" xml:space="preserve">
<style type="text/css">
	.st0{fill:#B6C5DA;}
</style>
<path class="st0" d="M99.7,21.5c-3-4.1-8.6-6.5-15-9.2h-0.1c-2.1-0.9-4.3-1.8-6.4-2.8c-4.5-2.2-7.5-4.2-10.2-6
	C63.4,0.4,59.8-2,52.4-2c-0.5,0-1.1,0-1.7,0c-8,0.4-12,3.6-17.2,7.7c-2.5,2-5.3,4.3-9.3,6.7c-6.2,3.8-9.9,5.3-12.7,6.4
	c-3.5,1.4-6,2.4-9.2,6.5c-11.2,14.3,1.6,47.1,12,61.4c0.6,0.8,1.2,1.7,1.8,2.5c-1.7,22.6-1.6,29-1.3,41.6c0,0,0.1,3.8,0.1,4.8
	c0.3,14.5,1,27.2,2.2,37.8c0.7,6.4,1.5,12,2.5,17.8c-0.7,15-1.1,26-0.5,41.4c0.1,2.2,0.3,4.6,0.4,7c0.5,8.5,1.2,19.1,0.3,36.6
	c-0.3,6.2-1.3,13.4-2.8,20.9c-0.7,3.3-0.7,10.3,4,12.6c1.4,0.7,2.9,1.1,4.6,1.1c2.8,0,5.9-1.1,8.8-3.2c3.6-2.6,5.2-4.7,7.2-8.6
	c0.2,0,0.3,0,0.5,0h0.1c8.5,0,13.9-12.2,18.1-24.2c18.2-52,24.1-94.1,24.1-94.5c2.4-13.5,4.6-52.1,2.2-87.3c0.4-0.7,0.8-1.4,1.2-2.1
	l0.2-0.3c1.3-2.3,2.6-4.8,4-7.1C95.9,77.1,113.3,40,99.7,21.5z M42.2,292.1c-2.8,0-3.2-0.6-3.5-1.7c1-8.8,1.3-17.7,0.9-26.5
	c-0.5-11.3-2-18.1-4.6-30.4c-1.4-6.5-3.1-14.6-5.2-25.7c-1.2-6.4-2.2-11.8-3.1-16.9v-0.2c0-0.3-0.1-0.6-0.2-0.9
	c-0.9-5.5-1.7-10.9-2.4-17c-1.2-10.4-1.9-22.9-2.2-37.2c0-1-0.1-4.8-0.1-4.8c-0.2-10.7-0.4-16.8,0.7-32.7c7,8.9,16,16.8,31.7,17h0.6
	c0.1,0,0.1,0,0.2,0c12.7-0.1,19.9-5,25.2-11.7c1.3,30.8-0.5,63.8-2.7,76c-0.1,0.4-6.2,42.6-23.8,93.3
	C47.4,290.7,43.3,292.1,42.2,292.1z M23.8,298.6c1.6-8,2.6-15.4,3-21.9c0.9-17.9,0.2-29.2-0.3-37.5c-0.2-2.3-0.3-4.6-0.4-6.8
	c-0.1-2.8-0.2-5.5-0.2-8.1c0.8,3.9,1.5,7.3,2.2,10.4l0.1,0.3c2.5,11.9,4,18.5,4.4,29.3c0.4,8.6,0.1,17.3-0.9,25.9v0.2
	c0,0.2,0,0.3,0,0.5v0.2c0.4,2.6,1.4,4.6,3.1,5.9c-1.3,2.4-2.3,3.5-4.5,5c-1.8,1.3-3.4,1.9-4.7,1.9c-0.5,0-1-0.1-1.4-0.3
	C23.7,303,23.4,300.4,23.8,298.6z M54.8,108h-0.5c-16.6-0.2-23.9-10.6-31.6-21.7c-0.9-1.2-1.8-2.5-2.6-3.7
	C9.6,68.3-0.1,39.7,7.9,29.6c2.1-2.6,3.1-3.1,6.3-4.3c3-1.2,7-2.8,13.7-6.9c4.3-2.6,7.3-5.1,10.1-7.2c4.5-3.6,7.3-5.8,12.9-6.1h0.2
	c0.5,0,0.9,0,1.4,0c5.1,0,7.4,1.5,11.6,4.3c2.7,1.8,6.1,4.1,11.1,6.4c2.3,1.1,4.6,2.1,6.7,3c5.3,2.2,10.2,4.3,12.2,6.9
	c10.1,13.7-3.7,47-8.1,54.3c-1.5,2.5-2.9,5-4.4,7.7C75.5,99,70.6,108,54.8,108z"/>
</svg>
