<?xml version="1.0" encoding="utf-8"?>
<!-- Generator: Adobe Illustrator 28.1.0, SVG Export Plug-In . SVG Version: 6.00 Build 0)  -->
<svg version="1.1" id="Layer_2_00000072260520873695378540000006355026106293317268_"
	 xmlns="http://www.w3.org/2000/svg" xmlns:xlink="http://www.w3.org/1999/xlink" x="0px" y="0px" viewBox="0 0 95.4 329.4"
	 style="enable-background:new 0 0 95.4 329.4;" xml:space="preserve">
<style type="text/css">
	.st0{fill:#B6C5DA;}
</style>
<path class="st0" d="M91.8,10.4c-3.2-7.2-12-11.2-26.3-11.8c-0.6,0-1.4-0.1-2.3-0.1C60.5-1.7,56.5-2,51.9-2c-14,0-25.6,2.6-34.5,7.7
	c-3.6,2-11.9,6.8-16.1,19.2c-7.4,21.8-1,41.4,7,66.3c0.5,1.6,1.1,3.3,1.6,5c1.5,4.6,2.9,8.8,4.3,12.7l0,0.1
	c-0.5,20.3-0.8,36.3,4.3,67.3c2,12.5,4.2,20.4,6.2,28c2.6,9.6,5,18.6,7.3,36.1c1.1,8.7,1.5,18.6,1.9,29.2l0,0.4
	c0.6,15.1,1.2,32.3,4.1,51.5l0,0.1c1.1,4.9,3,9.5,9.5,9.6c0.1,0,0.2,0,0.3,0h0.1c0,0,0,0,0,0c4,0,8-2.9,11.1-8
	c13.7-22.8,20.1-84.9,20.4-87.5c2.7-21.9,4.6-60.2,5.2-105.2C91.1,114.5,105,40.3,91.8,10.4z M44.7,320.3c-2.8-18.9-3.4-35.7-4-50.6
	c-0.4-10.8-0.8-21.1-1.9-30.2c-2.3-17.9-4.9-27.6-7.4-37c-2-7.5-4.1-15.2-6-27.3c-3.6-21.8-4.4-36.1-4.4-49.8
	c5.3,11,10.8,17.9,18,23.2c7.6,5.7,12.6,6.4,16.1,6.4c0.7,0,1.5,0,2.3-0.1c8.3-0.7,14.3-4.1,19.9-11.7c-0.7,39.2-2.5,72.2-4.9,92
	c-0.1,0.6-6.6,63.3-19.4,84.6c-1.9,3.2-3.9,4.6-5.1,4.6l-0.2,0C46.3,324.4,45.6,324.4,44.7,320.3z M77.5,129
	c-6.8,13.6-11.9,18.2-20.8,19c-0.5,0-1.2,0.1-1.8,0.1c-2.1,0-5.7-0.5-11.8-5c-8.8-6.6-15-16.2-22-35.6c0-0.1,0-0.1-0.1-0.2
	c-1.4-4-2.9-8.3-4.5-13.1l0-0.1c-0.5-1.6-1-3.3-1.6-4.9C7,64.5,1.2,46.7,7.9,27.2c3.4-9.9,9.9-13.6,13-15.4c0,0,0.1,0,0.1-0.1
	C28.8,7.2,39.2,5,51.9,5c4.4,0,8.3,0.3,10.8,0.5c1,0.1,1.8,0.1,2.5,0.2c11.2,0.5,18.2,3.1,20.2,7.6C98,41.7,83.4,117.1,77.5,129z"/>
</svg>
