<?xml version="1.0" encoding="utf-8"?>
<!-- Generator: Adobe Illustrator 28.1.0, SVG Export Plug-In . SVG Version: 6.00 Build 0)  -->
<svg version="1.1" id="Layer_2_00000028312122812319983970000013524447970715134593_"
	 xmlns="http://www.w3.org/2000/svg" xmlns:xlink="http://www.w3.org/1999/xlink" x="0px" y="0px" viewBox="0 0 83.8 320.1"
	 style="enable-background:new 0 0 83.8 320.1;" xml:space="preserve">
<style type="text/css">
	.st0{fill:#B6C5DA;}
</style>
<g>
	<path class="st0" d="M76.7,199.7c0.1-37.9-3.9-63.3-7.5-85.8l0-0.3c-2.3-14.8-4.3-27.5-4.8-41.7c-0.3-4.2-3.2-42.1-17-67.7
		C45.7,1.1,42.2-2,38.1-2c-0.8,0-1.6,0.1-2.4,0.4c-5,1.6-6.8,9.1-7.4,13.3c-5.1,29.7-6.9,51.3-9.8,87.2l-0.4,5.4
		c-3.2,39.9-5.4,70.4-3.7,99.1c-1.9,3.8-3.5,7.5-4.9,10.7C3.9,227.9-6.2,277.4,0,300.6c2,7.8,7.9,12.9,10.8,14.5
		c8.4,4.7,18.4,7.1,29.7,7.1c0.1,0,0.1,0,0.2,0c7.1,0,14.8-1,22.6-2.8c10.8-2.6,17.1-6.9,18.5-13C86,288.4,90,238.3,76.7,199.7z
		 M37.9,5C38,5,38,5,38.1,5c0.8,0,2.3,1,3.1,2.5c13.5,25.2,16.2,64.4,16.2,64.8c0.5,14.6,2.6,27.6,5,42.7l0,0.1
		c3,18.8,6.3,39.7,7.1,68.5c-4.3-7.1-10.5-13.3-19.9-13.8c-0.3,0-0.6,0-0.9,0c-10.8,0-20.3,10.2-27.6,22
		c-0.6-25.1,1.4-52.4,4.1-86.8l0.5-5.7c2.9-35.5,4.6-57,9.7-86.3C35.9,8,37.4,5.4,37.9,5z M48.6,176.7c0.1,0,0.1,0,0.2,0
		c0.1,0,0.3,0,0.4,0c7.5,0.4,13.5,6.7,18.8,19.7c15.3,37.7,11.2,90.1,7,108.3c-0.8,3.2-5.3,5.9-13.3,7.8c-7.4,1.7-14.6,2.6-21.2,2.6
		c-10.1,0-19-2.1-26.3-6.2c-2.2-1.2-6.2-5.1-7.5-10.2c-5.8-21.9,3.9-68.9,9.4-82C20,207.4,34,176.7,48.6,176.7z"/>
	<path class="st0" d="M12.5,286.5c1,0,1.8-0.7,2-1.7c0.7-4.2,1.3-8.3,2-12.5c2.2-14.1,4.6-28.6,7.9-42.7c0.9-3.6,1.8-7,3.1-10.1
		c0,0,0.2-0.5,0.3-0.6c0.3,0.5,0.6,1,0.8,1.5c0.9,1.6,1.8,3.3,3.1,4.8c2,2.4,5,4,8.1,4c1.2,0,2.3-0.2,3.3-0.7c3-1.2,5.2-3.4,7.1-5.4
		l0.6-0.6c0.3-0.2,0.5-0.5,0.8-0.8c0.5-0.6,1.7-1.7,2.3-1.7c1.4,1,2.3,3,3.2,4.9l0.1,0.2c0.6,1.4,1.2,3,1.8,4.9
		c4.4,14.6,6.8,30,9.2,44.9c0.5,3.3,1,6.6,1.6,9.9c0.2,1,1,1.7,2,1.7c0.1,0,0.2,0,0.2,0c1.1-0.1,1.8-1.1,1.8-2.1
		c-1.6-20.1-3.3-38.2-8.4-56.2c-3-10.1-6.7-15-11.5-15c-1.9,0-3.8,0.8-5.6,2.4c-1.1,0.8-2,1.9-3,2.8c-1.9,2-3.7,3.9-5.9,3.9l0,0
		c-2.1-0.3-3.3-2.4-4.9-5.4c-0.5-1-1-1.9-1.6-2.8c-1-1.6-2.8-3.4-5.1-3.4c-0.6,0-1.2,0.1-1.8,0.4c-4,1.7-5.9,8.4-7.5,15.1
		c-0.2,0.7-0.3,1.4-0.5,2c-3.7,17.6-5.7,35.2-7.4,56.2c0,0.6,0.2,1.1,0.5,1.5C11.4,286.3,12,286.5,12.5,286.5z"/>
</g>
</svg>
