<?xml version="1.0" encoding="utf-8"?>
<!-- Generator: Adobe Illustrator 28.1.0, SVG Export Plug-In . SVG Version: 6.00 Build 0)  -->
<svg version="1.1" id="Layer_2_00000002371566919905700140000012678495803303787192_"
	 xmlns="http://www.w3.org/2000/svg" xmlns:xlink="http://www.w3.org/1999/xlink" x="0px" y="0px" viewBox="0 0 137.7 407.1"
	 style="enable-background:new 0 0 137.7 407.1;" xml:space="preserve">
<style type="text/css">
	.st0{fill:#B6C5DA;}
</style>
<path class="st0" d="M119.6,280.3l-0.5-1.2c-2.6-5.6-5.7-12.3-9.8-18.9c0.1-12.3-0.3-42.8-5.5-77.1c-3-20-7.7-37.7-16.1-69.8
	C82.8,95.1,57,18.1,37.2,2.1C33.9-0.5,30.2-2,26.8-2c-2.3,0-4.3,0.7-6,2c-4.6,3.6-3.4,11-2.3,15c4.9,20.2,7.5,40.8,7.7,61.4
	c0.3,25.9-2.1,43.3-4.5,61.7v0.2C19.9,152,18,166.1,17,184.7c-1.7,31.1-0.2,60.1,4.4,88.8c-0.8,1.4-1.6,2.7-2.5,4.2
	C2.4,306.2-4.7,332.9-1.1,353c1.6,9.2,6.7,21.2,21.3,26.5l0.5,0.2c11,4,14.2,6.4,16.5,8.1l0.2,0.1c0.4,0.3,0.7,0.5,1.1,0.8
	c5.9,4.2,10.2,7.8,13.6,10.8c6.8,5.8,11.2,9.6,19.6,9.6H72c12.5-0.1,19-5.4,26.5-11.5c2.2-1.8,4.7-3.8,7.6-5.9c4.1-2.9,7.7-5.1,11-7
	c6-3.5,11.1-6.6,15.8-12.3C141.5,361.9,146.2,337.4,119.6,280.3z M71.9,402h-0.2c-5.7,0-8.6-2.5-15-8c-3.3-2.8-7.9-6.7-14.2-11.2
	c-0.3-0.2-0.6-0.4-0.9-0.7l-0.2-0.1c-2.7-2-6.4-4.8-18.3-9.1c-0.1-0.1-0.3-0.1-0.5-0.2C11,368.5,7.1,358.9,5.8,351.5
	C2.5,333.1,9.3,308,25,281c17.2-29.7,27.9-40.1,42.4-40.9c0.7,0,1.3-0.1,1.9-0.1c23.9,0,36.1,26.2,43.4,41.8l0.5,1.1
	c25.1,54.2,21.6,76.1,14.3,85c-3.9,4.8-8.3,7.4-14,10.7c-3.4,2-7.2,4.3-11.5,7.3c-2.9,2.1-5.4,4.1-8,6.2C86.7,398,82,401.9,71.9,402
	z M28.7,139c2.5-18.7,4.9-36.3,4.6-62.7c-0.2-21.1-2.9-42.3-7.9-63.1C24.2,9,24.5,6,25.2,5.5c0.4-0.3,1-0.5,1.6-0.5
	c1.7,0,4,1,5.9,2.5C50.3,21.7,75.3,94,80.8,115c9,34.3,13.1,50.2,16,69.1c4,26.7,5.1,51,5.4,66.1c-7.9-9.5-18.4-16.9-32.8-16.9
	c-0.8,0-1.6,0-2.4,0.1c-14.6,0.8-25.6,9-39.9,31c-3.6-25.7-4.6-51.7-3.1-79.3c1-18.3,2.9-32.3,4.7-45.9V139z"/>
</svg>
