<?xml version="1.0" encoding="utf-8"?>
<!-- Generator: Adobe Illustrator 28.1.0, SVG Export Plug-In . SVG Version: 6.00 Build 0)  -->
<svg version="1.1" id="Layer_2_00000147220350531491660310000006806584917893510060_"
	 xmlns="http://www.w3.org/2000/svg" xmlns:xlink="http://www.w3.org/1999/xlink" x="0px" y="0px" viewBox="0 0 150.4 284.7"
	 style="enable-background:new 0 0 150.4 284.7;" xml:space="preserve">
<style type="text/css">
	.st0{fill:#B6C5DA;}
</style>
<path class="st0" d="M152.2,43.6c-1-17.3-17.1-29.2-31.8-31.6c-2-0.3-4.1-0.5-6.1-0.5c-6.2,0-11.6,1.5-16.7,2.9
	c-5.1,1.4-10.4,2.9-16.6,2.9c-0.4,0-0.8,0-1.2,0c-2.8-0.1-3.9-1.4-6.5-4.6c-3.9-5-9.9-12.4-27.7-14.5C45-2,44.4-2,43.7-2
	c-6.9,0-18.9,3.7-27.1,9.9C9.8,13,4.1,19.9,1.9,25.4c-0.2,0.4-0.4,0.9-0.6,1.3C-0.6,31-3.2,36.9-1.3,60.6
	C0.3,81.5,1.5,95.8,11,102.4c-0.8,9.1-0.7,16.6-0.2,30.2c0.6,18.7,6.2,41.5,9.9,50.3c1.1,3.3,18.6,57.6,42.5,88.1
	c3.1,3.9,10.4,9.4,17.2,9.4c1.1,0,2.2-0.1,3.1-0.4c0.8-0.2,1.6-0.6,2.3-1c1.6,3.6,3.9,5.9,7.1,6.9c1.4,0.5,2.7,0.7,3.9,0.8
	c0.1,0,0.2,0,0.3,0c3,0,5.7-1.3,7.9-4c4.1-5,5-16.3,5.2-20.9c0.1-1.5,0.4-4.3,0.8-8.7c0.5-4.6,1.6-14.1,2.9-28.3
	c1.4-15.3,3.7-35.8,9.3-58.6c4.3-17.6,7.1-35,10.3-63.6c3.8-3.7,6.8-8.1,10.7-16.2C152.2,70.1,153.1,60,152.2,43.6z M99.6,278.2
	c-1,1.2-1.7,1.5-2.5,1.5c-0.5,0-1.2-0.1-2-0.4c-1.5-0.5-3.3-1.9-4.3-8.4l-0.7-4.4c0,0,0,0,0-0.1c0.9-10.5-0.9-21.1-2.6-31.4
	l-0.2-1.2c-1.6-8.2-3.3-19.3-4.8-29c-0.5-2.9-0.9-5.7-1.3-8.2c-0.7-4.2-1.5-8.7-2.3-13l-0.2-1c-1.9-11.4-3.2-23-4.4-34.3
	c-1-8.7-2-17.7-3.2-26.5c-0.1-0.6-0.5-1.2-1.1-1.5c-0.3-0.2-0.6-0.2-0.9-0.2c-0.3,0-0.6,0.1-0.9,0.2c-0.7,0.3-1.2,1.1-1.1,1.9
	c0.8,19.3,1.7,38.1,4.1,56.8c0.9,6,2.1,13.3,3.3,20.5c1,6.1,2,11.9,2.8,16.9c1.1,6.6,2.5,13.3,3.9,19.7c0.6,2.7,1.1,5.4,1.7,8.1
	c1.5,8.2,2.8,15.7,2.7,23.1l-1.3,2.4c-0.2,0.3-0.3,0.6-0.5,1c-0.8,1.6-1.1,2.1-2.2,2.4c-0.4,0.1-0.8,0.2-1.3,0.2
	c-3.9,0-9.5-3.9-11.7-6.8c-23.2-29.7-40.6-83.7-41.4-86c0,0-0.1-0.3-0.1-0.3c-3.5-8.3-8.8-30.6-9.4-47.9c-0.4-13-0.5-20,0-27.3
	c0.4,0,0.8,0.1,1.2,0.1c1.9,0,3.7-0.4,5.7-0.8c2.4-0.5,5.1-1.1,8.8-1.1c0.5,0,1,0,1.5,0c9.6,0.4,13.6,2.1,20.4,5.1
	c2.4,1.1,5.2,2.3,8.7,3.6c9.4,3.6,20.2,5.5,30.5,5.5c12.2,0,22.8-2.8,30.5-8.1c0.2-0.2,0.5-0.3,0.7-0.5c-2.8,24.3-5.5,40-9.3,55.8
	c-5.7,23.3-8,44.1-9.5,59.6c-1.2,13.5-2.3,22.7-2.9,28.2l0,0.3c-0.5,4.5-0.8,7.2-0.9,8.9C102.9,269.1,101.4,276,99.6,278.2z
	 M128.1,98.1c-0.2,0.1-0.4,0.2-0.6,0.3c-0.2,0.2-0.4,0.4-0.5,0.7c-1.7,1.4-3.6,2.8-5.9,4.4c-6.6,4.5-15.7,6.9-26.5,6.9
	c-9.3,0-19.5-1.9-28.1-5.1c-3.2-1.2-5.8-2.3-8.4-3.5c-6.9-3-11.9-5.2-22.8-5.6c-0.6,0-1.2,0-1.8,0c-0.1,0-0.1,0-0.2,0
	c-4.4,0-7.6,0.7-10.2,1.3c-1.6,0.4-2.9,0.7-4,0.7c-0.9,0-1.7-0.2-2.7-0.7C8.7,93.5,7.4,81.9,5.6,60C3.9,38.1,6.2,33,7.7,29.6
	C8,29,8.2,28.5,8.4,27.9c1.7-4.3,6.7-10.1,12.4-14.5C27.5,8.4,38,5,43.6,5c0.4,0,0.8,0,1.1,0.1c15,1.8,19.3,7.2,23.1,12
	c2.6,3.2,5.5,6.9,11.4,7.2c-2.7,7.3-3.3,15.4-1.7,22.9c-0.5,0-0.9,0-1.4,0c-5.1,0-10.2,1.3-14.2,3.7c-0.8,0.5-1.2,1.5-0.9,2.4
	c0.3,0.8,1,1.3,1.9,1.3c0.1,0,0.2,0,0.3,0c3.3-0.5,6.1-0.7,8.7-0.7l0.6,0c8.9,0,16.8,2.5,22.6,7.4c0.4,0.3,0.8,0.5,1.3,0.5
	c0.5,0,0.9-0.2,1.3-0.5c0.7-0.6,0.9-1.7,0.5-2.5c-3.1-5.4-8.5-9.2-15.1-10.8c0.1-1.5,0.2-3.1,0.3-4.5c0.2-2.5,0.3-5.1,0.6-7.7
	c0.2-2.5,0.5-5,0.8-7.5c0.1-1.3,0.3-2.7,0.4-4.1c5.4-0.5,10.1-1.8,14.4-2.9c5-1.4,9.6-2.7,14.8-2.7c1.7,0,3.3,0.1,5,0.4
	c12,1.9,25.1,11.4,25.9,25c0.9,15.5,0,24.4-7.3,39.4C134.1,91.1,131.5,94.9,128.1,98.1z"/>
</svg>
