<?xml version="1.0" encoding="UTF-8"?>
<svg id="Layer_2" data-name="Layer 2" xmlns="http://www.w3.org/2000/svg" viewBox="0 0 310.15 107.08">
  <defs>
    <style>
      .cls-1 {
        fill: #1272ed;
        stroke-width: 0px;
      }
    </style>
  </defs>
  <g id="Layer_1-2" data-name="Layer 1">
    <path class="cls-1" d="M53.57,56.92c3.84-9.97,13.52-35.13,2-47-4.25-4.38-10.1-5.61-14-6,1.9-.94,16.1-7.68,27-1,13.15,8.06,10.61,28.97,10,34-3.93,32.33-39.78,49.58-45,52,11.41-12.5,17.1-24.46,20-32ZM.57,31.92c.35-4.52,2.02-7.53,3-9,1.13-1.71,2.15-3.18,4-4,3.7-1.64,6.42,1.33,11,1,2.19-.16,5.33-1.11,9-5-.67.32-1.7.74-3,1-3.74.76-6.29-.47-9-1-3.52-.68-8.87-.48-12,2C-1.74,21.14.39,31.11.57,31.92ZM25.57,26.92c2.35-2.07,4.47-3.27,6-4,1.39-.66,2.37-.95,3-2,.9-1.48.27-3.08,0-5-.26-1.85-.26-4.52,1-8-1.45,1.17-2.45,2.5-3,4-.89,2.43.04,3.56-1,6-.66,1.56-1.22,1.85-3,4-.87,1.05-2.02,2.67-3,5ZM39.57,53.92c-.72.26-9.05,3.15-16-2-4.21-3.11-5.59-7.46-6-9-.21.91-1.5,6.87,2,11,3.99,4.7,12.85,5.46,20,0ZM33.57,62.46c-4.52,1.86-9.52,1.3-13-1.55-3.01-2.46-3.85-5.8-4.09-7-.16.71-1.16,5.34,1.55,8.55,3.1,3.65,9.98,4.24,15.54,0ZM32.13,68.77c-.47.27-5.91,3.33-11.4.62-3.32-1.64-4.83-4.49-5.32-5.52-.03.66-.18,4.98,2.78,7.41,3.37,2.78,9.64,2.18,13.94-2.52ZM30.89,75.19c-.43.29-5.47,3.59-10.93,1.34-3.3-1.36-4.94-4.01-5.47-4.96.01.64.15,4.8,3.16,6.95,3.42,2.45,9.42,1.47,13.24-3.33ZM28.3,83.09c-.35.24-4.39,2.88-8.76,1.07-2.65-1.09-3.96-3.21-4.39-3.98,0,.51.12,3.85,2.53,5.57,2.75,1.97,7.55,1.18,10.62-2.67ZM26.91,90.06c-.33.22-4.12,2.71-8.24,1.01-2.49-1.03-3.72-3.02-4.12-3.74,0,.48.11,3.62,2.38,5.24,2.58,1.85,7.1,1.11,9.98-2.51ZM23.76,95.99c-.26.18-3.34,2.19-6.67.82-2.02-.83-3.02-2.44-3.34-3.03,0,.39.09,2.93,1.93,4.24,2.09,1.5,5.75.9,8.08-2.03ZM20.99,101.94c-.22.15-2.81,1.84-5.61.69-1.7-.7-2.54-2.06-2.81-2.55,0,.33.08,2.47,1.62,3.57,1.76,1.26,4.84.76,6.8-1.71ZM105.6,74.41l-3.67-3.67,3.67-4.93-4.82-6.55h-22.18v24.91l6.41-3.67v-7.09h12.25l1.93,1.88v5.21h6.41v-6.08ZM97.3,68.57h-12.29v-4.57h12.34l1.67,2.21-1.72,2.37ZM114.27,75.7h-4.72v4.72h4.72v-4.72ZM124.68,59.25h-6.41v24.91l6.41-3.64v-21.27ZM146.1,59.25l-11.05,10.44v-10.44h-6.41v24.91l6.41-3.62v-3.47l6.84-6.46,4.72,4.72v5.16h6.41v-6.08l-7.41-7.41,8.1-7.75h-7.6ZM184.08,74.41l-3.67-3.67,3.67-4.93-4.82-6.55h-22.18v24.91l6.41-3.67v-7.09h12.25l1.93,1.88v5.21h6.41v-6.08ZM175.77,68.57h-12.29v-4.57h12.34l1.67,2.21-1.72,2.37ZM212.73,64l-4.82-4.75h-16.09l-4.82,4.75v20.16l6.41-3.64v-6.12h12.92v6.08h6.41v-16.49ZM193.4,69.72v-5.72h12.92v5.72h-12.92ZM249.42,59.25h-7.24l-9.16,12.67-9.21-12.67h-7.21v24.91l6.41-3.67v-13.57l7.92,10.94h4.14l7.96-10.94v13.57h6.41v-21.24ZM280.45,64.08l-4.82-4.83h-17.68l-4.82,4.83v11.58l4.82,4.83h17.68l4.82-4.83v-11.58ZM259.53,75.74v-11.74h14.51v11.74h-14.51ZM303.59,59.25l-7.98,14.55-7.98-14.55h-6.51l11.52,21.24h5.98l11.52-21.24h-6.55ZM45.63,95.7c-.71.4-1.22.94-1.55,1.61l.99.24c-.22-.83-.66-1.45-1.33-1.85-.67-.41-1.45-.61-2.34-.61-.78,0-1.48.15-2.11.46s-1.1.76-1.42,1.35l.5.68v-2.37h-2.68v8.72h2.81v-4.37c0-.53.09-.96.27-1.29.18-.33.43-.58.76-.75.32-.17.69-.25,1.1-.25.6,0,1.06.17,1.38.5.32.33.48.85.48,1.56v4.6h2.81v-4.37c0-.53.09-.96.26-1.29.17-.33.42-.58.75-.75.32-.17.7-.25,1.12-.25.58,0,1.02.17,1.34.5.32.33.48.85.48,1.56v4.6h2.81v-4.99c0-.89-.17-1.61-.5-2.18-.34-.57-.8-.99-1.4-1.26-.59-.28-1.28-.41-2.04-.41-.94,0-1.76.2-2.47.61ZM57.57,107.08v-4.91l-.18-2.58.05-2.59v-1.78h-2.68v11.86h2.81ZM62.94,103.51c.73-.37,1.3-.89,1.73-1.55.43-.66.64-1.46.64-2.37s-.21-1.7-.64-2.37c-.43-.67-1-1.19-1.73-1.56-.73-.37-1.55-.56-2.48-.56-.83,0-1.55.16-2.17.49-.62.32-1.09.82-1.41,1.47-.32.66-.49,1.5-.49,2.53s.17,1.85.51,2.52c.34.66.82,1.16,1.43,1.48.61.32,1.32.49,2.12.49.92,0,1.75-.19,2.48-.56ZM58.74,101.7c-.37-.19-.67-.47-.89-.83-.22-.36-.33-.79-.33-1.29s.11-.94.33-1.3c.22-.36.52-.63.89-.82.37-.19.79-.28,1.26-.28s.88.09,1.25.28c.37.19.66.46.88.82.22.36.33.79.33,1.3s-.11.93-.33,1.29c-.22.36-.52.64-.88.83-.37.19-.78.29-1.25.29s-.89-.1-1.26-.29ZM70.17,103.94v-12.02h-2.81v12.02h2.81ZM78.03,103.62c.54-.3.91-.72,1.12-1.26l-.43-1.18c-.16.4-.42.7-.8.89s-.81.29-1.29.29-.86-.09-1.14-.28c-.28-.19-.42-.45-.42-.77,0-.29.12-.54.37-.73.25-.19.7-.29,1.36-.29h2.27v-1.46h-2.56c-1,0-1.8.11-2.41.32-.61.22-1.06.52-1.34.92-.28.39-.42.84-.42,1.35s.15.95.44,1.34.71.71,1.25.95,1.18.35,1.93.35c.85,0,1.55-.15,2.09-.45ZM81.52,103.94v-4.97c0-1.33-.41-2.31-1.22-2.93-.82-.63-1.96-.94-3.44-.94-.77,0-1.52.09-2.27.27-.74.18-1.38.44-1.91.79l.99,1.77c.36-.25.79-.45,1.29-.59.5-.15,1-.22,1.52-.22.76,0,1.32.15,1.68.45.37.3.55.72.55,1.26v3.05l.18.37v1.7h2.63ZM87.91,95.56c-.65.31-1.15.76-1.49,1.34l.5.73v-2.41h-2.68v8.72h2.81v-4.31c0-.55.1-.99.3-1.33.2-.33.47-.59.83-.76.35-.17.75-.26,1.2-.26.62,0,1.11.17,1.45.5.34.33.51.85.51,1.56v4.6h2.81v-4.99c0-.89-.17-1.61-.52-2.18-.35-.57-.83-.99-1.43-1.26-.61-.28-1.29-.41-2.06-.41-.83,0-1.57.16-2.21.47ZM102.42,97.36v-1.94h-6.71v1.94h6.71ZM102.07,103.93c.4-.09.74-.23,1.02-.41l-.74-1.78c-.31.22-.7.32-1.15.32-.36,0-.65-.1-.85-.31s-.31-.49-.31-.86v-7.6h-2.83v7.65c0,1.04.32,1.82.95,2.34.64.52,1.52.79,2.66.79.43,0,.85-.05,1.25-.14ZM117.48,103.47c.95-.44,1.76-1.07,2.41-1.88.65-.81,1.1-1.77,1.34-2.87l-2.25-.62c-.18.86-.49,1.6-.92,2.2-.43.61-.95,1.06-1.56,1.37-.61.31-1.28.46-2.01.46-.47,0-.87-.06-1.21-.17-.34-.11-.59-.28-.77-.49-.18-.22-.27-.45-.27-.71,0-.3.08-.57.23-.8.16-.23.41-.47.77-.7.36-.24.84-.48,1.44-.73.89-.36,1.61-.71,2.18-1.05s.98-.72,1.24-1.12c.26-.4.4-.83.4-1.3,0-.54-.15-1-.46-1.39s-.73-.69-1.26-.9c-.53-.21-1.17-.32-1.92-.32s-1.45.12-2.04.35c-.59.23-1.06.56-1.39.98-.33.42-.5.91-.5,1.46,0,.3.06.6.19.9.13.3.31.6.57.9.25.3.58.62.99.96l7.34,6.14,1.51-1.6-6.64-5.52c-.37-.32-.66-.59-.85-.79-.2-.2-.34-.38-.41-.53s-.12-.32-.12-.48c0-.3.12-.55.36-.75.24-.2.58-.29,1.01-.29.41,0,.72.09.93.27.21.18.31.4.31.67,0,.22-.08.42-.23.62-.16.2-.42.4-.8.62s-.9.46-1.57.75c-.94.38-1.7.76-2.3,1.15s-1.04.81-1.31,1.26c-.28.45-.41.96-.41,1.52,0,.61.21,1.14.63,1.6.42.46.99.83,1.72,1.1.73.27,1.54.41,2.46.41,1.16,0,2.22-.22,3.18-.66ZM135.05,103.59c.61-.32,1.07-.81,1.4-1.48.32-.67.49-1.51.49-2.53s-.17-1.87-.51-2.53c-.34-.66-.81-1.15-1.42-1.47-.61-.32-1.33-.49-2.14-.49-.91,0-1.73.19-2.47.56-.73.37-1.31.89-1.73,1.56-.42.67-.63,1.46-.63,2.37s.21,1.7.63,2.37c.42.67,1,1.19,1.73,1.56.73.37,1.55.56,2.47.56.85,0,1.58-.16,2.19-.48ZM132.08,101.71c-.37-.19-.67-.47-.89-.83s-.33-.8-.33-1.3.11-.94.33-1.3c.22-.36.52-.63.89-.82.37-.19.79-.28,1.24-.28s.89.09,1.26.28c.37.19.67.46.89.82.22.36.33.79.33,1.3s-.11.93-.33,1.3c-.22.37-.52.65-.89.83-.37.19-.79.28-1.26.28s-.87-.09-1.24-.28ZM138.56,103.94v-12.02h-2.81v5.07l.18,2.58-.05,2.59v1.78h2.68ZM148.46,103.7c.67-.24,1.23-.59,1.67-1.04l-1.49-1.46c-.32.28-.68.49-1.07.63-.39.14-.84.21-1.34.21-.59,0-1.09-.09-1.51-.28-.42-.19-.75-.46-.99-.82-.24-.36-.36-.78-.36-1.26v-.39c0-.46.1-.87.31-1.21.2-.34.49-.6.86-.79.37-.19.79-.28,1.27-.28s.9.09,1.26.28c.36.19.64.45.85.79s.3.73.29,1.18l1.1-.44h-6.39v1.47h7.87c.01-.11.02-.22.04-.35s.02-.24.02-.33c0-.94-.22-1.74-.67-2.41-.44-.67-1.05-1.19-1.81-1.55-.76-.37-1.62-.55-2.56-.55s-1.87.19-2.66.57c-.79.38-1.4.92-1.84,1.6-.44.68-.66,1.45-.66,2.32s.23,1.63.68,2.31c.46.67,1.1,1.21,1.93,1.6.83.39,1.79.58,2.9.58.88,0,1.65-.12,2.32-.37ZM156.55,95.56c-.65.31-1.15.76-1.49,1.34l.5.73v-2.41h-2.68v8.72h2.81v-4.31c0-.55.1-.99.3-1.33.2-.33.47-.59.83-.76.35-.17.75-.26,1.2-.26.62,0,1.11.17,1.45.5.34.33.51.85.51,1.56v4.6h2.81v-4.99c0-.89-.17-1.61-.52-2.18-.35-.57-.83-.99-1.43-1.26-.61-.28-1.29-.41-2.06-.41-.83,0-1.57.16-2.21.47ZM171.05,97.36v-1.94h-6.71v1.94h6.71ZM170.7,103.93c.4-.09.74-.23,1.02-.41l-.74-1.78c-.31.22-.7.32-1.15.32-.36,0-.64-.1-.85-.31s-.32-.49-.32-.86v-7.6h-2.83v7.65c0,1.04.32,1.82.95,2.34.64.52,1.52.79,2.66.79.43,0,.85-.05,1.25-.14ZM178.58,103.62c.54-.3.91-.72,1.12-1.26l-.43-1.18c-.16.4-.42.7-.8.89s-.81.29-1.29.29-.86-.09-1.14-.28c-.28-.19-.42-.45-.42-.77,0-.29.12-.54.37-.73.25-.19.7-.29,1.36-.29h2.27v-1.46h-2.56c-1,0-1.8.11-2.41.32-.61.22-1.06.52-1.34.92-.28.39-.42.84-.42,1.35s.15.95.44,1.34c.29.4.71.71,1.25.95s1.18.35,1.93.35c.85,0,1.55-.15,2.09-.45ZM182.07,103.94v-4.97c0-1.33-.41-2.31-1.22-2.93-.82-.63-1.96-.94-3.44-.94-.77,0-1.52.09-2.27.27-.74.18-1.38.44-1.91.79l.99,1.77c.36-.25.79-.45,1.29-.59.5-.15,1-.22,1.52-.22.76,0,1.32.15,1.68.45.37.3.55.72.55,1.26v3.05l.18.37v1.7h2.63ZM187.6,103.94v-12.02h-2.81v12.02h2.81ZM197.74,103.49c.76-.39,1.31-.93,1.65-1.62l-2.16-1.07c-.26.42-.58.73-.95.92-.37.19-.78.28-1.22.28-.47,0-.89-.09-1.28-.28-.38-.19-.69-.46-.92-.83-.23-.36-.34-.8-.34-1.3s.11-.94.34-1.3c.23-.36.53-.63.92-.82.38-.19.81-.28,1.28-.28.44,0,.85.09,1.22.28.37.19.69.49.95.9l2.16-1.07c-.34-.7-.88-1.25-1.65-1.63-.76-.38-1.65-.57-2.67-.57s-1.97.19-2.78.58c-.81.39-1.45.92-1.91,1.59-.46.67-.69,1.44-.69,2.32s.23,1.64.69,2.32,1.1,1.21,1.91,1.6c.81.38,1.74.58,2.78.58s1.91-.19,2.67-.58ZM204.01,103.94v-12.02h-2.81v12.02h2.81ZM209.48,93.6c.32-.28.49-.62.49-1.04s-.17-.73-.5-.98c-.33-.25-.75-.38-1.27-.38s-.95.13-1.28.4c-.32.27-.49.61-.49,1s.16.73.49,1c.32.27.75.41,1.28.41s.95-.14,1.28-.41ZM209.61,103.94v-8.72h-2.81v8.72h2.81ZM216.07,95.56c-.65.31-1.15.76-1.49,1.34l.5.73v-2.41h-2.68v8.72h2.81v-4.31c0-.55.1-.99.3-1.33.2-.33.47-.59.83-.76.35-.17.75-.26,1.2-.26.62,0,1.11.17,1.45.5.34.33.51.85.51,1.56v4.6h2.81v-4.99c0-.89-.17-1.61-.52-2.18-.35-.57-.83-.99-1.43-1.26-.61-.28-1.29-.41-2.06-.41-.83,0-1.57.16-2.21.47ZM227.7,93.6c.32-.28.49-.62.49-1.04s-.17-.73-.5-.98c-.33-.25-.75-.38-1.27-.38s-.95.13-1.28.4c-.32.27-.49.61-.49,1s.16.73.49,1c.32.27.75.41,1.28.41s.95-.14,1.28-.41ZM227.83,103.94v-8.72h-2.81v8.72h2.81ZM237.97,103.49c.76-.39,1.31-.93,1.65-1.62l-2.16-1.07c-.26.42-.58.73-.95.92-.37.19-.78.28-1.22.28-.47,0-.89-.09-1.28-.28-.38-.19-.69-.46-.92-.83-.23-.36-.34-.8-.34-1.3s.11-.94.34-1.3c.23-.36.53-.63.92-.82.38-.19.81-.28,1.28-.28.44,0,.85.09,1.22.28.37.19.69.49.95.9l2.16-1.07c-.34-.7-.88-1.25-1.65-1.63-.76-.38-1.65-.57-2.67-.57s-1.97.19-2.78.58c-.81.39-1.45.92-1.91,1.59-.46.67-.69,1.44-.69,2.32s.23,1.64.69,2.32,1.1,1.21,1.91,1.6c.81.38,1.74.58,2.78.58s1.91-.19,2.67-.58Z"/>
  </g>
</svg>