<svg width="67" height="44" viewBox="0 0 67 44" fill="none" xmlns="http://www.w3.org/2000/svg">
<ellipse cx="23" cy="22" rx="23" ry="22" fill="#D7E9FF"/>
<path d="M48.1279 37.3474C48.0005 37.3474 47.874 37.3294 47.7509 37.2933C47.492 37.2172 47.2597 37.0653 47.0791 36.854C46.6827 36.3902 46.6184 35.7474 46.9153 35.2164C47.5752 34.036 48.0836 32.5853 48.3467 31.1314C48.6671 29.3603 48.6231 27.638 48.2228 26.2818C47.8451 25.0025 47.2035 24.2195 46.4162 24.077C45.6289 23.9346 44.7536 24.4431 43.9517 25.5089C43.1015 26.6389 42.4567 28.2366 42.1363 30.0076C41.8732 31.4615 41.841 32.9984 42.0455 34.3352C42.1375 34.9366 41.852 35.5161 41.3183 35.8116C41.075 35.9463 40.8042 36.0071 40.535 35.9876C40.2428 35.9664 39.9665 35.8502 39.7359 35.6514C39.0061 35.0222 38.3611 34.2058 37.8188 33.2249C37.2728 32.2373 36.8582 31.1316 36.5865 29.9384C36.3024 28.6907 36.1865 27.3947 36.242 26.0864C36.3015 24.6856 36.5575 23.299 37.003 21.9653C37.6685 19.9728 37.3237 18.4258 36.9245 16.6345C36.7849 16.0081 36.6405 15.3604 36.5305 14.6562C36.2984 13.1698 36.3441 11.7982 36.6663 10.5793C36.8209 9.99452 37.0397 9.44915 37.3167 8.95835C37.5907 8.47282 37.9233 8.03764 38.3051 7.66489C39.6268 6.37465 41.4804 5.86781 43.5247 6.23767C45.396 6.57627 46.3863 7.47655 47.4348 8.42969C47.4643 8.45648 47.4937 8.48325 47.5233 8.51011C49.6975 9.05729 50.8865 8.79649 52.0367 8.5442C52.978 8.33775 53.9512 8.12427 55.3755 8.38199C57.4198 8.75188 58.9783 9.87616 59.7641 11.5477C59.9911 12.0306 60.15 12.5548 60.2365 13.1055C60.324 13.6623 60.3378 14.2497 60.2777 14.8516C60.1524 16.1061 59.7146 17.4068 58.9763 18.7176C58.6265 19.3386 58.2644 19.8946 57.9141 20.4324C56.9125 21.9702 56.0475 23.2983 55.9726 25.3977C55.9225 26.803 55.6765 28.1913 55.2413 29.5241C54.8348 30.7689 54.2721 31.9421 53.5688 33.0112C52.8962 34.0335 52.1205 34.9239 51.2631 35.6575C50.4114 36.3862 49.5212 36.9248 48.6172 37.2584C48.4566 37.3177 48.2915 37.3474 48.1279 37.3474ZM46.1514 23.3967C46.2794 23.3967 46.4066 23.4081 46.5331 23.431C47.0741 23.5288 47.5558 23.8284 47.9648 24.3214C48.3395 24.773 48.6382 25.37 48.8525 26.0959C49.2813 27.5485 49.3311 29.3783 48.9927 31.2483C48.7171 32.7717 48.1828 34.2948 47.4883 35.5368C47.2926 35.8869 47.4064 36.2264 47.5782 36.4274C47.7875 36.6723 48.091 36.7528 48.3899 36.6424C51.5951 35.4598 55.112 31.1087 55.3165 25.3743C55.3537 24.3297 55.568 23.4001 55.9907 22.4489C56.3634 21.6103 56.8494 20.8641 57.3639 20.0741C57.7085 19.545 58.0648 18.998 58.4042 18.3954C59.7587 15.9907 60.0306 13.658 59.1699 11.8271C58.477 10.3531 57.088 9.3591 55.2586 9.02811C53.9636 8.79377 53.096 8.98407 52.1774 9.18556C51.5697 9.31884 50.9414 9.45667 50.1624 9.48496C49.6471 9.50366 49.1097 9.47096 48.5393 9.38551C49.0684 9.8026 49.6748 10.2052 50.4491 10.5633C50.6136 10.6394 50.6853 10.8345 50.6092 10.999C50.5331 11.1636 50.338 11.2353 50.1735 11.1592C48.815 10.5309 47.9223 9.75759 47.1479 9.05609C47.1445 9.05314 47.1412 9.05013 47.138 9.04705C47.0892 9.00289 47.041 8.95908 46.9932 8.91557C45.9739 7.98904 45.0937 7.18885 43.4077 6.88378C41.5784 6.55278 39.9291 6.99705 38.7637 8.13476C37.316 9.54801 36.7533 11.8281 37.1792 14.5549C37.2859 15.2382 37.428 15.8754 37.5653 16.4917C37.7704 17.4119 37.9641 18.2811 38.0193 19.1971C38.0819 20.2362 37.9568 21.1819 37.6257 22.1733C35.8078 27.6157 37.577 32.9233 40.1646 35.1542C40.4059 35.3622 40.7183 35.3932 41.0002 35.2372C41.2315 35.1091 41.4571 34.8311 41.3964 34.4346C41.1812 33.0279 41.2145 31.4142 41.4902 29.8908C41.8285 28.0208 42.5164 26.3245 43.427 25.1142C43.882 24.5095 44.3709 24.055 44.8801 23.7633C45.3061 23.5193 45.7321 23.3967 46.1514 23.3967Z" fill="#3267FF"/>
<path d="M38.0637 33.3161C37.9667 33.3161 37.8707 33.2733 37.8059 33.1913C37.3681 32.6372 36.9391 31.8504 36.4557 30.715C36.037 29.7314 35.6274 28.5989 35.2312 27.5038C34.6706 25.954 34.091 24.3515 33.4754 23.1393C33.1515 22.5016 32.8461 22.0237 32.5416 21.6782C32.2335 21.3286 31.9297 21.124 31.6386 21.0702C31.2119 20.9913 30.7068 21.1104 30.1372 21.4242C29.526 21.7609 29.0308 22.2198 28.79 22.4633C28.6625 22.5922 28.4547 22.5934 28.3258 22.466C28.1968 22.3385 28.1956 22.1306 28.3231 22.0017C28.7569 21.5629 30.2866 20.1525 31.758 20.4246C33.4842 20.7438 34.6327 23.9189 35.8486 27.2805C36.6275 29.4335 37.4328 31.6599 38.3211 32.7843C38.4335 32.9265 38.4093 33.133 38.267 33.2454C38.2068 33.293 38.135 33.3161 38.0637 33.3161Z" fill="#3267FF"/>
<path d="M49.6305 39.8C49.6114 39.8 49.5923 39.7998 49.5732 39.7994C48.4934 39.7783 47.775 39.1484 47.1977 38.6423C46.7963 38.2904 46.4497 37.9865 46.1066 37.9822C45.501 37.9749 45.0237 38.142 44.5623 38.3038C43.8865 38.5409 43.1877 38.786 42.2793 38.3487C41.8274 38.1311 41.3497 37.7577 40.8189 37.2071C40.2556 36.6229 39.6287 35.8371 38.9024 34.805C38.798 34.6567 38.8336 34.4519 38.9819 34.3476C39.1302 34.2432 39.335 34.2789 39.4393 34.4271C40.7649 36.3108 41.7578 37.369 42.5641 37.7571C43.2273 38.0763 43.6961 37.9119 44.345 37.6843C44.8362 37.512 45.3931 37.3166 46.1148 37.3257C46.7002 37.333 47.1521 37.7292 47.6305 38.1486C48.1789 38.6294 48.7459 39.1265 49.5861 39.143C50.0547 39.1519 50.563 39.0145 51.1399 38.7222C51.8191 38.3781 52.5906 37.8127 53.4328 37.0418C57.1405 33.6484 57.6906 28.1288 58.0193 24.8309C58.0582 24.4407 58.0949 24.0721 58.133 23.7535C58.2103 23.1061 58.5513 22.2868 59.0017 21.6662C59.2682 21.299 59.5636 21.0062 59.8798 20.7959C60.2554 20.546 60.6506 20.4193 61.0543 20.4193C61.5623 20.4193 62.0112 20.5528 62.4267 20.8275C62.7846 21.0641 63.0744 21.3707 63.3812 21.6953C63.4768 21.7964 63.5756 21.901 63.6766 22.0032C63.8041 22.1322 63.8028 22.34 63.6739 22.4675C63.5449 22.5949 63.337 22.5937 63.2096 22.4647C63.1035 22.3573 63.0021 22.25 62.904 22.1463C62.3388 21.5483 61.8923 21.0759 61.0543 21.0759C60.3471 21.0759 59.7976 21.6874 59.5331 22.0518C59.1436 22.5885 58.8499 23.287 58.7849 23.8314C58.7476 24.1436 58.7112 24.5091 58.6726 24.8961C58.5089 26.5386 58.2847 28.7882 57.619 31.0808C57.2532 32.3408 56.7867 33.4885 56.2326 34.4921C55.5827 35.669 54.7899 36.6899 53.8761 37.5262C52.9774 38.3488 52.1794 38.9316 51.4367 39.3079C50.7838 39.6387 50.1922 39.8 49.6305 39.8Z" fill="#3267FF"/>
<path d="M33.4515 18.9536C33.3627 18.9536 33.2741 18.9178 33.2094 18.8471C32.802 18.4027 32.5776 17.8259 32.5776 17.223C32.5776 16.6201 32.802 16.0433 33.2094 15.5989L33.2118 15.5963C33.8288 14.9232 33.8287 13.908 33.2113 13.235C32.8029 12.7898 32.5784 12.2128 32.5783 11.6097C32.5783 11.0066 32.8027 10.4296 33.2104 9.98507L33.2112 9.98413C33.3337 9.8505 33.5414 9.84146 33.675 9.96396C33.8087 10.0865 33.8177 10.2941 33.6952 10.4278L33.6943 10.4288C33.0769 11.102 33.077 12.1173 33.6945 12.7904C34.1028 13.2356 34.3274 13.8124 34.3275 14.4155C34.3276 15.0185 34.1032 15.5955 33.6957 16.04L33.6933 16.0426C33.0765 16.7155 33.0765 17.7305 33.6934 18.4035C33.8159 18.5371 33.8069 18.7448 33.6732 18.8673C33.6102 18.9251 33.5307 18.9536 33.4515 18.9536Z" fill="#3267FF"/>
<path d="M62.8959 19.3645C62.817 19.3645 62.7378 19.3362 62.6749 19.2789C62.5409 19.1568 62.5312 18.9491 62.6533 18.8151L62.6542 18.8141C63.2723 18.1402 63.2722 17.1249 62.6547 16.4518C62.6544 16.4514 62.6541 16.4511 62.6538 16.4507C62.2464 16.0066 62.0218 15.4297 62.0217 14.8267C62.0216 14.2236 62.246 13.6467 62.6535 13.2022L62.6554 13.2001C63.2727 12.5266 63.2727 11.5117 62.6558 10.8387C62.5333 10.705 62.5423 10.4974 62.676 10.3749C62.8096 10.2524 63.0173 10.2614 63.1398 10.395C63.5472 10.8395 63.7716 11.4162 63.7716 12.0191C63.7716 12.622 63.5472 13.1988 63.1398 13.6433L63.1379 13.6453C62.5204 14.319 62.5206 15.3342 63.1379 16.0072C63.1382 16.0075 63.1386 16.0079 63.1389 16.0083C63.5463 16.4524 63.7708 17.0294 63.7709 17.6325C63.7709 18.2356 63.5465 18.8126 63.1388 19.2571L63.1387 19.2573C63.0739 19.3284 62.985 19.3645 62.8959 19.3645Z" fill="#3267FF"/>
</svg>
