<svg width="67" height="44" viewBox="0 0 67 44" fill="none" xmlns="http://www.w3.org/2000/svg">
<ellipse cx="23" cy="22" rx="23" ry="22" fill="#D7E9FF"/>
<path d="M48.2784 7.12312C46.8797 6.80614 45.4929 7.12708 44.1655 7.58274C42.8818 8.02256 41.5782 8.60501 40.2033 8.64463C39.395 8.6684 38.6223 8.47029 37.917 8.07406C37.5842 7.88784 37.2831 8.39897 37.6159 8.58916C38.9155 9.31822 40.3419 9.36576 41.7644 9.0052C43.1274 8.65652 44.4072 8.03444 45.7821 7.73727C46.5548 7.56689 47.3472 7.52727 48.1238 7.70161C48.4963 7.78086 48.6548 7.20633 48.2784 7.12312Z" fill="#3267FF"/>
<path d="M36.1221 13.7837C36.134 13.3994 35.5397 13.4033 35.5278 13.7837C35.4208 16.803 37.2236 19.422 37.6198 22.3541C37.6397 22.5126 37.8457 22.5998 37.9844 22.5601C38.1547 22.5165 38.2142 22.3541 38.1904 22.1956C37.8061 19.323 36.0151 16.7435 36.1221 13.7837Z" fill="#3267FF"/>
<path d="M55.3826 17.639C55.3826 17.647 55.3232 17.7975 55.3074 17.8332C55.2875 17.9006 55.2638 17.9679 55.244 18.0353C55.1925 18.1938 55.1409 18.3483 55.0855 18.5068C54.9785 18.8198 54.8636 19.1328 54.7408 19.4419C54.503 20.056 54.2415 20.6583 53.9641 21.2526C53.8017 21.5973 54.3168 21.8985 54.4792 21.5538C54.7804 20.9119 55.0617 20.2621 55.3153 19.6004C55.4421 19.2675 55.5649 18.9347 55.6798 18.5979C55.7353 18.4394 55.7868 18.2849 55.8383 18.1264C55.8858 17.9758 55.977 17.7975 55.977 17.639C55.977 17.2587 55.3826 17.2587 55.3826 17.639Z" fill="#3267FF"/>
<path d="M58.073 17.4726C57.4113 17.219 57.2885 16.7475 57.1062 15.86C56.9477 15.0913 56.7536 14.1364 55.9493 13.1775C55.5927 12.7456 55.0736 12.4366 54.4911 12.2979C51.8959 11.6877 50.4932 11.0141 49.9385 10.1068C49.3759 9.18752 49.673 7.98299 50.0811 6.31884L50.1287 6.12865C50.1604 5.9979 50.101 5.85922 49.9821 5.79582C46.9153 4.14752 43.6187 2.81224 39.9734 6.08903C37.5049 5.08658 34.2638 4.34563 32.7978 6.91318C32.1479 8.05431 32.0489 9.45299 32.0964 10.7368C32.1559 12.3494 32.4689 13.9581 32.873 15.5192C33.1781 16.696 33.5585 17.8411 34.0498 18.9545C34.3193 19.5647 34.6521 20.1551 34.87 20.789C35.0681 21.3675 35.183 21.9737 35.2345 22.5839C35.397 24.5492 35.0127 26.4947 34.8383 28.4481V28.4679C34.7908 28.983 34.7591 29.4981 34.7551 30.0132C34.7511 30.9205 34.9017 31.8002 35.0681 32.6877C35.2464 33.6268 35.4564 34.5619 35.7298 35.4811C36.0349 36.5113 36.4113 37.5296 36.9145 38.4805C37.1642 38.956 37.4534 39.4077 37.7823 39.8317C38.0715 40.2041 38.4004 40.6598 38.8877 40.7707C39.3791 40.8817 39.8625 40.636 40.1359 40.2279C40.3815 39.8594 40.4251 39.376 40.4766 38.9441C40.5915 38.0249 40.6034 37.0977 40.6311 36.1745C40.6945 34.3083 40.7659 32.2202 41.8753 30.6273C42.0536 30.3737 42.2636 30.14 42.4974 29.93C42.4459 31.3009 42.5647 33.1592 42.8262 35.0492C43.1472 38.1002 44.213 40.8817 45.3621 41.6662C45.6077 41.8326 45.8613 41.9158 46.107 41.9158C46.2021 41.9158 46.2932 41.9039 46.3844 41.8802C48.1476 41.4443 48.5953 37.4068 48.7023 35.0373C48.8172 32.5332 49.3045 30.7581 49.8632 29.5179C50.0296 29.8309 50.1683 30.1241 50.2317 30.2945C50.9449 32.24 51.0004 34.3519 51.0519 36.3924L51.1232 39.273C51.1311 39.6217 51.143 40.2081 51.773 40.5053C51.9474 40.5845 52.1376 40.6241 52.3357 40.6241C52.4387 40.6241 52.5417 40.6122 52.6447 40.5924C53.2747 40.4458 53.6749 39.9981 54.0117 39.5385C55.5689 37.4305 56.4287 34.7124 56.6387 31.2336C56.7259 29.7081 56.6981 28.1588 56.6664 26.6611C56.6387 25.3417 56.611 23.9787 56.6664 22.6434C56.6942 22.0728 56.7576 21.3398 57.0508 20.7098L57.1221 20.5513C57.4311 19.8856 57.7521 19.1962 58.0136 18.487L58.0849 18.2849C58.1364 18.1383 58.1919 17.9917 58.2434 17.8411C58.3028 17.6945 58.2236 17.532 58.073 17.4726ZM57.5342 18.0907L57.4628 18.2888C57.2093 18.9743 56.8962 19.6519 56.5911 20.3056L56.5198 20.4641C56.183 21.1892 56.1077 21.9975 56.08 22.6196C56.0245 23.9707 56.0523 25.3456 56.08 26.673C56.0959 27.4139 56.1117 28.1668 56.1117 28.9196L55.9057 28.3728C55.87 28.2777 55.7908 28.2064 55.6917 28.1826C55.5927 28.1588 55.4896 28.1905 55.4183 28.2619L54.61 29.0622L54.1504 28.0677C54.083 27.9171 53.9047 27.8537 53.7542 27.9211C53.6036 27.9885 53.5402 28.1668 53.6076 28.3173L54.2455 29.6962C54.2851 29.7834 54.3683 29.8468 54.4634 29.8626C54.5585 29.8824 54.6576 29.8507 54.7249 29.7834L55.5055 29.0147L56.0285 30.4688C56.0404 30.5005 56.0562 30.5283 56.0721 30.552C56.0642 30.77 56.0602 30.9919 56.0444 31.2058C55.8383 34.5658 55.0181 37.1809 53.5283 39.1937C53.2153 39.6177 52.9221 39.9228 52.51 40.0179C52.3396 40.0536 52.1574 40.0377 52.0147 39.9704C51.7532 39.8475 51.7176 39.6534 51.7096 39.2651L51.6383 36.3845C51.5828 34.2924 51.5234 32.133 50.7825 30.1003C50.6755 29.8071 50.4259 29.3079 50.1762 28.8839C50.3783 28.5154 50.5844 28.2064 50.7785 27.9568C50.8776 27.826 50.8538 27.6398 50.723 27.5407C50.5923 27.4417 50.406 27.4654 50.307 27.5962C49.3996 28.773 48.2823 31.0196 48.1 35.0254C47.9336 38.6628 47.2204 41.0758 46.2259 41.3215C46.0594 41.369 45.8811 41.3254 45.687 41.1907C44.6845 40.5053 43.7059 37.8426 43.4047 34.9898C43.1076 32.8422 43.0006 30.7502 43.1155 29.399C43.2027 28.3887 43.0442 27.6953 43.0362 27.6675C43.0006 27.509 42.8421 27.41 42.6796 27.4456C42.5211 27.4813 42.4221 27.6437 42.4578 27.8022C42.4578 27.8062 42.5766 28.349 42.537 29.1494C42.5291 29.1534 42.5251 29.1534 42.5172 29.1573C40.9362 30.3222 40.3736 32.1924 40.1636 34.0666C40.0606 35.0175 40.0368 35.9724 40.0051 36.9234C39.9774 37.7634 39.9576 38.6232 39.7872 39.4513C39.7159 39.8079 39.5098 40.2636 39.0621 40.2121C38.8442 40.1843 38.6976 40.0179 38.5589 39.8673C38.3885 39.6771 38.2261 39.479 38.0794 39.273C37.4732 38.429 37.0294 37.4741 36.6728 36.4994C36.0706 34.8471 35.7021 33.1117 35.4247 31.3762C35.2781 30.4649 35.3217 29.5179 35.4089 28.5947L36.5025 26.6492L37.2553 27.2753C37.3306 27.3387 37.4296 27.3585 37.5208 27.3347C37.6159 27.3109 37.6872 27.2396 37.7228 27.1524L38.5747 24.8543C38.6302 24.6998 38.5549 24.5294 38.4004 24.4739C38.2459 24.4145 38.0755 24.4937 38.02 24.6483L37.3147 26.5541L36.6094 25.9677C36.5421 25.9122 36.451 25.8885 36.3638 25.9043C36.2766 25.9202 36.2013 25.9756 36.1578 26.0509L35.5634 27.1009C35.6704 26.1777 35.7853 25.2505 35.8328 24.3234C35.8923 23.1387 35.8368 21.9262 35.4762 20.789C35.29 20.1987 35.0008 19.6558 34.7432 19.0971C34.4421 18.4394 34.1608 17.7698 33.931 17.0804C33.3961 15.4994 33.0078 13.8234 32.7978 12.1632C32.6313 10.8437 32.56 9.43714 32.9245 8.14148C33.2138 7.11525 33.8438 6.25941 34.8779 5.94242C36.4074 5.47092 38.1508 6.03356 39.5772 6.58827C40.1279 6.80224 40.6708 7.0479 41.2017 7.30941C41.5425 7.47582 41.8476 6.96469 41.5028 6.79431C41.2176 6.65563 40.9045 6.50903 40.5717 6.36242C43.4681 3.89393 46.0674 4.41695 49.4828 6.22375C49.0589 7.94337 48.73 9.30639 49.4194 10.4317C50.0732 11.4975 51.5472 12.2345 54.3445 12.8883C54.8002 12.9953 55.2044 13.237 55.4817 13.5698C56.187 14.4137 56.3613 15.2537 56.5119 15.9907C56.6704 16.7673 56.821 17.5003 57.5857 17.9164C57.5778 17.9679 57.554 18.0273 57.5342 18.0907Z" fill="#3267FF"/>
<path d="M39.7198 13.1815C39.6089 13.0705 39.4068 13.0705 39.2998 13.1815C39.2721 13.2092 39.2483 13.2409 39.2325 13.2766C39.2206 13.3122 39.2126 13.3519 39.2126 13.3915C39.2126 13.4707 39.2443 13.546 39.2998 13.6015C39.3553 13.6569 39.4306 13.6886 39.5098 13.6886C39.5494 13.6886 39.5851 13.6807 39.6208 13.6649C39.6564 13.653 39.6921 13.6292 39.7198 13.6015C39.7753 13.546 39.807 13.4707 39.807 13.3915C39.807 13.3519 39.7991 13.3122 39.7832 13.2766C39.7674 13.2409 39.7476 13.2092 39.7198 13.1815Z" fill="#3267FF"/>
<path d="M47.2361 19.9609C47.2084 19.9886 47.1885 20.0203 47.1727 20.056C47.1568 20.0916 47.1489 20.1313 47.1489 20.1709C47.1489 20.2462 47.1806 20.3254 47.2361 20.3809C47.2916 20.4364 47.3708 20.4681 47.4461 20.4681C47.5253 20.4681 47.6006 20.4364 47.6561 20.3809C47.6838 20.3532 47.7076 20.3175 47.7235 20.2818C47.7353 20.2462 47.7433 20.2066 47.7433 20.1709C47.7433 20.0916 47.7116 20.0164 47.6561 19.9609C47.5491 19.8499 47.347 19.8499 47.2361 19.9609Z" fill="#3267FF"/>
<path d="M44.8272 23.5507C44.7717 23.6062 44.74 23.6815 44.74 23.7607C44.74 23.84 44.7717 23.9153 44.8272 23.9707C44.8826 24.0262 44.9619 24.0579 45.0372 24.0579C45.1164 24.0579 45.1917 24.0262 45.2472 23.9707C45.3026 23.9153 45.3343 23.84 45.3343 23.7607C45.3343 23.6815 45.3026 23.6062 45.2472 23.5507C45.1362 23.4398 44.9381 23.4398 44.8272 23.5507Z" fill="#3267FF"/>
<path d="M60.0264 29.5496C59.9709 29.6051 59.9392 29.6844 59.9392 29.7596C59.9392 29.8389 59.9709 29.9181 60.0264 29.9736C60.0819 30.0251 60.1571 30.0568 60.2364 30.0568C60.3156 30.0568 60.3909 30.0251 60.4464 29.9736C60.5018 29.9181 60.5335 29.8389 60.5335 29.7596C60.5335 29.6844 60.5018 29.6051 60.4464 29.5496C60.3354 29.4387 60.1373 29.4387 60.0264 29.5496Z" fill="#3267FF"/>
<path d="M31.704 31.1939C31.6327 31.1662 31.5495 31.1662 31.4782 31.1939C31.4425 31.2097 31.4108 31.2296 31.3831 31.2573C31.3276 31.3128 31.2959 31.392 31.2959 31.4713C31.2959 31.5465 31.3276 31.6258 31.3831 31.6813C31.4108 31.705 31.4425 31.7288 31.4782 31.7447C31.5138 31.7565 31.5534 31.7645 31.5931 31.7645C31.6684 31.7645 31.7476 31.7328 31.8031 31.6813C31.8585 31.6258 31.8902 31.5465 31.8902 31.4713C31.8902 31.392 31.8585 31.3128 31.8031 31.2573C31.7753 31.2296 31.7436 31.2097 31.704 31.1939Z" fill="#3267FF"/>
<path d="M30.25 17.4528C30.139 17.4092 30.0083 17.433 29.9251 17.5162C29.8696 17.5717 29.8379 17.6509 29.8379 17.7262C29.8379 17.7658 29.8458 17.8055 29.8617 17.8411C29.8775 17.8768 29.8973 17.9085 29.9251 17.9362C29.9805 17.9917 30.0558 18.0234 30.1351 18.0234C30.1747 18.0234 30.2143 18.0155 30.25 18.0036C30.2856 17.9877 30.3173 17.964 30.3451 17.9362C30.3728 17.9085 30.3966 17.8768 30.4124 17.8411C30.4243 17.8055 30.4322 17.7658 30.4322 17.7262C30.4322 17.6509 30.4005 17.5717 30.3451 17.5162C30.3173 17.4885 30.2856 17.4687 30.25 17.4528Z" fill="#3267FF"/>
<path d="M54.8437 10.919C56.1473 10.919 57.5698 10.5506 58.1364 10.0394C58.4969 9.71452 58.5484 9.31433 58.279 8.96961C58.1047 8.74772 58.0611 8.43471 58.1641 8.1098C58.4018 7.35697 58.1324 6.64376 57.4113 6.09301C56.3454 5.28074 54.5981 5.05093 53.7462 5.60565C53.3024 5.89489 53.1281 6.3664 53.2628 6.92905C53.3222 7.18263 53.2628 7.44018 53.1043 7.63037C51.9037 9.05678 52.1771 9.86508 52.6209 10.293C53.0766 10.7368 53.9284 10.919 54.8437 10.919ZM53.556 8.01471C53.8413 7.67791 53.9443 7.23018 53.8413 6.79037C53.7422 6.37037 53.9245 6.19603 54.0711 6.10093C54.285 5.96225 54.602 5.89489 54.9626 5.89489C55.652 5.89489 56.496 6.14055 57.0507 6.56055C57.4113 6.83395 57.7956 7.29357 57.5975 7.92754C57.435 8.44263 57.5143 8.95376 57.8115 9.33414C57.859 9.39357 57.9026 9.44905 57.7401 9.59565C56.9715 10.289 53.9047 10.7051 53.033 9.86508C52.5615 9.41338 53.0567 8.60905 53.556 8.01471Z" fill="#3267FF"/>
<path d="M61.6312 12.9161C61.5599 12.8329 61.5361 12.7219 61.5638 12.611C61.655 12.2306 61.5321 11.8978 61.2271 11.6997C60.6367 11.3153 59.5272 11.5372 58.9329 11.9889C58.4693 12.3415 58.291 12.821 58.4455 13.3083C58.4931 13.4589 58.4772 13.6055 58.398 13.7046C58.1999 13.9581 58.2395 14.2672 58.4971 14.501C58.8537 14.8219 59.7135 15.0517 60.5099 15.0517C61.0805 15.0517 61.6154 14.9329 61.9125 14.6515C62.1503 14.4138 62.4395 13.8749 61.6312 12.9161ZM61.552 14.1444C61.4727 14.3227 61.1003 14.4455 60.605 14.4574C59.7888 14.4812 59.032 14.2157 58.8814 14.0532C59.0676 13.7997 59.1191 13.4668 59.0121 13.134C58.9369 12.8883 59.028 12.6625 59.2935 12.4644C59.7888 12.088 60.605 12.0047 60.9061 12.1989C60.9695 12.2385 61.0289 12.298 60.9893 12.4723C60.918 12.7695 60.9893 13.0706 61.1835 13.3004C61.4886 13.6729 61.6272 13.978 61.552 14.1444Z" fill="#3267FF"/>
</svg>
