<svg width="67" height="44" viewBox="0 0 67 44" fill="none" xmlns="http://www.w3.org/2000/svg">
<ellipse cx="23" cy="22" rx="23" ry="22" fill="#D7E9FF"/>
<g clip-path="url(#clip0_123_4809)">
<path fill-rule="evenodd" clip-rule="evenodd" d="M37.9912 30.7628C37.376 30.7628 36.2934 30.1723 35.2847 29.8524C25.4428 26.6292 26.0333 17.5009 36.0474 13.9825C39.5659 3.94379 48.7188 3.42709 51.9173 13.2197C52.8031 15.9508 53.6397 15.754 51.4745 17.9192L39.9841 29.4095C39.0246 30.3691 38.5817 30.7628 37.9912 30.7628ZM44.413 7.14238C41.3128 7.14238 38.434 9.97191 36.9086 14.5238C36.8593 14.6714 36.7363 14.7944 36.5887 14.8436C27.1159 18.0914 26.7223 26.0387 35.6045 28.9174C38.2618 29.7786 37.6467 30.3691 39.2952 28.7206L50.7855 17.2303C52.4094 15.5818 51.8435 16.1969 50.9824 13.5396C49.6783 9.52903 47.2179 7.14238 44.413 7.14238Z" fill="#3267FF"/>
<path fill-rule="evenodd" clip-rule="evenodd" d="M34.0052 25.7189C33.0702 25.7189 30.8558 21.7329 33.6608 18.928C34.1036 18.4851 34.8172 19.174 34.3497 19.6415C32.898 21.0686 32.898 23.4306 34.3497 24.8823C34.6449 25.1776 34.4481 25.7189 34.0052 25.7189Z" fill="#3267FF"/>
<path fill-rule="evenodd" clip-rule="evenodd" d="M41.3376 12.4324C40.9193 12.4324 40.6979 11.8911 40.9931 11.5958C42.8139 9.75046 45.791 9.75046 47.6364 11.5958C48.0792 12.0387 47.3903 12.7522 46.9474 12.2847C45.4712 10.8331 43.1091 10.8577 41.7067 12.2847C41.6082 12.3831 41.4852 12.4324 41.3376 12.4324Z" fill="#3267FF"/>
<path fill-rule="evenodd" clip-rule="evenodd" d="M43.0597 30.566C42.5922 30.566 42.1247 30.3937 41.7556 30.0247L40.2301 28.4746C40.0333 28.3023 40.0333 27.9825 40.2301 27.7856L49.8505 18.1406C50.0474 17.9684 50.3672 17.9684 50.5395 18.1406L52.0895 19.6907C52.8031 20.4043 52.8031 21.5853 52.0895 22.2988L44.3637 30.0247C44.0193 30.3937 43.5518 30.566 43.0597 30.566ZM41.2635 28.1301C42.0509 28.9174 42.8874 30.1231 43.6748 29.3357L51.4006 21.6099C52.188 20.8225 51.0069 19.986 50.195 19.1986L41.2635 28.1301Z" fill="#3267FF"/>
<path fill-rule="evenodd" clip-rule="evenodd" d="M56.7643 40.7277C56.1984 40.7277 55.6078 40.5062 55.1404 40.088L43.9945 29.754C43.7977 29.5572 43.773 29.2373 43.9699 29.0405L51.1052 21.9052C51.302 21.7084 51.6219 21.733 51.8187 21.9298L62.1527 33.0757C63.0138 34.0106 63.0138 35.4377 62.1281 36.2989L58.3636 40.0634C57.9207 40.5062 57.3548 40.7277 56.7643 40.7277ZM45.0279 29.3604L55.8047 39.3744C56.346 39.8665 57.1825 39.8665 57.6746 39.3744L61.4391 35.6099C61.9312 35.1178 61.9312 34.3059 61.4145 33.74L51.4251 22.9632L45.0279 29.3604Z" fill="#3267FF"/>
<path fill-rule="evenodd" clip-rule="evenodd" d="M46.1598 31.5747C45.7169 31.5747 45.4954 31.0334 45.7907 30.7381L52.803 23.7258C53.2459 23.283 53.9594 23.9719 53.4919 24.4394L46.5042 31.4271C46.4058 31.5255 46.2828 31.5747 46.1598 31.5747Z" fill="#3267FF"/>
<path fill-rule="evenodd" clip-rule="evenodd" d="M48.3496 33.6169C47.9067 33.6169 47.7099 33.0756 48.0051 32.7803L54.8452 25.9402C55.2881 25.4974 56.0016 26.1863 55.5341 26.6292L48.6941 33.4692C48.5956 33.5677 48.4726 33.6169 48.3496 33.6169Z" fill="#3267FF"/>
<path fill-rule="evenodd" clip-rule="evenodd" d="M50.5641 35.659C50.1213 35.659 49.8998 35.1177 50.2197 34.8225L56.8875 28.1547C57.3304 27.6872 58.0439 28.3761 57.5765 28.8436L50.9086 35.5114C50.8102 35.6098 50.6872 35.659 50.5641 35.659Z" fill="#3267FF"/>
<path fill-rule="evenodd" clip-rule="evenodd" d="M52.7784 37.7013C52.3355 37.7013 52.1141 37.16 52.4093 36.8647L58.9296 30.3445C59.3724 29.9016 60.086 30.5905 59.6185 31.058L53.1229 37.5536C53.0245 37.6521 52.9014 37.7013 52.7784 37.7013Z" fill="#3267FF"/>
<path fill-rule="evenodd" clip-rule="evenodd" d="M54.9683 39.7434C54.5254 39.7434 54.3285 39.2267 54.6238 38.9069L60.9718 32.5589C61.4147 32.116 62.1282 32.8049 61.6607 33.2478L55.3127 39.5958C55.2143 39.6942 55.0913 39.7434 54.9683 39.7434Z" fill="#3267FF"/>
<path fill-rule="evenodd" clip-rule="evenodd" d="M41.2635 18.2391C40.8944 18.2391 40.1809 17.3533 39.738 16.9105C39.2951 16.4676 39.984 15.754 40.4269 16.2215L41.6079 17.3779C41.9032 17.6978 41.6817 18.2391 41.2635 18.2391Z" fill="#3267FF"/>
<path fill-rule="evenodd" clip-rule="evenodd" d="M44.29 21.2654C43.921 21.2654 43.2074 20.3796 42.7645 19.9613C42.3217 19.4939 43.0106 18.8049 43.4781 19.2478L44.6345 20.4288C44.9297 20.7241 44.7329 21.2654 44.29 21.2654Z" fill="#3267FF"/>
<path fill-rule="evenodd" clip-rule="evenodd" d="M43.1091 18.2391C42.6908 18.2391 42.4693 17.6978 42.7646 17.3779L43.9456 16.2215C44.3885 15.7786 45.102 16.4675 44.6346 16.9104C44.2163 17.3533 43.4781 18.2391 43.1091 18.2391Z" fill="#3267FF"/>
<path fill-rule="evenodd" clip-rule="evenodd" d="M40.0825 21.2654C39.6396 21.2654 39.4428 20.7241 39.738 20.4288L40.8945 19.2478C41.3619 18.8049 42.0509 19.4939 41.608 19.9613C41.1897 20.3796 40.4516 21.2654 40.0825 21.2654Z" fill="#3267FF"/>
<path fill-rule="evenodd" clip-rule="evenodd" d="M58.5607 20.9209C57.6995 20.9209 58.29 19.7645 58.3884 19.4939C59.0035 17.7715 58.8067 17.8454 58.0932 15.877C57.9701 15.5079 58.3392 15.1142 58.7329 15.2619C61.2179 16.123 60.5782 16.1476 63.1125 15.2619C63.5062 15.1142 63.8752 15.4833 63.7522 15.877C62.8665 18.4359 62.8665 17.7469 63.7522 20.2812C63.8752 20.6749 63.5062 21.044 63.1125 20.8963C60.5782 20.0106 61.2672 20.0106 58.7329 20.8963C58.6837 20.9209 58.6345 20.9209 58.5607 20.9209ZM59.3726 16.5413C59.8893 17.9684 59.8893 18.1898 59.3726 19.6169C60.7997 19.1248 61.0457 19.1248 62.4728 19.6169C61.9561 18.1898 61.9561 17.9684 62.4728 16.5413C61.0457 17.0334 60.7997 17.0334 59.3726 16.5413Z" fill="#3267FF"/>
<path fill-rule="evenodd" clip-rule="evenodd" d="M38.1878 38.5624L37.2528 38.2672C35.5059 37.6274 35.5797 37.8489 33.636 38.5378C33.2423 38.6608 32.8732 38.2918 32.9962 37.9227C33.882 35.413 33.9066 36.0527 32.9962 33.5185C32.8732 33.1494 33.2423 32.7557 33.636 32.9034C36.1702 33.7891 35.4813 33.7891 38.0156 32.9034C38.4092 32.7557 38.7783 33.1248 38.6553 33.5185C37.7695 36.0281 37.7449 35.3884 38.6553 37.9227C38.7537 38.2179 38.5323 38.5624 38.1878 38.5624ZM34.2757 34.1828C34.7924 35.5853 34.7924 35.8313 34.2757 37.2584C35.7027 36.7417 35.9488 36.7417 37.3759 37.2584C36.8592 35.8313 36.8592 35.6099 37.3759 34.1828C35.9488 34.6749 35.7027 34.6749 34.2757 34.1828Z" fill="#3267FF"/>
<path fill-rule="evenodd" clip-rule="evenodd" d="M34.9893 4.16525C34.6203 4.16525 33.9067 3.27948 33.4638 2.8366C32.9963 2.39372 33.7099 1.68019 34.1528 2.14767L35.3338 3.30409C35.629 3.62395 35.4076 4.16525 34.9893 4.16525Z" fill="#3267FF"/>
<path fill-rule="evenodd" clip-rule="evenodd" d="M38.0156 7.19166C37.6465 7.19166 36.933 6.3059 36.4901 5.88762C36.0472 5.42013 36.7362 4.7312 37.2037 5.17409L38.3601 6.35511C38.6799 6.65036 38.4339 7.19166 38.0156 7.19166Z" fill="#3267FF"/>
<path fill-rule="evenodd" clip-rule="evenodd" d="M36.8347 4.16521C36.4164 4.16521 36.1949 3.62391 36.4902 3.30405L37.6712 2.14764C38.1141 1.70476 38.8276 2.39369 38.3601 2.83657C37.9419 3.27945 37.2037 4.16521 36.8347 4.16521Z" fill="#3267FF"/>
<path fill-rule="evenodd" clip-rule="evenodd" d="M33.8086 7.19166C33.3657 7.19166 33.1689 6.65036 33.4641 6.35511L34.6205 5.17409C35.088 4.7312 35.777 5.42013 35.3341 5.88762C34.9158 6.3059 34.1777 7.19166 33.8086 7.19166Z" fill="#3267FF"/>
<path fill-rule="evenodd" clip-rule="evenodd" d="M45.668 40.9491C45.2989 40.9491 44.5854 40.088 44.1425 39.6451C43.6996 39.1776 44.3885 38.4887 44.856 38.9562L46.0124 40.1126C46.3077 40.4078 46.1108 40.9491 45.668 40.9491Z" fill="#3267FF"/>
<path fill-rule="evenodd" clip-rule="evenodd" d="M48.6943 43.9755C48.3253 43.9755 47.6117 43.1143 47.1935 42.6714C46.726 42.2286 47.4149 41.515 47.8824 41.9825L49.0388 43.1389C49.3587 43.4588 49.1372 43.9755 48.6943 43.9755Z" fill="#3267FF"/>
<path fill-rule="evenodd" clip-rule="evenodd" d="M47.5378 40.9491C47.0949 40.9491 46.8735 40.4324 47.1933 40.1126L48.3497 38.9562C48.7926 38.4887 49.5061 39.1776 49.0387 39.6451C48.6204 40.0634 47.8822 40.9491 47.5378 40.9491Z" fill="#3267FF"/>
<path fill-rule="evenodd" clip-rule="evenodd" d="M44.487 43.9755C44.0687 43.9755 43.8473 43.4588 44.1425 43.1389L45.3236 41.9825C45.7664 41.515 46.48 42.204 46.0125 42.6715C45.5942 43.1143 44.8561 43.9755 44.487 43.9755Z" fill="#3267FF"/>
</g>
<defs>
<clipPath id="clip0_123_4809">
<rect width="42" height="42" fill="white" transform="translate(25 2)"/>
</clipPath>
</defs>
</svg>
