<svg width="67" height="44" viewBox="0 0 67 44" fill="none" xmlns="http://www.w3.org/2000/svg">
<ellipse cx="23" cy="22" rx="23" ry="22" fill="#D7E9FF"/>
<path d="M62.9575 17.3891L58.0225 16.5491C58.6541 15.8256 59.1349 14.9834 59.4369 14.0718C59.7389 13.1602 59.856 12.1974 59.7812 11.24C59.5881 9.40483 58.7153 7.70835 57.3345 6.4842C55.9536 5.26005 54.1648 4.59684 52.3197 4.62501H51.7684C50.0418 4.6241 48.331 4.95378 46.7284 5.59626C46.2607 5.78255 45.7393 5.78255 45.2716 5.59626C43.669 4.95378 41.9582 4.6241 40.2316 4.62501H39.6803C37.8352 4.59684 36.0464 5.26005 34.6655 6.4842C33.2847 7.70835 32.4119 9.40483 32.2188 11.24C32.1405 12.1957 32.2533 13.1573 32.5508 14.0689C32.8483 14.9804 33.3243 15.8235 33.9513 16.5491L29.0425 17.3891C28.2787 17.5192 27.5857 17.9155 27.086 18.5076C26.5863 19.0997 26.3123 19.8496 26.3125 20.6244V39.4063C26.3125 39.9284 26.5199 40.4292 26.8891 40.7984C27.2583 41.1676 27.7591 41.375 28.2812 41.375H63.7188C64.2409 41.375 64.7417 41.1676 65.1109 40.7984C65.4801 40.4292 65.6875 39.9284 65.6875 39.4063V20.6244C65.6877 19.8496 65.4137 19.0997 64.914 18.5076C64.4143 17.9155 63.7213 17.5192 62.9575 17.3891ZM64.1519 19.7188H61.3694C60.5877 19.7186 59.8317 19.9974 59.2373 20.5051C58.643 21.0128 58.2494 21.716 58.1275 22.4881L56.6378 31.9447C56.4709 32.9686 55.9885 33.9148 55.2579 34.6513C54.5273 35.3877 53.585 35.8777 52.5625 36.0528C52.5625 35.6 52.5166 35.1669 52.4641 34.7403C53.2423 34.5911 53.9492 34.1881 54.474 33.5944C54.9989 33.0007 55.3121 32.2498 55.3647 31.4591L57.2022 17.75L62.7344 18.695C63.0335 18.7449 63.3171 18.8633 63.563 19.0409C63.8089 19.2185 64.0104 19.4505 64.1519 19.7188ZM50.7775 32.975C50.7775 33.0931 50.8234 33.1916 50.8497 33.3031C50.5312 33.1462 50.2535 32.9175 50.0383 32.6351C49.8231 32.3527 49.6763 32.0243 49.6094 31.6756L49.3534 30.5009C49.3626 30.529 49.3758 30.5556 49.3928 30.5797L50.3838 32.0694C50.5647 32.3471 50.6978 32.6533 50.7775 32.975ZM50.0753 18.8788L49.9834 18.5113L51.8144 15.4597L50.6856 14.8034L49.5306 16.7263L49.3141 15.8403L50.3838 13.1563H51.9062V11.8438H49.9375C49.8061 11.8436 49.6776 11.883 49.5688 11.9567C49.46 12.0304 49.3758 12.1351 49.3272 12.2572L48.2969 14.8363L47.9688 14.285V11.8438H46.6562V14.4688C46.6563 14.5865 46.688 14.7021 46.7481 14.8034L48.3888 17.54L48.5331 18.1241L47.5225 17.7828L47.1025 19.0625L48.8744 19.6531C49.15 21.7269 49.4584 28.9784 49.2878 30.1531C49.2878 30.1531 49.2878 30.2056 49.2878 30.2253L47.4109 21.5234C47.341 21.2012 47.1629 20.9126 46.9062 20.7056C46.6496 20.4986 46.3297 20.3857 46 20.3857C45.6703 20.3857 45.3504 20.4986 45.0938 20.7056C44.8371 20.9126 44.659 21.2012 44.5891 21.5234L42.7188 30.2188C42.7188 30.2188 42.7188 30.1728 42.7188 30.1466C42.5481 28.9653 42.8566 21.7138 43.1322 19.6466L44.9041 19.0559L44.4841 17.8091L43.4734 18.1503L43.6178 17.5663L45.2584 14.8297C45.321 14.7201 45.3506 14.5948 45.3438 14.4688V11.8438H44.0312V14.285L43.7031 14.8363L42.6728 12.2572C42.6242 12.1351 42.54 12.0304 42.4312 11.9567C42.3224 11.883 42.1939 11.8436 42.0625 11.8438H40.0938V13.1563H41.6163L42.7188 15.8272L42.5022 16.7131L41.3472 14.7903L40.2184 15.4466L42.0494 18.4981L41.9575 18.8656C41.6687 20.0206 41.3537 26.2353 41.3866 29.09C41.1669 28.8124 41.0406 28.4724 41.0256 28.1188L39.7656 17.6188C39.7483 17.46 39.6736 17.313 39.5556 17.2053C39.0615 16.7581 38.6758 16.2042 38.4279 15.5856C38.18 14.967 38.0764 14.3 38.125 13.6353C38.1685 12.6509 38.5795 11.7185 39.2769 11.0223C39.9743 10.3261 40.9073 9.91675 41.8919 9.87501H42.2528C43.2346 9.87497 44.2053 10.083 45.1009 10.4853C45.3829 10.615 45.6896 10.6821 46 10.6821C46.3104 10.6821 46.6171 10.615 46.8991 10.4853C47.7947 10.083 48.7654 9.87497 49.7472 9.87501H50.1081C51.0926 9.91675 52.0257 10.3261 52.7231 11.0223C53.4205 11.7185 53.8315 12.6509 53.875 13.6353C53.9334 14.3006 53.839 14.9705 53.599 15.5938C53.359 16.217 52.9798 16.7772 52.4903 17.2316C52.3723 17.3392 52.2977 17.4862 52.2803 17.645L51.0138 28.145C50.9987 28.4876 50.8746 28.8164 50.6594 29.0834C50.6791 26.2813 50.3641 20.0338 50.0753 18.8788ZM41.6163 32.0694L42.6072 30.5797C42.6229 30.5548 42.6361 30.5284 42.6466 30.5009L42.3906 31.6756C42.3237 32.0243 42.1769 32.3527 41.9617 32.6351C41.7465 32.9175 41.4688 33.1462 41.1503 33.3031C41.1503 33.1916 41.1962 33.0931 41.2225 32.975C41.3022 32.6533 41.4353 32.3471 41.6163 32.0694ZM40.8747 34.7534C41.0547 34.7191 41.2322 34.673 41.4062 34.6156C41.9758 34.3986 42.4807 34.0401 42.8733 33.574C43.266 33.1078 43.5335 32.5494 43.6506 31.9513L45.8687 21.7925C45.8777 21.7647 45.8952 21.7404 45.9188 21.7232C45.9423 21.706 45.9708 21.6967 46 21.6967C46.0292 21.6967 46.0577 21.706 46.0812 21.7232C46.1048 21.7404 46.1223 21.7647 46.1313 21.7925L48.3297 31.9513C48.4487 32.5515 48.7191 33.1114 49.1154 33.5777C49.5117 34.044 50.0206 34.4013 50.5938 34.6156C50.7742 34.6739 50.9584 34.7199 51.145 34.7534C51.2052 35.2084 51.2403 35.6662 51.25 36.125C50.3311 36.0134 49.458 35.6609 48.7192 35.1031C47.9805 34.5453 47.4023 33.802 47.0434 32.9488L46.6234 31.9644C46.5772 31.8365 46.4924 31.7261 46.3807 31.6485C46.269 31.5709 46.136 31.53 46 31.5313C45.8719 31.5308 45.7465 31.5679 45.6392 31.6378C45.5319 31.7078 45.4475 31.8076 45.3962 31.925L44.8909 33.1063C44.5066 34.003 43.8678 34.7674 43.0534 35.3047C42.3671 35.768 41.5747 36.0502 40.75 36.125C40.7663 35.6659 40.8079 35.208 40.8747 34.7534ZM33.5312 11.345C33.6964 9.83885 34.4189 8.44891 35.5567 7.44831C36.6945 6.44772 38.1654 5.90882 39.6803 5.93751H40.2316C41.7892 5.93639 43.3328 6.23263 44.7794 6.81032C45.5628 7.1243 46.4372 7.1243 47.2206 6.81032C48.6672 6.23263 50.2108 5.93639 51.7684 5.93751H52.3197C53.8346 5.90882 55.3055 6.44772 56.4433 7.44831C57.5811 8.44891 58.3036 9.83885 58.4688 11.345C58.5427 12.3123 58.3772 13.283 57.9869 14.1712C57.5966 15.0594 56.9935 15.8377 56.2309 16.4375C56.1003 16.5441 56.0157 16.6968 55.9947 16.8641L54.0259 31.3016C53.9927 31.8017 53.7972 32.2774 53.4692 32.6564C53.1411 33.0354 52.6984 33.297 52.2081 33.4016C52.1556 33.1456 52.0966 32.8831 52.0244 32.6075C51.9095 32.1398 51.7141 31.6957 51.4469 31.295L50.9153 30.4944C51.3122 30.2618 51.6452 29.9344 51.8845 29.5416C52.1239 29.1488 52.2621 28.7028 52.2869 28.2434L53.5141 17.9928C54.0935 17.4129 54.5424 16.716 54.831 15.9488C55.1196 15.1815 55.2411 14.3614 55.1875 13.5434C55.1206 12.2272 54.5611 10.9843 53.6201 10.0615C52.6791 9.13873 51.4254 8.60364 50.1081 8.56251H49.7472C48.5817 8.56247 47.4295 8.81079 46.3675 9.29094C46.2519 9.34272 46.1267 9.36948 46 9.36948C45.8733 9.36948 45.7481 9.34272 45.6325 9.29094C44.5705 8.81079 43.4183 8.56247 42.2528 8.56251H41.8919C40.5746 8.60364 39.3209 9.13873 38.3799 10.0615C37.4389 10.9843 36.8794 12.2272 36.8125 13.5434C36.7471 14.3661 36.8591 15.1931 37.141 15.9687C37.423 16.7442 37.8682 17.4502 38.4466 18.0388L39.6869 28.25C39.707 28.7157 39.8429 29.1691 40.0824 29.569C40.3219 29.9689 40.6574 30.3028 41.0584 30.5403L40.5269 31.3409C40.2596 31.7416 40.0642 32.1857 39.9494 32.6534C39.8772 32.9291 39.8181 33.1916 39.7656 33.4475C39.2692 33.3387 38.8223 33.0697 38.4938 32.682C38.1653 32.2942 37.9735 31.8091 37.9478 31.3016L35.9791 16.8641C35.958 16.6968 35.8734 16.5441 35.7428 16.4375C34.985 15.8349 34.387 15.0553 34.0014 14.1673C33.6157 13.2793 33.4543 12.3101 33.5312 11.345ZM29.2656 18.6819L34.7978 17.75L36.6419 31.4459C36.6992 32.2361 37.0149 32.9855 37.5402 33.5785C38.0656 34.1715 38.7715 34.5751 39.5491 34.7272C39.4966 35.1472 39.4703 35.5738 39.4506 36.0397C38.4275 35.8626 37.4853 35.3701 36.7557 34.6312C36.0262 33.8922 35.5459 32.9438 35.3819 31.9184L33.8791 22.4684C33.7529 21.7 33.3575 21.0014 32.7636 20.4976C32.1697 19.9939 31.416 19.7178 30.6372 19.7188H27.8481C27.988 19.448 28.1889 19.2134 28.4348 19.0335C28.6808 18.8536 28.9652 18.7332 29.2656 18.6819ZM63.7188 40.0625H28.2812C28.1072 40.0625 27.9403 39.9934 27.8172 39.8703C27.6941 39.7472 27.625 39.5803 27.625 39.4063V21.0313H30.6372C31.11 21.0254 31.5692 21.19 31.9307 21.4948C32.2922 21.7997 32.5319 22.2245 32.6059 22.6916L34.1087 32.1416C34.319 33.4758 34.9533 34.7069 35.9178 35.6524C36.8822 36.598 38.1256 37.2078 39.4638 37.3916V38.75H40.7763V37.4375C41.8918 37.3673 42.9678 36.9982 43.8916 36.3689C44.8153 35.7396 45.5526 34.8734 46.0263 33.8609C46.5192 34.8535 47.2581 35.7033 48.1725 36.3293C49.0869 36.9554 50.1464 37.3369 51.25 37.4375V38.75H52.5625V37.3719C53.7535 37.214 54.8742 36.7175 55.7912 35.9413C56.9222 34.9784 57.6812 33.6506 57.9372 32.1875L59.4269 22.7244C59.5009 22.2573 59.7406 21.8325 60.1021 21.5277C60.4636 21.2228 60.9228 21.0582 61.3956 21.0641H64.375V39.4063C64.375 39.5803 64.3059 39.7472 64.1828 39.8703C64.0597 39.9934 63.8928 40.0625 63.7188 40.0625Z" fill="#3267FF"/>
</svg>
