<svg width="67" height="44" viewBox="0 0 67 44" fill="none" xmlns="http://www.w3.org/2000/svg">
<ellipse cx="23" cy="22" rx="23" ry="22" fill="#D7E9FF"/>
<path d="M41.3461 29.19L41.3461 29.1896C41.4476 28.5919 41.467 27.9233 41.4861 27.2335C41.4861 27.2334 41.4861 27.2334 41.4861 27.2334L41.4869 27.2061C41.51 26.3672 41.5357 25.4331 41.7499 24.5852M41.3461 29.19L42.4166 24.111C42.347 24.3016 42.288 24.4961 42.2347 24.7075L41.7499 24.5851C41.7499 24.5851 41.7499 24.5852 41.7499 24.5852M41.3461 29.19C41.012 31.1666 40.3987 32.1882 39.6945 32.538L39.6944 32.5381C39.4305 32.6692 39.202 32.723 39.0344 32.723C38.8679 32.723 38.7788 32.6743 38.7151 32.6058C38.6377 32.5227 38.5503 32.3574 38.5038 32.0477L38.5036 32.0466C38.4384 31.6187 38.4239 31.0864 38.4083 30.476L38.408 30.4637C38.3904 29.7754 38.3696 28.963 38.2514 28.1544L38.2513 28.1535C38.1543 27.4987 37.8784 26.4747 37.4815 25.7514C37.1582 25.1613 36.636 24.7458 35.9845 24.6876L35.9838 24.6875C35.9584 24.6853 35.9319 24.684 35.9042 24.684C35.8765 24.684 35.8498 24.6853 35.8243 24.6875L35.8234 24.6876C35.1721 24.746 34.6499 25.1614 34.3268 25.7513C33.9297 26.475 33.654 27.4989 33.5569 28.1542L33.5567 28.1551C33.4385 28.9633 33.4178 29.7757 33.4002 30.4641L33.3999 30.4764L33.3999 30.4764C33.3844 31.0865 33.3699 31.6187 33.3045 32.0476L33.3043 32.0486C33.2578 32.3578 33.1706 32.5228 33.0933 32.6057C33.0296 32.6741 32.9405 32.7228 32.7739 32.7228C32.6061 32.7228 32.3775 32.669 32.1136 32.5379L32.1134 32.5378C31.4094 32.1882 30.796 31.1667 30.4619 29.1897L30.4619 29.1893M41.3461 29.19L30.4619 29.1893M41.7499 24.5852C41.7981 24.3942 41.8509 24.215 41.9113 24.0398C41.2601 23.9415 40.6112 23.8179 39.9657 23.6686L40.0784 23.1815L39.9657 23.6686C39.5617 23.5752 39.1706 23.4746 38.7927 23.3685M41.7499 24.5852L38.7927 23.3685M38.7927 23.3685V23.4038C38.7927 23.9031 38.3879 24.3077 37.8888 24.3077H33.8504C33.3513 24.3077 32.9465 23.9031 32.9465 23.4038V20.9059C32.181 20.4542 31.7466 20.1295 31.6884 20.0853L31.6881 20.085C31.2904 19.7828 31.2135 19.2156 31.5154 18.8185L31.5155 18.8184C31.8175 18.4213 32.3839 18.344 32.7813 18.6454L38.7927 23.3685ZM39.9169 32.9858C39.6048 33.141 39.2995 33.223 39.0344 33.223C38.464 33.223 38.1192 32.8528 38.0093 32.122L39.9169 32.9858ZM39.9169 32.9858C40.8548 32.5199 41.5015 31.2709 41.8391 29.2733L39.9169 32.9858ZM37.6417 15.0327C38.1731 14.9393 38.6781 14.8926 39.1508 14.8926C40.9557 14.8926 42.2661 15.5711 42.947 16.7114L42.947 16.7114C43.749 18.0544 43.7137 20.0962 42.7092 22.3228C41.8818 22.2187 41.1125 22.0772 40.4084 21.9155L40.4084 21.9155C39.8433 21.7857 39.3045 21.6397 38.7927 21.4834V19.3654C38.7927 18.8662 38.388 18.4615 37.8888 18.4615H33.8504C33.5363 18.4615 33.2597 18.6217 33.0977 18.8648C32.8935 18.729 32.785 18.6481 32.7803 18.6446L37.6417 15.0327ZM37.6417 15.0327C38.0778 15.6611 38.3936 16.4267 38.3936 17.2444C38.3936 17.7435 37.9889 18.1482 37.4897 18.1482C36.9906 18.1482 36.5859 17.7435 36.5859 17.2444C36.5859 16.5678 36.1022 15.8412 35.5247 15.3841C35.4802 15.37 35.4397 15.3551 35.4047 15.3421L37.6417 15.0327ZM28.4326 16.4554L28.8609 16.7112C27.9707 18.202 28.1135 20.5545 29.4597 23.0534L29.4608 23.0555C29.7436 23.5866 29.9192 24.0343 30.0582 24.5851L28.4326 16.4554ZM28.4326 16.4554L28.8609 16.7112C29.5417 15.5711 30.8523 14.8926 32.6575 14.8926C33.3941 14.8926 34.2078 15.0045 35.0776 15.2308M28.4326 16.4554L35.0776 15.2308M30.4619 29.1893C30.3604 28.5919 30.341 27.9232 30.322 27.2335M30.4619 29.1893L30.322 27.2335M35.0776 15.2308C35.238 15.2803 35.3322 15.3152 35.4045 15.342L35.0776 15.2308ZM30.322 27.2335L30.3212 27.2062C30.2981 26.3672 30.2724 25.4332 30.0582 24.5853L30.322 27.2335Z" stroke="#3267FF"/>
<path d="M36.9849 20.8525C36.4949 20.6592 36.0426 20.4621 35.6307 20.2692H36.9849V20.8525Z" stroke="#3267FF"/>
<path d="M62.5387 23.057L62.5398 23.055C63.8869 20.5547 64.0295 18.2023 63.1392 16.7114L63.1392 16.7113C62.4584 15.5711 61.1479 14.8926 59.343 14.8926C58.8704 14.8926 58.3654 14.9393 57.834 15.0326C58.2701 15.6611 58.5859 16.4267 58.5859 17.2444C58.5859 17.7435 58.1814 18.1482 57.6821 18.1482C57.1828 18.1482 56.7782 17.7435 56.7782 17.2444C56.7782 16.568 56.2946 15.8413 55.7171 15.3842C55.6725 15.37 55.632 15.3552 55.597 15.3421C55.5969 15.3421 55.5969 15.3421 55.5969 15.3421C55.5968 15.3421 55.5968 15.3421 55.5967 15.342L55.5956 15.3416C55.5232 15.3148 55.4295 15.2799 55.27 15.2309C54.4003 15.0045 53.5864 14.8926 52.8498 14.8926C51.0446 14.8926 49.734 15.5711 49.0532 16.7112C48.2614 18.0371 48.2855 20.0442 49.2529 22.2379C50.492 22.0519 51.7908 21.76 53.1389 21.3351V19.3653C53.1389 18.8662 53.5435 18.4615 54.0428 18.4615H58.0812C58.3816 18.4615 58.6477 18.608 58.8121 18.8334C58.9535 18.7529 59.0951 18.6708 59.2371 18.5869L59.2374 18.5868C59.6671 18.3334 60.2207 18.4761 60.4747 18.9053L60.475 18.9057C60.7288 19.3356 60.5859 19.8898 60.1561 20.1436C59.7671 20.3732 59.3767 20.5934 58.9851 20.8044V23.4038C58.9851 23.903 58.5805 24.3076 58.0812 24.3076H54.0428C53.5435 24.3076 53.1389 23.903 53.1389 23.4038V23.2334C52.1158 23.5354 51.088 23.7755 50.0578 23.9524C50.1315 24.1552 50.1941 24.3619 50.2505 24.585L50.2505 24.585C50.4645 25.4326 50.4903 26.3663 50.5135 27.205L50.5143 27.2334L50.5143 27.2334C50.5333 27.9231 50.5528 28.5918 50.6542 29.1893L50.6543 29.1896C50.9884 31.1667 51.6017 32.1882 52.3057 32.5377L52.3059 32.5378C52.5698 32.669 52.7984 32.7227 52.9662 32.7227C53.1329 32.7227 53.2219 32.674 53.2856 32.6056C53.3629 32.5227 53.4501 32.3578 53.4965 32.0486L53.4967 32.0475C53.5621 31.6186 53.5766 31.0864 53.5921 30.4764L53.5921 30.4763L53.5924 30.464C53.61 29.7756 53.6308 28.9632 53.749 28.155L53.7491 28.1541C53.8462 27.4989 54.122 26.4752 54.519 25.7514L62.5387 23.057ZM62.5387 23.057C62.2565 23.5867 62.081 24.0346 61.9422 24.5852C61.7282 25.4323 61.7024 26.3654 61.6793 27.2037L61.6784 27.2333L61.6784 27.2333C61.6594 27.9232 61.64 28.5918 61.5385 29.1896L61.5384 29.19C61.2044 31.1666 60.5911 32.1881 59.8867 32.5379L59.8866 32.538C59.6227 32.6692 59.3943 32.7229 59.2267 32.7229H59.2265C59.0601 32.7229 58.971 32.6742 58.9073 32.6057C58.8299 32.5226 58.7425 32.3573 58.6959 32.0476L58.6958 32.0465C58.6305 31.6186 58.6161 31.0864 58.6005 30.4759L58.6001 30.4636C58.5825 29.7753 58.5618 28.963 58.4436 28.1543L58.4435 28.1534M62.5387 23.057L58.4435 28.1534M56.0156 24.6875L56.0166 24.6874C56.0421 24.6852 56.0688 24.6839 56.0963 24.6839C56.1239 24.6839 56.1506 24.6852 56.1762 24.6875L56.1767 24.6875C56.8283 24.7457 57.3503 25.1613 57.6737 25.7513L56.0156 24.6875ZM56.0156 24.6875C55.3643 24.746 54.8422 25.1614 54.5191 25.7511L56.0156 24.6875ZM58.4435 28.1534C58.3464 27.4988 58.0706 26.475 57.6738 25.7516L58.4435 28.1534Z" stroke="#3267FF"/>
<path d="M54.9465 20.6944V20.2692H55.9666C55.624 20.4198 55.2839 20.5614 54.9465 20.6944Z" stroke="#3267FF"/>
<path d="M34.7542 21.8615C35.1995 22.0724 35.6897 22.2881 36.2226 22.5H34.7542V21.8615Z" stroke="#3267FF"/>
<path d="M57.1773 21.7082V22.5H55.3031C55.9304 22.2594 56.5553 21.9954 57.1773 21.7082Z" stroke="#3267FF"/>
<path d="M33.1389 38.7499C33.1389 37.9127 33.8209 37.2307 34.6581 37.2307C35.4954 37.2307 36.1774 37.9127 36.1774 38.7499C36.1774 39.5872 35.4954 40.2692 34.6581 40.2692C33.8209 40.2692 33.1389 39.5872 33.1389 38.7499Z" stroke="#3267FF"/>
<path d="M40.2156 7.65384C40.2156 8.26842 39.7148 8.76922 39.1002 8.76922C38.4857 8.76922 37.9849 8.26842 37.9849 7.65384C37.9849 7.03926 38.4857 6.53845 39.1002 6.53845C39.7148 6.53845 40.2156 7.03926 40.2156 7.65384Z" stroke="#3267FF"/>
<path d="M57.3696 37.5384C57.3696 36.9238 57.8704 36.423 58.485 36.423C59.0996 36.423 59.6004 36.9238 59.6004 37.5384C59.6004 38.1529 59.0996 38.6537 58.485 38.6537C57.8704 38.6537 57.3696 38.1529 57.3696 37.5384Z" stroke="#3267FF"/>
<path d="M59.6005 7.24994C59.6005 8.08721 58.9185 8.76917 58.0812 8.76917C57.244 8.76917 56.562 8.08721 56.562 7.24994C56.562 6.41268 57.244 5.73071 58.0812 5.73071C58.9185 5.73071 59.6005 6.41268 59.6005 7.24994Z" stroke="#3267FF"/>
<mask id="path-12-inside-1_123_3922" fill="white">
<path d="M43.1387 37.1346C43.1387 36.9115 42.9579 36.7307 42.7349 36.7307H40.3118C40.0888 36.7307 39.908 36.9115 39.908 37.1346C39.908 37.3576 40.0888 37.5384 40.3118 37.5384H42.7349C42.9579 37.5384 43.1387 37.3576 43.1387 37.1346Z"/>
</mask>
<path d="M44.1387 37.1346C44.1387 36.3591 43.51 35.7307 42.7349 35.7307V37.7307C42.4057 37.7307 42.1387 37.4639 42.1387 37.1346H44.1387ZM42.7349 35.7307H40.3118V37.7307H42.7349V35.7307ZM40.3118 35.7307C39.5367 35.7307 38.908 36.3591 38.908 37.1346H40.908C40.908 37.4639 40.641 37.7307 40.3118 37.7307V35.7307ZM38.908 37.1346C38.908 37.9101 39.5367 38.5384 40.3118 38.5384V36.5384C40.641 36.5384 40.908 36.8052 40.908 37.1346H38.908ZM40.3118 38.5384H42.7349V36.5384H40.3118V38.5384ZM42.7349 38.5384C43.51 38.5384 44.1387 37.9101 44.1387 37.1346H42.1387C42.1387 36.8052 42.4057 36.5384 42.7349 36.5384V38.5384Z" fill="#3267FF" mask="url(#path-12-inside-1_123_3922)"/>
<mask id="path-14-inside-2_123_3922" fill="white">
<path d="M48.3889 39.1538H41.9273C41.7043 39.1538 41.5234 39.3346 41.5234 39.5577C41.5234 39.7807 41.7043 39.9615 41.9273 39.9615H48.3889C48.612 39.9615 48.7927 39.7807 48.7927 39.5577C48.7927 39.3346 48.612 39.1538 48.3889 39.1538Z"/>
</mask>
<path d="M48.3889 38.1538H41.9273V40.1538H48.3889V38.1538ZM41.9273 38.1538C41.1521 38.1538 40.5234 38.7822 40.5234 39.5577H42.5234C42.5234 39.887 42.2564 40.1538 41.9273 40.1538V38.1538ZM40.5234 39.5577C40.5234 40.3332 41.1521 40.9615 41.9273 40.9615V38.9615C42.2564 38.9615 42.5234 39.2283 42.5234 39.5577H40.5234ZM41.9273 40.9615H48.3889V38.9615H41.9273V40.9615ZM48.3889 40.9615C49.1643 40.9615 49.7927 40.333 49.7927 39.5577H47.7927C47.7927 39.2285 48.0597 38.9615 48.3889 38.9615V40.9615ZM49.7927 39.5577C49.7927 38.7823 49.1643 38.1538 48.3889 38.1538V40.1538C48.0597 40.1538 47.7927 39.8869 47.7927 39.5577H49.7927Z" fill="#3267FF" mask="url(#path-14-inside-2_123_3922)"/>
<path d="M51.1195 39.5577C51.1195 39.7276 50.9818 39.8654 50.8118 39.8654C50.6419 39.8654 50.5042 39.7276 50.5042 39.5577C50.5042 39.3878 50.6419 39.25 50.8118 39.25C50.9818 39.25 51.1195 39.3878 51.1195 39.5577Z" stroke="#3267FF"/>
<path d="M63.235 35.5191C63.235 35.6891 63.0973 35.8268 62.9273 35.8268C62.7574 35.8268 62.6196 35.6891 62.6196 35.5191C62.6196 35.3492 62.7574 35.2114 62.9273 35.2114C63.0973 35.2114 63.235 35.3492 63.235 35.5191Z" stroke="#3267FF"/>
<path d="M46.2733 32.2884C46.2733 32.4583 46.1356 32.5961 45.9656 32.5961C45.7957 32.5961 45.658 32.4583 45.658 32.2884C45.658 32.1185 45.7957 31.9807 45.9656 31.9807C46.1356 31.9807 46.2733 32.1185 46.2733 32.2884Z" stroke="#3267FF"/>
<path d="M29.3119 37.1346C29.3119 37.3045 29.1742 37.4423 29.0042 37.4423C28.8343 37.4423 28.6965 37.3045 28.6965 37.1346C28.6965 36.9647 28.8343 36.8269 29.0042 36.8269C29.1742 36.8269 29.3119 36.9647 29.3119 37.1346Z" stroke="#3267FF"/>
<path d="M31.735 8.86531C31.735 9.03524 31.5973 9.173 31.4273 9.173C31.2574 9.173 31.1196 9.03524 31.1196 8.86531C31.1196 8.69538 31.2574 8.55762 31.4273 8.55762C31.5973 8.55762 31.735 8.69538 31.735 8.86531Z" stroke="#3267FF"/>
<path d="M42.235 11.2884C42.235 11.4583 42.0973 11.5961 41.9273 11.5961C41.7574 11.5961 41.6196 11.4583 41.6196 11.2884C41.6196 11.1185 41.7574 10.9807 41.9273 10.9807C42.0973 10.9807 42.235 11.1185 42.235 11.2884Z" stroke="#3267FF"/>
<path d="M47.8888 8.05769C47.8888 8.22763 47.7511 8.36538 47.5811 8.36538C47.4112 8.36538 47.2734 8.22763 47.2734 8.05769C47.2734 7.88776 47.4112 7.75 47.5811 7.75C47.7511 7.75 47.8888 7.88776 47.8888 8.05769Z" stroke="#3267FF"/>
<path d="M54.3502 9.67305C54.3502 9.84298 54.2125 9.98074 54.0426 9.98074C53.8726 9.98074 53.7349 9.84298 53.7349 9.67305C53.7349 9.50312 53.8726 9.36536 54.0426 9.36536C54.2125 9.36536 54.3502 9.50312 54.3502 9.67305Z" stroke="#3267FF"/>
<path d="M63.235 10.4807C63.235 10.6506 63.0973 10.7884 62.9273 10.7884C62.7574 10.7884 62.6196 10.6506 62.6196 10.4807C62.6196 10.3107 62.7574 10.173 62.9273 10.173C63.0973 10.173 63.235 10.3107 63.235 10.4807Z" stroke="#3267FF"/>
</svg>