<svg width="67" height="44" viewBox="0 0 67 44" fill="none" xmlns="http://www.w3.org/2000/svg">
<ellipse cx="23" cy="22" rx="23" ry="22" fill="#D7E9FF"/>
<path d="M40.3547 5.55594C40.7402 5.55594 41.0528 5.24337 41.0528 4.85801C41.0528 4.47264 40.7402 4.15991 40.3547 4.15991C39.9691 4.15991 39.6567 4.47248 39.6567 4.85801C39.6567 5.24353 39.9693 5.55594 40.3547 5.55594Z" fill="#3267FF"/>
<path d="M29.7442 11.2357C30.1051 11.2357 30.3971 10.9433 30.3971 10.5828V9.27703C30.3971 8.91647 30.1051 8.62415 29.7442 8.62415C29.3833 8.62415 29.0913 8.91647 29.0913 9.27703V10.5828C29.0913 10.9433 29.3833 11.2357 29.7442 11.2357Z" fill="#3267FF"/>
<path d="M30.3971 14.4999V13.1941C30.3971 12.8336 30.1051 12.5413 29.7442 12.5413C29.3833 12.5413 29.0913 12.8336 29.0913 13.1941V14.4999C29.0913 14.8605 29.3833 15.1528 29.7442 15.1528C30.1051 15.1528 30.3971 14.8605 30.3971 14.4999Z" fill="#3267FF"/>
<path d="M29.0915 11.8885C29.0915 11.5279 28.7995 11.2356 28.4386 11.2356H27.1329C26.772 11.2356 26.48 11.5279 26.48 11.8885C26.48 12.249 26.772 12.5414 27.1329 12.5414H28.4386C28.7995 12.5414 29.0915 12.249 29.0915 11.8885Z" fill="#3267FF"/>
<path d="M31.0503 12.5414H32.3561C32.717 12.5414 33.009 12.249 33.009 11.8885C33.009 11.5279 32.717 11.2356 32.3561 11.2356H31.0503C30.6895 11.2356 30.3975 11.5279 30.3975 11.8885C30.3975 12.249 30.6895 12.5414 31.0503 12.5414Z" fill="#3267FF"/>
<path d="M62.7148 4.70667C61.4549 4.70667 60.4297 5.73185 60.4297 6.99175C60.4297 8.25165 61.4549 9.27683 62.7148 9.27683C63.9747 9.27683 64.9999 8.25165 64.9999 6.99175C64.9999 5.73185 63.9747 4.70667 62.7148 4.70667ZM62.7148 7.97107C62.1747 7.97107 61.7355 7.53185 61.7355 6.99175C61.7355 6.45165 62.1747 6.01243 62.7148 6.01243C63.2549 6.01243 63.6941 6.45165 63.6941 6.99175C63.6941 7.53185 63.2549 7.97107 62.7148 7.97107Z" fill="#3267FF"/>
<path d="M63.2053 19.176C62.8197 19.176 62.5073 19.4886 62.5073 19.8741C62.5073 20.2596 62.8199 20.572 63.2053 20.572C63.5906 20.572 63.9033 20.2595 63.9033 19.8741C63.9033 19.4888 63.5908 19.176 63.2053 19.176Z" fill="#3267FF"/>
<path d="M55.3195 12.739C54.3007 11.9956 53.0746 11.6316 51.8397 11.7029C51.2487 10.6116 50.2987 9.75961 49.1325 9.28268C46.8442 8.34612 44.162 9.12844 42.7498 11.139C41.8999 12.3484 41.5901 13.808 41.8762 15.2476C41.9712 15.7255 41.9866 16.152 41.9247 16.5514C41.7705 17.5482 41.5658 18.3133 41.3502 18.7057C40.2796 20.6523 39.6561 22.3042 39.4968 23.6147C39.4031 24.3783 39.7894 25.1213 40.4805 25.5078C40.932 25.7593 41.4541 25.8221 41.9515 25.6831C42.4501 25.5435 42.8632 25.2182 43.1151 24.7676L45.1777 21.077C45.5265 20.4525 46.2794 20.1913 46.9507 20.4522C47.5246 20.8873 47.6973 21.6659 47.3487 22.29L45.2867 25.9803C45.0349 26.4311 44.9743 26.9536 45.1165 27.4515C45.2586 27.9476 45.5851 28.3597 46.0372 28.6122C46.34 28.7815 46.6703 28.865 46.9968 28.865C47.4156 28.865 47.8269 28.7279 48.1648 28.4586C49.1989 27.6345 50.2783 26.2374 51.3743 24.3065C51.595 23.9169 52.1395 23.3422 52.9083 22.6876C53.2111 22.4291 53.593 22.213 54.0418 22.0459C55.4196 21.5345 56.4998 20.5054 57.0844 19.148C58.0561 16.8905 57.3139 14.1953 55.3195 12.739ZM55.8844 18.6314C55.4426 19.6579 54.6272 20.4359 53.5873 20.8219C52.9936 21.0425 52.4798 21.336 52.0608 21.6938C51.1542 22.4658 50.5409 23.128 50.238 23.6617C49.2396 25.4224 48.2412 26.7278 47.351 27.4375C47.168 27.5833 46.8957 27.5963 46.6739 27.4723C46.5254 27.3894 46.4183 27.2545 46.3716 27.0923C46.3258 26.9314 46.3449 26.7629 46.4265 26.6177L48.4884 22.9271C49.1771 21.6949 48.8136 20.1536 47.6436 19.3419C47.6085 19.3181 47.5716 19.2974 47.5333 19.2804C47.1686 19.1209 46.7892 19.0449 46.4162 19.0449C45.4529 19.0449 44.5334 19.552 44.0374 20.4403L41.9748 24.1308C41.8938 24.2763 41.7607 24.3807 41.5992 24.4261C41.4367 24.4707 41.2664 24.4516 41.1172 24.3682C40.8948 24.2438 40.764 24.005 40.7928 23.7732C40.9299 22.6444 41.5183 21.1098 42.4938 19.3354C42.7896 18.7976 43.0326 17.9286 43.215 16.752C43.2998 16.2071 43.2799 15.6158 43.157 14.9939C42.9409 13.9069 43.1755 12.8048 43.8182 11.8904C44.8842 10.3733 46.9124 9.78458 48.6376 10.4917C49.6093 10.8889 50.3826 11.6278 50.8143 12.5717C50.8718 12.6976 50.9679 12.8022 51.0892 12.8698L51.2384 12.9533C51.3595 13.0209 51.4992 13.0474 51.6374 13.0317C52.6672 12.9039 53.7014 13.1748 54.5493 13.7939C56.0566 14.894 56.6183 16.9286 55.8844 18.6314Z" fill="#3267FF"/>
<path d="M55.8717 29.1099H50.1086C49.9109 29.1099 49.7242 29.1992 49.6005 29.3528L49.5189 29.4598C49.1095 29.9399 48.8035 30.4468 48.6104 30.9662C48.196 32.0823 47.9836 32.9593 47.9799 33.5727C47.9658 35.5989 47.7313 37.2257 47.3015 38.2767C47.2129 38.4928 46.9814 38.6379 46.7265 38.6379C46.377 38.6379 46.0934 38.3573 46.0934 38.0124V33.785C46.0934 32.3738 45.0248 31.2053 43.6075 31.0674C43.5654 31.063 43.5233 31.063 43.4814 31.0674C42.0639 31.2055 40.9955 32.3738 40.9955 33.785V38.0124C40.9955 38.3573 40.7118 38.6379 40.3624 38.6379C40.1074 38.6379 39.8765 38.4928 39.7885 38.277C39.3574 37.2234 39.1222 35.5969 39.1095 33.5727C39.1057 32.9606 38.8934 32.0836 38.4783 30.9665C38.2864 30.4491 37.981 29.9427 37.5405 29.4203C37.5367 29.4153 37.497 29.3629 37.4926 29.3578C37.3689 29.2013 37.1802 29.1097 36.9806 29.1097H31.691C31.3301 29.1097 31.0381 29.4021 31.0381 29.7626V41.1871C31.0381 41.5476 31.3301 41.8399 31.691 41.8399H55.8717C56.2326 41.8399 56.5246 41.5476 56.5246 41.1871V29.7626C56.5246 29.4022 56.2326 29.1099 55.8717 29.1099ZM55.2189 40.5345H32.3438V30.4158H36.6666C36.9344 30.7493 37.1269 31.0792 37.2538 31.4209C37.6051 32.3675 37.8003 33.1348 37.8034 33.5813C37.8174 35.8018 38.0789 37.5481 38.5794 38.7716C38.8707 39.4837 39.5701 39.9438 40.362 39.9438C41.4313 39.9438 42.3009 39.0773 42.3009 38.0126V33.7852C42.3009 33.0704 42.8308 32.4747 43.5442 32.3745C44.2576 32.4745 44.7874 33.0704 44.7874 33.7852V38.0126C44.7874 39.0773 45.6571 39.9438 46.7263 39.9438C47.5176 39.9438 48.217 39.4842 48.5097 38.7719C49.009 37.5504 49.2703 35.8042 49.2856 33.5817C49.2889 33.1338 49.4833 32.3665 49.8345 31.4216C49.9602 31.0841 50.1572 30.7467 50.4225 30.4158H55.219L55.2189 40.5345Z" fill="#3267FF"/>
<path d="M29.875 21.2897C29.6582 21.5783 29.7168 21.9875 30.0057 22.2038L32.6173 24.1624C32.7346 24.2507 32.8717 24.2932 33.0082 24.2932C33.2071 24.2932 33.4028 24.2029 33.531 24.032C33.7477 23.7434 33.6891 23.3342 33.4002 23.118L30.7887 21.1593C30.5011 20.9426 30.0918 21.002 29.875 21.2897Z" fill="#3267FF"/>
<path d="M32.6594 26.2549C32.6084 25.8981 32.2755 25.6502 31.9205 25.7011L28.6892 26.1627C28.3321 26.2136 28.0841 26.5443 28.135 26.9012C28.1816 27.2267 28.4608 27.4617 28.7809 27.4617C28.8116 27.4617 28.8428 27.4595 28.8739 27.4551L32.1052 26.9935C32.4623 26.9425 32.7104 26.612 32.6594 26.2549Z" fill="#3267FF"/>
<path d="M35.6238 23.2907C35.655 23.2951 35.6863 23.2974 35.7168 23.2974C36.0369 23.2974 36.3162 23.0625 36.3627 22.7369L36.8243 19.505C36.8752 19.1479 36.6273 18.8173 36.2701 18.7664C35.913 18.716 35.5822 18.9637 35.5312 19.3202L35.0697 22.5521C35.0186 22.9091 35.2667 23.2398 35.6238 23.2907Z" fill="#3267FF"/>
</svg>