<svg width="67" height="44" viewBox="0 0 67 44" fill="none" xmlns="http://www.w3.org/2000/svg">
<ellipse cx="23" cy="22" rx="23" ry="22" fill="#D7E9FF"/>
<g clip-path="url(#clip0_123_4639)">
<path fill-rule="evenodd" clip-rule="evenodd" d="M54.8699 32.2882C52.2372 32.2882 50.072 30.1476 50.072 27.4903C50.072 24.8576 52.2372 22.6924 54.8699 22.6924C57.5272 22.6924 59.6678 24.8576 59.6678 27.4903C59.6678 30.1476 57.5026 32.2882 54.8699 32.2882ZM54.8699 23.6766C52.7785 23.6766 51.0562 25.3989 51.0562 27.4903C51.0562 29.6063 52.7785 31.304 54.8699 31.304C56.9859 31.304 58.6836 29.6063 58.6836 27.4903C58.6836 25.3989 56.9613 23.6766 54.8699 23.6766Z" fill="#3267FF"/>
<path fill-rule="evenodd" clip-rule="evenodd" d="M49.1616 40.6292C47.3162 40.6292 46.6519 37.7997 46.6519 37.1846V31.3041C46.6519 26.6538 42.2477 26.5554 42.2477 31.3041L42.2231 37.3322C42.0016 38.8577 40.8944 41.6872 38.5324 40.2601C36.6625 39.1529 34.3496 35.6099 33.8821 32.1652C33.1932 27.2689 34.4234 28.3761 31.8892 23.4306C26.8944 13.5888 34.202 7.09317 44.4621 12.0387C54.5992 7.14238 62.0298 13.4904 57.0104 23.4306C56.4691 24.4886 56.4199 23.6766 54.8698 23.6766C52.7784 23.6766 51.0561 25.399 51.0561 27.4904C51.0561 29.5079 52.6308 31.1564 54.6238 31.3041C55.1897 31.3287 55.0667 31.9192 55.0421 32.1652C54.55 35.7083 51.5728 40.6292 49.1616 40.6292ZM47.6361 37.1599C47.8329 38.341 48.4234 40.3093 49.8751 39.4236C51.4744 38.464 53.5412 35.29 54.0333 32.2144C51.7697 31.7962 50.0719 29.8278 50.0719 27.4904C50.0719 24.3164 53.1229 22.0035 56.1739 22.8647C60.7257 13.8102 54.0333 8.3726 44.6835 13.0229C44.5359 13.0967 44.3883 13.0967 44.2407 13.0229C34.8171 8.348 28.1493 13.884 32.7749 22.9877C35.4076 28.1547 34.1774 27.2197 34.8663 32.0176C35.383 35.7083 38.5816 40.2601 40.0579 39.5712C40.5992 39.3251 41.0667 38.4148 41.2635 37.2092V31.3041C41.2635 25.2021 47.6607 25.3498 47.6607 31.3041V37.1599H47.6361Z" fill="#3267FF"/>
<path fill-rule="evenodd" clip-rule="evenodd" d="M34.3988 19.4446C34.1282 19.4446 33.9067 19.2478 33.9067 18.9525C33.9067 16.2214 36.1458 13.9824 38.9015 13.9824C39.5412 13.9824 39.5412 14.9666 38.9015 14.9666C36.6871 14.9666 34.8909 16.7627 34.8909 18.9525C34.8909 19.2478 34.6695 19.4446 34.3988 19.4446Z" fill="#3267FF"/>
<path fill-rule="evenodd" clip-rule="evenodd" d="M54.5254 19.4446C54.2547 19.4446 54.0333 19.2478 54.0333 18.9525C54.0333 16.7627 52.2372 14.9666 50.0228 14.9666C49.383 14.9666 49.383 13.9824 50.0228 13.9824C52.7785 13.9824 55.0175 16.2214 55.0175 18.9525C55.0175 19.2478 54.796 19.4446 54.5254 19.4446Z" fill="#3267FF"/>
<path fill-rule="evenodd" clip-rule="evenodd" d="M38.9755 23.3076C38.7048 23.3076 38.4834 23.0861 38.4834 22.8155V21.0686C38.4834 20.4042 39.4676 20.4042 39.4676 21.0686V22.8155C39.4676 23.0861 39.2461 23.3076 38.9755 23.3076Z" fill="#3267FF"/>
<path fill-rule="evenodd" clip-rule="evenodd" d="M38.9755 27.9086C38.7048 27.9086 38.4834 27.6871 38.4834 27.4165V25.645C38.4834 25.0052 39.4676 25.0052 39.4676 25.645V27.4165C39.4676 27.6871 39.2461 27.9086 38.9755 27.9086Z" fill="#3267FF"/>
<path fill-rule="evenodd" clip-rule="evenodd" d="M42.1493 24.7345H40.4024C39.7627 24.7345 39.7381 23.7504 40.4024 23.7504H42.1493C42.8136 23.7504 42.8136 24.7345 42.1493 24.7345Z" fill="#3267FF"/>
<path fill-rule="evenodd" clip-rule="evenodd" d="M37.5729 24.7345H35.8013C35.1616 24.7345 35.1616 23.7504 35.8013 23.7504H37.5729C38.2126 23.7504 38.2126 24.7345 37.5729 24.7345Z" fill="#3267FF"/>
<path fill-rule="evenodd" clip-rule="evenodd" d="M48.4728 20.1089C48.2268 20.1089 47.9807 19.8874 47.9807 19.6168V17.8453C47.9807 17.2055 48.9649 17.2055 48.9649 17.8453V19.6168C48.9649 19.8874 48.7681 20.1089 48.4728 20.1089Z" fill="#3267FF"/>
<path fill-rule="evenodd" clip-rule="evenodd" d="M48.4728 24.6854C48.2268 24.6854 47.9807 24.4639 47.9807 24.1933V22.4464C47.9807 21.782 48.9649 21.782 48.9649 22.4464V24.1933C48.9649 24.4639 48.7681 24.6854 48.4728 24.6854Z" fill="#3267FF"/>
<path fill-rule="evenodd" clip-rule="evenodd" d="M51.6712 21.5114H49.8997C49.26 21.5114 49.26 20.5272 49.8997 20.5272H51.6712C52.311 20.5272 52.311 21.5114 51.6712 21.5114Z" fill="#3267FF"/>
<path fill-rule="evenodd" clip-rule="evenodd" d="M47.0702 21.5114H45.2986C44.6589 21.5114 44.6589 20.5272 45.2986 20.5272H47.0702C47.7099 20.5272 47.7099 21.5114 47.0702 21.5114Z" fill="#3267FF"/>
<path fill-rule="evenodd" clip-rule="evenodd" d="M54.0088 29.3602C53.6643 29.3602 53.0246 28.5975 52.6063 28.1792C52.1635 27.7117 52.8524 27.0228 53.3199 27.4903L54.0088 28.1792L56.42 25.7679C56.8875 25.3004 57.5765 25.9894 57.1336 26.4569L54.3533 29.2126C54.2548 29.311 54.1318 29.3602 54.0088 29.3602Z" fill="#3267FF"/>
<path fill-rule="evenodd" clip-rule="evenodd" d="M29.847 13.1212C29.4042 13.1212 29.2811 12.5799 29.0351 12.0878C28.2231 10.3655 28.1739 10.6116 26.2302 9.6766C25.8611 9.50436 25.8611 8.96306 26.2302 8.79083C28.6906 7.60981 28.2231 8.05269 29.4042 5.64145C29.5764 5.24777 30.1177 5.24777 30.2899 5.64145C31.4709 8.1019 31.0281 7.63442 33.4639 8.79083C33.833 8.98767 33.833 9.50436 33.4639 9.6766C30.9542 10.8822 31.4709 10.4393 30.2899 12.8506C30.2161 13.0228 30.0439 13.1212 29.847 13.1212ZM27.608 9.23371C29.0105 9.89804 29.1827 10.0703 29.847 11.4973C30.5114 10.0703 30.6836 9.89804 32.0861 9.23371C30.6836 8.56939 30.5114 8.39716 29.847 6.9947C29.1827 8.39716 29.0105 8.56939 27.608 9.23371Z" fill="#3267FF"/>
<path fill-rule="evenodd" clip-rule="evenodd" d="M63.0878 21.6344C62.6696 21.6344 62.5219 21.0931 62.3005 20.601C61.4885 18.8787 61.4147 19.1247 59.4956 18.1897C59.1019 18.0175 59.1265 17.4762 59.4956 17.304C61.956 16.1229 61.4885 16.5658 62.645 14.1546C62.8418 13.7609 63.3585 13.7855 63.5307 14.13C64.7364 16.5904 64.2443 16.1229 66.7047 17.304C67.0738 17.5008 67.0738 18.0175 66.7047 18.1897C64.2689 19.3461 64.7117 18.9279 63.5307 21.3637C63.4569 21.536 63.2847 21.6344 63.0878 21.6344ZM60.8488 17.7468C62.2513 18.4358 62.4235 18.5834 63.0878 20.0105C63.7768 18.5834 63.9244 18.4358 65.3515 17.7468C63.949 17.0825 63.7768 16.9349 63.0878 15.5078C62.4235 16.9349 62.2513 17.0825 60.8488 17.7468Z" fill="#3267FF"/>
<path fill-rule="evenodd" clip-rule="evenodd" d="M28.8875 32.362C28.4692 32.362 28.3216 31.8207 28.1002 31.3286C27.2882 29.5817 27.2144 29.8523 25.2706 28.9174C24.9016 28.7451 24.9016 28.2038 25.2952 28.0316C27.7557 26.8506 27.2882 27.2689 28.4446 24.8576C28.6415 24.4885 29.1581 24.4885 29.3304 24.8576C30.5114 27.3181 30.0931 26.8506 32.5044 28.0316C32.8734 28.2038 32.8734 28.7451 32.5044 28.9174C30.0193 30.0984 30.5114 29.6555 29.3304 32.0914C29.2566 32.2636 29.0843 32.362 28.8875 32.362ZM26.6485 28.4745C28.0509 29.1388 28.2232 29.311 28.8875 30.7135C29.5518 29.311 29.7241 29.1388 31.1511 28.4745C29.7241 27.8102 29.5518 27.6379 28.8875 26.2355C28.2232 27.6379 28.0509 27.8102 26.6485 28.4745Z" fill="#3267FF"/>
</g>
<defs>
<clipPath id="clip0_123_4639">
<rect width="42" height="42" fill="white" transform="translate(25 2)"/>
</clipPath>
</defs>
</svg>