<svg width="67" height="44" viewBox="0 0 67 44" fill="none" xmlns="http://www.w3.org/2000/svg">
<ellipse cx="23" cy="22" rx="23" ry="22" fill="#D7E9FF"/>
<path d="M51.4605 7.4429C51.7911 7.4429 52.0592 7.1748 52.0592 6.84426C52.0592 6.51372 51.7911 6.24548 51.4605 6.24548C51.1298 6.24548 50.8618 6.51358 50.8618 6.84426C50.8618 7.17494 51.1299 7.4429 51.4605 7.4429Z" fill="#3267FF"/>
<path d="M59.7202 10.6345C60.0297 10.6345 60.2802 10.3838 60.2802 10.0745V8.95453C60.2802 8.64527 60.0297 8.39453 59.7202 8.39453C59.4106 8.39453 59.1602 8.64527 59.1602 8.95453V10.0745C59.1602 10.3838 59.4106 10.6345 59.7202 10.6345Z" fill="#3267FF"/>
<path d="M59.7202 11.7545C59.4106 11.7545 59.1602 12.0053 59.1602 12.3145V13.4345C59.1602 13.7438 59.4106 13.9945 59.7202 13.9945C60.0297 13.9945 60.2802 13.7438 60.2802 13.4345V12.3145C60.2802 12.0053 60.0297 11.7545 59.7202 11.7545Z" fill="#3267FF"/>
<path d="M57.4799 11.7545H58.5999C58.9095 11.7545 59.1599 11.5038 59.1599 11.1945C59.1599 10.8853 58.9095 10.6345 58.5999 10.6345H57.4799C57.1704 10.6345 56.9199 10.8853 56.9199 11.1945C56.9199 11.5038 57.1704 11.7545 57.4799 11.7545Z" fill="#3267FF"/>
<path d="M61.9598 10.6345H60.8398C60.5302 10.6345 60.2798 10.8853 60.2798 11.1945C60.2798 11.5038 60.5302 11.7545 60.8398 11.7545H61.9598C62.2693 11.7545 62.5198 11.5038 62.5198 11.1945C62.5198 10.8853 62.2693 10.6345 61.9598 10.6345Z" fill="#3267FF"/>
<path d="M31.44 35.8345C30.3593 35.8345 29.48 36.7138 29.48 37.7945C29.48 38.8751 30.3593 39.7545 31.44 39.7545C32.5206 39.7545 33.4 38.8751 33.4 37.7945C33.4 36.7138 32.5206 35.8345 31.44 35.8345ZM31.44 38.6345C30.9767 38.6345 30.6 38.2577 30.6 37.7945C30.6 37.3312 30.9767 36.9545 31.44 36.9545C31.9032 36.9545 32.28 37.3312 32.28 37.7945C32.28 38.2577 31.9032 38.6345 31.44 38.6345Z" fill="#3267FF"/>
<path d="M41.3809 37.0455C41.0502 37.0455 40.7822 37.3136 40.7822 37.6443C40.7822 37.975 41.0503 38.243 41.3809 38.243C41.7114 38.243 41.9796 37.9749 41.9796 37.6443C41.9796 37.3138 41.7115 37.0455 41.3809 37.0455Z" fill="#3267FF"/>
<path d="M59.4322 15.9572C51.3658 13.6418 43.1845 13.5613 35.118 15.7157L34.7677 15.524L33.891 13.9209C33.6953 13.5622 33.1046 13.5622 32.9088 13.9209L32.0321 15.524L30.4287 16.4007C30.2488 16.4988 30.1372 16.6873 30.1372 16.8921C30.1372 17.0969 30.2488 17.2853 30.4287 17.3835L32.0321 18.2602L32.8424 19.7419C32.8424 19.7464 32.8399 19.75 32.8399 19.7545V22.6776C32.8399 23.7566 33.7181 24.6346 34.7971 24.6346H35.0799V26.3146H34.7971C33.7181 26.3146 32.8399 27.1926 32.8399 28.2717V32.3871C32.8399 33.3582 33.5602 34.1916 34.515 34.3264C38.4372 34.8798 42.4628 35.1569 46.5648 35.1569C50.6899 35.1569 54.8916 34.8769 59.1407 34.3169C60.1092 34.1895 60.8399 33.3538 60.8399 32.3733V28.2717C60.8399 27.1927 59.9617 26.3146 58.8827 26.3146H58.5999V24.6346H58.8827C59.9617 24.6346 60.8399 23.7567 60.8399 22.6776V17.8393C60.8399 16.9689 60.2607 16.1947 59.4322 15.9572ZM32.7131 17.356L31.8644 16.8921L32.7131 16.4281C32.8071 16.3767 32.8843 16.2993 32.9357 16.2055L33.3999 15.3567L33.8641 16.2054C33.9155 16.2992 33.9927 16.3766 34.0867 16.428L34.9354 16.8919L34.0867 17.3559C33.9927 17.4073 33.9155 17.4847 33.8641 17.5785L33.3999 18.4275L32.9357 17.5788C32.8841 17.4848 32.8071 17.4076 32.7131 17.356ZM37.3199 29.1145C36.7025 29.1145 36.1999 28.6122 36.1999 27.9945V25.7545H38.4399V27.9945C38.4399 28.6122 37.9373 29.1145 37.3199 29.1145ZM39.5599 27.9945V26.8745H41.7999V29.1145C41.7999 29.7322 41.2973 30.2345 40.6799 30.2345C40.0625 30.2345 39.5599 29.7322 39.5599 29.1145V27.9945ZM42.9199 26.8745H46.2799V29.1145C46.2799 30.0409 45.5263 30.7945 44.5999 30.7945C43.6735 30.7945 42.9199 30.0409 42.9199 29.1145V26.8745ZM47.3999 26.8745H50.7599V29.1145C50.7599 30.0409 50.0063 30.7945 49.0799 30.7945C48.1535 30.7945 47.3999 30.0409 47.3999 29.1145V26.8745ZM51.8799 26.8745H54.1199V27.9945V29.1145C54.1199 29.7322 53.6173 30.2345 52.9999 30.2345C52.3825 30.2345 51.8799 29.7322 51.8799 29.1145V26.8745ZM55.2399 25.7545H57.4799V27.9945C57.4799 28.6122 56.9773 29.1145 56.3599 29.1145C55.7425 29.1145 55.2399 28.6122 55.2399 27.9945V25.7545ZM57.4799 24.6345H55.2399V22.9545V22.3945C55.2399 21.7768 55.7425 21.2745 56.3599 21.2745C56.9773 21.2745 57.4799 21.7768 57.4799 22.3945V24.6345ZM54.1199 25.7545H51.8799V22.9545C51.8799 22.3368 52.3825 21.8345 52.9999 21.8345C53.6173 21.8345 54.1199 22.3368 54.1199 22.9545V25.7545ZM50.7599 25.7545H47.3999V22.9545C47.3999 22.0281 48.1535 21.2745 49.0799 21.2745C50.0063 21.2745 50.7599 22.0281 50.7599 22.9545V25.7545ZM46.2799 25.7545H42.9199V22.9545C42.9199 22.0281 43.6735 21.2745 44.5999 21.2745C45.5263 21.2745 46.2799 22.0281 46.2799 22.9545V25.7545ZM41.7999 25.7545H39.5599V22.9545C39.5599 22.3368 40.0625 21.8345 40.6799 21.8345C41.2973 21.8345 41.7999 22.3368 41.7999 22.9545V25.7545ZM38.4399 24.6345H36.1999V22.3945C36.1999 21.7768 36.7025 21.2745 37.3199 21.2745C37.9373 21.2745 38.4399 21.7768 38.4399 22.3945V24.6345ZM58.8827 27.4345C59.3443 27.4345 59.7199 27.81 59.7199 28.2716V32.3731C59.7199 32.7937 59.4081 33.1518 58.9941 33.2066C50.6209 34.3099 42.4375 34.3137 34.6714 33.2172C34.2657 33.1601 33.9599 32.8032 33.9599 32.387V28.2716C33.9599 27.81 34.3357 27.4345 34.7971 27.4345H35.0799V27.9945C35.0799 29.2296 36.0845 30.2345 37.3199 30.2345C37.7841 30.2345 38.2158 30.0923 38.5739 29.8495C38.8798 30.7227 39.7033 31.3545 40.6799 31.3545C41.3064 31.3545 41.8719 31.0947 42.2787 30.6789C42.7824 31.4238 43.635 31.9145 44.5999 31.9145C45.519 31.9145 46.329 31.4633 46.8399 30.7771C47.3508 31.4633 48.1608 31.9145 49.0799 31.9145C50.0449 31.9145 50.8974 31.4238 51.4011 30.6789C51.8079 31.0947 52.3734 31.3545 52.9999 31.3545C53.9765 31.3545 54.8 30.7227 55.1059 29.8495C55.464 30.0923 55.8957 30.2345 56.3599 30.2345C57.5953 30.2345 58.5999 29.2296 58.5999 27.9945V27.4345H58.8827ZM59.7199 22.6774C59.7199 23.139 59.3441 23.5145 58.8827 23.5145H58.5999V22.3945C58.5999 21.1594 57.5953 20.1545 56.3599 20.1545C55.5423 20.1545 54.8333 20.5993 54.4422 21.2549C54.0513 20.9227 53.5519 20.7145 52.9999 20.7145C52.3734 20.7145 51.8079 20.9743 51.4011 21.3901C50.8974 20.6452 50.0448 20.1545 49.0799 20.1545C48.1608 20.1545 47.3508 20.6057 46.8399 21.2919C46.329 20.6057 45.519 20.1545 44.5999 20.1545C43.6349 20.1545 42.7824 20.6452 42.2787 21.3901C41.8719 20.9743 41.3064 20.7145 40.6799 20.7145C40.1279 20.7145 39.6285 20.9227 39.2376 21.2549C38.8465 20.5993 38.1375 20.1545 37.3199 20.1545C36.0845 20.1545 35.0799 21.1594 35.0799 22.3945V23.5145H34.7971C34.3355 23.5145 33.9599 23.139 33.9599 22.6774V19.7544C33.9599 19.7499 33.9574 19.7463 33.9574 19.7418L34.7677 18.26L36.3711 17.3833C36.551 17.2852 36.6626 17.0968 36.6626 16.8919C36.6626 16.7518 36.6073 16.6217 36.5167 16.5205C44.0255 14.7121 51.6238 14.8807 59.1234 17.0335C59.4745 17.1341 59.72 17.4655 59.72 17.839V22.6774H59.7199Z" fill="#3267FF"/>
<path d="M49.0687 17.9978C48.1734 17.9978 47.3319 18.3464 46.6997 18.9792C46.481 19.1979 46.481 19.5526 46.6997 19.7713C46.809 19.8804 46.9524 19.9351 47.0956 19.9351C47.2388 19.9351 47.3822 19.8804 47.4915 19.771C47.9126 19.3496 48.4726 19.1178 49.0687 19.1178C49.6189 19.1178 50.1477 19.3198 50.5574 19.6865C50.7871 19.8933 51.1409 19.8738 51.3481 19.6432C51.5543 19.4128 51.5351 19.0586 51.3044 18.8525C50.6891 18.3013 49.895 17.9978 49.0687 17.9978Z" fill="#3267FF"/>
</svg>
